<?xml version="1.0" standalone="no"?>
<!DOCTYPE svg PUBLIC "-//W3C//DTD SVG 20010904//EN"
 "http://www.w3.org/TR/2001/REC-SVG-20010904/DTD/svg10.dtd">
<svg version="1.0" xmlns="http://www.w3.org/2000/svg"
 width="2000.000000pt" height="651.000000pt" viewBox="0 0 2000.000000 651.000000"
 preserveAspectRatio="xMidYMid meet">
<metadata>
Created by potrace 1.16, written by Peter Selinger 2001-2019
</metadata>
<g transform="translate(0.000000,651.000000) scale(0.100000,-0.100000)"
fill="#000000" stroke="none">
<path d="M464 6491 c-81 -37 -154 -158 -154 -256 0 -59 16 -91 59 -118 l36
-22 652 -3 652 -3 -10 -27 c-6 -15 -30 -81 -54 -147 -24 -66 -78 -214 -120
-330 -43 -115 -96 -259 -118 -320 -21 -60 -45 -126 -53 -145 -37 -99 -77 -209
-89 -245 -7 -22 -23 -65 -35 -95 -12 -30 -28 -73 -35 -95 -7 -22 -20 -58 -28
-80 -46 -120 -83 -221 -117 -315 -21 -58 -72 -199 -115 -315 -42 -115 -97
-266 -122 -335 -25 -69 -51 -141 -59 -160 -36 -96 -77 -208 -84 -230 -4 -14
-20 -56 -35 -95 -15 -38 -33 -88 -40 -110 -7 -22 -27 -76 -43 -120 -17 -44
-83 -224 -147 -400 -65 -176 -128 -349 -142 -385 -13 -36 -39 -108 -58 -160
-19 -52 -41 -113 -49 -135 -50 -136 -79 -213 -86 -235 -4 -14 -20 -56 -35 -95
-16 -38 -30 -88 -32 -111 -4 -36 -1 -44 27 -67 54 -46 147 -68 338 -80 310
-19 585 12 722 83 99 50 97 46 226 390 14 36 31 81 39 100 7 19 25 67 40 105
25 68 39 104 70 183 19 48 97 254 120 314 20 53 20 53 175 63 398 26 1001 142
1295 250 39 14 82 30 97 35 70 22 265 129 345 189 247 184 472 479 618 811 20
47 122 321 227 610 105 289 212 584 238 655 26 72 55 150 63 175 9 25 30 83
47 130 62 168 83 272 83 420 1 120 -2 144 -26 220 -15 47 -41 110 -59 140 -39
70 -166 195 -241 239 -90 53 -225 99 -353 121 -113 19 -165 20 -1852 20 -1666
0 -1739 -1 -1778 -19z m2957 -427 c92 -21 156 -64 189 -129 22 -43 25 -61 24
-140 -1 -93 -5 -105 -89 -330 -14 -38 -30 -82 -34 -96 -12 -36 -114 -318 -174
-479 -27 -74 -65 -178 -83 -230 -18 -52 -47 -133 -64 -180 -18 -47 -35 -96
-40 -110 -5 -14 -22 -63 -40 -110 -17 -47 -38 -103 -45 -125 -7 -22 -25 -71
-39 -110 -14 -38 -40 -110 -58 -160 -132 -379 -435 -686 -808 -820 -123 -43
-400 -96 -400 -75 0 6 51 153 99 285 10 28 40 109 66 180 26 72 55 154 66 183
10 28 28 77 39 107 11 30 29 80 40 110 11 30 29 80 40 110 11 30 29 80 40 110
11 30 29 80 40 110 11 30 28 79 39 108 40 111 103 284 120 332 11 28 56 154
101 280 45 127 90 254 101 283 46 124 61 166 119 332 34 96 70 198 80 225 24
66 95 270 110 318 l12 37 239 0 c183 0 257 -4 310 -16z"/>
<path d="M12920 6484 c-93 -9 -308 -46 -405 -71 -620 -156 -1114 -525 -1440
-1073 -110 -185 -158 -294 -277 -625 -49 -137 -98 -274 -109 -302 -40 -111
-61 -170 -199 -553 -147 -410 -159 -442 -208 -575 -44 -117 -89 -267 -114
-381 -19 -85 -22 -130 -22 -324 -1 -217 0 -228 27 -323 110 -384 376 -643 784
-762 514 -150 1405 8 1887 333 27 18 52 34 57 35 6 1 19 -20 31 -48 105 -246
345 -375 693 -375 260 0 518 62 749 179 122 62 233 133 301 193 30 27 46 35
49 26 2 -7 9 -42 15 -78 27 -141 123 -232 292 -274 85 -21 166 -20 315 3 181
29 332 75 464 141 33 17 62 30 65 30 2 0 -5 -24 -16 -52 -12 -29 -25 -64 -29
-78 -5 -14 -19 -54 -33 -90 -13 -36 -59 -159 -102 -275 -42 -115 -90 -244
-105 -285 -23 -63 -63 -170 -156 -420 -7 -19 -27 -73 -44 -120 -81 -218 -75
-196 -58 -232 35 -74 171 -108 431 -108 352 0 527 66 584 220 12 30 30 80 41
110 47 125 126 339 147 400 19 54 71 195 151 410 18 49 65 177 107 293 19 54
38 101 40 104 3 2 14 0 24 -5 11 -6 60 -22 110 -36 333 -94 727 -68 1012 65
263 123 517 377 694 694 49 87 163 327 191 400 15 39 34 86 41 105 42 105 150
432 190 580 33 119 38 152 43 280 7 225 -29 331 -153 455 -108 109 -225 161
-426 191 -361 53 -901 -90 -1159 -308 -39 -32 -70 -55 -70 -50 0 4 9 42 20 83
27 102 26 126 -9 158 -90 84 -383 84 -506 0 -43 -30 -53 -49 -113 -209 -28
-74 -74 -198 -102 -275 -29 -77 -60 -162 -70 -190 -17 -49 -72 -198 -125 -340
-35 -93 -45 -121 -93 -250 -22 -60 -53 -141 -67 -180 -15 -38 -31 -81 -35 -95
-5 -14 -31 -86 -60 -160 -28 -74 -56 -150 -62 -169 -6 -23 -42 -67 -101 -126
-73 -72 -110 -99 -177 -133 -141 -71 -273 -91 -338 -52 -68 42 -67 101 9 305
28 77 70 190 92 250 21 61 45 126 53 145 7 19 26 71 42 115 120 321 147 396
163 440 10 28 30 82 44 120 15 39 30 81 35 95 5 14 20 57 35 95 119 315 128
357 100 461 -14 53 -28 77 -71 123 -66 72 -142 113 -268 146 -177 46 -332 30
-442 -46 -48 -33 -104 -96 -104 -118 0 -10 -11 -5 -32 16 -108 100 -359 172
-555 159 -394 -27 -655 -140 -914 -396 -160 -159 -274 -320 -394 -560 -83
-164 -129 -284 -246 -635 -88 -265 -87 -263 -215 -366 -309 -247 -889 -411
-1160 -328 -213 65 -347 210 -389 421 -37 188 -15 287 182 833 85 237 178 491
205 565 28 74 65 178 84 230 18 52 47 133 64 180 17 47 37 103 44 125 8 22 18
51 24 65 6 14 20 51 31 83 12 31 30 81 40 110 11 28 45 124 76 212 31 88 67
187 80 220 12 33 60 164 105 290 143 402 159 436 244 523 126 131 329 202 576
202 230 0 470 -117 470 -228 0 -79 -81 -307 -227 -640 -74 -168 -84 -198 -78
-230 11 -59 52 -110 111 -136 82 -36 139 -29 334 43 58 22 169 62 247 90 173
61 213 81 261 129 107 108 292 601 292 777 0 63 -27 156 -64 219 -75 128 -285
262 -521 331 -200 59 -337 76 -625 80 -146 1 -285 1 -310 -1z m2022 -2651 c47
-26 88 -75 88 -105 0 -9 -9 -37 -19 -64 -11 -27 -31 -80 -46 -119 -14 -38 -32
-86 -40 -105 -8 -19 -53 -138 -101 -265 -48 -126 -100 -264 -116 -305 -16 -41
-33 -86 -37 -100 -5 -14 -24 -65 -44 -115 -19 -49 -67 -175 -107 -280 -87
-231 -108 -271 -184 -352 -80 -86 -170 -131 -282 -140 -146 -11 -194 26 -194
149 0 73 22 148 115 393 15 39 31 81 35 95 5 14 22 61 38 105 40 107 137 369
177 480 18 50 47 128 65 175 17 47 35 96 40 110 87 272 218 438 370 471 67 15
189 1 242 -28z m3131 -27 c54 -20 73 -40 86 -92 14 -55 1 -142 -39 -252 -30
-83 -123 -337 -172 -467 -16 -44 -33 -91 -38 -105 -5 -14 -23 -63 -40 -110
-17 -47 -35 -96 -40 -110 -5 -14 -22 -61 -38 -105 -16 -44 -55 -147 -85 -230
-74 -200 -89 -235 -136 -304 -49 -71 -108 -124 -177 -157 -44 -21 -65 -24
-161 -24 -84 0 -128 5 -179 21 -38 11 -72 24 -77 28 -6 6 13 66 73 221 12 30
30 78 40 105 10 28 28 75 40 105 12 30 28 73 35 95 7 22 20 56 28 75 9 19 55
139 102 265 47 127 92 246 100 265 7 19 41 109 75 200 90 240 110 289 148 350
67 108 154 178 267 213 87 28 136 31 188 13z"/>
<path d="M19613 4266 c-88 -28 -158 -89 -194 -171 -32 -72 -32 -201 0 -268 46
-99 121 -157 227 -177 131 -26 255 28 326 139 27 43 28 50 28 168 0 143 -10
173 -82 240 -80 73 -202 101 -305 69z m194 -88 c153 -71 165 -325 19 -424 -42
-29 -92 -38 -164 -29 -52 6 -62 11 -109 60 -43 44 -53 62 -63 111 -26 125 24
243 120 286 71 31 124 30 197 -4z"/>
<path d="M19580 3954 l0 -175 38 3 37 3 0 68 c0 61 2 68 19 65 12 -2 36 -29
60 -70 40 -67 42 -68 83 -68 24 0 43 3 43 8 0 4 -20 36 -44 72 l-43 65 28 12
c36 15 49 41 49 98 0 37 -5 51 -26 70 -25 23 -34 25 -135 25 l-109 0 0 -176z
m192 94 c20 -33 -10 -58 -70 -58 l-48 0 4 41 4 42 51 -6 c28 -4 54 -12 59 -19z"/>
<path d="M5580 4255 c-211 -18 -432 -65 -590 -125 -30 -12 -71 -27 -90 -35
-54 -20 -185 -91 -243 -131 -194 -135 -267 -241 -442 -639 -8 -16 -25 -55 -38
-85 -13 -30 -43 -100 -66 -155 -23 -55 -54 -127 -68 -160 -14 -32 -45 -107
-68 -165 -23 -58 -47 -116 -53 -130 -14 -32 -112 -284 -146 -373 -14 -37 -30
-105 -36 -151 -32 -238 86 -439 329 -561 92 -46 170 -71 306 -98 146 -28 447
-30 640 -3 492 67 838 221 1048 464 91 105 103 129 243 482 36 91 70 176 76
190 6 14 18 48 28 75 10 28 27 73 38 100 28 74 113 301 169 451 l48 131 100 6
c182 11 338 52 497 133 79 40 87 42 79 21 -11 -30 -97 -259 -161 -432 -29 -77
-78 -212 -110 -300 -32 -88 -63 -171 -68 -185 -6 -14 -19 -50 -31 -80 -11 -30
-43 -118 -72 -195 -29 -77 -58 -156 -65 -175 -7 -19 -26 -71 -42 -115 -17 -44
-71 -192 -122 -330 -51 -137 -105 -284 -120 -325 -15 -41 -54 -145 -85 -230
-32 -85 -69 -184 -82 -220 -33 -88 -41 -110 -111 -300 -34 -91 -73 -196 -87
-235 -15 -38 -30 -81 -35 -95 -4 -14 -17 -49 -29 -78 -13 -32 -19 -63 -15 -78
7 -27 53 -66 99 -84 102 -40 411 -53 585 -25 200 32 301 96 344 215 34 95 205
561 283 770 13 36 28 76 33 90 4 14 22 63 40 110 17 47 38 103 46 125 59 169
80 213 94 205 30 -16 207 -62 300 -77 123 -20 336 -20 475 0 590 87 1005 528
1317 1402 151 423 202 627 202 800 0 328 -191 543 -534 600 -373 63 -893 -60
-1186 -280 -47 -36 -88 -64 -89 -63 -2 2 5 37 16 78 27 107 25 123 -16 159
-54 47 -127 64 -259 59 -138 -5 -206 -28 -278 -93 -80 -72 -226 -179 -299
-219 -115 -63 -200 -87 -309 -88 -107 -1 -155 16 -209 75 -17 17 -54 58 -83
91 -143 158 -355 250 -648 281 -158 17 -251 17 -450 0z m171 -395 c89 -25 119
-113 81 -240 -18 -58 -254 -686 -302 -800 -21 -52 -65 -167 -184 -485 -124
-328 -126 -333 -185 -399 -63 -69 -188 -117 -311 -118 -89 -1 -149 24 -180 75
-27 43 -26 123 1 190 27 66 42 105 74 192 15 39 33 86 40 105 8 19 25 64 38
100 14 36 43 112 65 170 22 58 58 155 81 215 23 61 49 126 56 145 8 19 26 65
40 103 14 37 36 97 50 135 14 37 32 83 40 102 8 19 35 91 60 160 26 69 59 147
73 174 46 85 145 155 247 176 57 11 174 12 216 0z m3124 -66 c54 -25 69 -58
68 -144 0 -71 -9 -99 -148 -480 -81 -223 -159 -434 -172 -470 -14 -36 -29 -76
-33 -90 -5 -14 -22 -63 -40 -110 -17 -47 -47 -130 -67 -185 -62 -179 -116
-278 -191 -353 -37 -37 -89 -78 -117 -92 -45 -23 -61 -25 -166 -23 -93 1 -129
6 -185 25 -78 27 -77 25 -39 123 13 33 62 164 109 290 48 127 93 246 101 265
7 19 59 157 115 305 114 301 136 361 173 455 14 36 37 96 52 135 69 184 180
302 328 345 78 23 169 25 212 4z"/>
</g>
</svg>
