<?xml version="1.0" standalone="no"?>
<!DOCTYPE svg PUBLIC "-//W3C//DTD SVG 20010904//EN"
 "http://www.w3.org/TR/2001/REC-SVG-20010904/DTD/svg10.dtd">
<svg version="1.0" xmlns="http://www.w3.org/2000/svg"
 width="3840.000000pt" height="1060.000000pt" viewBox="0 0 3840.000000 1060.000000"
 preserveAspectRatio="xMidYMid meet">
<metadata>
Created by potrace 1.16, written by Peter Selinger 2001-2019
</metadata>
<g transform="translate(0.000000,1060.000000) scale(0.100000,-0.100000)"
fill="#000000" stroke="none">
<path d="M3910 10593 c-1319 -94 -2492 -773 -3214 -1861 -360 -542 -571 -1102
-668 -1776 l-22 -151 -3 -3347 -3 -3348 870 0 870 0 0 3188 c0 2006 4 3231 10
3307 64 780 491 1476 1158 1888 296 184 661 309 1004 346 66 8 1121 11 3288
11 2862 0 3194 -2 3228 -16 177 -73 175 -321 -3 -401 -38 -17 -186 -18 -3285
-24 -3512 -6 -3254 -2 -3467 -55 -759 -189 -1340 -834 -1459 -1619 -22 -149
-22 -434 0 -575 90 -563 390 -1033 857 -1348 223 -150 476 -249 774 -305 109
-21 134 -21 3341 -26 l3230 -6 42 -28 c113 -74 136 -225 49 -323 -16 -20 -49
-45 -71 -57 l-41 -22 -3245 -5 c-3581 -7 -3267 -1 -3510 -66 -253 -68 -520
-206 -725 -374 -94 -77 -257 -247 -327 -341 -457 -612 -521 -1432 -164 -2105
310 -583 897 -973 1561 -1034 72 -7 1502 -10 4173 -10 l4062 0 0 875 0 875
-4052 0 c-3910 0 -4054 1 -4093 19 -171 78 -177 305 -12 394 l42 22 3235 5
c3562 6 3265 0 3513 65 537 139 1002 522 1253 1030 450 912 133 2005 -738
2547 -238 148 -530 246 -830 278 -65 7 -1145 10 -3250 10 -2275 0 -3164 3
-3193 11 -79 22 -155 124 -155 209 0 84 75 184 156 208 32 9 740 12 3198 12
2152 0 3188 3 3254 11 461 50 870 247 1194 575 160 162 270 317 369 519 330
674 243 1479 -225 2080 -62 80 -214 234 -301 305 -217 177 -483 310 -765 382
-243 61 -56 58 -3615 56 -1787 -1 -3270 -3 -3295 -5z"/>
<path d="M13550 8060 l0 -2540 415 0 415 0 0 1010 0 1010 363 -1 362 -1 900
-1008 900 -1009 508 0 c279 -1 507 2 507 7 0 4 -409 459 -908 1012 -556 615
-902 1006 -893 1007 9 1 77 9 151 18 411 50 748 203 1001 455 116 115 162 173
232 295 134 231 196 506 184 820 -15 406 -144 713 -407 975 -130 130 -247 213
-415 296 -207 101 -417 159 -669 183 -71 7 -557 11 -1378 11 l-1268 0 0 -2540z
m2529 1790 c139 -15 244 -44 356 -99 296 -146 449 -404 432 -726 -7 -131 -23
-193 -76 -301 -94 -189 -301 -344 -541 -403 -142 -35 -294 -41 -1097 -41
l-773 0 0 790 0 790 803 0 c456 0 842 -5 896 -10z"/>
<path d="M18140 8060 l0 -2540 410 0 410 0 0 2540 0 2540 -410 0 -410 0 0
-2540z"/>
<path d="M19290 8060 l0 -2540 410 0 410 0 0 895 0 895 824 0 c500 0 865 4
927 10 791 80 1358 548 1508 1245 45 209 52 504 15 715 -75 436 -305 785 -679
1030 -226 147 -543 250 -865 279 -73 7 -562 11 -1332 11 l-1218 0 0 -2540z
m2547 1777 c310 -63 550 -235 668 -481 123 -259 108 -625 -37 -871 -57 -96
-192 -228 -292 -284 -43 -24 -122 -59 -175 -78 -180 -61 -209 -63 -1093 -63
l-798 0 0 901 0 900 823 -4 c713 -3 833 -6 904 -20z"/>
<path d="M23670 8060 l0 -2540 410 0 410 0 0 895 0 895 828 0 c878 0 961 4
1174 50 378 82 703 270 927 534 253 298 366 632 364 1076 -1 389 -94 693 -296
966 -72 97 -237 258 -341 331 -168 119 -402 223 -611 271 -251 58 -191 56
-1582 59 l-1283 4 0 -2541z m2422 1790 c441 -42 747 -277 845 -649 32 -122 36
-330 9 -456 -74 -338 -312 -566 -685 -658 -83 -20 -112 -21 -928 -24 l-843 -4
0 901 0 900 748 0 c427 0 793 -4 854 -10z"/>
<path d="M28040 8060 l0 -2540 1800 0 1800 0 0 370 0 370 -1390 0 -1390 0 0
2170 0 2170 -410 0 -410 0 0 -2540z"/>
<path d="M31960 8060 l0 -2540 1895 0 1895 0 0 370 0 370 -1485 0 -1485 0 0
720 0 720 1365 0 1365 0 0 370 0 370 -1365 0 -1365 0 0 710 0 710 1480 0 1480
0 0 370 0 370 -1890 0 -1890 0 0 -2540z"/>
<path d="M31935 5294 c-344 -35 -532 -76 -775 -171 -232 -91 -470 -229 -670
-389 -109 -88 -336 -315 -424 -424 -290 -363 -471 -781 -542 -1252 -22 -146
-29 -504 -15 -669 62 -674 348 -1251 846 -1702 393 -355 823 -563 1350 -650
179 -29 677 -32 855 -4 306 48 535 118 785 242 616 303 1015 776 1218 1442
l25 83 -434 0 c-292 0 -434 -3 -434 -10 0 -23 -115 -239 -173 -324 -83 -124
-275 -314 -397 -395 -517 -342 -1236 -387 -1804 -112 -360 175 -685 512 -853
886 -125 277 -169 520 -160 874 5 199 15 288 52 431 116 463 416 871 825 1123
301 185 689 274 1077 247 618 -45 1107 -351 1365 -857 l63 -123 438 0 c261 0
437 4 437 9 0 5 -21 69 -46 143 -189 546 -535 963 -1049 1263 -285 166 -597
271 -956 320 -108 15 -517 28 -604 19z"/>
<path d="M13550 2650 l0 -2540 1895 0 1895 0 0 375 0 375 -1480 0 -1480 0 0
715 0 715 1365 0 1365 0 0 370 0 370 -1365 0 -1365 0 0 710 0 710 1480 0 1480
0 0 370 0 370 -1895 0 -1895 0 0 -2540z"/>
<path d="M17660 2650 l0 -2540 410 0 410 0 0 1050 0 1050 1310 0 1310 0 0 370
0 370 -1310 0 -1310 0 0 750 0 750 1450 0 1450 0 0 370 0 370 -1860 0 -1860 0
0 -2540z"/>
<path d="M21710 2650 l0 -2540 408 2 407 3 3 1048 2 1047 1305 0 1305 0 0 370
0 370 -1305 0 -1305 0 0 750 0 750 1445 0 1445 0 0 370 0 370 -1855 0 -1855 0
0 -2540z"/>
<path d="M25750 2650 l0 -2540 1895 0 1895 0 0 375 0 375 -1485 0 -1485 0 0
715 0 715 1320 0 1320 0 0 370 0 370 -1320 0 -1320 0 0 710 0 710 1480 0 1480
0 0 370 0 370 -1890 0 -1890 0 0 -2540z"/>
<path d="M34430 4820 l0 -370 720 0 720 0 0 -2170 0 -2170 415 0 415 0 0 2170
0 2170 725 0 725 0 0 370 0 370 -1860 0 -1860 0 0 -370z"/>
</g>
</svg>
