<?xml version="1.0" standalone="no"?>
<!DOCTYPE svg PUBLIC "-//W3C//DTD SVG 20010904//EN"
 "http://www.w3.org/TR/2001/REC-SVG-20010904/DTD/svg10.dtd">
<svg version="1.0" xmlns="http://www.w3.org/2000/svg"
 width="2000.000000pt" height="339.000000pt" viewBox="0 0 2000.000000 339.000000"
 preserveAspectRatio="xMidYMid meet">

<g transform="translate(0.000000,339.000000) scale(0.100000,-0.100000)"
fill="#000000" stroke="none">
<path d="M5735 3373 c-83 -11 -236 -46 -318 -73 -365 -122 -679 -366 -889
-690 -113 -173 -198 -383 -240 -592 -31 -152 -33 -460 -4 -613 124 -665 598
-1179 1239 -1345 145 -38 249 -50 422 -50 289 0 506 51 760 178 157 78 273
161 404 287 143 138 252 283 335 444 116 228 168 422 188 701 13 196 8 232
-37 277 l-33 33 -335 0 -335 0 -4 -202 c-5 -183 -8 -212 -32 -291 -52 -173
-134 -306 -266 -430 -134 -126 -284 -203 -461 -238 -326 -63 -647 40 -872 281
-301 321 -340 810 -94 1175 123 183 324 325 542 385 66 18 115 23 278 27 l197
5 0 330 c0 342 -2 356 -44 390 -18 15 -44 17 -196 16 -96 0 -188 -3 -205 -5z"/>
<path d="M10 1695 l0 -1675 370 0 370 0 0 1222 0 1222 263 -449 c144 -248 393
-674 552 -947 160 -274 292 -497 295 -498 3 0 55 87 117 193 61 105 241 415
401 687 159 272 470 806 692 1185 222 380 410 700 418 713 l14 22 -428 0 -429
0 -195 -332 c-107 -183 -281 -481 -387 -663 -107 -181 -198 -330 -203 -330 -8
0 -189 305 -663 1118 l-121 207 -533 0 -533 0 0 -1675z"/>
<path d="M7630 3005 l0 -365 495 0 495 0 0 -1310 0 -1310 370 0 370 0 2 1307
3 1308 493 3 492 2 0 365 0 365 -1360 0 -1360 0 0 -365z"/>
<path d="M10950 1695 l0 -1675 365 0 365 0 0 1675 0 1675 -365 0 -365 0 0
-1675z"/>
<path d="M12190 3365 c0 -4 239 -460 680 -1295 l76 -145 347 -3 c301 -2 352 0
378 14 35 18 63 75 56 113 -3 14 -158 316 -345 671 l-339 645 -427 3 c-234 1
-426 0 -426 -3z"/>
<path d="M14836 3308 c-19 -35 -251 -475 -516 -978 -266 -503 -553 -1048 -638
-1210 l-156 -295 53 -100 c29 -55 123 -233 208 -395 86 -162 158 -298 162
-302 4 -4 48 70 98 165 49 94 411 780 803 1522 812 1538 870 1648 870 1652 0
2 -191 3 -425 3 l-424 0 -35 -62z"/>
<path d="M16200 2838 l0 -533 520 -304 c286 -168 520 -305 520 -306 0 -1 -234
-138 -520 -306 l-520 -304 0 -428 0 -429 33 20 c32 20 943 553 1917 1122 294
172 539 316 543 320 8 7 -102 72 -1083 645 -261 153 -482 284 -490 291 -12 12
147 14 1058 14 l1072 0 0 365 0 365 -1525 0 -1525 0 0 -532z"/>
<path d="M19640 3355 c0 -10 10 -15 30 -15 30 0 30 -1 30 -55 0 -48 2 -55 20
-55 18 0 20 7 20 55 0 52 1 55 25 55 16 0 25 6 25 15 0 12 -15 15 -75 15 -60
0 -75 -3 -75 -15z"/>
<path d="M19810 3300 c0 -63 2 -70 20 -70 16 0 20 7 20 38 l1 37 20 -37 c25
-48 44 -48 61 -1 l13 36 5 -34 c3 -22 11 -35 23 -37 15 -3 17 5 17 67 0 68 -1
71 -23 71 -18 0 -28 -10 -42 -40 -10 -22 -21 -40 -24 -40 -3 0 -14 18 -23 40
-13 32 -22 40 -42 40 -25 0 -26 -1 -26 -70z"/>
<path d="M3020 1893 c-19 -17 -35 -44 -40 -68 -6 -23 -10 -420 -10 -922 l0
-883 370 0 370 0 0 950 0 950 -330 0 -330 0 -30 -27z"/>
<path d="M17664 716 l-34 -34 0 -331 0 -331 810 0 810 0 0 365 0 365 -776 0
-776 0 -34 -34z"/>
</g>
</svg>
