<?xml version="1.0" encoding="UTF-8"?>
<svg version="1.1" xmlns="http://www.w3.org/2000/svg" width="2000" height="530">
<path d="M0 0 C175.23 0 350.46 0 531 0 C531 36.3 531 72.6 531 110 C392.73 110.33 254.46 110.66 112 111 C112 212.64 112 314.28 112 419 C250.27 419.33 388.54 419.66 531 420 C531 456.3 531 492.6 531 530 C355.77 530 180.54 530 0 530 C0 355.1 0 180.2 0 0 Z " fill="#19161A" transform="translate(839,0)"/>
<path d="M0 0 C174.9 0 349.8 0 530 0 C530 174.9 530 349.8 530 530 C355.1 530 180.2 530 0 530 C0 493.7 0 457.4 0 420 C138.27 420 276.54 420 419 420 C419 317.7 419 215.4 419 110 C280.73 110 142.46 110 0 110 C0 73.7 0 37.4 0 0 Z " fill="#19161A" transform="translate(0,0)"/>
<path d="M0 0 C36.96 0 73.92 0 112 0 C112 174.9 112 349.8 112 530 C75.04 530 38.08 530 0 530 C0 355.1 0 180.2 0 0 Z " fill="#19161A" transform="translate(629,0)"/>
<path d="M0 0 C1.27151411 0.00394052 1.27151411 0.00394052 2.56871536 0.00796065 C3.46470726 0.0068068 4.36069916 0.00565296 5.28384233 0.00446415 C8.32576802 0.00178959 11.36764216 0.0063265 14.40956524 0.01075396 C16.59657262 0.01031843 18.78357994 0.00944386 20.97058699 0.00816479 C27.01116835 0.00591627 33.05173217 0.00994598 39.09231129 0.01494285 C45.59474028 0.01924207 52.09716819 0.01780131 58.5995982 0.01704058 C69.87574453 0.01634181 81.15188546 0.01963054 92.42803028 0.02527842 C104.25862113 0.03118885 116.08920967 0.03504303 127.91980198 0.03613123 C128.65449703 0.03619997 129.38919209 0.03626871 130.14615063 0.03633953 C133.87706547 0.03667785 137.60798032 0.03697924 141.33889516 0.03726641 C167.78737509 0.03936864 194.23585202 0.04611108 220.68433025 0.05556902 C246.38387436 0.06474857 272.08341765 0.07183457 297.78296307 0.07607684 C298.57468117 0.07620836 299.36639928 0.07633989 300.18210885 0.0764754 C308.13263118 0.07779388 316.08315352 0.0790697 324.03367587 0.08031426 C340.23082092 0.08285069 356.42796592 0.08567195 372.62511089 0.08866534 C373.74226865 0.08887127 373.74226865 0.08887127 374.88199526 0.08908137 C397.71707265 0.09330573 420.55214954 0.09873767 443.38722637 0.10535845 C445.30681888 0.10591429 445.30681888 0.10591429 447.26519104 0.10648135 C472.89961461 0.11397713 498.53403781 0.12264446 524.16846111 0.13100848 C524.16846111 36.76100848 524.16846111 73.39100848 524.16846111 111.13100848 C348.93846111 111.13100848 173.70846111 111.13100848 -6.83153889 111.13100848 C-6.83153889 0.0201487 -6.83153889 0.0201487 0 0 Z " fill="#19161A" transform="translate(1475.8315388858318,208.8689915239811)"/>
<path d="M0 0 C175.23 0 350.46 0 531 0 C531 36.3 531 72.6 531 110 C355.77 110 180.54 110 0 110 C0 73.7 0 37.4 0 0 Z " fill="#19161A" transform="translate(1469,420)"/>
<path d="M0 0 C175.23 0 350.46 0 531 0 C531 36.3 531 72.6 531 110 C355.77 110 180.54 110 0 110 C0 73.7 0 37.4 0 0 Z " fill="#19161A" transform="translate(1469,0)"/>
</svg>
