<?xml version="1.0" encoding="UTF-8"?>
<svg version="1.1" xmlns="http://www.w3.org/2000/svg" width="1200" height="1200">
<path d="M0 0 C2.25546719 0.0056467 4.51092684 0.00846312 6.76639938 0.0110817 C28.57270405 0.0478792 50.13097015 0.50170492 71.78254318 3.31805801 C73.19778992 3.49235743 74.61315894 3.66566624 76.02863693 3.83807755 C97.83970978 6.520649 119.36493524 10.40929149 140.78254318 15.31805801 C141.43420456 15.46738785 142.08586594 15.61671768 142.75727463 15.77057266 C164.90296201 20.88325506 186.37300639 27.7458038 207.78254318 35.31805801 C208.44701462 35.5528688 209.11148605 35.7876796 209.79609299 36.02960587 C228.64706029 42.71599453 246.78950896 50.59609185 264.78254318 59.31805801 C265.82781174 59.81950333 266.87308029 60.32094864 267.95002365 60.83758926 C283.35410502 68.24522998 298.1669766 76.46099637 312.78254318 85.31805801 C313.80444748 85.93616348 314.82635178 86.55426895 315.87922287 87.19110489 C328.48944156 94.85451154 340.73013813 102.84781093 352.55988693 111.66913223 C354.91319633 113.41498589 357.28336008 115.13586974 359.65754318 116.85321426 C367.99046275 122.89887521 376.11019547 129.06673608 383.88410568 135.81805801 C386.59468143 138.15602092 389.35951109 140.39869664 392.15754318 142.63055801 C398.11149449 147.47194616 403.65523621 152.7211971 409.23176193 157.98602676 C411.99334414 160.59075866 414.80370581 163.12676543 417.65754318 165.63055801 C422.41980101 169.88857678 426.94612115 174.37263013 431.47004318 178.88055801 C432.18337814 179.58930069 432.8967131 180.29804337 433.63166428 181.02826309 C437.64176118 185.05001454 441.47310681 189.17020557 445.18122482 193.47162247 C447.44618387 196.08328359 449.80126795 198.60092319 452.15754318 201.13055801 C456.39440735 205.72230482 460.43660201 210.42759915 464.35285568 215.29852676 C466.14418579 217.52472961 467.94992621 219.73293917 469.77473068 221.93133926 C477.27884191 231.00427411 484.31411988 240.33341215 491.10578537 249.94989395 C492.82286646 252.37500847 494.55581483 254.78822092 496.29035568 257.20087051 C503.88606988 267.82986017 510.84418693 278.70364667 517.41828537 289.99090958 C518.6789148 292.14128892 519.96258831 294.27512024 521.25910568 296.40399551 C563.14836523 365.55870527 588.85614409 444.71121476 599.03254318 524.75555801 C599.18368576 525.93641983 599.33482834 527.11728165 599.49055099 528.33392715 C599.96940209 532.324443 600.3925169 536.31809121 600.78254318 540.31805801 C600.86974625 541.20174057 600.95694931 542.08542313 601.04679489 542.99588394 C602.78392712 561.18084813 603.14702691 579.28646306 603.1006012 597.53551483 C603.0949545 599.79098202 603.09213807 602.04644167 603.0895195 604.30191422 C603.05272199 626.10821888 602.59889627 647.66648498 599.78254318 669.31805801 C599.60824376 670.73330475 599.43493496 672.14867377 599.26252365 673.56415176 C596.5799522 695.37522461 592.69130971 716.90045007 587.78254318 738.31805801 C587.63321335 738.96971939 587.48388351 739.62138077 587.33002853 740.29278946 C582.21734614 762.43847684 575.35479739 783.90852122 567.78254318 805.31805801 C567.54773239 805.98252945 567.3129216 806.64700089 567.07099533 807.33160782 C560.38460666 826.18257513 552.50450935 844.32502379 543.78254318 862.31805801 C543.28109787 863.36332657 542.77965256 864.40859512 542.26301193 865.48553848 C534.85537122 880.88961985 526.63960483 895.70249143 517.78254318 910.31805801 C517.16443771 911.33996231 516.54633224 912.36186661 515.90949631 913.4147377 C508.24608965 926.02495639 500.25279027 938.26565296 491.43146896 950.09540176 C489.68561531 952.44871116 487.96473146 954.81887491 486.24738693 957.19305801 C480.20172598 965.52597758 474.03386511 973.6457103 467.28254318 981.41962051 C464.94458027 984.13019626 462.70190456 986.89502592 460.47004318 989.69305801 C455.62865504 995.64700932 450.3794041 1001.19075105 445.11457443 1006.76727676 C442.50984254 1009.52885897 439.97383577 1012.33922064 437.47004318 1015.19305801 C433.21202442 1019.95531584 428.72797106 1024.48163598 424.22004318 1029.00555801 C423.51130051 1029.71889297 422.80255783 1030.43222794 422.0723381 1031.16717911 C418.05058665 1035.17727601 413.93039562 1039.00862164 409.62897873 1042.71673965 C407.01731761 1044.98169871 404.49967801 1047.33678278 401.97004318 1049.69305801 C397.37829637 1053.92992218 392.67300204 1057.97211684 387.80207443 1061.88837051 C385.57587158 1063.67970062 383.36766202 1065.48544104 381.16926193 1067.31024551 C372.09632709 1074.81435674 362.76718904 1081.84963471 353.15070724 1088.6413002 C350.72559272 1090.35838129 348.31238028 1092.09132966 345.89973068 1093.82587051 C335.27074103 1101.42158472 324.39695453 1108.37970177 313.10969162 1114.9538002 C310.95931228 1116.21442963 308.82548095 1117.49810314 306.69660568 1118.79462051 C237.54189593 1160.68388006 158.38938644 1186.39165892 78.34504318 1196.56805801 C77.16418137 1196.71920059 75.98331955 1196.87034317 74.76667404 1197.02606583 C70.77615819 1197.50491692 66.78250999 1197.92803173 62.78254318 1198.31805801 C61.89886063 1198.40526108 61.01517807 1198.49246414 60.10471725 1198.58230972 C41.91975306 1200.31944195 23.81413814 1200.68254175 5.56508636 1200.63611603 C3.30961918 1200.63046933 1.05415953 1200.6276529 -1.20131302 1200.62503433 C-23.00761768 1200.58823682 -44.56588378 1200.13441111 -66.21745682 1197.31805801 C-67.63270355 1197.1437586 -69.04807258 1196.97044979 -70.46355057 1196.79803848 C-92.27462341 1194.11546703 -113.79984887 1190.22682454 -135.21745682 1185.31805801 C-135.86911819 1185.16872818 -136.52077957 1185.01939835 -137.19218826 1184.86554337 C-159.33787564 1179.75286097 -180.80792002 1172.89031222 -202.21745682 1165.31805801 C-203.21416397 1164.96584183 -203.21416397 1164.96584183 -204.23100662 1164.60651016 C-223.08197393 1157.9201215 -241.2244226 1150.04002418 -259.21745682 1141.31805801 C-260.78535965 1140.56589005 -260.78535965 1140.56589005 -262.38493729 1139.79852676 C-277.78901866 1132.39088605 -292.60189023 1124.17511966 -307.21745682 1115.31805801 C-308.23936111 1114.69995255 -309.26126541 1114.08184708 -310.31413651 1113.44501114 C-322.92435519 1105.78160449 -335.16505177 1097.7883051 -346.99480057 1088.9669838 C-349.34810997 1087.22113014 -351.71827372 1085.50024629 -354.09245682 1083.78290176 C-362.42537639 1077.73724082 -370.5451091 1071.56937995 -378.31901932 1064.81805801 C-381.02959507 1062.4800951 -383.79442473 1060.23741939 -386.59245682 1058.00555801 C-392.54640813 1053.16416987 -398.09014985 1047.91491893 -403.66667557 1042.65008926 C-406.42825778 1040.04535737 -409.23861944 1037.5093506 -412.09245682 1035.00555801 C-416.85471465 1030.74753925 -421.38103478 1026.26348589 -425.90495682 1021.75555801 C-426.61829178 1021.04681534 -427.33162674 1020.33807266 -428.06657791 1019.60785294 C-432.07667482 1015.58610148 -435.90802045 1011.46591045 -439.61613846 1007.16449356 C-441.88109751 1004.55283244 -444.23618158 1002.03519284 -446.59245682 999.50555801 C-450.82932099 994.91381121 -454.87151565 990.20851687 -458.78776932 985.33758926 C-460.57909942 983.11138641 -462.38483984 980.90317685 -464.20964432 978.70477676 C-471.71375555 969.63184192 -478.74903351 960.30270387 -485.54069901 950.68622208 C-487.25778009 948.26110755 -488.99072846 945.84789511 -490.72526932 943.43524551 C-498.32098352 932.80625586 -505.27910057 921.93246936 -511.85319901 910.64520645 C-513.11382844 908.49482711 -514.39750194 906.36099578 -515.69401932 904.23212051 C-557.58327886 835.07741076 -583.29105772 755.92490127 -593.46745682 675.88055801 C-593.69417068 674.10926529 -593.69417068 674.10926529 -593.92546463 672.30218887 C-594.40431572 668.31167302 -594.82743054 664.31802482 -595.21745682 660.31805801 C-595.30465988 659.43437546 -595.39186295 658.5506929 -595.48170853 657.64023209 C-597.21884075 639.4552679 -597.58194055 621.34965297 -597.53551483 603.1006012 C-597.52986813 600.84513401 -597.52705171 598.58967436 -597.52443314 596.33420181 C-597.48763563 574.52789715 -597.03380991 552.96963105 -594.21745682 531.31805801 C-594.0431574 529.90281128 -593.86984859 528.48744226 -593.69743729 527.07196426 C-591.01486583 505.26089142 -587.12622335 483.73566596 -582.21745682 462.31805801 C-582.06812698 461.66639664 -581.91879715 461.01473526 -581.76494217 460.34332657 C-576.65225977 438.19763919 -569.78971103 416.72759481 -562.21745682 395.31805801 C-561.98264603 394.65358658 -561.74783524 393.98911514 -561.50590897 393.30450821 C-554.8195203 374.4535409 -546.93942299 356.31109224 -538.21745682 338.31805801 C-537.71601151 337.27278946 -537.21456619 336.2275209 -536.69792557 335.15057755 C-529.29028485 319.74649618 -521.07451847 304.9336246 -512.21745682 290.31805801 C-511.29029861 288.78520157 -511.29029861 288.78520157 -510.34440994 287.22137833 C-502.68100329 274.61115964 -494.6877039 262.37046307 -485.8663826 250.54071426 C-484.12052894 248.18740486 -482.3996451 245.81724111 -480.68230057 243.44305801 C-474.63663962 235.11013844 -468.46877875 226.99040573 -461.71745682 219.21649551 C-459.37949391 216.50591976 -457.13681819 213.74109011 -454.90495682 210.94305801 C-450.06356867 204.9891067 -444.81431773 199.44536498 -439.54948807 193.86883926 C-436.94475617 191.10725705 -434.4087494 188.29689539 -431.90495682 185.44305801 C-427.64693805 180.68080018 -423.1628847 176.15448005 -418.65495682 171.63055801 C-417.94621414 170.91722305 -417.23747147 170.20388809 -416.50725174 169.46893692 C-412.48550029 165.45884002 -408.36530926 161.62749438 -404.06389236 157.91937637 C-401.45223124 155.65441732 -398.93459164 153.29933325 -396.40495682 150.94305801 C-391.81321001 146.70619385 -387.10791568 142.66399919 -382.23698807 138.74774551 C-380.01078522 136.95641541 -377.80257566 135.15067499 -375.60417557 133.32587051 C-366.53124072 125.82175929 -357.20210268 118.78648132 -347.58562088 111.99481583 C-345.16050636 110.27773474 -342.74729391 108.54478637 -340.33464432 106.81024551 C-329.70565466 99.21453131 -318.83186816 92.25641426 -307.54460526 85.68231583 C-305.39422592 84.42168639 -303.26039459 83.13801289 -301.13151932 81.84149551 C-231.97680956 39.95223597 -152.82430007 14.24445711 -72.77995682 4.06805801 C-71.00866409 3.84134415 -71.00866409 3.84134415 -69.20158768 3.6100502 C-65.21107183 3.13119911 -61.21742362 2.70808429 -57.21745682 2.31805801 C-56.33377426 2.23085495 -55.45009171 2.14365189 -54.53963089 2.0538063 C-36.3546667 0.31667408 -18.24905177 -0.04642572 0 0 Z M-245.30646062 376.79854465 C-246.01039343 378.51994121 -246.68455513 380.25391681 -247.32344007 382.0005002 C-248.48541505 385.0126856 -250.10783332 387.58107461 -251.92448807 390.23993301 C-252.69840897 391.44722061 -252.69840897 391.44722061 -253.48796463 392.67889786 C-253.99682205 393.46732071 -254.50567947 394.25574356 -255.02995682 395.06805801 C-261.93641917 405.84797574 -268.72573444 416.69861447 -275.49724197 427.56366348 C-277.12107228 430.16372785 -278.75154879 432.75945434 -280.38542557 435.35321426 C-280.85818924 436.10489883 -281.33095291 436.8565834 -281.81804276 437.6310463 C-282.68543203 439.00942859 -283.55447499 440.38677216 -284.42546463 441.76288223 C-286.36670106 444.3549253 -286.36670106 444.3549253 -287.21745682 447.31805801 C-243.66718522 447.91372062 -200.1173462 448.37158174 -156.56380111 448.64575658 C-151.41709636 448.6782733 -146.27039961 448.71192584 -141.12370682 448.74628067 C-140.0991323 448.75310074 -139.07455779 448.75992081 -138.01893556 448.76694755 C-121.44832057 448.87995589 -104.88006084 449.08487479 -88.3108412 449.32403071 C-71.29744439 449.56754177 -54.28527715 449.71166077 -37.27020931 449.76435888 C-26.77700009 449.79996608 -16.29044694 449.91219458 -5.79928863 450.12388615 C1.40418212 450.26179593 8.60423568 450.30276517 15.80892932 450.26909383 C19.96321153 450.25249466 24.10591844 450.27706413 28.25811386 450.41740036 C45.03116878 451.4110381 45.03116878 451.4110381 59.64604187 444.77977705 C64.84437579 438.78958985 68.17543272 431.70704927 71.33154869 424.48460841 C73.41739742 419.93259587 76.07191911 415.8484601 78.84504318 411.69305801 C79.80282512 410.18998219 80.75764607 408.68501181 81.70832443 407.17743301 C82.19639572 406.40721817 82.68446701 405.63700333 83.18732834 404.84344864 C88.75724618 396.02569073 94.26729596 387.17007041 99.78254318 378.31805801 C100.49676437 377.17312881 100.49676437 377.17312881 101.22541428 376.00506973 C102.392915 374.13184426 103.55736163 372.25677713 104.72004318 370.38055801 C105.32719162 369.40215958 105.93434006 368.42376114 106.55988693 367.41571426 C107.86647167 365.57872777 107.86647167 365.57872777 107.78254318 364.31805801 C64.1637962 363.86009922 20.54530403 363.50777586 -23.07537384 363.29675142 C-28.22723095 363.27173783 -33.37908333 363.24585134 -38.53093338 363.2194252 C-40.06936901 363.21155589 -40.06936901 363.21155589 -41.63888416 363.2035276 C-58.23755423 363.1165422 -74.83483642 362.95887772 -91.43268362 362.77500209 C-108.46872186 362.58784872 -125.50403426 362.4768581 -142.5410583 362.43628812 C-153.05151263 362.40886726 -163.55804453 362.32234429 -174.06729087 362.15972868 C-181.27791043 362.0538508 -188.48650837 362.02208688 -195.69784847 362.04803047 C-199.85786948 362.06082456 -204.01105201 362.04151181 -208.1698494 361.93394852 C-230.88140819 360.9882665 -230.88140819 360.9882665 -245.30646062 376.79854465 Z M175.78254318 366.31805801 C174.16418044 368.49906372 174.16418044 368.49906372 172.50910568 371.33758926 C171.5286528 372.95044815 171.5286528 372.95044815 170.52839279 374.59589005 C170.00993286 375.45999496 170.00993286 375.45999496 169.48099899 376.34155655 C168.0359677 378.7498188 166.57544933 381.1485454 165.11571884 383.54791641 C164.3789048 384.75941255 163.64291577 385.97141081 162.90774155 387.18390274 C159.90117422 392.13990659 156.83026339 397.05165206 153.72004318 401.94305801 C149.2767064 408.94738492 144.86380034 415.97001343 140.47004318 423.00555801 C139.84178635 424.0114296 139.21352951 425.01730118 138.56623459 426.05365372 C136.63797891 429.14156481 134.71017811 432.22975939 132.78254318 435.31805801 C125.32582476 447.26460084 117.86391471 459.20715438 110.33381271 471.1076088 C104.42012779 480.46062527 98.56550294 489.85054932 92.70588303 499.23749161 C89.56665095 504.26552288 86.42447167 509.29171142 83.28254318 514.31805801 C82.03252855 516.31804887 80.78252856 518.31804887 79.53254318 520.31805801 C72.03254318 532.31805801 64.53254318 544.31805801 57.03254318 556.31805801 C56.41355148 557.30846085 55.79455978 558.29886368 55.15681076 559.31927872 C53.90931071 561.3152463 52.6617523 563.31117741 51.41413498 565.30707169 C48.25040136 570.36846718 45.08774757 575.43053195 41.92707443 580.49383926 C35.75396571 590.3808508 29.56628562 600.25790692 23.33381271 610.1076088 C17.42012779 619.46062527 11.56550294 628.85054932 5.70588303 638.23749161 C3.18820181 642.27000006 0.66859737 646.30130462 -1.85124588 650.33246231 C-3.09165551 652.31689054 -4.33189095 654.30142765 -5.57194901 656.28607559 C-8.80645402 661.46255705 -12.04336622 666.63751253 -15.28386307 671.81024551 C-16.28739822 673.41319473 -16.28739822 673.41319473 -17.31120682 675.04852676 C-18.57998169 677.07504219 -19.84945914 679.10111798 -21.11980057 681.12665176 C-21.69987869 682.0534877 -22.27995682 682.98032364 -22.87761307 683.93524551 C-23.62990189 685.13576553 -23.62990189 685.13576553 -24.39738846 686.36053848 C-26.27893522 689.12103679 -26.27893522 689.12103679 -26.91566944 691.75123978 C-28.21964143 695.21339366 -29.35074876 696.9339259 -32.21745682 699.31805801 C-39.38041005 701.39894465 -47.37219852 700.63707096 -54.74626541 700.5451088 C-57.09196497 700.55215085 -59.43765486 700.56358662 -61.78331375 700.57909012 C-68.15110498 700.6087097 -74.51728388 700.57678233 -80.88494444 700.53392649 C-86.86524291 700.50304671 -92.84535043 700.51811615 -98.82566901 700.53298186 C-110.6688562 700.56092575 -122.51154419 700.54434241 -134.35466385 700.49969864 C-145.8573315 700.45643372 -157.35972431 700.43417588 -168.86247635 700.44012833 C-169.57180496 700.44048809 -170.28113356 700.44084785 -171.01195697 700.44121851 C-174.5705424 700.44315283 -178.1291274 700.4454997 -181.68771243 700.44805169 C-211.19780139 700.46868088 -240.70752074 700.4162796 -270.21745682 700.31805801 C-268.95449283 698.0951555 -267.69003788 695.87312322 -266.42473221 693.65155411 C-266.07095757 693.02852905 -265.71718292 692.405504 -265.35268784 691.7635994 C-262.28459089 686.38122466 -259.01912512 681.14535955 -255.65495682 675.94305801 C-254.43275171 674.03735349 -253.21142851 672.13108313 -251.99089432 670.22430801 C-251.36924393 669.25364395 -250.74759354 668.28297989 -250.10710526 667.28290176 C-246.96681252 662.3558068 -243.87222879 657.40038604 -240.77995682 652.44305801 C-240.24491531 651.58534805 -239.70987381 650.72763809 -239.15861893 649.84393692 C-238.60182449 648.95110001 -238.04503006 648.05826309 -237.47136307 647.13837051 C-236.84823227 646.21129288 -236.22510147 645.28421524 -235.58308792 644.32904434 C-233.58192607 641.16841487 -232.20414534 637.92276589 -230.79190445 634.46243668 C-227.64498788 627.46859636 -224.29498124 621.17039679 -218.21745682 616.31805801 C-207.65249444 612.43738175 -195.71657061 613.85970939 -184.67993736 614.473032 C-180.25669712 614.68632204 -175.83180922 614.74104945 -171.40434647 614.8074379 C-159.21710518 615.01818636 -147.04115601 615.46993745 -134.86101913 615.92470932 C-123.68573825 616.33944717 -112.51510372 616.70145511 -101.33303499 616.8691268 C-96.93589877 616.94086069 -92.55268061 617.06318285 -88.16147232 617.30720901 C-70.38023118 618.98393296 -70.38023118 618.98393296 -54.34752274 613.067173 C-49.48407208 607.48891756 -46.45510358 601.29040885 -43.64036942 594.49710464 C-41.24204188 589.13880289 -37.9870418 584.34392233 -34.77995682 579.44305801 C-33.54000612 577.46786981 -32.30383591 575.49029891 -31.07292557 573.50946426 C-30.13779129 572.00923721 -30.13779129 572.00923721 -29.18376541 570.47870255 C-25.99494362 565.35299025 -22.81441841 560.22222326 -19.64442825 555.08484268 C-18.62512819 553.43348846 -17.6040608 551.78322552 -16.58293533 550.13299942 C-15.9544368 549.11254532 -15.32593826 548.09209122 -14.67839432 547.04071426 C-13.85540848 545.70665543 -13.85540848 545.70665543 -13.01579666 544.3456459 C-11.50012689 541.79394609 -10.04281155 539.22466736 -8.60506058 536.62883377 C-8.15722528 535.82084052 -7.70938999 535.01284727 -7.24798393 534.18036938 C-6.90790998 533.56580663 -6.56783604 532.95124388 -6.21745682 532.31805801 C-48.63833465 531.7682586 -91.0588002 531.34559572 -133.48253742 531.09249011 C-138.49533864 531.06247454 -143.50813285 531.03141067 -148.52092361 530.99969864 C-149.51884491 530.99340319 -150.5167662 530.98710774 -151.54492753 530.98062152 C-167.68603713 530.87629643 -183.82508723 530.68713406 -199.96497656 530.46639091 C-216.53655219 530.24164061 -233.10705235 530.10858428 -249.68008941 530.05993414 C-259.90115833 530.02706082 -270.11640683 529.92342953 -280.3356825 529.72806281 C-287.35170064 529.60079909 -294.36472878 529.56293644 -301.38181622 529.59402496 C-305.42806469 529.60935114 -309.46418656 529.58659492 -313.50861168 529.45712662 C-329.68891344 528.49022595 -329.68891344 528.49022595 -343.92109942 534.61290169 C-348.65407026 540.24476839 -351.79141705 546.45371064 -354.73490226 553.15521908 C-357.2243052 558.46603918 -360.46103704 563.2860495 -363.65495682 568.19305801 C-364.89442743 570.16854752 -366.1305409 572.14615081 -367.36198807 574.12665176 C-367.98541092 575.12680313 -368.60883377 576.1269545 -369.25114822 577.15741348 C-372.43997001 582.28312578 -375.62049522 587.41389277 -378.79048538 592.55127335 C-379.80978545 594.20262757 -380.83085283 595.85289051 -381.8519783 597.50311661 C-382.48047684 598.52357071 -383.10897537 599.54402481 -383.75651932 600.59540176 C-384.30517654 601.48477432 -384.85383377 602.37414688 -385.41911697 603.29047012 C-387.77099453 607.24996423 -389.98091838 611.29228883 -392.21745682 615.31805801 C-367.13745682 615.31805801 -342.05745682 615.31805801 -316.21745682 615.31805801 C-329.87619501 638.08262167 -329.87619501 638.08262167 -335.02995682 646.06805801 C-336.21568463 647.91908783 -337.40054929 649.77067079 -338.58464432 651.62274551 C-339.18115799 652.5557045 -339.77767166 653.48866348 -340.39226151 654.44989395 C-343.50827765 659.34649075 -346.58246405 664.2690735 -349.65495682 669.19305801 C-350.27733231 670.19047012 -350.89970779 671.18788223 -351.54094315 672.21551895 C-352.80297587 674.23881139 -354.06477561 676.26224917 -355.32634354 678.28583145 C-358.45289106 683.29896342 -361.58545843 688.30833044 -364.71745682 693.31805801 C-365.96748608 695.31803972 -367.21748607 697.31803973 -368.46745682 699.31805801 C-390.96745682 735.31805801 -390.96745682 735.31805801 -392.84538651 738.32245255 C-394.08597256 740.30758437 -395.32621123 742.29293334 -396.56608963 744.27850723 C-399.83219798 749.5078924 -403.1055812 754.73254259 -406.38933182 759.95087051 C-407.07189041 761.0375502 -407.75444901 762.12422989 -408.45769119 763.24383926 C-409.76405934 765.32336406 -411.07253765 767.40156526 -412.38347244 769.47821426 C-412.97321854 770.41794083 -413.56296463 771.35766739 -414.17058182 772.32587051 C-414.68781815 773.14716446 -415.20505447 773.9684584 -415.73796463 774.81464005 C-417.37563025 777.5857 -418.78991519 780.43409708 -420.21745682 783.31805801 C-365.13308497 783.7529756 -310.04888664 784.08775485 -254.96313547 784.28829927 C-248.45936477 784.31206261 -241.95559746 784.33665474 -235.45183182 784.36175919 C-233.50966319 784.36923503 -233.50966319 784.36923503 -231.52825883 784.37686191 C-210.56489443 784.45953102 -189.60252029 784.60933256 -168.6397433 784.78396114 C-147.1288311 784.96166095 -125.61843737 785.06717846 -104.1068213 785.10573941 C-90.83300508 785.13180735 -77.56198763 785.21411782 -64.28903309 785.36847088 C-55.18630609 785.46893333 -46.08502504 785.49925575 -36.98178396 785.47458418 C-31.7288873 785.46241472 -26.48087758 785.4810043 -21.22885132 785.58296204 C-1.57727412 786.93910977 -1.57727412 786.93910977 16.60719776 781.45072198 C20.85563689 777.09448073 23.16337511 772.31664261 25.00412893 766.5706383 C26.1171163 763.34986813 27.78964556 760.86298503 29.70832443 758.05633926 C30.83770076 756.24803901 31.96660995 754.43944693 33.09504318 752.63055801 C34.37237422 750.58497716 35.64971835 748.53940448 36.92707443 746.49383926 C37.56467697 745.47241837 38.20227951 744.45099747 38.85920334 743.39862442 C41.99843542 738.37059315 45.14061469 733.34440461 48.28254318 728.31805801 C49.53255782 726.31806716 50.78255781 724.31806715 52.03254318 722.31805801 C149.53254318 566.31805801 149.53254318 566.31805801 151.41120529 563.31268692 C152.64958462 561.33095686 153.88738646 559.3488658 155.1245842 557.36639786 C158.06562992 552.65528911 161.01268989 547.94827675 163.98002243 543.25366592 C165.04449619 541.56897865 166.10689456 539.88298062 167.16926193 538.19696426 C168.51327864 536.06445776 169.86081135 533.93416226 171.21223068 531.80633926 C171.81164474 530.85372208 172.41105881 529.90110489 173.02863693 528.91962051 C173.56158371 528.0773793 174.09453049 527.23513809 174.64362717 526.36737442 C175.94446836 524.41745205 175.94446836 524.41745205 175.78254318 522.31805801 C178.67221793 525.04226201 180.84750031 527.73656586 182.92707443 531.11493301 C183.80685959 532.53419083 183.80685959 532.53419083 184.70441818 533.98212051 C185.32832443 535.00047989 185.95223068 536.01883926 186.59504318 537.06805801 C187.94515996 539.25043855 189.29542444 541.43272771 190.64582443 543.61493301 C191.33370041 544.73061661 192.02157639 545.8463002 192.73029709 546.99579239 C195.89339761 552.11635769 199.08860541 557.21669403 202.28254318 562.31805801 C203.52748098 564.3101542 204.77227204 566.30234209 206.01691818 568.29462051 C208.5665445 572.37428849 211.11894242 576.45220575 213.67316818 580.52899551 C214.64286545 582.07780411 214.64286545 582.07780411 215.63215256 583.65790176 C216.83579604 585.58026762 218.04013639 587.50219747 219.24543381 589.42352676 C224.82912611 598.34467172 230.30495305 607.33154434 235.78254318 616.31805801 C235.19673981 616.2958519 234.61093643 616.27364578 234.00738144 616.25076675 C227.89196121 616.02896145 221.7776875 615.87849326 215.65925217 615.76874161 C213.37850648 615.71855128 211.09808101 615.65037948 208.81843185 615.56366348 C205.53353088 615.44186781 202.25288891 615.38555574 198.96613693 615.34149551 C197.95232452 615.28988266 196.93851212 615.23826981 195.89397812 615.18509293 C191.5028202 615.18163973 188.8655471 615.24781706 185.65391159 618.42160416 C183.84219437 620.98082122 182.28429582 623.5673886 180.78254318 626.31805801 C179.82541428 627.78203018 179.82541428 627.78203018 178.84894943 629.27557755 C178.35266037 630.07592422 177.85637131 630.8762709 177.34504318 631.70087051 C176.47939743 633.09172867 176.47939743 633.09172867 175.59626389 634.51068497 C174.99773605 635.47836807 174.39920822 636.44605118 173.78254318 637.44305801 C172.46359173 639.56418843 171.14457956 641.68528109 169.82551193 643.80633926 C169.15697189 644.88351212 168.48843185 645.96068497 167.79963303 647.07049942 C164.57439558 652.26320198 161.33481824 657.44691792 158.09504318 662.63055801 C157.47790451 663.61926895 156.86076584 664.60797989 156.22492599 665.62665176 C153.25926466 670.37422185 150.28261032 675.1141527 147.27863693 679.83758926 C146.72973801 680.70150284 146.18083908 681.56541641 145.61530685 682.45550919 C144.5959412 684.05759412 143.57415536 685.65814301 142.54938889 687.25677872 C142.09523605 687.97051651 141.64108322 688.6842543 141.17316818 689.41962051 C140.78161545 690.0314418 140.39006271 690.64326309 139.98664474 691.27362442 C138.45119845 693.88064536 137.13562511 696.61189416 135.78254318 699.31805801 C186.27254318 699.31805801 236.76254318 699.31805801 288.78254318 699.31805801 C289.44254318 700.96805801 290.10254318 702.61805801 290.78254318 704.31805801 C291.61905837 705.81010356 292.49334542 707.28145745 293.39973068 708.73212051 C294.17679367 709.98182632 294.17679367 709.98182632 294.9695549 711.25677872 C295.52659103 712.14325089 296.08362717 713.02972305 296.65754318 713.94305801 C297.52983566 715.34140884 297.52983566 715.34140884 298.41975021 716.76800919 C302.62694173 723.5032812 306.86361601 730.22015445 311.11335373 736.92865372 C315.2610642 743.47806282 319.36749332 750.05278945 323.47004318 756.63055801 C331.2301717 770.65970126 331.2301717 770.65970126 340.78254318 783.31805801 C343.79604556 783.41335413 346.78658424 783.44357705 349.80036545 783.4315834 C350.74660782 783.43172943 351.69285019 783.43187546 352.66776657 783.43202591 C355.8115171 783.43132638 358.95520919 783.4235321 362.09894943 783.41571426 C364.27228386 783.41385023 366.44561871 783.41242626 368.6189537 783.41142654 C374.35155514 783.40760023 380.08413141 783.39776898 385.81672287 783.38672256 C391.66144597 783.37651088 397.50617312 783.37192945 403.35090256 783.36688614 C414.82812718 783.35614681 426.30533309 783.33906903 437.78254318 783.31805801 C436.55504122 780.18380645 435.31120691 777.35014644 433.48957443 774.51727676 C433.03219894 773.80031631 432.57482346 773.08335587 432.1035881 772.34466934 C431.60576828 771.5727626 431.10794846 770.80085587 430.59504318 770.00555801 C429.50327091 768.29502018 428.41215571 766.58406284 427.32160568 764.87274551 C426.45583908 763.5168129 426.45583908 763.5168129 425.57258224 762.1334877 C422.51017323 757.31683457 419.49112311 752.47320043 416.47004318 747.63055801 C415.19271801 745.5849735 413.91537408 743.53940069 412.63801193 741.49383926 C412.00040939 740.47241837 411.36280685 739.45099747 410.70588303 738.39862442 C407.56665095 733.37059315 404.42447167 728.34440461 401.28254318 723.31805801 C400.03252855 721.31806716 398.78252856 719.31806715 397.53254318 717.31805801 C396.60441818 715.83305801 396.60441818 715.83305801 395.65754318 714.31805801 C360.03254318 657.31805801 360.03254318 657.31805801 358.15681076 654.31683731 C356.90931071 652.32086973 355.6617523 650.32493862 354.41413498 648.32904434 C351.25040136 643.26764885 348.08774757 638.20558407 344.92707443 633.14227676 C339.23232323 624.02141508 333.53206797 614.9045163 327.78254318 605.81805801 C321.38268566 595.70382413 315.04378425 585.55175958 308.70588303 575.39862442 C305.56665095 570.37059315 302.42447167 565.34440461 299.28254318 560.31805801 C298.03252855 558.31806716 296.78252856 556.31806715 295.53254318 554.31805801 C294.91379318 553.32805801 294.29504318 552.33805801 293.65754318 551.31805801 C213.03254318 422.31805801 213.03254318 422.31805801 211.15607834 419.31561661 C209.91107828 417.32368141 208.66596185 415.33181895 207.42072678 413.34003067 C204.21824986 408.21724159 201.0180523 403.0930498 197.82160568 397.96649551 C194.6976053 392.95695571 191.5668727 387.95169165 188.4304924 382.94989395 C187.38013035 381.27242685 186.33203424 379.59353726 185.28693771 377.91278458 C184.02104116 375.87710428 182.74700803 373.84680593 181.47004318 371.81805801 C180.45490646 370.19383926 180.45490646 370.19383926 179.41926193 368.53680801 C178.87914474 367.80462051 178.33902756 367.07243301 177.78254318 366.31805801 C177.12254318 366.31805801 176.46254318 366.31805801 175.78254318 366.31805801 Z " fill="#FF4747" transform="translate(597.217456817627,-0.3180580139160156)"/>
</svg>
