<?xml version="1.0" encoding="UTF-8"?>
<svg version="1.1" xmlns="http://www.w3.org/2000/svg" width="2000" height="281">
<path d="M0 0 C42.9 0 85.8 0 130 0 C131.98 8.58 133.96 17.16 136 26 C137.46233065 31.79654674 138.92692837 37.58780682 140.4402771 43.3704834 C143.55674076 55.28852276 146.59312897 67.20700168 149.23413086 79.24072266 C151.35094255 88.79029137 153.86390488 98.23691915 156.3515625 107.6953125 C157.95289013 113.7841476 159.48758732 119.88853406 161 126 C167.32510514 104.604424 167.32510514 104.604424 173.125 83.0625 C175.24506079 74.77525149 177.5382752 66.55756161 179.9621582 58.35424805 C182.02491168 51.36458192 184.04560815 44.36408598 186.04296875 37.35546875 C186.31101318 36.41505234 186.57905762 35.47463593 186.85522461 34.50572205 C187.94479804 30.6811803 189.0336819 26.8564452 190.12042236 23.03109741 C190.88776814 20.33031106 191.65668745 17.6299765 192.42578125 14.9296875 C192.65573288 14.11811691 192.88568451 13.30654633 193.12260437 12.47038269 C193.34036026 11.70655777 193.55811615 10.94273285 193.7824707 10.15576172 C193.97009476 9.49534882 194.15771881 8.83493591 194.35102844 8.1545105 C195.1753172 5.41796718 196.09622341 2.71132978 197 0 C228.02 0 259.04 0 291 0 C294.37527919 9.0007445 294.37527919 9.0007445 295.51464844 13.08544922 C295.77236023 14.00286896 296.03007202 14.9202887 296.29559326 15.86550903 C296.56414124 16.83543793 296.83268921 17.80536682 297.109375 18.8046875 C297.54095917 20.34768021 297.54095917 20.34768021 297.98126221 21.92184448 C298.90780371 25.23856327 299.82908474 28.55671507 300.75 31.875 C301.38654911 34.15922697 302.02326829 36.44340655 302.66015625 38.72753906 C306.60580307 52.89592887 310.49536921 67.0777377 314.27636719 81.29101562 C318.08629406 95.55381879 322.03254276 109.78035238 326 124 C328.52866957 116.67852902 330.64708796 109.2834152 332.6875 101.8125 C333.04126083 100.52349684 333.39510388 99.23451623 333.74902344 97.94555664 C336.45073766 88.08746456 339.08539841 78.2118329 341.70654297 68.33203125 C346.08042045 51.87862677 350.57824079 35.4584324 355.07723999 19.03886414 C356.0575515 15.46007668 357.03183148 11.8803521 357.98583984 8.29443359 C358.25219238 7.2936377 358.51854492 6.2928418 358.79296875 5.26171875 C359.00848389 4.44018311 359.22399902 3.61864746 359.44604492 2.7722168 C360 1 360 1 361 0 C362.40411317 -0.0954693 363.81299809 -0.12188529 365.22035217 -0.12025452 C366.13045547 -0.12162918 367.04055878 -0.12300385 367.97824097 -0.12442017 C368.98452545 -0.12082489 369.99080994 -0.11722961 371.02758789 -0.11352539 C372.08111954 -0.11367142 373.13465118 -0.11381744 374.22010803 -0.1139679 C377.720978 -0.11326826 381.22179552 -0.10547348 384.72265625 -0.09765625 C387.14261343 -0.09579225 389.56257099 -0.09436826 391.98252869 -0.09336853 C398.36615024 -0.08954192 404.74974921 -0.07971041 411.13336182 -0.06866455 C417.64163914 -0.05845351 424.1499201 -0.05387157 430.65820312 -0.04882812 C443.43881175 -0.03808827 456.21940467 -0.02120112 469 0 C468.33631021 4.17744549 467.45200085 8.04328279 466.13671875 12.06640625 C465.75064453 13.25484131 465.36457031 14.44327637 464.96679688 15.66772461 C464.54037866 16.9659877 464.11394592 18.26424601 463.6875 19.5625 C463.24109493 20.93288034 462.79514207 22.30340806 462.34960938 23.67407227 C461.39859142 26.59758819 460.44519241 29.52031114 459.48974609 32.44238281 C456.98443979 40.10458346 454.49118459 47.77069834 452 55.4375 C451.7473941 56.2141803 451.49478821 56.9908606 451.23452759 57.79107666 C447.49155567 69.30477241 443.84715885 80.84583633 440.26376343 92.4100647 C436.83847003 103.45147143 433.23234386 114.42487693 429.54956055 125.3828125 C426.73031543 133.77727583 423.99775739 142.19438191 421.33569336 150.63989258 C419.73389411 155.71648937 418.08214743 160.77033699 416.375 165.8125 C414.66697709 170.88665898 413.10620814 175.98185004 411.625 181.125 C409.85323793 187.26160067 407.92318856 193.3252689 405.875 199.375 C402.52883963 209.26969334 399.37688778 219.22188786 396.25 229.1875 C396.01166443 229.94625427 395.77332886 230.70500854 395.527771 231.48675537 C394.83521434 233.69267877 394.1438575 235.89897353 393.453125 238.10546875 C393.25020844 238.75280472 393.04729187 239.40014069 392.83822632 240.0670929 C391.18329498 245.36650735 389.5956321 250.68122632 388 256 C353.02 256 318.04 256 282 256 C271.74949246 224.1095321 271.74949246 224.1095321 267.96411133 211.1647644 C266.81366396 207.23243487 265.65071061 203.30380117 264.48828125 199.375 C264.15487228 198.24728432 264.15487228 198.24728432 263.81472778 197.0967865 C262.04852422 191.13491882 260.2033643 185.20169571 258.3099823 179.27908325 C256.56831842 173.81940454 254.86766016 168.34846064 253.1953125 162.8671875 C252.94611053 162.05187057 252.69690857 161.23655365 252.44015503 160.39653015 C251.66776686 157.86872403 250.89623521 155.34065811 250.125 152.8125 C249.87153809 151.98176971 249.61807617 151.15103943 249.35693359 150.2951355 C247.90342796 145.53045383 246.45119395 140.76538623 245 136 C239.7432636 152.05108188 234.69426833 168.15755334 229.79296875 184.3203125 C229.52503635 185.20330772 229.25710396 186.08630295 228.9810524 186.9960556 C226.47835185 195.24563798 223.9811298 203.4968734 221.48852539 211.74951172 C220.10730255 216.32167663 218.72175644 220.89251357 217.33361244 225.46258163 C216.81329936 227.17869787 216.29462714 228.8953126 215.77773094 230.61246109 C215.05793566 233.00346714 214.33264051 235.39274381 213.60620117 237.78173828 C213.40095322 238.46855682 213.19570526 239.15537537 212.98423767 239.86300659 C211.28336111 245.42433758 209.18420836 250.5394791 207 256 C173.01 256 139.02 256 104 256 C93.12842478 222.29811683 93.12842478 222.29811683 88.05908203 205.71679688 C85.76432701 198.2138047 83.42931458 190.72350953 81.08984375 183.234375 C80.87947102 182.56085495 80.66909828 181.8873349 80.45235062 181.19340515 C79.38077936 177.76321493 78.30864453 174.33320132 77.23608398 170.90332031 C76.15082458 167.43277776 75.06660411 163.96191162 73.98265648 160.49095917 C72.91479548 157.07191749 71.84624487 153.65309163 70.77734375 150.234375 C70.56935528 149.56913315 70.36136681 148.9038913 70.14707565 148.2184906 C67.54284766 139.89220476 64.91311574 131.57451836 62.25390625 123.265625 C59.83413988 115.69912721 57.50806782 108.10907543 55.24137878 100.4954071 C52.36156573 90.82771473 49.36628992 81.19616186 46.375 71.5625 C45.5316483 68.84344288 44.6885295 66.12432556 43.8482666 63.40431213 C43.30133272 61.64686106 42.74696042 59.8917065 42.18493652 58.13902283 C41.05097718 54.57947589 40.02956022 51.16091787 39.35351562 47.48071289 C36.94438869 35.2724814 26.39165844 27.51122825 17.75 19.3125 C15.20334872 16.85831013 12.66313147 14.39773484 10.12701416 11.93266296 C8.55419993 10.40800491 6.97409299 8.89082759 5.38616943 7.38191223 C4.67833313 6.70327621 3.97049683 6.0246402 3.24121094 5.32543945 C2.61373962 4.72955521 1.98626831 4.13367096 1.33978271 3.51972961 C0 2 0 2 0 0 Z " fill="#000000" transform="translate(730,18)"/>
<path d="M0 0 C28.99090988 -0.09367226 57.98179688 -0.16409108 86.97282791 -0.20724869 C89.6591315 -0.21132771 92.34543493 -0.215493 95.03173828 -0.21972656 C95.6993804 -0.2207758 96.36702251 -0.22182505 97.05489621 -0.22290608 C107.82436367 -0.24024781 118.59374455 -0.27175055 129.36316088 -0.30861118 C140.43737461 -0.34619513 151.51154098 -0.36797361 162.58581519 -0.37635398 C168.79606836 -0.38154331 175.00612605 -0.39363653 181.21631622 -0.42292023 C187.07678989 -0.45032764 192.93698991 -0.45839441 198.79752159 -0.45243073 C200.93383719 -0.45351974 203.07016317 -0.4613211 205.20642281 -0.4768219 C232.95974161 -0.66810648 261.19744188 4.99298595 281.96923828 24.77416992 C294.65344595 37.45618081 301.38907995 52.65594195 301.5 70.5625 C301.4986197 87.13433765 295.37378108 99.27532872 283.80859375 111.2734375 C275.655668 118.88672416 266.03856197 124.27468992 256 129 C257.11375 129.3403125 258.2275 129.680625 259.375 130.03125 C281.01993148 136.82186357 299.93146679 146.05396689 311.25 166.875 C319.16683075 183.897885 318.50717069 203.14302994 313.15625 220.78125 C306.34793569 239.32803726 292.18403082 251.66414344 274.8125 260.125 C263.06251586 265.34566831 250.64968959 268.78881893 238 271 C237.27207685 271.12753914 236.54415371 271.25507828 235.79417229 271.38648224 C216.08427142 274.66834261 196.37406703 274.41264831 176.46381497 274.33711338 C171.65442632 274.3218647 166.84503804 274.32324684 162.03562927 274.32244873 C153.99156798 274.31878509 145.94759354 274.30394893 137.90356445 274.28125 C127.56869481 274.2521466 117.23389395 274.24200097 106.89898777 274.2375679 C97.99032904 274.23359925 89.0816853 274.22111629 80.17303729 274.20722103 C77.31410999 274.20312171 74.45518321 274.20019686 71.59625435 274.19742584 C67.12678779 274.19255063 62.65736345 274.18237779 58.18791771 274.16798782 C56.54512538 274.1634517 54.90232737 274.16062307 53.25952911 274.15958023 C51.02779926 274.15784468 48.79617643 274.14998987 46.56446838 274.14044189 C45.31342599 274.13746723 44.06238359 274.13449257 42.77343082 274.13142776 C40 274 40 274 39 273 C38.97408972 270.08722608 39.01478406 267.2003466 39.0974884 264.28987122 C39.11936193 263.36436059 39.14123545 262.43884997 39.16377181 261.48529357 C39.21211967 259.44472624 39.26258393 257.40420828 39.31483269 255.36373711 C39.45897672 249.68840217 39.58428677 244.01266018 39.7089386 238.33686829 C39.74916387 236.51525427 39.74916387 236.51525427 39.79020178 234.65683997 C40.13889787 218.37580092 40.30998933 202.09208052 40.47458284 185.80829613 C40.50973219 182.36005438 40.54667445 178.91183404 40.5847168 175.46362305 C40.59225948 174.7773431 40.59980216 174.09106316 40.60757341 173.38398685 C40.73266367 162.3581199 40.98916088 151.33914866 41.29586533 140.31701068 C41.60901946 128.95047201 41.76882032 117.59060638 41.80372542 106.21937102 C41.82801133 99.85155256 41.91591035 93.50087497 42.17237282 87.13782692 C43.08875863 63.44742267 43.53010606 43.71458022 26.7400226 25.47635454 C18.88320012 17.42770677 10.35574434 10.13199354 1.41642016 3.31542605 C0.94900151 2.88133545 0.48158285 2.44724486 0 2 C0 1.34 0 0.68 0 0 Z M148 66 C148 77.55 148 89.1 148 101 C154.1565625 101.12375 154.1565625 101.12375 160.4375 101.25 C161.71294678 101.28641602 162.98839355 101.32283203 164.30249023 101.36035156 C172.41813484 101.43881861 178.82020987 100.52101886 185.15625 95.18359375 C185.82140625 94.31927734 185.82140625 94.31927734 186.5 93.4375 C186.9640625 92.85871094 187.428125 92.27992187 187.90625 91.68359375 C190.36562221 87.89791724 190.29734459 84.38583272 190 80 C187.76141936 73.78172045 183.77841264 70.58441539 178.13671875 67.3671875 C172.56467697 65.05494465 166.47995152 65.68756906 160.5625 65.8125 C154.3440625 65.9053125 154.3440625 65.9053125 148 66 Z M149 166 C149 179.53 149 193.06 149 207 C157.105625 207.12375 157.105625 207.12375 165.375 207.25 C167.90099854 207.30462402 167.90099854 207.30462402 170.47802734 207.36035156 C180.0132585 207.48206611 187.68650529 206.86009763 195.65625 201.0703125 C201.39143917 195.04553286 201.39143917 195.04553286 202.984375 187.0625 C202.48852435 181.11229215 200.66903593 176.79742331 196.5625 172.375 C187.10886926 165.22206332 175.51504218 165.48726527 164.25 165.75 C159.2175 165.8325 154.185 165.915 149 166 Z " fill="#000000" transform="translate(0,0)"/>
<path d="M0 0 C3.74894937 -0.03921495 7.48620692 0.00386083 11.234375 0.0859375 C12.43964844 0.10269531 13.64492188 0.11945312 14.88671875 0.13671875 C53.15447437 1.51893903 88.8985829 17.73080162 116.234375 44.0859375 C116.90082031 44.70082031 117.56726563 45.31570312 118.25390625 45.94921875 C135.40688014 62.17291188 146.69896467 87.23786386 147.4375 110.8359375 C147.59800324 121.66887757 147.07841704 131.57160027 144.234375 142.0859375 C143.96753906 143.08367187 143.70070313 144.08140625 143.42578125 145.109375 C139.10779015 159.42591438 131.80806016 171.7237617 122.234375 183.0859375 C121.52667969 183.95734375 120.81898438 184.82875 120.08984375 185.7265625 C99.73833468 209.74058805 68.49999872 223.17453524 38.234375 229.0859375 C37.34024902 229.26616455 36.44612305 229.4463916 35.52490234 229.63208008 C26.27585335 231.28934297 17.14568773 231.42477606 7.78027344 231.40161133 C5.13433956 231.39846717 2.48954538 231.42193877 -0.15625 231.44726562 C-40.33736932 231.59672984 -79.15606149 216.57606565 -107.953125 188.3359375 C-128.37496756 167.70937172 -139.24601228 141.67959448 -139.12695312 112.69506836 C-138.69131319 87.03925619 -127.42045162 64.43913543 -109.765625 46.0859375 C-109.31703125 45.60624512 -108.8684375 45.12655273 -108.40625 44.63232422 C-83.13266946 17.63159995 -44.36502131 1.71011543 -7.59375 0.171875 C-5.06248946 0.11505078 -2.5312392 0.05776687 0 0 Z M-10.765625 75.0859375 C-11.5184375 75.28058594 -12.27125 75.47523437 -13.046875 75.67578125 C-24.44628339 79.24977609 -32.64782259 88.00978082 -38.078125 98.2734375 C-42.12646319 106.38719548 -41.9539421 117.70122557 -40.078125 126.4609375 C-35.70800643 138.5307888 -28.674166 147.38064151 -16.97094727 152.89916992 C-4.64239165 158.37871108 8.31194151 158.8594071 21.12890625 154.41015625 C33.37535439 149.18808591 40.99175249 141.81988503 46.2890625 129.69921875 C50.61996906 117.72658864 48.58266596 105.19171646 43.421875 93.8984375 C38.19031089 84.17709822 29.74201282 77.65771041 19.234375 74.2109375 C8.54896481 71.52278399 -0.13189582 72.20812001 -10.765625 75.0859375 Z " fill="#000000" transform="translate(611.765625,49.9140625)"/>
<path d="M0 0 C23.49754178 -0.04689423 46.99507646 -0.08207372 70.49265575 -0.10362434 C81.40503194 -0.11390035 92.31737891 -0.12788967 103.22973633 -0.15087891 C112.75019471 -0.1709261 122.27063191 -0.18374309 131.79111081 -0.18817699 C136.82370555 -0.19076535 141.85623975 -0.19677077 146.88881493 -0.21146011 C227.20126998 -0.43626425 227.20126998 -0.43626425 255.3125 25.875 C267.32627758 38.47841084 271.51044088 55.33381356 271.25390625 72.31640625 C270.89523064 77.51996167 269.78063798 82.11288105 268 87 C267.73316406 87.75539063 267.46632813 88.51078125 267.19140625 89.2890625 C260.33704024 106.531601 246.84147678 115.87199031 230.57421875 123.11328125 C225.51170979 125.26680673 220.40561862 126.94317119 215 128 C215.556875 128.66644531 216.11375 129.33289063 216.6875 130.01953125 C221.60358466 135.95703214 226.25822669 142.0058519 230.74951172 148.26806641 C233.3909255 151.92643997 236.07297942 155.55514909 238.75 159.1875 C239.35400635 160.00710205 239.9580127 160.8267041 240.58032227 161.67114258 C247.34913942 170.84432721 254.19562646 179.95867917 261.0625 189.05859375 C267.5094733 197.61327077 273.82040734 206.25013429 280 215 C279.67 215.66 279.34 216.32 279 217 C265.30057632 217.23179185 251.60161966 217.40942931 237.90063381 217.51812172 C231.53843828 217.57029216 225.17758504 217.64104023 218.81616211 217.75439453 C212.67578533 217.86312412 206.53669861 217.92285728 200.39543343 217.94877243 C198.05370838 217.96723737 195.71205331 218.00329762 193.37087822 218.05730057 C175.0220385 218.46367737 175.0220385 218.46367737 170.09873962 214.89988708 C168.25854313 212.31611359 167.1046788 209.9624366 166 207 C165.33572998 206.00718018 164.67145996 205.01436035 163.98706055 203.99145508 C163.45894775 203.17572021 162.93083496 202.35998535 162.38671875 201.51953125 C161.78351807 200.59052002 161.18031738 199.66150879 160.55883789 198.7043457 C159.94129639 197.75003662 159.32375488 196.79572754 158.6875 195.8125 C152.85391087 186.83215558 146.96436566 177.89385974 141 169 C139.56144417 166.85487435 138.12389052 164.70907616 136.6875 162.5625 C136.09324219 161.67691406 135.49898437 160.79132813 134.88671875 159.87890625 C132.53421849 156.28927335 130.27466023 152.63945637 128 149 C127.67 171.44 127.34 193.88 127 217 C95.98 217 64.96 217 33 217 C33.06703125 203.85671875 33.1340625 190.7134375 33.203125 177.171875 C33.21883657 168.84108194 33.23150925 160.51046745 33.23046875 152.1796875 C33.22938204 138.95893739 33.24063421 125.73902929 33.33251953 112.51855469 C33.39938887 102.88915994 33.42386911 93.26073432 33.39809489 83.63112569 C33.38591791 78.53492393 33.39452657 73.44072202 33.4539566 68.34481049 C33.50931435 63.54052912 33.50766598 58.73952452 33.46369362 53.93515778 C33.45741417 52.17923525 33.47135038 50.42309605 33.50784111 48.6675415 C33.66865774 40.41351928 33.6711458 33.93574026 27.81009459 27.65556073 C25.3148046 25.27193549 22.71514931 23.13311557 20 21 C18.59892106 19.77681596 17.2015621 18.5493136 15.8125 17.3125 C15.19632813 16.78914063 14.58015625 16.26578125 13.9453125 15.7265625 C10.80694091 12.94110016 7.90482659 9.92514026 4.98046875 6.91796875 C2.95064723 4.83682933 2.95064723 4.83682933 0 3 C0 2.01 0 1.02 0 0 Z M126 60 C126 71.55 126 83.1 126 95 C129.444375 95.020625 132.88875 95.04125 136.4375 95.0625 C137.50411865 95.071604 138.5707373 95.08070801 139.66967773 95.09008789 C150.34075134 95.12069232 159.41985896 95.02796138 167.67578125 87.46484375 C171.0899595 83.39668206 171.70808508 79.60251573 171.421875 74.36328125 C170.58583715 69.67992106 168.01140455 67.01140455 164.75 63.75 C157.10474254 58.88483616 148.22292345 59.76065077 139.5 59.875 C132.8175 59.936875 132.8175 59.936875 126 60 Z " fill="#000000" transform="translate(1423,57)"/>
<path d="M0 0 C0.77338431 0.00092179 1.54676863 0.00184359 2.34358883 0.00279331 C3.22844967 0.00141865 4.11331051 0.00004398 5.02498531 -0.00137234 C6.49233372 0.00402058 6.49233372 0.00402058 7.98932552 0.00952244 C9.01359646 0.00937641 10.03786739 0.00923038 11.09317684 0.00907993 C14.49665055 0.00977955 17.9000703 0.0175742 21.30353451 0.02539158 C23.65623094 0.02725559 26.00892776 0.02867957 28.36162472 0.0296793 C34.56769531 0.03350584 40.77374266 0.04333728 46.97980404 0.05438328 C53.30711204 0.06459448 59.63442378 0.06917629 65.96173763 0.0742197 C78.38687807 0.08495942 90.81200124 0.10203747 103.23712826 0.12304783 C103.83400448 1.61769314 103.83400448 1.61769314 104.4429388 3.1425333 C105.94269265 6.89764466 107.44319963 10.65245471 108.94391537 14.40718174 C109.58897237 16.02137989 110.23383466 17.63565588 110.87848568 19.25001621 C114.62102182 28.62180506 118.38540915 37.98293953 122.23712826 47.31054783 C124.92427439 53.8399237 127.49669604 60.39318883 129.93488216 67.01928806 C132.74653062 74.60230586 135.86540596 82.05967709 138.94415951 89.53711033 C142.11043287 97.23138067 145.18694727 104.96112488 148.26642513 112.69043064 C149.21710536 115.07286972 150.17168224 117.45370501 151.12775326 119.83398533 C154.9569316 129.37213829 158.73664345 138.92866925 162.48712826 148.49804783 C166.17769042 157.91240451 169.89747889 167.31422309 173.65558529 176.70178318 C174.41778283 178.60594621 175.17906714 180.51047248 175.94025326 182.41504002 C178.1979187 188.05771441 180.46612253 193.69531671 182.77228451 199.31836033 C183.33943172 200.70958103 183.33943172 200.70958103 183.91803646 202.1289072 C184.60730121 203.81751926 185.30204562 205.50391002 186.00348568 207.18750095 C187.45985412 210.76540044 188.23712826 213.20597631 188.23712826 217.12304783 C154.90712826 217.12304783 121.57712826 217.12304783 87.23712826 217.12304783 C78.21334229 190.05168991 69.31126474 163.02102281 61.02966976 135.72912693 C56.99582147 122.44705469 52.74183929 109.25409387 48.23712826 96.12304783 C42.48563791 111.92613609 36.96285184 127.78839014 31.67810726 143.75323582 C27.13207576 157.48566316 22.48045892 171.1796443 17.77692318 184.85888767 C17.26621676 186.34536289 16.75555526 187.83185354 16.24494076 189.31836033 C15.87539021 190.3925774 15.87539021 190.3925774 15.49837399 191.48849583 C14.16125531 195.38628128 12.84663386 199.2905074 11.5564642 203.20410252 C11.28188381 204.03594059 11.00730343 204.86777866 10.72440243 205.72482395 C10.19571294 207.33063111 9.66966858 208.93731214 9.1465826 210.54495335 C7.3468477 216.01332839 7.3468477 216.01332839 6.23712826 217.12304783 C3.19310404 217.21835764 0.17181117 217.24856421 -2.87249088 217.23657322 C-3.82848682 217.23671925 -4.78448277 217.23686527 -5.76944828 217.23701572 C-8.94566419 217.23631618 -12.12182226 217.22852186 -15.29802799 217.22070408 C-17.49378267 217.21884005 -19.68953776 217.21741607 -21.88529301 217.21641636 C-27.67707807 217.21259001 -33.46883824 217.20275874 -39.26061344 217.19171238 C-45.16565966 217.18150076 -51.07070988 217.17691928 -56.97576237 217.17187595 C-68.57147646 217.16113657 -80.16717203 217.14405876 -91.76287174 217.12304783 C-91.07624473 211.71641512 -89.77385346 207.20920864 -87.57537174 202.24804783 C-86.85366929 200.57632314 -86.13234676 198.90443442 -85.41130924 197.23242283 C-84.99977604 196.28560642 -84.58824284 195.33879002 -84.16423893 194.3632822 C-81.62139966 188.48374164 -79.12770555 182.58325899 -76.62780094 176.68536472 C-75.69926307 174.49543306 -74.76951119 172.30602006 -73.8395319 170.11670017 C-70.57117752 162.41849929 -67.33093451 154.71047175 -64.17278385 146.96630955 C-61.93303014 141.49104171 -59.60186136 136.05655861 -57.26287174 130.62304783 C-54.28280991 123.69885984 -51.35148058 116.75875718 -48.49504948 109.7827158 C-45.9612109 103.59498241 -43.39717976 97.42009254 -40.82537174 91.24804783 C-40.44260075 90.32854343 -40.05982975 89.40903904 -39.66545963 88.46167088 C-32.95509354 72.36262373 -26.15429043 56.30119406 -19.37127018 40.23266697 C-18.54525598 38.27570656 -17.71941113 36.31867465 -16.89373112 34.36157322 C-14.534822 28.77030852 -12.17357816 23.18004448 -9.80767155 17.59173679 C-9.13386024 15.99963223 -8.46071444 14.40724578 -7.78838444 12.81451511 C-6.94112044 10.80826434 -6.090836 8.8033266 -5.23943424 6.79882908 C-4.77875553 5.71126316 -4.31807682 4.62369724 -3.84343815 3.50317478 C-2.32674487 0.16240598 -2.32674487 0.16240598 0 0 Z " fill="#000000" transform="translate(1243.7628717422485,56.876952171325684)"/>
<path d="M0 0 C70.29 0 140.58 0 213 0 C213 18.81 213 37.62 213 57 C185.61 57 158.22 57 130 57 C130 63.93 130 70.86 130 78 C154.42 78 178.84 78 204 78 C204 97.14 204 116.28 204 136 C179.91 136 155.82 136 131 136 C131 143.26 131 150.52 131 158 C133.53937256 157.99476318 136.07874512 157.98952637 138.69506836 157.98413086 C147.06501061 157.96759539 155.43495357 157.95652895 163.8049078 157.94818783 C168.88191018 157.9429589 173.95889589 157.93586108 179.03588867 157.92456055 C183.93120552 157.91373201 188.82650629 157.90772324 193.72183418 157.90512276 C195.59382951 157.90326845 197.46582391 157.89964772 199.33781242 157.89426994 C201.95040699 157.88705996 204.56293427 157.88600904 207.17553711 157.88647461 C208.34833725 157.8810817 208.34833725 157.8810817 209.54483032 157.87557983 C214.88594784 157.88594784 214.88594784 157.88594784 216 159 C216.09887792 160.74382535 216.12799032 162.49165543 216.12939453 164.23828125 C216.13254669 165.35614014 216.13569885 166.47399902 216.13894653 167.62573242 C216.13591019 169.45068237 216.13591019 169.45068237 216.1328125 171.3125 C216.13376923 172.55169189 216.13472595 173.79088379 216.13571167 175.06762695 C216.13639374 177.69388281 216.13503538 180.32004633 216.13037109 182.94628906 C216.12467381 186.31928714 216.12795302 189.69220565 216.13394356 193.06520081 C216.1384177 196.27263677 216.13528882 199.480063 216.1328125 202.6875 C216.13483673 203.9041333 216.13686096 205.1207666 216.13894653 206.37426758 C216.13421829 208.05105591 216.13421829 208.05105591 216.12939453 209.76171875 C216.12859894 210.75131592 216.12780334 211.74091309 216.12698364 212.76049805 C216 215 216 215 215 216 C212.65972876 216.09762224 210.34901619 216.12997604 208.00828552 216.12025452 C207.26830812 216.12110894 206.52833072 216.12196337 205.76592976 216.12284368 C203.26767587 216.12450069 200.76948802 216.11897353 198.27124023 216.11352539 C196.48786419 216.11324354 194.70448803 216.11340121 192.92111206 216.1139679 C188.06387809 216.11425596 183.20666859 216.10835788 178.34944034 216.10139394 C173.27919052 216.09516179 168.20894019 216.09455671 163.13868713 216.09336853 C153.53036307 216.0902548 143.92205032 216.08204086 134.31373125 216.07201904 C123.37800472 216.06085919 112.44227766 216.05534778 101.50654685 216.05032361 C79.00435828 216.03985828 56.50217978 216.02225804 34 216 C34.0040642 215.06000939 34.0081284 214.12001879 34.01231575 213.15154362 C34.10897401 190.26576166 34.14805376 167.38043127 34.12697029 144.49444675 C34.11810348 133.42680428 34.12785629 122.3597663 34.18164062 111.29223633 C34.22847909 101.64423611 34.24018007 91.99693796 34.2099179 82.3488602 C34.19511848 77.24127595 34.19775754 72.1350589 34.24249649 67.02762032 C34.28408633 62.21624771 34.2785554 57.40718965 34.23747826 52.59583473 C34.23063152 50.83384596 34.24074055 49.07169357 34.26943016 47.30992508 C34.60038229 37.63164977 34.60038229 37.63164977 30.81377792 29.00935173 C28.31653824 26.74002636 25.80580474 24.8647666 23 23 C21.82237601 21.96124014 20.6602047 20.90395848 19.53125 19.8125 C19.02746826 19.34569824 18.52368652 18.87889648 18.00463867 18.39794922 C17.50810791 17.93662598 17.01157715 17.47530273 16.5 17 C13.34426711 14.06896999 10.18525046 11.14716204 6.94921875 8.3046875 C6.03785156 7.50289063 5.12648438 6.70109375 4.1875 5.875 C3.37667969 5.17117187 2.56585937 4.46734375 1.73046875 3.7421875 C0 2 0 2 0 0 Z " fill="#000000" transform="translate(1705,58)"/>
<path d="M0 0 C16.93262204 -0.02332869 33.86523908 -0.04097903 50.7978735 -0.05181217 C58.65944391 -0.05697519 66.52100435 -0.06401801 74.38256836 -0.07543945 C81.23225475 -0.0853861 88.08193392 -0.09185338 94.93162733 -0.09408849 C98.56069396 -0.09539563 102.18973994 -0.09848169 105.81879997 -0.10573006 C109.86350304 -0.11374356 113.90816989 -0.11399115 117.95288086 -0.11352539 C119.16488159 -0.11712067 120.37688232 -0.12071594 121.62561035 -0.12442017 C123.26843239 -0.12235817 123.26843239 -0.12235817 124.94444275 -0.12025452 C126.38105711 -0.12163721 126.38105711 -0.12163721 127.84669399 -0.12304783 C130 0 130 0 131 1 C131.0987757 2.90864049 131.12632207 4.82098315 131.12698364 6.73217773 C131.12980347 7.97740204 131.13262329 9.22262634 131.13552856 10.50558472 C131.13358397 11.89825454 131.13153578 13.29092422 131.12939453 14.68359375 C131.13074853 16.14022872 131.13252845 17.59686334 131.13470459 19.05349731 C131.13927912 23.02032936 131.13748928 26.98713552 131.1343255 30.95396805 C131.131802 35.09618451 131.13413941 39.23839869 131.13571167 43.38061523 C131.1375334 50.33805745 131.13512698 57.29548908 131.13037109 64.25292969 C131.12492847 72.30827528 131.12669112 80.36359557 131.1321975 88.41894054 C131.13672855 95.32253073 131.13737922 102.22611328 131.13475883 109.12970448 C131.13319601 113.25842008 131.13300243 117.38712377 131.13629532 121.51583862 C131.13917391 125.39649522 131.13719857 129.27711903 131.13140106 133.15777206 C131.1300734 134.58607809 131.13046769 136.01438685 131.13266373 137.4426918 C131.13537495 139.38440099 131.13138066 141.32611617 131.12698364 143.26782227 C131.1264181 144.90159569 131.1264181 144.90159569 131.12584114 146.56837463 C131 149 131 149 130 150 C126.99186514 150.10062747 124.00664971 150.1361474 120.99804688 150.12939453 C120.0534108 150.13114685 119.10877472 150.13289917 118.13551331 150.13470459 C114.9965738 150.1391248 111.85769013 150.13618452 108.71875 150.1328125 C106.54781076 150.13348549 104.3768716 150.13445547 102.20593262 150.13571167 C97.64948817 150.13718887 93.09306328 150.13503337 88.53662109 150.13037109 C82.68173414 150.1246738 76.82689302 150.12795268 70.97200775 150.13394356 C66.48719942 150.13754857 62.00240204 150.13641086 57.51759338 150.13381577 C55.35811864 150.13314633 53.19864291 150.1339755 51.03916931 150.13629532 C48.02673692 150.13882086 45.01437987 150.13498264 42.00195312 150.12939453 C41.10009781 150.13141876 40.19824249 150.13344299 39.26905823 150.13552856 C33.11426231 150.11426231 33.11426231 150.11426231 32 149 C31.90947549 147.49959424 31.88866292 145.99492406 31.89561462 144.49180603 C31.89738708 143.51753662 31.89915955 142.54326721 31.90098572 141.53947449 C31.90779861 140.46160172 31.91461151 139.38372894 31.92163086 138.27319336 C31.92774939 135.93326361 31.93367588 133.59333336 31.93943787 131.25340271 C31.94411009 130.00516661 31.94878231 128.7569305 31.95359612 127.47086906 C31.97268306 120.88486881 31.95758754 114.29889592 31.94726562 107.71289062 C31.93448198 99.32053662 31.93237698 90.92864848 31.97583008 82.53637695 C32.01077056 75.76570321 32.00378263 68.99605877 31.97226143 62.22537422 C31.96733467 59.64463644 31.97663145 57.06383054 32.00047112 54.48319817 C32.03191916 50.86518399 32.01367604 47.25052779 31.98413086 43.63256836 C32.00511337 42.5688652 32.02609589 41.50516205 32.04771423 40.40922546 C31.94466542 34.70792289 31.26553604 31.62607227 27.19239807 27.49562073 C25.81864969 26.30254328 24.42104879 25.13632688 23 24 C21.64300254 22.81573589 20.28843218 21.62867835 18.9375 20.4375 C18.27621094 19.86902344 17.61492187 19.30054688 16.93359375 18.71484375 C14.44293873 16.5059598 12.13194609 14.14800015 9.80859375 11.765625 C7.18170443 9.20114558 4.35241713 6.89152663 1.50390625 4.578125 C0 3 0 3 0 0 Z " fill="#000000" transform="translate(315,124)"/>
<path d="M0 0 C32.67 0 65.34 0 99 0 C99 15.84 99 31.68 99 48 C97.07853226 49.92146774 94.21281685 49.12016542 91.65637207 49.12442017 C90.28720642 49.11902725 90.28720642 49.11902725 88.89038086 49.11352539 C87.93438492 49.11367142 86.97838898 49.11381744 85.99342346 49.1139679 C82.81720755 49.11326835 79.64104948 49.10547403 76.46484375 49.09765625 C74.26908907 49.09579222 72.07333398 49.09436825 69.87757874 49.09336853 C64.08579367 49.08954219 58.2940335 49.07971091 52.5022583 49.06866455 C45.55980697 49.05665894 38.61734734 49.05204875 31.67488861 49.04621124 C21.11657507 49.03649922 10.5583162 49.01734347 0 49 C0 32.83 0 16.66 0 0 Z " fill="#000000" transform="translate(347,58)"/>
<path d="M0 0 C1.37478516 0.01740234 1.37478516 0.01740234 2.77734375 0.03515625 C3.69644531 0.04417969 4.61554688 0.05320312 5.5625 0.0625 C6.27277344 0.07410156 6.98304687 0.08570313 7.71484375 0.09765625 C10.35516047 6.63558336 12.10292723 13.238437 13.71484375 20.09765625 C13.93418579 19.29545654 13.93418579 19.29545654 14.15795898 18.47705078 C14.82059896 16.05832286 15.48643181 13.64048529 16.15234375 11.22265625 C16.38244141 10.38089844 16.61253906 9.53914063 16.84960938 8.671875 C17.1831543 7.46337891 17.1831543 7.46337891 17.5234375 6.23046875 C17.82979126 5.11502686 17.82979126 5.11502686 18.14233398 3.97705078 C18.71484375 2.09765625 18.71484375 2.09765625 19.71484375 0.09765625 C23.01484375 0.09765625 26.31484375 0.09765625 29.71484375 0.09765625 C29.71484375 11.97765625 29.71484375 23.85765625 29.71484375 36.09765625 C27.40484375 36.09765625 25.09484375 36.09765625 22.71484375 36.09765625 C22.71484375 30.81765625 22.71484375 25.53765625 22.71484375 20.09765625 C21.43971762 24.98815989 21.43971762 24.98815989 20.17211914 29.88061523 C18.82595486 34.98654514 18.82595486 34.98654514 17.71484375 36.09765625 C15.38186942 36.13858562 13.0477915 36.14007348 10.71484375 36.09765625 C8.63349068 30.79966661 7.00192762 25.64201754 5.71484375 20.09765625 C5.38484375 25.37765625 5.05484375 30.65765625 4.71484375 36.09765625 C2.07484375 36.09765625 -0.56515625 36.09765625 -3.28515625 36.09765625 C-3.30980723 31.13143276 -3.32799274 26.16524459 -3.34008789 21.19897461 C-3.34512815 19.50821309 -3.3519603 17.81745596 -3.3605957 16.12670898 C-3.37267482 13.70164918 -3.37838748 11.27664681 -3.3828125 8.8515625 C-3.38797379 8.09114151 -3.39313507 7.33072052 -3.39845276 6.54725647 C-3.39864863 4.73033055 -3.34712902 2.91352498 -3.28515625 1.09765625 C-2.28515625 0.09765625 -2.28515625 0.09765625 0 0 Z " fill="#000000" transform="translate(1970.28515625,14.90234375)"/>
<path d="M0 0 C4.31248609 -0.02886537 8.62494762 -0.04675255 12.9375 -0.0625 C14.16919922 -0.07087891 15.40089844 -0.07925781 16.66992188 -0.08789062 C17.83974609 -0.09111328 19.00957031 -0.09433594 20.21484375 -0.09765625 C21.84087524 -0.10551147 21.84087524 -0.10551147 23.49975586 -0.11352539 C26 0 26 0 27 1 C27.04080783 2.99958364 27.04254356 5.00045254 27 7 C23.7 7 20.4 7 17 7 C17 16.57 17 26.14 17 36 C14.36 36 11.72 36 9 36 C9 26.43 9 16.86 9 7 C6.03 7 3.06 7 0 7 C0 4.69 0 2.38 0 0 Z " fill="#000000" transform="translate(1938,15)"/>
</svg>
