<?xml version="1.0" standalone="no"?>
<!DOCTYPE svg PUBLIC "-//W3C//DTD SVG 20010904//EN"
 "http://www.w3.org/TR/2001/REC-SVG-20010904/DTD/svg10.dtd">
<svg version="1.0" xmlns="http://www.w3.org/2000/svg"
 width="461.000000pt" height="95.000000pt" viewBox="0 0 461.000000 95.000000"
 preserveAspectRatio="xMidYMid meet">
<metadata>
Created by potrace 1.16, written by Peter Selinger 2001-2019
</metadata>
<g transform="translate(0.000000,95.000000) scale(0.100000,-0.100000)"
fill="#000000" stroke="none">
<path d="M4543 934 c-9 -24 10 -49 38 -49 20 0 24 5 24 30 0 25 -4 30 -28 33
-18 2 -29 -2 -34 -14z"/>
<path d="M1654 856 c-89 -41 -134 -118 -134 -226 0 -70 16 -121 52 -165 47
-56 100 -79 188 -79 64 -1 82 3 122 27 44 26 98 95 98 125 0 19 -119 16 -127
-3 -8 -23 -57 -45 -97 -45 -43 0 -96 41 -96 76 l0 24 166 0 167 0 -5 63 c-15
180 -174 277 -334 203z m166 -106 c11 -11 20 -24 20 -29 0 -5 3 -16 6 -25 5
-14 -7 -16 -94 -16 l-101 0 11 30 c5 17 20 37 31 45 32 22 103 19 127 -5z"/>
<path d="M2119 870 c-72 -22 -109 -71 -109 -145 0 -66 34 -96 142 -124 112
-29 148 -46 148 -70 0 -48 -95 -68 -144 -30 -14 11 -26 29 -26 40 0 17 -7 19
-66 19 l-67 0 6 -42 c12 -90 125 -149 255 -134 97 11 165 61 178 132 14 76
-29 133 -120 158 -31 9 -81 23 -112 31 -51 15 -55 18 -52 43 3 24 8 27 42 30
58 5 85 -5 92 -33 6 -23 10 -25 70 -25 l64 0 0 31 c0 41 -60 103 -115 118 -45
12 -147 13 -186 1z"/>
<path d="M2650 869 c-13 -5 -33 -17 -42 -26 -17 -15 -18 -15 -18 5 0 20 -5 22
-70 22 l-70 0 2 -297 3 -298 68 -3 67 -3 0 86 0 86 26 -20 c91 -72 229 -38
289 71 26 47 30 63 30 138 0 75 -4 91 -30 139 -40 73 -89 104 -169 108 -33 2
-72 -2 -86 -8z m113 -129 c72 -85 29 -250 -65 -250 -66 0 -108 57 -108 144 0
90 35 136 104 136 37 0 48 -5 69 -30z"/>
<path d="M3071 865 c-51 -16 -88 -48 -107 -92 -25 -59 -21 -63 54 -63 66 0 67
1 82 33 14 29 19 32 66 35 55 3 84 -13 84 -47 0 -29 -21 -40 -101 -51 -116
-17 -144 -27 -179 -67 -30 -34 -32 -40 -28 -95 3 -46 10 -64 32 -87 53 -55
168 -65 243 -21 32 19 33 19 43 0 9 -17 21 -20 73 -20 l62 0 -3 177 c-2 98 -8
195 -13 215 -16 63 -88 98 -198 97 -36 0 -86 -6 -110 -14z m175 -297 c-8 -54
-44 -88 -92 -88 -51 0 -74 16 -74 49 0 37 20 52 88 67 88 19 85 20 78 -28z"/>
<path d="M4310 869 c-14 -6 -35 -20 -47 -31 l-23 -21 0 26 0 27 -142 -3 -143
-2 -39 -149 -40 -150 -31 125 c-17 68 -35 137 -39 152 -6 27 -8 28 -73 25
l-67 -3 -37 -149 -36 -149 -22 84 c-13 46 -31 113 -40 149 l-18 65 -71 3 c-54
2 -72 0 -72 -10 0 -7 33 -114 73 -238 l73 -225 69 0 70 0 26 100 c15 55 32
120 39 145 l13 45 32 -120 c17 -66 35 -132 39 -147 6 -27 8 -28 76 -28 l69 0
55 173 c30 94 63 199 73 232 l18 59 5 -229 5 -230 68 -3 67 -3 0 133 c1 152
10 206 41 231 26 21 82 22 103 1 23 -23 26 -43 29 -209 l2 -150 68 -3 67 -3 0
183 c0 171 -2 187 -22 228 -14 27 -36 50 -58 62 -38 20 -119 23 -160 7z"/>
<path d="M25 845 l-25 -24 0 -391 c0 -377 1 -391 20 -410 19 -19 33 -20 424
-20 l405 0 20 26 c20 26 21 37 21 409 l0 383 -31 26 -31 26 -389 0 -390 0 -24
-25z m392 -117 c68 -64 -25 -168 -98 -109 -17 13 -23 29 -23 56 0 67 72 99
121 53z m6 -246 c24 -21 22 -77 -3 -102 -30 -30 -83 -27 -109 6 -25 32 -26 52
-5 82 30 43 78 48 117 14z m214 18 c28 -10 53 -45 53 -74 0 -7 -9 -25 -21 -40
-40 -50 -129 -23 -129 40 0 34 17 63 43 74 12 5 22 9 23 9 1 1 15 -4 31 -9z
m-217 -260 c30 -30 27 -83 -6 -109 -30 -24 -43 -26 -77 -10 -25 11 -47 47 -47
75 0 8 11 26 25 39 30 31 77 33 105 5z"/>
<path d="M1070 630 l0 -240 65 0 65 0 0 96 0 96 75 -4 c41 -2 79 -8 86 -15 6
-6 13 -39 16 -74 8 -95 12 -99 89 -99 59 0 65 2 59 18 -12 28 -24 94 -25 133
0 21 -9 47 -21 62 l-20 27 20 22 c40 42 40 112 0 163 -38 47 -73 55 -249 55
l-160 0 0 -240z m304 108 c8 -13 8 -23 0 -35 -9 -14 -28 -19 -93 -21 l-81 -3
0 41 0 41 81 -3 c65 -2 84 -7 93 -20z"/>
<path d="M1070 110 l0 -110 85 0 c84 0 85 0 85 25 0 24 -3 25 -60 25 -53 0
-60 2 -60 20 0 18 7 20 56 20 52 0 55 1 52 23 -3 19 -10 22 -55 25 -37 2 -53
7 -53 17 0 10 16 15 58 17 49 3 57 6 57 23 0 18 -8 20 -82 23 l-83 3 0 -111z
m123 -7 c-13 -2 -35 -2 -50 0 -16 2 -5 4 22 4 28 0 40 -2 28 -4z m5 -90 c-21
-2 -57 -2 -80 0 -24 2 -7 4 37 4 44 0 63 -2 43 -4z"/>
<path d="M1340 110 l0 -110 25 0 c23 0 24 4 27 62 l3 62 38 -62 c33 -53 42
-62 68 -62 l29 0 0 110 0 110 -30 0 c-30 0 -30 0 -30 -57 -1 -54 -2 -57 -16
-38 -8 11 -19 20 -24 20 -4 0 -12 4 -17 9 -5 5 -3 6 5 2 17 -10 15 1 -5 35
-13 21 -25 29 -45 29 l-28 0 0 -110z m166 -98 c-10 -2 -22 0 -28 6 -6 6 0 7
19 4 21 -5 23 -7 9 -10z m-129 2 c-3 -3 -12 -4 -19 -1 -8 3 -5 6 6 6 11 1 17
-2 13 -5z"/>
<path d="M1620 195 c0 -22 4 -25 33 -25 l32 0 0 -82 0 -83 28 -3 27 -3 0 85 0
86 35 0 c31 0 35 3 35 25 0 25 0 25 -95 25 -95 0 -95 0 -95 -25z m107 -181
c-3 -3 -12 -4 -19 -1 -8 3 -5 6 6 6 11 1 17 -2 13 -5z"/>
<path d="M1900 110 l0 -110 85 0 c84 0 85 0 85 25 0 24 -3 25 -55 25 -48 0
-55 2 -55 20 0 17 7 20 50 20 47 0 50 2 50 25 0 23 -3 25 -50 25 -38 0 -50 4
-50 15 0 12 13 15 55 15 52 0 55 1 55 25 0 25 -1 25 -85 25 l-85 0 0 -110z
m157 78 c-3 -8 -6 -5 -6 6 -1 11 2 17 5 13 3 -3 4 -12 1 -19z m-7 -78 c0 -5
-21 -9 -47 -8 l-48 1 45 7 c25 4 46 8 48 8 1 1 2 -2 2 -8z m-22 -97 c-21 -2
-57 -2 -80 0 -24 2 -7 4 37 4 44 0 63 -2 43 -4z"/>
<path d="M2170 110 l0 -110 30 0 c28 0 30 2 30 41 0 39 1 40 33 37 28 -3 33
-7 37 -38 4 -29 10 -36 33 -38 24 -3 27 0 27 27 0 38 -10 62 -21 55 -13 -8 -7
18 9 34 18 20 15 59 -8 82 -16 16 -33 20 -95 20 l-75 0 0 -110z m130 40 c0
-16 -7 -20 -35 -20 -28 0 -35 4 -35 20 0 16 7 20 35 20 28 0 35 -4 35 -20z
m-83 -136 c-3 -3 -12 -4 -19 -1 -8 3 -5 6 6 6 11 1 17 -2 13 -5z m130 0 c-3
-3 -12 -4 -19 -1 -8 3 -5 6 6 6 11 1 17 -2 13 -5z"/>
<path d="M2450 195 c0 -21 5 -25 30 -25 l30 0 0 -85 0 -85 30 0 30 0 0 85 0
85 30 0 c25 0 30 4 30 25 0 25 -1 25 -90 25 -89 0 -90 0 -90 -25z m93 -177 c8
-5 6 -8 -5 -8 -16 0 -18 10 -16 83 l2 82 3 -75 c3 -43 9 -78 16 -82z"/>
<path d="M2717 118 c-20 -57 -37 -106 -37 -110 0 -5 11 -8 25 -8 17 0 29 8 37
25 9 19 19 25 44 25 26 0 33 -5 38 -25 5 -20 13 -25 36 -25 17 0 30 3 30 8 0
4 -17 52 -38 107 -35 94 -40 100 -67 103 -29 3 -31 1 -68 -100z m82 -20 c1 -5
-6 -8 -14 -8 -16 0 -19 9 -8 36 6 16 7 16 14 -2 4 -10 8 -22 8 -26z m-76 -85
c-7 -2 -19 -2 -25 0 -7 3 -2 5 12 5 14 0 19 -2 13 -5z m150 0 c-7 -2 -19 -2
-25 0 -7 3 -2 5 12 5 14 0 19 -2 13 -5z"/>
<path d="M2980 110 l0 -110 30 0 30 0 0 110 0 110 -30 0 -30 0 0 -110z m43
-97 c-7 -2 -19 -2 -25 0 -7 3 -2 5 12 5 14 0 19 -2 13 -5z"/>
<path d="M3150 110 l0 -110 31 0 31 0 -4 60 c-1 33 -2 60 -1 60 1 0 11 -16 23
-35 12 -19 27 -32 32 -29 7 4 8 2 4 -4 -13 -22 13 -52 44 -52 l30 0 0 110 0
110 -30 0 c-30 0 -30 -1 -30 -53 0 -40 -4 -54 -15 -54 -8 0 -12 4 -9 9 8 12
-36 79 -47 73 -5 -4 -6 1 -3 9 5 12 -1 16 -25 16 l-31 0 0 -110z m166 -98
c-10 -2 -22 0 -28 6 -6 6 0 7 19 4 21 -5 23 -7 9 -10z m-129 2 c-3 -3 -12 -4
-19 -1 -8 3 -5 6 6 6 11 1 17 -2 13 -5z"/>
<path d="M3450 110 l0 -110 30 0 c29 0 30 2 31 48 l1 47 16 -48 c14 -42 19
-48 41 -45 19 2 28 13 42 53 l17 50 1 -52 c1 -52 2 -53 31 -53 l30 0 0 110 0
110 -40 0 -40 0 -17 -60 c-9 -33 -19 -60 -23 -60 -4 0 -15 27 -25 60 -18 60
-18 60 -57 60 l-38 0 0 -110z m130 -96 c0 -2 -7 -4 -15 -4 -8 0 -15 4 -15 10
0 5 7 7 15 4 8 -4 15 -8 15 -10z m-93 0 c-3 -3 -12 -4 -19 -1 -8 3 -5 6 6 6
11 1 17 -2 13 -5z m190 0 c-3 -3 -12 -4 -19 -1 -8 3 -5 6 6 6 11 1 17 -2 13
-5z"/>
<path d="M3800 110 l0 -110 85 0 c84 0 85 0 85 25 0 24 -3 25 -55 25 -48 0
-55 2 -55 20 0 17 7 20 50 20 47 0 50 2 50 25 0 23 -3 25 -50 25 -38 0 -50 4
-50 15 0 12 13 15 55 15 52 0 55 1 55 25 0 25 -1 25 -85 25 l-85 0 0 -110z
m133 -7 c-13 -2 -35 -2 -50 0 -16 2 -5 4 22 4 28 0 40 -2 28 -4z m27 -78 c0
-12 -14 -15 -77 -13 l-78 2 73 3 c39 2 72 8 72 13 0 6 2 10 5 10 3 0 5 -7 5
-15z"/>
<path d="M4080 110 l0 -110 30 0 c30 0 30 0 30 58 l1 57 36 -57 c30 -49 41
-58 64 -58 l29 0 0 111 0 110 -27 -3 c-27 -3 -28 -5 -28 -64 l0 -62 -23 39
c-13 22 -27 37 -32 34 -5 -3 -12 0 -16 6 -4 8 -3 9 4 5 15 -9 15 -1 2 25 -7
12 -21 19 -40 19 l-30 0 0 -110z m166 -98 c-10 -2 -22 0 -28 6 -6 6 0 7 19 4
21 -5 23 -7 9 -10z m-123 1 c-7 -2 -19 -2 -25 0 -7 3 -2 5 12 5 14 0 19 -2 13
-5z"/>
<path d="M4370 195 c0 -21 5 -25 30 -25 l30 0 0 -85 0 -85 30 0 30 0 0 85 0
85 30 0 c25 0 30 4 30 25 0 25 -1 25 -90 25 -89 0 -90 0 -90 -25z m167 -7 c-3
-8 -6 -5 -6 6 -1 11 2 17 5 13 3 -3 4 -12 1 -19z m-64 -175 c-7 -2 -19 -2 -25
0 -7 3 -2 5 12 5 14 0 19 -2 13 -5z"/>
</g>
</svg>
