<?xml version="1.0" encoding="UTF-8"?>
<svg version="1.1" xmlns="http://www.w3.org/2000/svg" width="600" height="217">
<path d="M0 0 C4.95 0 9.9 0 15 0 C15 4.62 15 9.24 15 14 C18.96 14 22.92 14 27 14 C27 9.38 27 4.76 27 0 C31.95 0 36.9 0 42 0 C42 4.62 42 9.24 42 14 C46.29 14 50.58 14 55 14 C55 18.62 55 23.24 55 28 C50.71 28 46.42 28 42 28 C42 45.82 42 63.64 42 82 C37.05 82 32.1 82 27 82 C27 64.18 27 46.36 27 28 C23.04 28 19.08 28 15 28 C15 45.82 15 63.64 15 82 C10.05 82 5.1 82 0 82 C0 64.18 0 46.36 0 28 C-14.56762665 30.24117333 -20.25879525 33.7378934 -29.87890625 43.5859375 C-30.57644516 44.28772125 -31.27398407 44.989505 -31.99266052 45.71255493 C-34.18983783 47.92634609 -36.37627228 50.15040047 -38.5625 52.375 C-40.06244907 53.89001823 -41.56309411 55.40434774 -43.06445312 56.91796875 C-46.71772027 60.60407535 -50.36140027 64.29941661 -54 68 C-57.12610718 66.50921226 -59.30195297 64.96897051 -61.75 62.5 C-62.36359375 61.8915625 -62.9771875 61.283125 -63.609375 60.65625 C-65 59 -65 59 -65 57 C-63.77294922 55.80517578 -63.77294922 55.80517578 -61.9296875 54.3203125 C-57.71479073 50.73959729 -53.86318157 46.88664237 -50.0078125 42.9296875 C-48.7122497 41.608063 -47.41667658 40.28644861 -46.12109375 38.96484375 C-44.11857273 36.91914169 -42.12018779 34.87001327 -40.13232422 32.81005859 C-22.18014135 14.23807163 -22.18014135 14.23807163 -10.64453125 13.90234375 C-7.09635417 13.93489583 -3.54817708 13.96744792 0 14 C0 9.38 0 4.76 0 0 Z M1 15 C1 18.96 1 22.92 1 27 C5.29 27 9.58 27 14 27 C14 23.04 14 19.08 14 15 C9.71 15 5.42 15 1 15 Z " fill="#F64F7D" transform="translate(194,67)"/>
<path d="M0 0 C9.12302484 6.94420187 9.12302484 6.94420187 10.81455994 10.90948486 C11 13 11 13 9.79151917 14.80975342 C9.16752731 15.42264221 8.54353546 16.03553101 7.90063477 16.66699219 C7.19983292 17.36741638 6.49903107 18.06784058 5.7769928 18.78948975 C5.00624924 19.53442688 4.23550568 20.27936401 3.44140625 21.046875 C2.66312973 21.81807678 1.88485321 22.58927856 1.08299255 23.3838501 C-1.4123828 25.85117418 -3.92455759 28.30058232 -6.4375 30.75 C-8.12938815 32.41681955 -9.82015864 34.08477439 -11.50976562 35.75390625 C-15.6602844 39.84921295 -19.8247388 43.92993013 -24 48 C-22.5525088 48.18437195 -21.10417695 48.36215281 -19.65551758 48.53710938 C-18.44585075 48.68666077 -18.44585075 48.68666077 -17.21174622 48.8392334 C-14.64042208 49.02613687 -12.99118075 48.64444097 -10.6875 47.5 C-6.20596292 45.67700187 -6.20596292 45.67700187 -3 47 C-0.859375 48.77734375 -0.859375 48.77734375 1.25 50.9375 C1.95640625 51.64777344 2.6628125 52.35804688 3.390625 53.08984375 C5 55 5 55 5 57 C3.25318707 57.98484108 1.5024149 58.96266187 -0.25 59.9375 C-1.22453125 60.48277344 -2.1990625 61.02804688 -3.203125 61.58984375 C-10.53109909 65.2845346 -20.0227022 65.16292005 -27.92578125 63.31640625 C-35.20543209 60.58795236 -41.50269569 56.38149602 -46 50 C-44.63886987 46.95418514 -43.10669904 44.86160974 -40.74365234 42.51660156 C-40.08311859 41.85621887 -39.42258484 41.19583618 -38.74203491 40.51544189 C-38.03052277 39.81425232 -37.31901062 39.11306274 -36.5859375 38.390625 C-35.85629791 37.66381531 -35.12665833 36.93700562 -34.37490845 36.18817139 C-32.0462612 33.87070802 -29.71075174 31.5603005 -27.375 29.25 C-25.79381347 27.67884556 -24.21307875 26.10723629 -22.6328125 24.53515625 C-18.7604331 20.68481347 -14.88239829 16.84023883 -11 13 C-15.64814934 10.52981634 -18.91881006 10.82411652 -24 12 C-29.26065675 13.983021 -32.55467068 16.92820585 -35 22 C-35.23504884 23.91357412 -35.4404707 25.83089531 -35.625 27.75 C-36.61960265 35.40078965 -41.28820437 39.23665752 -47 44 C-47.99 43.67 -48.98 43.34 -50 43 C-53.265215 33.71991526 -52.97037649 24.66077281 -49.25390625 15.5703125 C-45.47969068 7.83375847 -40.50144771 3.1516633 -33 -1 C-32.39671875 -1.34160156 -31.7934375 -1.68320313 -31.171875 -2.03515625 C-21.75192173 -6.4379605 -8.74063497 -5.45566123 0 0 Z " fill="#DA5087" transform="translate(300,85)"/>
<path d="M0 0 C4.95 0 9.9 0 15 0 C15 4.95 15 9.9 15 15 C10.71 15.33 6.42 15.66 2 16 C2 19.3 2 22.6 2 26 C6.29 26.33 10.58 26.66 15 27 C15 45.15 15 63.3 15 82 C10.05 82 5.1 82 0 82 C0 64.18 0 46.36 0 28 C-14.09281974 30.34880329 -19.8906624 34.38837789 -29.31640625 44.0234375 C-30.42930275 45.14270126 -30.42930275 45.14270126 -31.56468201 46.28457642 C-33.90450433 48.64102826 -36.2336054 51.00775281 -38.5625 53.375 C-40.15880446 54.98637158 -41.75580347 56.59705542 -43.35351562 58.20703125 C-47.24373595 62.13011187 -51.12523778 66.06165406 -55 70 C-58.12610718 68.50921226 -60.30195297 66.96897051 -62.75 64.5 C-63.36359375 63.8915625 -63.9771875 63.283125 -64.609375 62.65625 C-66 61 -66 61 -66 59 C-64.51119995 57.53738403 -64.51119995 57.53738403 -62.46435547 55.84423828 C-58.25935113 52.26668798 -54.40740996 48.45680012 -50.5703125 44.4921875 C-49.18420222 43.07883008 -47.79746422 41.66608807 -46.41015625 40.25390625 C-44.26279687 38.06335427 -42.11954275 35.86935831 -39.98681641 33.66455078 C-37.90135509 31.51195574 -35.79986573 29.37609975 -33.6953125 27.2421875 C-33.07206085 26.58999237 -32.4488092 25.93779724 -31.80667114 25.26583862 C-26.03982384 19.46513378 -18.28395527 14.1645067 -9.86328125 13.90234375 C-6.57552083 13.93489583 -3.28776042 13.96744792 0 14 C0 9.38 0 4.76 0 0 Z " fill="#C45FBA" transform="translate(364,67)"/>
<path d="M0 0 C3.21524305 1.40844718 5.32183868 3.10344786 7.75 5.625 C8.67039062 6.57246094 8.67039062 6.57246094 9.609375 7.5390625 C10.06828125 8.02117187 10.5271875 8.50328125 11 9 C10.731875 9.639375 10.46375 10.27875 10.1875 10.9375 C9.795625 11.948125 9.40375 12.95875 9 14 C8.73574219 14.67804688 8.47148438 15.35609375 8.19921875 16.0546875 C5.02931534 24.73811959 5.4372261 30.97101473 8.80078125 39.515625 C11.94785973 46.0353055 18.02874085 49.94243318 24.6875 52.3125 C31.1954678 53.69637821 38.19913988 53.42145432 43.9375 49.875 C47 48 47 48 48.92578125 48.13671875 C51.63805577 49.26555617 53.20238375 50.84058929 55.25 52.9375 C55.95640625 53.64777344 56.6628125 54.35804688 57.390625 55.08984375 C59 57 59 57 59 59 C56.62109375 60.65625 56.62109375 60.65625 53.4375 62.5 C52.40496094 63.1084375 51.37242187 63.716875 50.30859375 64.34375 C40.3754739 69.31617363 27.58364024 69.92053415 17 66.4375 C4.97189618 61.25391656 -3.00792048 51.87359154 -8 40 C-10.9308884 29.75832671 -10.0053927 17.92772861 -5.37890625 8.4375 C-3.71354043 5.49362388 -2.02999236 2.70665647 0 0 Z " fill="#FF6334" transform="translate(77,81)"/>
<path d="M0 0 C5.22928022 0.04447841 10.4573901 0.11464669 15.68603516 0.20751953 C17.46067942 0.23555549 19.23544453 0.2568555 21.01025391 0.27099609 C35.11843895 0.39008601 45.1370326 1.36087687 55.796875 11.484375 C60.55216499 16.91417421 64.13548291 23.8841896 64.11352539 31.19604492 C64.11341209 32.45701241 64.11341209 32.45701241 64.11329651 33.74345398 C64.10813522 34.64666885 64.10297394 35.54988373 64.09765625 36.48046875 C64.0962413 37.40845779 64.09482635 38.33644684 64.09336853 39.29255676 C64.08776937 42.25757058 64.07521704 45.22250899 64.0625 48.1875 C64.05748489 50.19726453 64.052922 52.20703025 64.04882812 54.21679688 C64.03780021 59.14456032 64.02053617 64.07226737 64 69 C59.38 69 54.76 69 50 69 C49.98541748 67.92105469 49.97083496 66.84210938 49.95581055 65.73046875 C49.89749062 61.69710459 49.82026207 57.66427919 49.73754883 53.63134766 C49.70445707 51.89152828 49.67637693 50.15160561 49.65356445 48.41162109 C49.61972645 45.89896959 49.56739974 43.38725134 49.51171875 40.875 C49.50532883 40.10696045 49.4989389 39.3389209 49.49235535 38.54760742 C49.33079677 32.50644273 48.25854235 26.83274804 44.38671875 21.9765625 C43.82597656 21.53054687 43.26523437 21.08453125 42.6875 20.625 C42.13449219 20.16351563 41.58148438 19.70203125 41.01171875 19.2265625 C35.99656077 16.16877686 31.6149484 15.90312409 25.91748047 16.02734375 C18.79247084 16.12350133 13.12726679 16.17212225 7.77026367 11.04858398 C5.73208298 8.78643523 3.85546521 6.41286834 2 4 C1.34 3.67 0.68 3.34 0 3 C0 2.01 0 1.02 0 0 Z " fill="#2FB4ED" transform="translate(468,80)"/>
<path d="M0 0 C4.95 0 9.9 0 15 0 C15.09765625 10.83984375 15.09765625 10.83984375 15 14 C14 15 14 15 11.05859375 15.09765625 C7.70572917 15.06510417 4.35286458 15.03255208 1 15 C1 19.29 1 23.58 1 28 C-1.124375 28.20625 -3.24875 28.4125 -5.4375 28.625 C-15.87561749 29.63840947 -22.78871608 36.32775664 -29.87890625 43.5859375 C-30.57644516 44.28772125 -31.27398407 44.989505 -31.99266052 45.71255493 C-34.18983783 47.92634609 -36.37627228 50.15040047 -38.5625 52.375 C-40.06244907 53.89001823 -41.56309411 55.40434774 -43.06445312 56.91796875 C-46.71772027 60.60407535 -50.36140027 64.29941661 -54 68 C-57.12610718 66.50921226 -59.30195297 64.96897051 -61.75 62.5 C-62.36359375 61.8915625 -62.9771875 61.283125 -63.609375 60.65625 C-65 59 -65 59 -65 57 C-63.77294922 55.80517578 -63.77294922 55.80517578 -61.9296875 54.3203125 C-57.71479073 50.73959729 -53.86318157 46.88664237 -50.0078125 42.9296875 C-48.7122497 41.608063 -47.41667658 40.28644861 -46.12109375 38.96484375 C-44.11857273 36.91914169 -42.12018779 34.87001327 -40.13232422 32.81005859 C-22.18014135 14.23807163 -22.18014135 14.23807163 -10.64453125 13.90234375 C-7.09635417 13.93489583 -3.54817708 13.96744792 0 14 C0 9.38 0 4.76 0 0 Z " fill="#FE504D" transform="translate(194,67)"/>
<path d="M0 0 C3.21524305 1.40844718 5.32183868 3.10344786 7.75 5.625 C8.67039062 6.57246094 8.67039062 6.57246094 9.609375 7.5390625 C10.06828125 8.02117187 10.5271875 8.50328125 11 9 C9.125 13.75 9.125 13.75 8 16 C7.26097866 22.86234102 7.23917767 28.6960279 11.45703125 34.37890625 C15.77036614 38.91063784 20.54531562 40.62532821 26.7265625 41.12109375 C30.4868059 40.92080587 33.52940073 39.41176919 37 38 C40.81324044 38.31082079 42.64702254 40.27185827 45.25 42.9375 C45.95640625 43.64777344 46.6628125 44.35804688 47.390625 45.08984375 C49 47 49 47 49 49 C47.06374902 49.98163422 45.12595461 50.96022454 43.1875 51.9375 C42.10855469 52.48277344 41.02960938 53.02804688 39.91796875 53.58984375 C32.66047571 57.09714628 23.88181921 57.13909115 16.0703125 55.31640625 C5.60174994 51.38661875 -1.21814057 44.87768454 -6.03515625 34.84375 C-9.62772347 25.62004253 -8.81702961 16.40673033 -5.15625 7.359375 C-3.7809746 4.55306979 -2.17132453 2.24887184 0 0 Z " fill="#2E7DEA" transform="translate(395,93)"/>
<path d="M0 0 C7.63951838 6.25464284 12.86632253 14.27988875 14.37890625 24.15234375 C15.05272196 34.09112553 12.08372606 42.07991097 6.37890625 50.15234375 C3.1636632 48.74389657 1.05706757 47.04889589 -1.37109375 44.52734375 C-1.9846875 43.89570313 -2.59828125 43.2640625 -3.23046875 42.61328125 C-3.91882813 41.89011719 -3.91882813 41.89011719 -4.62109375 41.15234375 C-4.31171875 40.38921875 -4.00234375 39.62609375 -3.68359375 38.83984375 C-1.066608 32.22040921 -0.22428972 25.55226191 -3.12109375 18.83984375 C-6.0377679 13.78427522 -10.30205693 11.0849178 -15.859375 9.5234375 C-21.61919295 8.57838965 -25.29882441 9.98735283 -30.62109375 12.15234375 C-34.43433419 11.84152296 -36.26811629 9.88048548 -38.87109375 7.21484375 C-39.5775 6.50457031 -40.28390625 5.79429688 -41.01171875 5.0625 C-42.62109375 3.15234375 -42.62109375 3.15234375 -42.62109375 1.15234375 C-40.87428082 0.16750267 -39.12350865 -0.81031812 -37.37109375 -1.78515625 C-35.90929687 -2.60306641 -35.90929687 -2.60306641 -34.41796875 -3.4375 C-23.57068143 -8.90659319 -9.65009608 -6.80252675 0 0 Z " fill="#0C91E5" transform="translate(441.62109375,86.84765625)"/>
<path d="M0 0 C4.62 0 9.24 0 14 0 C14 18.15 14 36.3 14 55 C9.05 55 4.1 55 -1 55 C-1.02463993 47.32788327 -1.04283123 39.65578935 -1.05493164 31.98364258 C-1.05997377 29.37133381 -1.06680725 26.75902789 -1.07543945 24.14672852 C-1.08751036 20.40119732 -1.09322935 16.65570328 -1.09765625 12.91015625 C-1.10281754 11.73413345 -1.10797882 10.55811066 -1.11329651 9.34645081 C-1.11340981 7.72488319 -1.11340981 7.72488319 -1.11352539 6.07055664 C-1.115746 5.11347305 -1.11796661 4.15638947 -1.12025452 3.17030334 C-1 1 -1 1 0 0 Z " fill="#5771ED" transform="translate(365,94)"/>
<path d="M0 0 C1.1859375 0.00257812 2.371875 0.00515625 3.59375 0.0078125 C4.7796875 0.00523438 5.965625 0.00265625 7.1875 0 C10.09375 0.1328125 10.09375 0.1328125 11.09375 1.1328125 C11.18728163 2.82083235 11.21119791 4.51276457 11.20727539 6.20336914 C11.20719986 7.28441422 11.20712433 8.36545929 11.20704651 9.47926331 C11.20188522 10.6552861 11.19672394 11.8313089 11.19140625 13.04296875 C11.1899913 14.24014023 11.18857635 15.43731171 11.18711853 16.67076111 C11.18149979 20.51230316 11.16894411 24.35378793 11.15625 28.1953125 C11.15123741 30.79231687 11.14667409 33.38932215 11.14257812 35.98632812 C11.13152427 42.36851182 11.11424708 48.75065243 11.09375 55.1328125 C6.14375 55.1328125 1.19375 55.1328125 -3.90625 55.1328125 C-3.93088993 47.46069577 -3.94908123 39.78860185 -3.96118164 32.11645508 C-3.96622377 29.50414631 -3.97305725 26.89184039 -3.98168945 24.27954102 C-3.99376036 20.53400982 -3.99947935 16.78851578 -4.00390625 13.04296875 C-4.00906754 11.86694595 -4.01422882 10.69092316 -4.01954651 9.47926331 C-4.01965981 7.85769569 -4.01965981 7.85769569 -4.01977539 6.20336914 C-4.021996 5.24628555 -4.02421661 4.28920197 -4.02650452 3.30311584 C-3.84051031 -0.05363007 -3.41585524 0.15610091 0 0 Z " fill="#FE4F6B" transform="translate(197.90625,93.8671875)"/>
<path d="M0 0 C3.37308761 1.12436254 4.15123097 2.07342733 6.375 4.75 C8.37174589 7.13880102 10.0687157 9.05068957 12.58911133 10.90991211 C16.23791911 15.58666756 15.6248441 19.87774183 15.48828125 25.64453125 C15.47766914 27.33191658 15.47766914 27.33191658 15.46684265 29.0533905 C15.43889144 32.64044149 15.37614717 36.22592212 15.3125 39.8125 C15.28741827 42.24672222 15.26460489 44.68096895 15.24414062 47.11523438 C15.18906162 53.07742644 15.10277994 59.03844713 15 65 C10.38 65 5.76 65 1 65 C0.67 43.55 0.34 22.1 0 0 Z " fill="#07A2EA" transform="translate(463,84)"/>
<path d="M0 0 C2.71125063 1.85989174 4.71389629 3.60503421 7 6 C7 8 7 8 5.35546875 9.65625 C4.64003906 10.2646875 3.92460937 10.873125 3.1875 11.5 C2.47980469 12.1084375 1.77210938 12.716875 1.04296875 13.34375 C-1 15 -1 15 -4 17 C-4.680625 16.401875 -5.36125 15.80375 -6.0625 15.1875 C-13.16099195 9.90138897 -19.26935176 9.11881904 -28 10 C-32.29237727 11.08526881 -36.04394054 13.02197027 -40 15 C-42.97 12.03 -45.94 9.06 -49 6 C-46.34186699 0.68373398 -43.18360399 -0.47141269 -38 -3 C-36.824375 -3.598125 -35.64875 -4.19625 -34.4375 -4.8125 C-22.5284621 -8.88477538 -10.577099 -6.04796605 0 0 Z " fill="#FF7A17" transform="translate(131,73)"/>
<path d="M0 0 C4.95 0 9.9 0 15 0 C15 4.95 15 9.9 15 15 C4.16015625 15.09765625 4.16015625 15.09765625 1 15 C0 14 0 14 -0.09765625 10.83984375 C-0.04882812 5.41992188 -0.04882812 5.41992188 0 0 Z " fill="#9264D8" transform="translate(364,67)"/>
<path d="M0 0 C4.62 0 9.24 0 14 0 C14 4.62 14 9.24 14 14 C9.38 14 4.76 14 0 14 C0 9.38 0 4.76 0 0 Z " fill="#03ACEF" transform="translate(464,162)"/>
</svg>
