<?xml version="1.0" encoding="UTF-8"?>
<svg version="1.1" xmlns="http://www.w3.org/2000/svg" width="2000" height="2000">
<path d="M0 0 C3.37025478 0.00927651 6.74049075 0.01366483 10.11075592 0.0173378 C41.67931489 0.06526292 73.0328052 0.4947531 104.42545319 4.14914322 C107.0329303 4.44996561 109.64176107 4.73413618 112.25156403 5.01401138 C123.86883047 6.26892422 135.44217359 7.75700983 147.00400543 9.44662857 C148.27739777 9.63258591 148.27739777 9.63258591 149.5765152 9.82229996 C202.93836299 17.67248143 256.40020575 28.76616458 307.49277496 46.25717545 C311.51578128 47.61999611 315.5534608 48.93335818 319.59384918 50.24350357 C339.33050521 56.66482246 358.78242701 63.61427772 378.00400543 71.44662857 C378.66017853 71.71390762 379.31635162 71.98118668 379.99240875 72.25656509 C434.91997038 94.68801244 487.87081953 121.69316719 538.00400543 153.44662857 C539.0662735 154.1175856 539.0662735 154.1175856 540.15000153 154.80209732 C565.94175757 171.14198748 590.88505003 188.73467831 615.00400543 207.44662857 C615.60664215 207.9127858 616.20927887 208.37894302 616.83017731 208.85922623 C624.67319186 214.93384647 632.36734469 221.1752436 640.00180817 227.50986099 C644.45743774 231.20099129 648.96595481 234.78923038 653.63291168 238.21225357 C654.08537262 238.61959732 654.53783356 239.02694107 655.00400543 239.44662857 C655.00400543 240.10662857 655.00400543 240.76662857 655.00400543 241.44662857 C655.54541168 241.66963638 656.08681793 241.8926442 656.64463043 242.12240982 C659.75376175 243.86743551 662.18253863 246.19976314 664.75400543 248.63412857 C665.82888805 249.63611573 666.90440895 250.63741862 667.98056793 251.63803482 C668.50038239 252.12288345 669.02019684 252.60773209 669.55576324 253.1072731 C671.38341338 254.79751056 673.24847224 256.44055386 675.12900543 258.07162857 C682.7875578 264.73944418 690.18174741 271.56225545 697.32041168 278.78232193 C700.77043754 282.257385 704.31528127 285.53498392 708.04306793 288.71225357 C713.45992341 293.50325722 718.57039443 298.68719195 723.25400543 304.19662857 C726.63432553 308.15643212 730.30643661 311.78706 734.00400543 315.44662857 C738.28948176 319.6924814 742.48211238 323.94413527 746.38681793 328.54819107 C748.27605793 330.76599455 750.23140545 332.91621614 752.19150543 335.07162857 C761.09454057 344.94535238 769.62702878 355.12472315 778.00400543 365.44662857 C779.46224667 367.21753775 780.92058162 368.98836975 782.37900543 370.75912857 C790.28019279 380.43127171 797.928234 390.28348403 805.44150543 400.25912857 C806.29929596 401.39402725 806.29929596 401.39402725 807.17441559 402.55185318 C817.83702064 416.77407341 827.83505017 431.4716053 837.69150543 446.25912857 C838.53532272 447.52430313 838.53532272 447.52430313 839.39618683 448.81503677 C879.23400118 508.63966407 911.72222279 572.60790556 938.00400543 639.44662857 C938.61550446 640.99737076 938.61550446 640.99737076 939.23935699 642.57944107 C946.56191563 661.27533546 952.81282461 680.35271401 959.00400543 699.44662857 C959.38975739 700.63578873 959.77550934 701.82494888 960.17295074 703.0501442 C978.70338006 760.64333449 990.77566165 820.42952675 998.00400543 880.44662857 C998.15176422 881.6552858 998.29952301 882.86394302 998.45175934 884.10922623 C999.4273378 892.2107691 1000.2407248 900.32270712 1001.00400543 908.44662857 C1001.09880723 909.44577821 1001.09880723 909.44577821 1001.19552422 910.46511269 C1003.89204961 939.08568498 1004.53263677 967.56483056 1004.450634 996.30168915 C1004.44136701 999.74810683 1004.43697214 1003.19450617 1004.4332962 1006.64093399 C1004.38590667 1038.52696167 1004.04514476 1070.20753095 1000.30149078 1101.91098404 C1000.00143281 1104.46855654 999.71713858 1107.02746943 999.43662262 1109.58725357 C998.18481271 1120.90842592 996.68012734 1132.18094186 995.00400543 1143.44662857 C994.88003387 1144.28611038 994.75606232 1145.12559219 994.62833405 1145.99051285 C983.01680739 1224.35591033 962.67690929 1300.96450029 933.00400543 1374.44662857 C932.74661591 1375.08409012 932.48922638 1375.72155167 932.22403717 1376.37833023 C916.49984476 1415.22784343 898.62718461 1453.50564455 877.55576324 1489.7532692 C875.95736334 1492.52758445 874.39431178 1495.31930215 872.83994293 1498.11850357 C852.7833048 1534.19780317 829.76068145 1569.08148058 804.39121246 1601.65073013 C802.38997514 1604.24156114 800.44893577 1606.8758835 798.50400543 1609.50912857 C794.46344413 1614.91874452 790.226168 1620.1514682 785.94809723 1625.37338638 C782.33676026 1629.78554614 778.80723234 1634.251261 775.31650543 1638.75912857 C771.18977594 1644.06641612 766.84592874 1649.06498689 762.27353668 1653.99740982 C760.29020081 1656.13777401 758.35440354 1658.30599765 756.44150543 1660.50912857 C753.07168625 1664.38640288 749.63235138 1668.19840776 746.18759918 1672.00912857 C744.28532067 1674.13260226 742.42137329 1676.28188867 740.56650543 1678.44662857 C737.11533799 1682.4182737 733.39745637 1686.08984739 729.62900543 1689.75912857 C727.60842569 1691.82781736 725.72363128 1693.90824882 723.84384918 1696.09897232 C719.32611402 1701.30835966 714.45067505 1706.14578697 709.56650543 1711.00912857 C708.66351715 1711.91598404 707.76052887 1712.82283951 706.83017731 1713.75717545 C702.25886959 1718.32186288 697.62893081 1722.7358055 692.72641754 1726.94247818 C690.36962361 1729.00062239 688.18610727 1731.20555101 686.00400543 1733.44662857 C674.73260638 1744.82207131 674.73260638 1744.82207131 669.00400543 1747.44662857 C669.00400543 1748.10662857 669.00400543 1748.76662857 669.00400543 1749.44662857 C667.43113859 1750.86101263 665.79260548 1752.20267258 664.12900543 1753.50912857 C660.29172016 1756.57502615 656.56385032 1759.69200511 652.94150543 1763.00912857 C649.03146133 1766.56427039 645.01482861 1769.90879884 640.86338043 1773.17709732 C638.73092014 1774.86966485 636.61979437 1776.57812599 634.51963043 1778.30990982 C624.63477682 1786.44888695 614.48488396 1794.18117274 604.2027359 1801.8103981 C602.34958796 1803.18945623 600.50371753 1804.57687776 598.66416168 1805.97397232 C579.15195659 1820.77541185 558.71791605 1834.39221956 538.00400543 1847.44662857 C537.27375153 1847.90827408 536.54349762 1848.36991959 535.79111481 1848.84555435 C508.96420008 1865.76268986 481.35448525 1881.58249414 452.86191559 1895.53158951 C450.94897854 1896.47372986 449.04402955 1897.43050214 447.14072418 1898.39194107 C396.48570089 1923.97770389 343.35015333 1944.20415175 289.00400543 1960.44662857 C287.42353424 1960.92374283 287.42353424 1960.92374283 285.81113434 1961.41049576 C252.47811104 1971.45922888 218.3057365 1979.45425803 184.00400543 1985.44662857 C182.77472321 1985.6652858 181.54544098 1985.88394302 180.27890778 1986.10922623 C124.11044314 1996.0713892 67.73295822 2001.20402827 10.67002106 2000.96811295 C5.11528515 2000.94532595 -0.43868304 2000.95892039 -5.99339294 2000.98188686 C-50.91832243 2001.13857332 -95.53750269 1997.91673125 -139.99599457 1991.44662857 C-140.84834686 1991.32265701 -141.70069916 1991.19868546 -142.57888031 1991.07095718 C-170.30050867 1987.00847107 -197.69826489 1981.74725886 -224.99599457 1975.44662857 C-225.77120453 1975.26829483 -226.54641449 1975.08996109 -227.34511566 1974.9062233 C-300.06273869 1958.12135964 -372.58677389 1932.61048321 -438.99599457 1898.44662857 C-440.86496324 1897.51364021 -442.73739969 1896.5878624 -444.61000824 1895.66220474 C-463.13250959 1886.48334334 -481.25289105 1876.756373 -499.03066254 1866.20346451 C-501.9833528 1864.45411829 -504.94350874 1862.71812099 -507.90615082 1860.98569107 C-518.08757734 1855.02339252 -528.159427 1848.96546057 -537.99599457 1842.44662857 C-538.9669809 1841.80564224 -539.93796722 1841.16465591 -540.93837738 1840.50424576 C-558.95561856 1828.6006605 -576.82127328 1816.5514097 -593.99599457 1803.44662857 C-595.33712901 1802.42708234 -596.67827567 1801.40755217 -598.01943207 1800.38803482 C-610.52839241 1790.86448962 -622.94789485 1781.28633229 -634.90224457 1771.07162857 C-637.79150777 1768.60746893 -640.73117915 1766.21001857 -643.68349457 1763.82162857 C-648.26764356 1760.09784771 -652.65743091 1756.19864884 -656.99990082 1752.19662857 C-658.88050131 1750.39880878 -658.88050131 1750.39880878 -660.99599457 1749.44662857 C-660.99599457 1748.78662857 -660.99599457 1748.12662857 -660.99599457 1747.44662857 C-661.58356537 1747.18124283 -662.17113617 1746.91585709 -662.77651215 1746.64242935 C-665.06247049 1745.41081303 -666.63629928 1744.10480869 -668.50771332 1742.31381607 C-669.50713959 1741.36478409 -669.50713959 1741.36478409 -670.52675629 1740.39657974 C-671.23847992 1739.71184586 -671.95020355 1739.02711197 -672.68349457 1738.32162857 C-674.22103682 1736.85655583 -675.75880331 1735.39171839 -677.29677582 1733.92709732 C-678.47167572 1732.80440445 -678.47167572 1732.80440445 -679.67031097 1731.65903091 C-681.84354417 1729.59165329 -684.03061429 1727.54071923 -686.22646332 1725.49740982 C-693.9852449 1718.27292927 -701.61232308 1710.93122913 -709.12099457 1703.44662857 C-709.90264984 1702.66956558 -710.68430511 1701.89250259 -711.48964691 1701.09189224 C-715.63914348 1696.93120985 -719.60282599 1692.67631772 -723.43691254 1688.22397232 C-725.5173375 1685.85230089 -727.73627566 1683.64688119 -729.99599457 1681.44662857 C-733.56682969 1677.91349458 -736.96150682 1674.31289762 -740.22646332 1670.49740982 C-742.23385479 1668.17096275 -744.30066095 1665.90470171 -746.37099457 1663.63412857 C-750.24194411 1659.3454037 -753.90971351 1654.92554152 -757.54286957 1650.43490982 C-760.33052332 1647.03912141 -763.18821778 1643.71001196 -766.05849457 1640.38412857 C-770.8344634 1634.83506325 -775.48247765 1629.21258735 -779.99599457 1623.44662857 C-780.48793304 1622.82336685 -780.97987152 1622.20010513 -781.48671722 1621.5579567 C-789.20492458 1611.77745892 -796.68281857 1601.86134185 -803.92568207 1591.72397232 C-805.82180864 1589.07092902 -807.73692933 1586.43595276 -809.69130707 1583.82553482 C-818.272638 1572.35550237 -826.12463579 1560.41067799 -833.99599457 1548.44662857 C-834.50662445 1547.67560806 -835.01725433 1546.90458755 -835.54335785 1546.11020279 C-872.12903556 1490.86647017 -902.7398102 1431.07260795 -926.99599457 1369.44662857 C-927.43620941 1368.32949478 -927.87642426 1367.21236099 -928.32997894 1366.06137466 C-958.08315327 1290.10390956 -978.95166982 1210.44524361 -988.99599457 1129.44662857 C-989.12944275 1128.38233627 -989.12944275 1128.38233627 -989.26558685 1127.29654312 C-994.38173639 1086.39835377 -996.56047133 1045.73799719 -996.44262314 1004.52290344 C-996.43335162 1001.08106339 -996.42895993 997.63924173 -996.42528534 994.19739151 C-996.37788082 962.32973198 -996.03497681 930.66745881 -992.29347992 898.9822731 C-991.99342195 896.42470061 -991.70912772 893.86578771 -991.42861176 891.30600357 C-990.17680184 879.98483123 -988.67211647 868.71231528 -986.99599457 857.44662857 C-986.87202301 856.60714676 -986.74805145 855.76766495 -986.62032318 854.90274429 C-978.13110802 797.6096131 -964.90385269 741.53033374 -946.99599457 686.44662857 C-946.78241302 685.78868301 -946.56883148 685.13073746 -946.34877777 684.45285416 C-918.94082074 600.27280311 -878.79995819 520.10235869 -829.80849457 446.50912857 C-829.25100525 445.67096603 -828.69351593 444.8328035 -828.119133 443.9692421 C-821.25569588 433.66241154 -814.27459696 423.46486183 -806.99599457 413.44662857 C-806.36556244 412.57659195 -805.73513031 411.70655533 -805.08559418 410.81015396 C-793.74599199 395.22078356 -781.85392602 380.1896828 -769.56191254 365.34457779 C-767.50341256 362.84960136 -765.4690892 360.33530781 -763.43349457 357.82162857 C-755.30652452 347.88866517 -746.84049723 338.25360224 -738.08998871 328.86679459 C-735.53847617 326.12869978 -733.04055844 323.36421394 -730.62099457 320.50912857 C-726.70116208 315.96173669 -722.38264332 311.80875908 -718.11855316 307.58847427 C-714.47883092 303.97260151 -711.01918515 300.2824724 -707.69521332 296.37240982 C-702.92228587 290.96309204 -697.74177638 285.86863153 -692.24599457 281.19662857 C-688.28619102 277.81630847 -684.65556314 274.14419739 -680.99599457 270.44662857 C-676.75877183 266.16986287 -672.51681145 261.98368636 -667.92177582 258.08725357 C-665.54913971 256.06594086 -663.24385691 253.97627078 -660.93349457 251.88412857 C-659.28857072 250.40395056 -657.64278808 248.92472617 -655.99599457 247.44662857 C-654.94605316 246.50303482 -654.94605316 246.50303482 -653.87490082 245.54037857 C-649.23081178 241.44662857 -649.23081178 241.44662857 -646.99599457 241.44662857 C-646.99599457 240.78662857 -646.99599457 240.12662857 -646.99599457 239.44662857 C-645.15224457 237.73959732 -645.15224457 237.73959732 -642.49599457 235.63412857 C-641.49181488 234.83104263 -640.48763519 234.0279567 -639.45302582 233.20053482 C-638.89824554 232.75983658 -638.34346527 232.31913834 -637.77187347 231.8650856 C-635.23550868 229.83920171 -632.72505012 227.78208977 -630.21181488 225.72763443 C-564.12235974 171.76942858 -491.41781979 126.31344382 -413.99599457 90.44662857 C-412.78822357 89.88419449 -412.78822357 89.88419449 -411.55605316 89.3103981 C-354.62160431 62.89439438 -295.08639405 43.05417348 -234.22719574 27.99936295 C-232.1604389 27.48736628 -230.09468461 26.97153244 -228.02919769 26.45444107 C-193.81234965 17.9411583 -158.97195429 11.84269414 -123.99599457 7.44662857 C-123.28219635 7.35659561 -122.56839813 7.26656265 -121.83296967 7.17380142 C-81.25656462 2.08711263 -40.89137438 -0.11950586 0 0 Z " fill="#060605" transform="translate(995.9959945678711,-0.4466285705566406)"/>
<path d="M0 0 C2.9132609 2.74268233 5.08887083 5.46091764 7.1796875 8.8671875 C7.77160889 9.82407471 8.36353027 10.78096191 8.97338867 11.7668457 C9.91468628 13.30538208 9.91468628 13.30538208 10.875 14.875 C12.221844 17.05388771 13.56951868 19.23226213 14.91796875 21.41015625 C15.59907715 22.51246582 16.28018555 23.61477539 16.98193359 24.75048828 C20.0118168 29.62923803 23.09620894 34.47250801 26.1875 39.3125 C27.34519835 41.12751088 28.50275223 42.94261392 29.66015625 44.7578125 C30.49764404 46.07120605 30.49764404 46.07120605 31.35205078 47.41113281 C35.43140283 53.8196438 39.47961233 60.24790239 43.53222656 66.67333984 C46.01983357 70.61660245 48.51006414 74.55820768 51 78.5 C52.00001224 80.0833256 53.00001225 81.66665893 54 83.25 C54.495 84.03375 54.99 84.8175 55.5 85.625 C180 282.75 180 282.75 181.49951172 285.12426758 C182.50109035 286.71007325 183.50271808 288.29584791 184.50439453 289.8815918 C186.98064184 293.80184757 189.45607701 297.72261107 191.9296875 301.64453125 C197.26883255 310.10764415 202.62440199 318.55998748 208 327 C213.86632526 336.21048386 219.70673018 345.43699003 225.53222656 354.67333984 C228.01983357 358.61660245 230.51006414 362.55820768 233 366.5 C234.00001224 368.0833256 235.00001225 369.66665893 236 371.25 C236.495 372.03375 236.99 372.8175 237.5 373.625 C253.99999999 399.74999998 253.99999999 399.74999998 255.49951172 402.12426758 C256.50109035 403.71007325 257.50271808 405.29584791 258.50439453 406.8815918 C260.98064184 410.80184757 263.45607701 414.72261107 265.9296875 418.64453125 C271.26883255 427.10764415 276.62440199 435.55998748 282 444 C287.86632526 453.21048386 293.70673018 462.43699003 299.53222656 471.67333984 C302.01983357 475.61660245 304.51006414 479.55820768 307 483.5 C308.00001224 485.0833256 309.00001225 486.66665893 310 488.25 C310.495 489.03375 310.99 489.8175 311.5 490.625 C340 535.74999999 340 535.74999999 341.49951172 538.12426758 C342.50109035 539.71007325 343.50271808 541.29584791 344.50439453 542.8815918 C346.98064184 546.80184757 349.45607701 550.72261107 351.9296875 554.64453125 C357.78364367 563.92343634 363.66477448 573.18442589 369.56445312 582.43432617 C374.69157783 590.48670395 379.74148767 598.58627689 384.78271484 606.69262695 C388.65226401 612.89778049 392.60458375 619.01678935 396.77734375 625.0234375 C398 627 398 627 398 629 C378.52039992 629.46812515 359.04194701 629.82031665 339.5578804 630.03624344 C330.50981414 630.13919109 321.46525038 630.279394 312.41943359 630.50878906 C304.53061103 630.70874749 296.64432439 630.83729685 288.75303817 630.8817699 C284.57661107 630.90775895 280.40743444 630.96832459 276.23334503 631.11460114 C250.90153984 631.96832862 250.90153984 631.96832862 244.47569275 627.07948303 C240.41646804 622.42402673 238.0995587 617.29739913 236.01709747 611.53382111 C234.38912353 607.47816778 231.97187446 604.01860572 229.5 600.4375 C228.58922756 599.05028606 227.68129412 597.66120028 226.77734375 596.26953125 C226.32343262 595.57424316 225.86952148 594.87895508 225.40185547 594.16259766 C222.92240488 590.33762843 220.49259891 586.4814442 218.0625 582.625 C217.56363281 581.83343506 217.06476563 581.04187012 216.55078125 580.22631836 C215.53897658 578.62011105 214.52742125 577.01374665 213.51611328 575.40722656 C211.01473282 571.43563053 208.50707491 567.46800284 206 563.5 C204.99996938 561.91668601 203.99996939 560.33335267 203 558.75 C202.505 557.96625 202.01 557.1825 201.5 556.375 C197 549.25000001 197 549.25000001 195.4987793 546.87304688 C194.50287282 545.29620848 193.50694199 543.71938546 192.51098633 542.14257812 C189.94815131 538.08500073 187.3857927 534.02712366 184.82421875 529.96875 C184.29892578 529.13666016 183.77363281 528.30457031 183.23242188 527.44726562 C182.24528146 525.88356532 181.25828766 524.31977245 180.27148438 522.75585938 C179.36774558 521.32440851 178.44442684 519.90508108 177.4994669 518.50050068 C176 516 176 516 174.97318172 513.19532299 C173.40402952 509.57545396 172.03773567 507.5559207 169 505 C161.90884953 502.79339079 153.96396124 503.55423137 146.63305664 503.65942383 C144.31676408 503.65266252 142.00048133 503.64106655 139.68423462 503.625 C133.4010569 503.59511543 127.11988875 503.63287853 120.83690572 503.68273759 C114.26918734 503.72337016 107.70168063 503.70186542 101.13389587 503.68693542 C90.11204749 503.66842929 79.09082544 503.69187724 68.0690918 503.74291992 C56.71876447 503.79537922 45.36876458 503.82470153 34.01831055 503.82299805 C33.31820565 503.82290101 32.61810075 503.82280397 31.89678056 503.82270399 C28.38441808 503.82207473 24.87205593 503.82099155 21.35969365 503.81968272 C-7.76045239 503.80941834 -36.88010755 503.87947657 -66 504 C-64.66478198 500.57235981 -63.22902449 497.56726715 -61.234375 494.47265625 C-60.40498413 493.17835693 -60.40498413 493.17835693 -59.55883789 491.85791016 C-58.96192139 490.9354248 -58.36500488 490.01293945 -57.75 489.0625 C-56.47258167 487.07166244 -55.19524001 485.08077568 -53.91796875 483.08984375 C-53.26489746 482.07519043 -52.61182617 481.06053711 -51.93896484 480.01513672 C-48.96690534 475.3935131 -46.01321363 470.76027225 -43.0625 466.125 C-42.48999512 465.22620117 -41.91749023 464.32740234 -41.32763672 463.40136719 C-36.33275763 455.54809864 -31.39777553 447.65801382 -26.47167969 439.76147461 C-21.16739404 431.25982969 -15.82397874 422.78354906 -10.46484375 414.31640625 C-8.94320041 411.91018091 -7.42437164 409.50219862 -5.90625 407.09375 C-1.22884691 399.67439562 3.45493971 392.25933467 8.1875 384.875 C8.56221436 384.28871826 8.93692871 383.70243652 9.32299805 383.09838867 C11.8808893 379.1191107 11.8808893 379.1191107 13 378 C15.34152841 377.87515846 17.65507585 377.81400709 19.99829102 377.79467773 C20.72995483 377.78477814 21.46161865 377.77487854 22.2154541 377.76467896 C24.64490472 377.73297617 27.07437493 377.70827207 29.50390625 377.68359375 C31.18400087 377.66303178 32.86409023 377.64203552 34.54417419 377.62062073 C38.97467803 377.56532174 43.40522915 377.51594713 47.83581543 377.46777344 C52.35347725 377.4176154 56.87107008 377.36189967 61.38867188 377.30664062 C70.2590557 377.1989634 79.12949932 377.09753982 88 377 C82.10033273 367.30283654 76.1908667 357.61749038 70.0625 348.0625 C68.86433588 346.18635593 67.66642349 344.31005107 66.46875 342.43359375 C65.88480469 341.5194873 65.30085938 340.60538086 64.69921875 339.66357422 C57.60742499 328.54698371 50.60478839 317.37463907 43.625 306.1875 C37.58707508 296.51123939 31.48525953 286.87748047 25.3515625 277.26171875 C22.11398951 272.18465816 18.89888282 267.09365142 15.6875 262 C14.2486997 259.72267154 12.8093085 257.44571799 11.36962891 255.16894531 C10.45883165 253.72660612 9.54964266 252.28325006 8.64208984 250.83886719 C7.39078708 248.84809502 6.13363112 246.86114417 4.875 244.875 C3.81925781 243.20050781 3.81925781 243.20050781 2.7421875 241.4921875 C1.23976563 238.9212002 1.23976563 238.9212002 -1 238 C-1.33451172 238.98033203 -1.33451172 238.98033203 -1.67578125 239.98046875 C-3.45227381 244.03129103 -5.79385828 247.6011151 -8.1875 251.3125 C-9.27539336 253.01650987 -10.36260028 254.72095812 -11.44921875 256.42578125 C-12.02591309 257.32893066 -12.60260742 258.23208008 -13.19677734 259.16259766 C-16.32795777 264.08956475 -19.41174988 269.04605578 -22.5 274 C-27.45770435 281.94348759 -32.43748193 289.87228022 -37.44580078 297.78393555 C-41.44744372 304.11110926 -45.4130493 310.46041545 -49.375 316.8125 C-54.77973064 325.47547966 -60.23614939 334.10351317 -65.72998047 342.71020508 C-70.02626282 349.44901021 -74.27218538 356.21806232 -78.5 363 C-83.29489855 370.69161046 -88.12324421 378.36002455 -93 386 C-98.56182766 394.71405446 -104.05710618 403.46797906 -109.52856445 412.23901367 C-115.79103198 422.27609681 -122.11089946 432.27634965 -128.43847656 442.27246094 C-134.48749409 451.83064482 -140.50969821 461.40488796 -146.5 471 C-152.48578339 480.58787459 -158.50364578 490.15474523 -164.54833984 499.70556641 C-167.0347353 503.63545953 -169.51717296 507.56785183 -172 511.5 C-174.96298136 516.19258693 -177.92658804 520.88476804 -180.89453125 525.57421875 C-186.41653701 534.30270013 -191.90831604 543.0492527 -197.375 551.8125 C-203.42088606 561.50167749 -209.53165489 571.14775128 -215.671875 580.77734375 C-218.25368527 584.82649774 -220.83345513 588.87685331 -223.39264995 592.94035068 C-224.36058879 594.46580076 -225.33832498 595.98512605 -226.33028617 597.4950653 C-229.19760954 601.90931208 -231.68599025 606.32986272 -233.9410072 611.08847666 C-241.8322095 626.88764425 -241.8322095 626.88764425 -248.72336487 630.38027942 C-256.51093468 632.57453958 -264.50762329 632.11770226 -272.51829529 631.8861084 C-275.21712307 631.89658647 -277.91436017 631.91660402 -280.61286789 631.94824839 C-286.46392722 631.99778702 -292.30910416 631.95902186 -298.15947533 631.8609314 C-306.85729597 631.71550647 -315.55144138 631.70892025 -324.25025619 631.72993913 C-338.88412561 631.761408 -353.51538626 631.68153809 -368.14849663 631.53752136 C-382.63034433 631.39535967 -397.1111047 631.30310947 -411.5936451 631.27705383 C-412.49512575 631.27540408 -413.39660641 631.27375433 -414.32540467 631.27205459 C-418.90383855 631.26393424 -423.48227337 631.25670116 -428.06070925 631.24980956 C-460.46414473 631.19944042 -492.86616193 631.03786151 -525.26879883 630.81054688 C-556.74137851 630.59001221 -588.21356968 630.42006 -619.68676758 630.31835938 C-620.65742508 630.31520275 -621.62808259 630.31204612 -622.62815396 630.30879384 C-632.37617015 630.27714852 -642.12418934 630.2465291 -651.87221112 630.21666121 C-671.72887943 630.15579714 -691.58552245 630.08808709 -711.44215393 630.01623535 C-712.81152484 630.01129291 -712.81152484 630.01129291 -714.20855981 630.00625063 C-775.13963018 629.78554898 -836.06991201 629.40527734 -897 629 C-895.74721025 625.79762128 -894.45822952 622.92029845 -892.6015625 620.0234375 C-892.1286377 619.28053467 -891.65571289 618.53763184 -891.16845703 617.7722168 C-890.4044458 616.58559448 -890.4044458 616.58559448 -889.625 615.375 C-888.53112864 613.66023366 -887.43738201 611.94538775 -886.34375 610.23046875 C-885.78558594 609.35825684 -885.22742188 608.48604492 -884.65234375 607.58740234 C-882.12609506 603.6315537 -879.62673875 599.65887379 -877.125 595.6875 C-872.17411599 587.84275495 -867.19515943 580.01604266 -862.21142578 572.19213867 C-858.46139075 566.30283923 -854.72452421 560.40546218 -851 554.5 C-846.68348424 547.6558988 -842.34721532 540.82464147 -838 534 C-832.13362387 524.78954872 -826.29326967 515.56300972 -820.46777344 506.32666016 C-817.47901427 501.58898968 -814.48671078 496.85355675 -811.49511719 492.11767578 C-809.01905673 488.19764894 -806.5437665 484.27714081 -804.0703125 480.35546875 C-798.14046007 470.95602182 -792.186155 461.5725154 -786.21582031 452.19873047 C-780.94553363 443.9212118 -775.70266097 435.62659707 -770.46777344 427.32666016 C-767.98016642 423.38339754 -765.48992095 419.44180175 -763 415.5 C-762.0091085 413.93099343 -761.01822309 412.36198301 -760.02734375 410.79296875 C-757.9367133 407.48274703 -755.84547977 404.17290716 -753.75390625 400.86328125 C-753.21958984 400.01765625 -752.68527344 399.17203125 -752.13476562 398.30078125 C-751.12190329 396.69781651 -750.10889389 395.09494467 -749.09570312 393.4921875 C-748.63228516 392.75871094 -748.16886719 392.02523438 -747.69140625 391.26953125 C-747.09114624 390.31977417 -747.09114624 390.31977417 -746.47875977 389.35083008 C-744.31145392 385.90539703 -742.15731207 382.45169931 -740 379 C-777.95 379 -815.9 379 -855 379 C-853.52592646 375.31481615 -852.26141378 372.61838634 -850.1640625 369.3671875 C-849.60074219 368.48869141 -849.03742188 367.61019531 -848.45703125 366.70507812 C-847.85246094 365.77115234 -847.24789062 364.83722656 -846.625 363.875 C-845.34603446 361.88301773 -844.06739392 359.89082677 -842.7890625 357.8984375 C-841.8285498 356.40521973 -841.8285498 356.40521973 -840.84863281 354.88183594 C-838.21006894 350.76857552 -835.60355481 346.63547339 -833 342.5 C-828.68408985 335.65551846 -824.34713538 328.82468818 -820 322 C-810.43340993 306.97665929 -800.92442651 291.91907133 -791.51391602 276.79736328 C-790.3539351 274.93673666 -789.17595254 273.08718021 -787.97801298 271.25076306 C-785.92333419 268.01431469 -785.92333419 268.01431469 -784.35021168 264.41570938 C-782.18606344 259.93716132 -779.88895267 255.22165427 -775.09943824 253.19630757 C-769.32965924 251.87546429 -763.4218842 252.1835508 -757.54319763 252.31643677 C-755.53899964 252.31032871 -753.53481258 252.29806495 -751.53068501 252.28018844 C-746.03122072 252.24890826 -740.53557941 252.30483011 -735.03660238 252.3750813 C-729.10419239 252.43556712 -723.17199623 252.4150789 -717.23936462 252.40444946 C-706.29441359 252.396632 -695.35085267 252.45102472 -684.40625244 252.5352218 C-674.30079707 252.61230089 -664.19575347 252.6574565 -654.0900135 252.6717186 C-653.41964032 252.67268095 -652.74926713 252.67364331 -652.05857961 252.67463482 C-648.65397895 252.6793716 -645.24937785 252.68359093 -641.84477628 252.68761109 C-617.74082492 252.71700333 -593.63752183 252.81128725 -569.53393555 252.94384766 C-546.1202336 253.07246518 -522.70670915 253.17161789 -499.29272461 253.23095703 C-498.57078528 253.2327984 -497.84884596 253.23463976 -497.10502968 253.23653693 C-489.85490201 253.25499649 -482.60477296 253.27285784 -475.35464273 253.29028096 C-460.58578934 253.32578627 -445.81694751 253.3652838 -431.04811096 253.40719604 C-430.36908993 253.4091181 -429.6900689 253.41104016 -428.99047148 253.41302047 C-383.66004065 253.54179185 -338.32998529 253.76391178 -293 254 C-294.3105834 257.35464117 -295.70748522 260.35759778 -297.6171875 263.4140625 C-298.13547119 264.24760254 -298.65375488 265.08114258 -299.18774414 265.93994141 C-299.74453857 266.82601074 -300.30133301 267.71208008 -300.875 268.625 C-301.45435303 269.5536084 -302.03370605 270.4822168 -302.63061523 271.43896484 C-304.41537208 274.29583797 -306.2064507 277.14863992 -308 280 C-308.52513184 280.8353125 -309.05026367 281.670625 -309.59130859 282.53125 C-312.55769937 287.24533376 -315.53470163 291.95263172 -318.51611328 296.65722656 C-321.01483598 300.60223199 -323.50703528 304.5513545 -326 308.5 C-327.00258576 310.08725121 -328.0051899 311.67449081 -329.0078125 313.26171875 C-330.98279978 316.38867486 -332.95668286 319.51632383 -334.9296875 322.64453125 C-340.25320742 331.0833945 -345.58773634 339.51524704 -350.9375 347.9375 C-351.44974121 348.74550049 -351.96198242 349.55350098 -352.48974609 350.38598633 C-353.57515635 352.09293224 -354.68152543 353.78669616 -355.8063612 355.46792316 C-357.56849634 358.18948131 -359.02479916 360.99914077 -360.47898579 363.89579296 C-367.56970003 377.26346292 -367.56970003 377.26346292 -373.24537063 380.13668466 C-379.4773849 381.86063711 -385.84213602 381.40977299 -392.23706055 381.12426758 C-394.36059039 381.10389939 -396.48422365 381.09261396 -398.60784912 381.08966064 C-403.16036929 381.06469963 -407.70581838 380.97759955 -412.25635338 380.84131813 C-419.45595335 380.62745527 -426.65233119 380.56256086 -433.85469055 380.51823425 C-447.83650591 380.4121705 -461.81369857 380.1585574 -475.79312134 379.88693237 C-493.59713378 379.54664834 -511.40083467 379.26593275 -529.20767814 379.13304633 C-536.36245316 379.07461148 -543.51042402 378.93968349 -550.66271436 378.7442385 C-555.11426984 378.6370312 -559.564939 378.59189364 -564.0176239 378.56285095 C-566.07640984 378.53647413 -568.13505747 378.48420666 -570.19243813 378.4037075 C-580.56524784 377.65163818 -580.56524784 377.65163818 -589.79784989 381.46337676 C-592.93950703 385.01047039 -595.13261322 388.93999277 -597.13850844 393.21155393 C-598.29782142 395.61827367 -599.73077765 397.80607619 -601.21484375 400.0234375 C-602.12411002 401.4728844 -603.03167908 402.92339746 -603.9375 404.375 C-607.66920702 410.3176895 -611.42765158 416.24018203 -615.25 422.125 C-619.7564467 429.06598282 -624.22844848 436.02847437 -628.6875 443 C-629.36433838 444.05807861 -630.04117676 445.11615723 -630.73852539 446.20629883 C-634.20222366 451.62222633 -637.6640137 457.03937042 -641.125 462.45703125 C-642.47908105 464.57557556 -643.8332468 466.69406573 -645.1875 468.8125 C-645.84395508 469.84004395 -646.50041016 470.86758789 -647.17675781 471.92626953 C-650.38163351 476.93597951 -653.60244406 481.93410471 -656.859375 486.91015625 C-657.46370361 487.83401123 -658.06803223 488.75786621 -658.69067383 489.7097168 C-659.82541678 491.44109189 -660.96311078 493.17053774 -662.10424805 494.89770508 C-662.60480713 495.66107178 -663.10536621 496.42443848 -663.62109375 497.2109375 C-664.0586499 497.87399902 -664.49620605 498.53706055 -664.94702148 499.22021484 C-666.15937672 501.12663346 -666.15937672 501.12663346 -667 504 C-622.85423836 504.28452503 -578.70895225 504.47423444 -534.56228856 504.53699366 C-529.34906035 504.54448599 -524.13583365 504.55276237 -518.92260742 504.56152344 C-517.36583463 504.5641199 -517.36583463 504.5641199 -515.77761189 504.56676881 C-498.97809766 504.59665713 -482.17950709 504.69004253 -465.38039877 504.80694492 C-448.13962393 504.92550551 -430.89962429 504.97571271 -413.65844184 504.96262586 C-403.02105472 504.9567014 -392.38664106 505.00392344 -381.74986771 505.11940096 C-374.45319779 505.19350641 -367.15833178 505.20114153 -359.86142781 505.156855 C-355.65157498 505.13325728 -351.44709298 505.13862628 -347.23790359 505.22307396 C-331.14801193 506.2453663 -331.14801193 506.2453663 -316.60851884 501.2372489 C-312.83621574 497.05215439 -310.68100551 492.4596138 -308.83163893 487.18279815 C-307.59365796 483.93347628 -305.80227993 481.31101829 -303.84765625 478.44140625 C-303.22294434 477.46921143 -302.59823242 476.4970166 -301.95458984 475.49536133 C-301.3302002 474.52751709 -300.70581055 473.55967285 -300.0625 472.5625 C-298.68053909 470.41174773 -297.2990325 468.26070347 -295.91796875 466.109375 C-295.25200684 465.07232422 -294.58604492 464.03527344 -293.89990234 462.96679688 C-291.20620919 458.76045414 -288.53733301 454.53873982 -285.875 450.3125 C-282.24773344 444.55450567 -278.60549499 438.80653789 -274.94580078 433.0690918 C-269.42017551 424.40624329 -263.93637727 415.71915604 -258.5 407 C-251.97569545 396.53736654 -245.37645745 386.12444336 -238.74267578 375.73095703 C-235.78347562 371.0935778 -232.82893373 366.45323512 -229.875 361.8125 C-229.29371338 360.89927979 -228.71242676 359.98605957 -228.11352539 359.04516602 C-222.38697602 350.04400506 -216.69081116 341.02378289 -211 332 C-204.09383641 321.04906188 -197.16707251 310.11172549 -190.21142578 299.19213867 C-186.46139075 293.30283923 -182.72452421 287.40546218 -179 281.5 C-174.09134054 273.71701856 -169.15454694 265.95222544 -164.2109375 258.19140625 C-160.46109303 252.30233333 -156.72436771 246.40521404 -153 240.5 C-148.68348424 233.6558988 -144.34721532 226.82464147 -140 220 C-133.64100507 210.016117 -127.31419122 200.01226172 -121 190 C-114.09524412 179.05129406 -107.16950614 168.11643589 -100.21582031 157.19873047 C-94.45304413 148.1477072 -88.72362451 139.07581423 -83 130 C-81.04216981 126.89551558 -79.08391766 123.79129836 -77.125 120.6875 C-76.63281982 119.90761719 -76.14063965 119.12773438 -75.63354492 118.32421875 C-72.41401393 113.22701779 -69.17922364 108.13975151 -65.9375 103.05664062 C-60.45568436 94.4607132 -55.01590037 85.84075639 -49.625 77.1875 C-43.13769189 66.77859557 -36.54631873 56.43922087 -29.921875 46.1171875 C-26.1601479 40.25550317 -22.4217435 34.37921689 -18.6875 28.5 C-14.37471366 21.71586232 -10.04765465 14.94130968 -5.6875 8.1875 C-5.22496826 7.46949219 -4.76243652 6.75148438 -4.28588867 6.01171875 C-1.1199459 1.1199459 -1.1199459 1.1199459 0 0 Z " fill="#FEFEFE" transform="translate(1245,459)"/>
<path d="M0 0 C2.1270706 -0.00523381 4.25413367 -0.01574251 6.38115549 -0.03106999 C12.22448098 -0.05791128 18.06516856 -0.00990068 23.90815783 0.05026674 C30.20937025 0.10206538 36.51043267 0.08455357 42.8117981 0.07543945 C53.72863288 0.0691456 64.64448295 0.10639107 75.56108093 0.17429352 C87.00913063 0.245319 98.45683717 0.29148882 109.90510559 0.30452728 C110.61713792 0.30535216 111.32917025 0.30617703 112.06277931 0.30702691 C115.67889042 0.31108695 119.29500182 0.31470354 122.91111356 0.31814942 C148.5184905 0.34334878 174.12541937 0.42418079 199.73254395 0.53778076 C224.60817076 0.64800818 249.48367493 0.7330043 274.35949707 0.78387451 C275.1263896 0.78545283 275.89328213 0.78703114 276.68341383 0.78865728 C284.38492352 0.80447964 292.08643417 0.81978939 299.78794563 0.83472359 C315.47655689 0.86515746 331.16516015 0.89901248 346.85375977 0.93493652 C347.57508275 0.936584 348.29640574 0.93823148 349.039587 0.93992889 C397.20142719 1.05032118 445.36300376 1.2407115 493.52453613 1.4430542 C492.89029222 2.72389641 492.25462639 4.00403457 491.61836243 5.28387451 C491.26452893 5.99682678 490.91069544 6.70977905 490.54613972 7.44433594 C489.35133109 9.78192152 488.02400087 11.98886915 486.59875488 14.1930542 C485.78664551 15.45762451 485.78664551 15.45762451 484.95812988 16.7477417 C484.38191895 17.63719482 483.80570801 18.52664795 483.21203613 19.4430542 C481.95461875 21.40080531 480.69814072 23.35915999 479.44250488 25.3180542 C478.47256592 26.83012451 478.47256592 26.83012451 477.48303223 28.3727417 C474.29333388 33.37319625 471.15955096 38.40820402 468.02453613 43.4430542 C460.36274263 55.73162068 452.58762663 67.94615243 444.79504395 80.15203857 C437.24273905 91.98526079 429.74524505 103.85033654 422.32165527 115.76483154 C421.42434692 117.20463379 421.42434692 117.20463379 420.50891113 118.67352295 C419.7156543 119.94812378 419.7156543 119.94812378 418.90637207 121.24847412 C417.8054682 122.99688841 416.67062538 124.72392033 415.52453613 126.4430542 C412.69487286 126.74053338 410.08358732 126.83944129 407.25111198 126.81219769 C406.38098022 126.81565922 405.51084846 126.81912075 404.61434907 126.82268718 C401.66626413 126.83069791 398.71865988 126.81711154 395.77059937 126.80381775 C393.64872469 126.80512461 391.52685048 126.80774883 389.40497887 126.81158525 C383.54902732 126.81832555 377.69323891 126.80624901 371.83730817 126.79125106 C365.53189916 126.77834582 359.22650003 126.78267624 352.92108154 126.78495789 C341.98815292 126.78653412 331.05528556 126.77719264 320.12237167 126.76024437 C308.65265525 126.74250941 297.18296017 126.7309498 285.71323013 126.72768593 C285.00078537 126.72747971 284.2883406 126.72727349 283.5543066 126.72706102 C279.93634145 126.72604606 276.31837628 126.7251419 272.7004111 126.72428039 C247.05664787 126.71797471 221.41291254 126.69775022 195.76916504 126.66937256 C170.85249989 126.64183126 145.93584236 126.62057455 121.01916504 126.60784912 C120.25148335 126.60745454 119.48380167 126.60705996 118.6928569 126.60665343 C110.98366863 126.60269796 103.27448031 126.5988705 95.56529194 126.59513685 C79.85998466 126.58752767 64.15467789 126.57906391 48.44937134 126.57008362 C47.72722461 126.56967175 47.00507788 126.56925988 46.26104792 126.56883553 C-1.98446787 126.54122115 -50.22996725 126.49362184 -98.47546387 126.4430542 C-97.12489579 122.9728926 -95.66004568 119.94233984 -93.63952637 116.8102417 C-93.07628662 115.93190674 -92.51304687 115.05357178 -91.93273926 114.14862061 C-91.32808838 113.21453369 -90.7234375 112.28044678 -90.10046387 111.3180542 C-88.82023141 109.32344514 -87.54028811 107.32865045 -86.26062012 105.3336792 C-85.29986572 103.83997803 -85.29986572 103.83997803 -84.31970215 102.31610107 C-81.70669118 98.24542156 -79.11901046 94.15905278 -76.53796387 90.0680542 C-75.81987549 88.93085937 -75.81987549 88.93085937 -75.08728027 87.77069092 C-70.38189413 80.31055451 -65.71261677 72.82789089 -61.04211426 65.34588623 C-56.73144091 58.44330003 -52.39719929 51.55618963 -48.04284668 44.68109131 C-45.23839798 40.24854086 -42.45125937 35.80571961 -39.67858887 31.35321045 C-39.02245605 30.30004639 -38.36632324 29.24688232 -37.69030762 28.1618042 C-36.42563369 26.13028028 -35.16248932 24.09780295 -33.90124512 22.06414795 C-32.74489974 20.20691052 -31.56840458 18.36200729 -30.36844301 16.53264737 C-28.42098771 13.50817742 -28.42098771 13.50817742 -27.08977461 10.30688167 C-21.09526773 -1.7166267 -11.90498626 -0.21668844 0 0 Z " fill="#FEFEFE" transform="translate(646.4754638671875,461.55694580078125)"/>
<path d="M0 0 C1.84026199 -0.00202508 3.6805232 -0.00494011 5.52078247 -0.00869751 C9.36533295 -0.01310266 13.20967331 -0.00674987 17.05419922 0.00732422 C21.95168285 0.02439075 26.8486722 0.01457939 31.74613762 -0.00339317 C35.54342281 -0.0143008 39.34059335 -0.01075247 43.13788223 -0.0030098 C44.94217107 -0.00102576 46.74647074 -0.00340298 48.55074692 -0.01044846 C68.7926934 -0.0721479 84.96992394 3.98876072 100.0703125 18.3984375 C112.44802624 32.13355851 115.68561007 46.66118903 115.58789062 64.71655273 C115.59332336 66.41987706 115.60045242 68.12319668 115.60913086 69.82650757 C115.62723183 74.41549355 115.6203515 79.00411632 115.60761452 83.59310794 C115.5974161 88.41918262 115.6068992 93.24522829 115.61315918 98.07130432 C115.6204165 106.17365035 115.6108991 114.27585007 115.59179688 122.37817383 C115.57003921 131.71397781 115.57707923 141.04943213 115.5991025 150.38522762 C115.61732011 158.43323054 115.61978365 166.48112888 115.60934782 174.52914578 C115.60314677 179.32158158 115.60218291 184.11385366 115.61549377 188.90627861 C115.62714449 193.41518061 115.61886031 197.92363689 115.59591675 202.4324913 C115.59067814 204.07626039 115.59205901 205.72006773 115.60096741 207.36382103 C115.66559174 220.51169957 114.38554791 233.18239418 106.4453125 244.2109375 C106.00856201 244.83492432 105.57181152 245.45891113 105.12182617 246.10180664 C99.22369398 254.26560081 92.34215811 259.98523368 83.5703125 264.8359375 C82.68146362 265.33178345 82.68146362 265.33178345 81.7746582 265.83764648 C71.07759164 271.38153013 59.26443706 270.69522334 47.54296875 270.6640625 C45.74515226 270.66541255 43.94733613 270.66735591 42.14952087 270.66986084 C38.39497375 270.67279686 34.64052227 270.6685642 30.88598633 270.65917969 C26.10059764 270.64779438 21.31543358 270.65434853 16.53005314 270.66632462 C12.82118574 270.67359154 9.11237058 270.67123308 5.40350151 270.66606903 C3.64025279 270.66474544 1.87699915 270.66633442 0.11375618 270.67102814 C-18.15769912 270.7089994 -32.79615574 269.03093834 -46.61328125 255.74609375 C-47.37769531 254.97136719 -48.14210938 254.19664062 -48.9296875 253.3984375 C-49.66316406 252.67527344 -50.39664063 251.95210937 -51.15234375 251.20703125 C-56.25080515 245.87985383 -59.49940541 240.35436858 -61.9296875 233.3984375 C-62.17718781 232.70194029 -62.42468813 232.00544308 -62.67968845 231.28783989 C-65.41637667 222.6271187 -65.36089114 214.17214984 -65.33374023 205.19970703 C-65.33945266 203.48520465 -65.34642028 201.77070606 -65.35453796 200.05621338 C-65.37238885 195.42798487 -65.37131618 190.79994679 -65.36559558 186.17169428 C-65.36249177 182.29524193 -65.36860944 178.41882552 -65.37463433 174.54237831 C-65.38865167 165.39068886 -65.38714176 156.23909282 -65.37573242 147.08740234 C-65.36425595 137.67437897 -65.37832536 128.26164068 -65.4051289 118.84865487 C-65.42734502 110.74042108 -65.43390993 102.63227639 -65.42805248 94.52401435 C-65.42469558 89.69300433 -65.42701312 84.86217695 -65.44430351 80.03119278 C-65.45986501 75.48540474 -65.45571596 70.94003624 -65.43699837 66.39426422 C-65.43333771 64.73555705 -65.43634642 63.07681815 -65.44688416 61.41814041 C-65.5517591 43.53108208 -61.25905087 29.9592973 -48.8671875 16.7109375 C-34.47347261 2.89059861 -19.29927161 -0.07516556 0 0 Z " fill="#FDFDFD" transform="translate(871.9296875,1151.6015625)"/>
<path d="M0 0 C142.92794118 0 142.92794118 0 161.67578125 17.51171875 C174.18259985 30.90137161 177.31374696 46.18642239 177.30078125 63.8984375 C177.30506638 65.20978668 177.3093515 66.52113586 177.31376648 67.8722229 C177.32117866 70.63393222 177.32097422 73.39551359 177.31567383 76.15722656 C177.30988677 79.6624594 177.32681573 83.16716252 177.3500185 86.67230797 C177.36846004 90.06020454 177.36456729 93.44799131 177.36328125 96.8359375 C177.372491 98.07693207 177.38170074 99.31792664 177.39118958 100.5965271 C177.31291916 115.52586602 173.63395638 129.42956998 164 141 C163.32324219 141.89332031 163.32324219 141.89332031 162.6328125 142.8046875 C157.43941497 149.40646402 150.27139088 153.92900207 143 158 C142.34 158 141.68 158 141 158 C141.88858287 160.46116079 142.78567702 162.91868997 143.6875 165.375 C143.93177734 166.05433594 144.17605469 166.73367188 144.42773438 167.43359375 C145.85763728 171.30700163 147.46082239 174.99382212 149.35131836 178.66601562 C151.85555493 183.63306766 154.05937497 188.67972887 156.1796875 193.8203125 C156.55553986 194.72264618 156.93139221 195.62497986 157.31863403 196.55465698 C158.50743773 199.41005976 159.69151972 202.26738723 160.875 205.125 C162.43291763 208.87842867 163.99300717 212.63094788 165.5546875 216.3828125 C165.93208572 217.29010101 166.30948395 218.19738953 166.69831848 219.13217163 C169.33056146 225.4425725 172.02736856 231.7216443 174.79428101 237.97415161 C176.6137208 242.0867584 178.32280512 246.22892622 179.95703125 250.41796875 C181.80387171 254.99010937 183.82922863 259.48868139 185.828125 263.99609375 C187 267 187 267 187 270 C170.17 270 153.34 270 136 270 C134.02 265.05 132.04 260.1 130 255 C128.34181012 250.99607809 126.67709798 246.99591512 125 243 C124.16610985 241.0002321 123.33278066 239.00023019 122.5 237 C122.0875 236.01 121.675 235.02 121.25 234 C118.33333333 227 115.41666667 220 112.5 213 C112.10981689 212.06373779 111.71963379 211.12747559 111.31762695 210.1628418 C110.49272915 208.18275081 109.66827593 206.2024745 108.84448242 204.22192383 C106.70660202 199.08417887 104.55963638 193.95055536 102.39453125 188.82421875 C101.53385417 186.77864583 100.67317708 184.73307292 99.8125 182.6875 C99.15604492 181.1396582 99.15604492 181.1396582 98.48632812 179.56054688 C97.85307617 178.05137695 97.85307617 178.05137695 97.20703125 176.51171875 C96.8303833 175.61928467 96.45373535 174.72685059 96.06567383 173.80737305 C94.85013524 170.60520164 93.94095238 167.29333333 93 164 C78.15 164 63.3 164 48 164 C48 198.98 48 233.96 48 270 C32.16 270 16.32 270 0 270 C0 180.9 0 91.8 0 0 Z " fill="#FDFDFD" transform="translate(1045,1152)"/>
<path d="M0 0 C146.87623106 0 146.87623106 0 166.16015625 18.87890625 C178.52989041 31.84537131 180.47800194 47.87757282 180.46875 65.05078125 C180.47587345 66.67921706 180.48357552 68.30765042 180.49182129 69.93608093 C180.50518483 73.33237704 180.50687199 76.72844101 180.50097656 80.12475586 C180.49509024 84.43475939 180.52566541 88.74363269 180.56609344 93.05341816 C180.59219269 96.41248873 180.59482794 99.77129516 180.59120178 103.13045311 C180.59287256 104.71737696 180.60231325 106.30431581 180.62034607 107.89113808 C180.80842125 126.48377794 175.4040849 141.90631275 162.47265625 155.6796875 C151.67060318 165.81621123 137.49830182 171.18308781 122.81323242 171.11352539 C121.98991834 171.11364593 121.16660425 171.11376646 120.31834126 171.11389065 C117.66402255 171.11314668 115.00977483 171.105542 112.35546875 171.09765625 C110.71244338 171.09618523 109.06941754 171.09516551 107.4263916 171.09460449 C101.3467539 171.08937013 95.26712625 171.07540888 89.1875 171.0625 C75.595625 171.041875 62.00375 171.02125 48 171 C48 203.67 48 236.34 48 270 C32.16 270 16.32 270 0 270 C0 180.9 0 91.8 0 0 Z " fill="#FDFDFD" transform="translate(578,1152)"/>
<path d="M0 0 C1.86364842 -0.00389533 3.72729596 -0.0082317 5.59094238 -0.01298523 C9.48074229 -0.02041079 13.37045136 -0.02018231 17.26025391 -0.01489258 C22.21943656 -0.00909403 27.17824621 -0.02605622 32.13736725 -0.04923725 C35.98091772 -0.06403851 39.82437957 -0.06483777 43.66795349 -0.06172752 C45.49540446 -0.06223723 47.32286085 -0.06740837 49.15028381 -0.07753944 C68.81413973 -0.17321989 83.51788768 3.95706048 97.94921875 18.2109375 C110.47143991 31.51714361 112.18173876 47.06747738 111.90625 64.48828125 C111.844375 70.03640625 111.7825 75.58453125 111.71875 81.30078125 C97.85875 81.30078125 83.99875 81.30078125 69.71875 81.30078125 C68.06875 75.36078125 66.41875 69.42078125 64.71875 63.30078125 C61.11658066 52.77304674 61.11658066 52.77304674 52.71875 46.30078125 C52.09905838 45.9377742 51.47936676 45.57476715 50.84089661 45.20075989 C48.21398361 44.08671547 46.17821955 44.03999433 43.3269043 44.02612305 C42.24865891 44.01659103 41.17041351 44.00705902 40.05949402 43.99723816 C38.89904068 43.99814957 37.73858734 43.99906097 36.54296875 44 C35.34444778 43.99571487 34.14592682 43.99142975 32.91108704 43.98701477 C30.37505729 43.98127143 27.83901106 43.98077123 25.30297852 43.98510742 C21.43151542 43.98826067 17.56082137 43.96483026 13.68945312 43.93945312 C11.2239593 43.93717941 8.75846342 43.93647697 6.29296875 43.9375 C5.1385881 43.92829025 3.98420746 43.91908051 2.79484558 43.90959167 C-3.98224058 43.94840107 -9.6287675 44.16649993 -14.98828125 48.765625 C-19.60970644 54.92208188 -20.60337992 58.58910605 -20.65234375 66.16015625 C-20.66137222 67.02336487 -20.6704007 67.88657349 -20.67970276 68.77593994 C-20.69419498 70.60156799 -20.70308944 72.42724786 -20.70678711 74.25292969 C-20.71865088 77.0275994 -20.7678163 79.80002032 -20.81835938 82.57421875 C-20.8278283 84.3528538 -20.83506109 86.13150243 -20.83984375 87.91015625 C-20.85937607 88.73126892 -20.87890839 89.55238159 -20.89903259 90.39837646 C-20.85292652 96.37100412 -19.35837448 100.83108726 -15.28125 105.30078125 C-11.2298803 108.39778993 -8.16460512 108.67350995 -3.12695312 108.66967773 C-2.42534058 108.67344421 -1.72372803 108.67721069 -1.00085449 108.68109131 C0.51760017 108.68750804 2.03609503 108.68720852 3.55455017 108.6809063 C5.96994531 108.67175203 8.38457113 108.68207228 10.79992676 108.69752502 C17.66543412 108.73748086 24.53088002 108.73884393 31.39648438 108.73657227 C35.60402082 108.73652071 39.81114652 108.75591965 44.01856995 108.78590584 C46.37655793 108.79659864 48.73371506 108.78467537 51.0916748 108.77207947 C69.74945834 108.81682192 84.50504555 115.15028876 97.7578125 128.13671875 C110.09540613 140.86449561 113.0195099 155.51822535 113.08984375 172.65234375 C113.09883789 174.0384428 113.1079601 175.42454102 113.11720276 176.81063843 C113.13360965 179.70695329 113.14137703 182.60315377 113.14428711 185.49951172 C113.14964877 189.16729244 113.18727085 192.83396031 113.23303127 196.5014286 C113.2631368 199.36379677 113.27001787 202.22590834 113.27101326 205.08842087 C113.27713366 207.08384783 113.30642212 209.07916219 113.33653259 211.07437134 C113.2536565 228.13503727 106.79399911 242.60630085 95.11328125 254.984375 C80.9322318 268.70274747 64.93800362 271.2209694 46.0390625 270.95703125 C44.0904906 270.95089592 42.14190985 270.94715903 40.19332886 270.94567871 C36.14058007 270.93654816 32.08864294 270.9079866 28.03613281 270.86328125 C22.86515416 270.80649435 17.69480724 270.78482586 12.52354622 270.77591705 C7.54947212 270.76557207 2.5755528 270.73655263 -2.3984375 270.70703125 C-3.33303677 270.70326981 -4.26763603 270.69950836 -5.23055649 270.69563293 C-23.69904752 270.59950686 -38.1326614 268.96415447 -52.10546875 255.50390625 C-52.82347656 254.776875 -53.54148437 254.04984375 -54.28125 253.30078125 C-54.84457031 252.759375 -55.40789062 252.21796875 -55.98828125 251.66015625 C-65.50044909 241.72132125 -69.66508464 228.02027054 -69.4765625 214.546875 C-69.47454834 213.84824341 -69.47253418 213.14961182 -69.47045898 212.42980957 C-69.46014031 209.86589823 -69.4322201 207.30208183 -69.40625 204.73828125 C-69.365 198.98390625 -69.32375 193.22953125 -69.28125 187.30078125 C-55.42125 187.30078125 -41.56125 187.30078125 -27.28125 187.30078125 C-23.92337999 197.37439127 -23.92337999 197.37439127 -23.03515625 201.125 C-22.83728516 201.92615234 -22.63941406 202.72730469 -22.43554688 203.55273438 C-22.03854166 205.18661394 -21.64798994 206.82207412 -21.26367188 208.45898438 C-19.59635096 215.13366389 -17.36287612 220.49976493 -11.28125 224.30078125 C-7.97637211 226.27606313 -5.46221672 226.56629419 -1.62988281 226.60717773 C-0.49480286 226.62316513 0.6402771 226.63915253 1.80975342 226.65562439 C3.03269104 226.66098709 4.25562866 226.66634979 5.515625 226.671875 C6.77836243 226.68090347 8.04109985 226.68993195 9.34210205 226.69923401 C12.01532238 226.71374601 14.68811516 226.72342033 17.36132812 226.72631836 C20.76878327 226.73168906 24.17504547 226.76931885 27.58216476 226.81506252 C30.85157938 226.85216487 34.12102828 226.85335659 37.390625 226.859375 C39.21288605 226.88867348 39.21288605 226.88867348 41.07196045 226.91856384 C48.12190994 226.88122996 53.420016 226.25965771 58.71875 221.30078125 C62.2797868 216.65194071 63.82444104 211.90847651 63.87988281 206.11816406 C63.88949036 205.30341614 63.8990979 204.48866821 63.90899658 203.64923096 C63.91324646 202.7762738 63.91749634 201.90331665 63.921875 201.00390625 C63.92757507 200.09630554 63.93327515 199.18870483 63.93914795 198.25360107 C63.94858483 196.33379273 63.95512672 194.41396829 63.95898438 192.49414062 C63.96866889 189.57522867 63.99969599 186.65702745 64.03125 183.73828125 C64.03778281 181.86849374 64.04303219 179.99870122 64.046875 178.12890625 C64.0653952 176.83161591 64.0653952 176.83161591 64.08428955 175.50811768 C64.06348831 169.77353583 63.17389167 165.51166484 60.71875 160.30078125 C55.53018689 156.08507373 51.62337553 155.1781063 45.06689453 155.14306641 C44.39483475 155.13798569 43.72277496 155.13290497 43.03034973 155.12767029 C41.57024562 155.11697298 40.11012518 155.10835029 38.64999771 155.10155106 C36.32736064 155.08972048 34.00490605 155.07025112 31.68234253 155.0484314 C25.07800531 154.98699842 18.47368241 154.93305681 11.86914062 154.89941406 C7.8260091 154.878268 3.78320397 154.84279789 -0.25973892 154.79865646 C-1.78963456 154.78463951 -3.31958803 154.77580694 -4.84954453 154.77260208 C-22.2628902 154.7323085 -38.26878886 151.75666419 -51.37890625 139.3671875 C-64.83387058 124.7518361 -69.62109455 110.59946205 -69.546875 91.01953125 C-69.54878845 89.8847937 -69.5507019 88.75005615 -69.55267334 87.58093262 C-69.55402565 85.19767025 -69.55039643 82.81440028 -69.54199219 80.43115234 C-69.53127936 76.81070196 -69.54192047 73.1907477 -69.5546875 69.5703125 C-69.55336574 67.24088434 -69.550803 64.91145648 -69.546875 62.58203125 C-69.55092346 61.51400269 -69.55497192 60.44597412 -69.55914307 59.34558105 C-69.44928868 41.48880352 -63.98965202 27.74553831 -51.41015625 15.15625 C-36.41779029 0.99188316 -19.46113725 -0.01703541 0 0 Z " fill="#FDFDFD" transform="translate(1541.28125,1151.69921875)"/>
<path d="M0 0 C1.88510246 -0.00202492 3.77020415 -0.00493983 5.65530396 -0.00869751 C9.59400945 -0.01310335 13.53250989 -0.00674757 17.47119141 0.00732422 C22.48973922 0.02439134 27.50780471 0.01457942 32.52633476 -0.00339317 C36.41626537 -0.01429841 40.30608401 -0.01075355 44.19601822 -0.0030098 C46.04496443 -0.00102514 47.89392121 -0.00340525 49.74285507 -0.01044846 C69.5830385 -0.06944332 86.45297841 3.33403676 101.2265625 17.73828125 C108.44753215 25.72120386 111.99082806 34.043563 114.6328125 44.3984375 C114.89976929 45.24112183 114.89976929 45.24112183 115.17211914 46.10083008 C115.83285249 49.39609321 115.75520071 52.66218188 115.73046875 56.0078125 C115.72946167 56.65250488 115.72845459 57.29719727 115.72741699 57.96142578 C115.72220652 60.35711459 115.70824531 62.75277793 115.6953125 65.1484375 C115.6746875 70.5109375 115.6540625 75.8734375 115.6328125 81.3984375 C101.7728125 81.3984375 87.9128125 81.3984375 73.6328125 81.3984375 C70.3828125 69.8359375 70.3828125 69.8359375 69.38574219 66.23217773 C66.50620447 56.00877967 66.50620447 56.00877967 59.7578125 48.0859375 C52.56020733 44.19923071 46.25966636 44.07800278 38.2265625 44.0625 C37.02849976 44.0558432 35.83043701 44.0491864 34.59606934 44.04232788 C32.0678053 44.03222125 29.53951469 44.02751024 27.01123047 44.02783203 C23.14636386 44.02345285 19.28263396 43.98709316 15.41796875 43.94921875 C12.95833723 43.94335142 10.4987003 43.93938147 8.0390625 43.9375 C6.88579468 43.92312897 5.73252686 43.90875793 4.54431152 43.89395142 C-2.93721985 43.93652504 -6.52763048 44.75458606 -11.9765625 49.92578125 C-16.6238336 55.67120888 -17.68110541 60.19332964 -17.703125 67.48046875 C-17.7097818 68.25347824 -17.7164386 69.02648773 -17.72329712 69.82292175 C-17.733393 71.45427076 -17.73811509 73.0856608 -17.73779297 74.71704102 C-17.74215576 77.19292529 -17.77847595 79.66701001 -17.81640625 82.14257812 C-17.82227747 83.73436897 -17.82624482 85.32616819 -17.828125 86.91796875 C-17.84249603 87.64844925 -17.85686707 88.37892975 -17.87167358 89.13154602 C-17.82378054 94.6110672 -16.39313826 98.81288947 -13.3671875 103.3984375 C-8.6181773 107.80823268 -5.99076592 108.52206812 0.41479492 108.52441406 C1.11275681 108.5262822 1.81071869 108.52815033 2.52983093 108.53007507 C4.04998085 108.53408457 5.57013682 108.53615441 7.09029198 108.53653717 C10.34166526 108.5399612 13.59284016 108.56135155 16.84414387 108.58176804 C22.89441078 108.61966268 28.94447391 108.6510736 34.99487305 108.64892578 C39.20557109 108.64813029 43.4155522 108.67186551 47.62606239 108.7108078 C49.2185066 108.72115476 50.81103477 108.72287679 52.40349388 108.71515656 C71.74645347 108.63086281 87.00966009 114.54798231 101.34375 127.94921875 C110.31194396 137.54488021 115.71409382 149.69491983 115.79394531 162.81835938 C115.80355286 164.09739136 115.8131604 165.37642334 115.82305908 166.69421387 C115.82791042 168.08520324 115.83218842 169.47619472 115.8359375 170.8671875 C115.84017857 171.9281942 115.84017857 171.9281942 115.84450531 173.01063538 C115.85947247 176.76034921 115.86871517 180.51002489 115.87304688 184.25976562 C115.87850111 188.09793323 115.90247095 191.93574062 115.93101883 195.77379608 C115.94982651 198.75444487 115.95486052 201.73501044 115.95638275 204.7157135 C115.95937355 206.12844289 115.96727808 207.54117212 115.98056793 208.95384216 C116.13996212 227.21312654 112.11674491 241.07730849 99.53515625 254.62890625 C83.93600929 269.13899572 67.87369442 270.71861886 47.609375 270.734375 C45.65701198 270.74081348 43.70464989 270.7475426 41.75228882 270.75454712 C37.67240158 270.76647723 33.59259875 270.77023224 29.51269531 270.76904297 C24.31248645 270.76883978 19.11282401 270.79616176 13.91274452 270.83058739 C9.88385584 270.85293801 5.85509711 270.85687805 1.8261528 270.85582352 C-0.08979808 270.85816643 -2.00575328 270.86691514 -3.9216423 270.88248825 C-21.63220281 271.01300299 -36.00571876 267.83882171 -49.42578125 255.421875 C-57.22158534 247.29667074 -61.12164012 238.98477229 -64.3671875 228.3984375 C-64.6971875 227.4084375 -65.0271875 226.4184375 -65.3671875 225.3984375 C-65.45248196 222.52172146 -65.48311993 219.66923672 -65.46484375 216.79296875 C-65.46383667 216.04897827 -65.46282959 215.30498779 -65.46179199 214.53845215 C-65.45656493 211.76259823 -65.44260365 208.98676629 -65.4296875 206.2109375 C-65.4090625 200.0028125 -65.3884375 193.7946875 -65.3671875 187.3984375 C-51.5071875 187.3984375 -37.6471875 187.3984375 -23.3671875 187.3984375 C-19.6171875 201.5234375 -19.6171875 201.5234375 -18.46191406 205.94580078 C-18.14706055 207.10837402 -17.83220703 208.27094727 -17.5078125 209.46875 C-17.19360352 210.65227051 -16.87939453 211.83579102 -16.55566406 213.05517578 C-14.90622079 217.69516678 -12.88369685 221.29896822 -8.8671875 224.2109375 C-4.78915493 226.14800297 -1.30830942 226.53222168 3.19238281 226.59130859 C4.30744202 226.60737152 5.42250122 226.62343445 6.5713501 226.63998413 C11.66360752 226.68460362 16.75573722 226.72549259 21.84814453 226.74853516 C24.53110994 226.76185617 27.21331146 226.78968055 29.89599609 226.83056641 C33.77204179 226.88542736 37.64705545 226.90722429 41.5234375 226.921875 C42.71640442 226.94454437 43.90937134 226.96721375 45.13848877 226.99057007 C52.23711438 226.9726292 57.20531046 226.19884646 62.6328125 221.3984375 C64.30121482 219.428212 64.30121482 219.428212 65.0703125 217.3359375 C65.35777344 216.68496094 65.64523437 216.03398438 65.94140625 215.36328125 C67.1224066 212.00710511 67.75805505 208.96101941 67.79394531 205.39941406 C67.80355286 204.62470764 67.8131604 203.85000122 67.82305908 203.05181885 C67.82730896 202.22260925 67.83155884 201.39339966 67.8359375 200.5390625 C67.84163757 199.67585388 67.84733765 198.81264526 67.85321045 197.92327881 C67.86264544 196.09762797 67.86918846 194.27196021 67.87304688 192.44628906 C67.8827295 189.67221839 67.91375733 186.89889622 67.9453125 184.125 C67.95184558 182.34635854 67.95709485 180.56771181 67.9609375 178.7890625 C67.9794577 177.55739349 67.9794577 177.55739349 67.99835205 176.30084229 C67.97594151 170.4216103 67.34647403 164.3954955 63.21612549 159.83380127 C58.51349502 155.75623035 54.96301008 155.27170021 48.91748047 155.22485352 C48.23899551 155.2181665 47.56051056 155.21147949 46.86146545 155.20458984 C45.38826155 155.19054785 43.91503599 155.17865108 42.44179916 155.16864204 C40.10346456 155.15219225 37.76528812 155.12894898 35.42703247 155.10374451 C28.77858423 155.03310637 22.130069 154.97309656 15.48144531 154.92163086 C11.4124602 154.88965633 7.34365377 154.84832831 3.27481461 154.80143547 C1.73044203 154.78551695 0.18602831 154.77314912 -1.35840225 154.76452827 C-9.26110927 154.71980622 -16.71149517 154.54254173 -24.3671875 152.3984375 C-25.32367188 152.13804687 -26.28015625 151.87765625 -27.265625 151.609375 C-41.20364845 146.90474248 -52.36295829 136.61572313 -59.8046875 124.0234375 C-64.89280672 113.65049781 -65.83402572 102.89950076 -65.8359375 91.49609375 C-65.84355103 90.2159288 -65.85116455 88.93576385 -65.85900879 87.61680603 C-65.87232554 84.9284481 -65.87408039 82.24038325 -65.86816406 79.55200195 C-65.86226949 76.14870184 -65.89290703 72.74682903 -65.93328094 69.34380436 C-65.96570856 66.04036246 -65.96104138 62.73719324 -65.9609375 59.43359375 C-65.97733276 58.2342067 -65.99372803 57.03481964 -66.01062012 55.79908752 C-65.89995786 42.02517012 -61.24666966 30.82779291 -52.3671875 20.3984375 C-51.36558594 19.21121094 -51.36558594 19.21121094 -50.34375 18 C-36.34076828 2.74768162 -19.70900924 -0.07488805 0 0 Z " fill="#FDFDFD" transform="translate(406.3671875,1151.6015625)"/>
<path d="M0 0 C61.71 0 123.42 0 187 0 C187 14.52 187 29.04 187 44 C163.9 44 140.8 44 117 44 C117 118.58 117 193.16 117 270 C101.16 270 85.32 270 69 270 C69 195.42 69 120.84 69 44 C46.23 44 23.46 44 0 44 C0 29.48 0 14.96 0 0 Z " fill="#FCFCFC" transform="translate(1251,1152)"/>
<path d="M0 0 C1.13177673 -0.02236725 2.26355347 -0.0447345 3.42962646 -0.06777954 C4.64426575 -0.07425507 5.85890503 -0.08073059 7.11035156 -0.08740234 C8.36930237 -0.09975922 9.62825317 -0.11211609 10.925354 -0.12484741 C13.58858297 -0.14440967 16.25086257 -0.1568723 18.9140625 -0.15917969 C22.30508663 -0.16444966 25.6936962 -0.2157081 29.08407211 -0.27869606 C32.34270094 -0.32972298 35.60137692 -0.33020292 38.86035156 -0.33740234 C40.06689392 -0.36412018 41.27343628 -0.39083801 42.51654053 -0.41836548 C49.47766826 -0.36268087 53.86261918 0.63690443 59.36236572 4.97158813 C65.62245112 13.1921608 65.8284039 21.95766698 65.75268555 31.93823242 C65.75647618 33.37336759 65.76198232 34.80849909 65.76905823 36.24362183 C65.7829321 40.11350319 65.77190104 43.98293592 65.75534701 47.85279202 C65.74141695 51.91780967 65.7479655 55.98280336 65.7514801 60.0478363 C65.75417567 66.87091231 65.74076208 73.69381173 65.7175293 80.5168457 C65.69091297 88.38768759 65.68917829 96.25823462 65.70091766 104.1291061 C65.71172289 111.72490723 65.70548757 119.32060245 65.69136238 126.91639519 C65.68562741 130.13826968 65.68566552 133.36006604 65.69042778 136.5819416 C65.69522485 140.37995888 65.68498393 144.17765614 65.66347313 147.97561264 C65.65794244 149.36346673 65.65740549 150.75135181 65.66242599 152.13920784 C65.69064621 161.06416682 65.51886851 169.46586617 59.93847656 176.82666016 C53.40932799 183.20396806 46.94566847 182.94433357 38.25878906 182.99072266 C36.99888153 183.00307953 35.738974 183.0154364 34.44088745 183.02816772 C31.77943842 183.04771191 29.11893908 183.06019009 26.45751953 183.0625 C23.06530965 183.06778065 19.67550134 183.11911771 16.28393745 183.18201637 C13.02568427 183.23296681 9.76738718 183.2335186 6.50878906 183.24072266 C5.30022247 183.26744049 4.09165588 183.29415833 2.84646606 183.32168579 C-3.97322563 183.2669819 -8.07255033 182.50662059 -13.07449341 177.73641968 C-19.05299412 169.57924353 -19.32440402 162.91496264 -19.25073242 153.02441406 C-19.2545207 151.57149229 -19.26002492 150.11857413 -19.2671051 148.66566467 C-19.28101338 144.7377513 -19.26992171 140.81027827 -19.25339389 136.88238955 C-19.23948807 132.75910423 -19.24600995 128.63584306 -19.24952698 124.51254272 C-19.25222535 117.58755446 -19.23878776 110.66273989 -19.21557617 103.73779297 C-19.18898978 95.75113434 -19.18721404 87.76476638 -19.19896454 79.77807868 C-19.20977594 72.07336274 -19.20352759 64.36875112 -19.18940926 56.66404343 C-19.18367642 53.39554734 -19.18371078 50.12712827 -19.18847466 46.85863113 C-19.19327695 43.00236427 -19.18300949 39.14641211 -19.16152 35.290205 C-19.15599517 33.88180922 -19.15544685 32.47338293 -19.16047287 31.06498528 C-19.21761953 12.74176585 -19.21761953 12.74176585 -13.37402344 5.51416016 C-8.87743695 1.98112792 -5.80604189 0.08457346 0 0 Z " fill="#070706" transform="translate(873.7490234375,1195.54833984375)"/>
<path d="M0 0 C17.325 -0.185625 17.325 -0.185625 35 -0.375 C38.63386719 -0.42962402 42.26773438 -0.48424805 46.01171875 -0.54052734 C50.48242188 -0.56762695 50.48242188 -0.56762695 52.58178711 -0.57266235 C54.03404806 -0.58181791 55.48626613 -0.60280049 56.93823242 -0.63345337 C71.71649331 -0.92958264 71.71649331 -0.92958264 77.58544922 4.39682007 C81.84680093 9.22641943 84.11121999 13.45316016 84.16113281 20.00292969 C84.17074036 21.02118835 84.1803479 22.03944702 84.19024658 23.08856201 C84.19449646 24.1885553 84.19874634 25.28854858 84.203125 26.421875 C84.20882507 27.55522278 84.21452515 28.68857056 84.22039795 29.85626221 C84.22985028 32.25702989 84.23638285 34.65781055 84.24023438 37.05859375 C84.24992483 40.72158641 84.28094062 44.38401442 84.3125 48.046875 C84.31903167 50.380205 84.3242815 52.71353902 84.328125 55.046875 C84.3404718 56.13877136 84.3528186 57.23066772 84.36553955 58.35565186 C84.34300696 66.09552072 83.34544766 71.82889615 78.0625 77.8125 C77.33740234 78.65748047 77.33740234 78.65748047 76.59765625 79.51953125 C72.69926397 83.13197789 69.24383922 83.24554553 64.02832031 83.22705078 C63.32407299 83.22729185 62.61982567 83.22753292 61.89423752 83.2277813 C59.62207002 83.22629244 57.35023355 83.21107964 55.078125 83.1953125 C53.67236489 83.19237073 52.26660259 83.19033111 50.86083984 83.18920898 C45.65719308 83.17873716 40.45359327 83.15081465 35.25 83.125 C23.6175 83.08375 11.985 83.0425 0 83 C0 55.61 0 28.22 0 0 Z " fill="#070706" transform="translate(626,1196)"/>
<path d="M0 0 C16.335 -0.1546875 16.335 -0.1546875 33 -0.3125 C38.13755859 -0.38078003 38.13755859 -0.38078003 43.37890625 -0.45043945 C46.10676088 -0.46504845 48.83462643 -0.47778814 51.5625 -0.48828125 C52.26221924 -0.50134811 52.96193848 -0.51441498 53.68286133 -0.52787781 C68.74477656 -0.79483019 68.74477656 -0.79483019 75 5 C76.83984375 7.1328125 76.83984375 7.1328125 77.9375 9.125 C78.31777344 9.78757812 78.69804688 10.45015625 79.08984375 11.1328125 C80.58748839 14.20523369 81.12737696 16.71413146 81.14526367 20.08496094 C81.15164352 20.90301208 81.15802338 21.72106323 81.16459656 22.56390381 C81.16570938 23.4451593 81.1668222 24.32641479 81.16796875 25.234375 C81.17296135 26.60145599 81.17296135 26.60145599 81.17805481 27.99615479 C81.18311874 29.92614233 81.1854633 31.85613863 81.18530273 33.78613281 C81.18748129 36.72475841 81.2056207 39.66300372 81.22460938 42.6015625 C81.22754507 44.47916539 81.22952869 46.35677005 81.23046875 48.234375 C81.23765427 49.10753357 81.24483978 49.98069214 81.25224304 50.88031006 C81.22398517 58.50965775 79.94359254 65.90743793 75 72 C72.73674143 73.67592525 70.56174397 74.76656772 68 76 C67.01 76.495 67.01 76.495 66 77 C63.90644981 77.09167789 61.80990823 77.11750933 59.71435547 77.11352539 C58.73268748 77.11370619 58.73268748 77.11370619 57.73118782 77.11389065 C55.60981997 77.11314343 53.48853966 77.10552389 51.3671875 77.09765625 C50.07176025 77.09664917 48.77633301 77.09564209 47.44165039 77.09460449 C42.5860913 77.08935846 37.73054479 77.07539729 32.875 77.0625 C22.02625 77.041875 11.1775 77.02125 0 77 C0 51.59 0 26.18 0 0 Z " fill="#080807" transform="translate(1093,1196)"/>
<path d="M0 0 C159.72 0 319.44 0 484 0 C483.67 0.66 483.34 1.32 483 2 C481.47560621 1.99829126 481.47560621 1.99829126 479.92041659 1.996548 C435.14635377 1.9465563 390.37228846 1.90027086 345.59820557 1.87297058 C344.92067404 1.87255641 344.24314251 1.87214224 343.54507972 1.87171552 C328.82158327 1.86273744 314.09808652 1.8544268 299.37458931 1.84680401 C292.15451129 1.8430619 284.93443336 1.83917225 277.71435547 1.83520508 C276.63661102 1.83461666 276.63661102 1.83461666 275.53709396 1.83401636 C252.23567108 1.82122531 228.93426998 1.79868616 205.6328603 1.77110834 C181.69377354 1.74282718 157.75469885 1.72434753 133.81559567 1.71825503 C130.4367485 1.71739053 127.05790138 1.71641361 123.67905426 1.71536827 C123.01402857 1.715166 122.34900288 1.71496373 121.6638249 1.71475533 C111.60992057 1.71142597 101.55604959 1.69944163 91.50215912 1.68280983 C80.07020689 1.66396659 68.63830388 1.65507656 57.20633593 1.65949587 C51.36897937 1.66142448 45.53173234 1.65839069 39.69439507 1.64238358 C34.35627397 1.62785167 29.01833672 1.62700375 23.6802074 1.63730332 C21.74340243 1.63857744 19.80658627 1.63471525 17.86980352 1.62535045 C15.2476895 1.6134035 12.62624909 1.61974321 10.00414658 1.63085651 C8.86237342 1.61903495 8.86237342 1.61903495 7.69753414 1.60697457 C3.52111455 1.64728727 1.02782653 2.01822924 -2 5 C-1.34 3.35 -0.68 1.7 0 0 Z " fill="#F4F4F4" transform="translate(468,713)"/>
<path d="M0 0 C5 0 5 0 6.4855957 1.28515625 C6.87835693 1.87167969 7.27111816 2.45820312 7.67578125 3.0625 C8.11083984 3.69414063 8.54589844 4.32578125 8.99414062 4.9765625 C9.42919922 5.64429688 9.86425781 6.31203125 10.3125 7 C10.76689453 7.66773438 11.22128906 8.33546875 11.68945312 9.0234375 C12.8081725 10.67207658 13.90613038 12.33476935 15 14 C15.59167969 12.989375 16.18335938 11.97875 16.79296875 10.9375 C17.59019466 9.62442203 18.38842431 8.31195311 19.1875 7 C19.57486328 6.33226562 19.96222656 5.66453125 20.36132812 4.9765625 C21.54296875 3.0625 21.54296875 3.0625 24 0 C25.65 0 27.3 0 29 0 C29 8.58 29 17.16 29 26 C27.35 26 25.7 26 24 26 C23.67 21.05 23.34 16.1 23 11 C19.04 16.94 19.04 16.94 15 23 C10.6553181 18.6553181 8.7223939 16.14229959 6 11 C5.67 15.95 5.34 20.9 5 26 C3.35 26 1.7 26 0 26 C0 17.42 0 8.84 0 0 Z " fill="#EDEDED" transform="translate(1689,1161)"/>
<path d="M0 0 C8.58 0 17.16 0 26 0 C26 1.65 26 3.3 26 5 C22.7 5 19.4 5 16 5 C16 11.93 16 18.86 16 26 C14.02 26 12.04 26 10 26 C10 19.07 10 12.14 10 5 C6.7 5 3.4 5 0 5 C0 3.35 0 1.7 0 0 Z " fill="#E5E5E5" transform="translate(1657,1161)"/>
</svg>
