<?xml version="1.0" standalone="no"?>
<!DOCTYPE svg PUBLIC "-//W3C//DTD SVG 20010904//EN"
 "http://www.w3.org/TR/2001/REC-SVG-20010904/DTD/svg10.dtd">
<svg version="1.0" xmlns="http://www.w3.org/2000/svg"
 width="2000.000000pt" height="676.000000pt" viewBox="0 0 2000.000000 676.000000"
 preserveAspectRatio="xMidYMid meet">

<g transform="translate(0.000000,676.000000) scale(0.100000,-0.100000)"
fill="#000000" stroke="none">
<path d="M0 3470 l0 -3290 700 0 700 0 0 1085 c0 760 3 1085 11 1085 5 0 57
-20 115 -45 346 -148 758 -227 1099 -211 498 24 951 185 1345 480 117 87 288
251 388 371 79 93 208 284 257 378 l29 54 -41 104 c-108 273 -155 541 -155
884 0 358 48 620 172 937 l22 57 -42 78 c-304 557 -845 970 -1480 1133 -219
56 -291 64 -585 65 -240 0 -284 -3 -395 -23 -235 -43 -440 -105 -640 -191 -51
-23 -95 -41 -97 -41 -2 0 -3 86 -3 190 l0 190 -700 0 -700 0 0 -3290z m2701
1806 c379 -68 672 -357 746 -736 96 -500 -208 -973 -703 -1091 -119 -28 -358
-23 -474 10 -263 76 -488 261 -605 496 -59 118 -85 223 -92 365 -17 354 169
678 488 849 196 106 428 144 640 107z"/>
<path d="M12688 6555 l-3 -175 -75 36 c-192 92 -417 162 -645 201 -172 28
-614 26 -785 -5 -671 -121 -1211 -465 -1565 -997 -41 -60 -90 -143 -110 -183
l-37 -73 40 -102 c91 -233 134 -442 152 -737 21 -359 -29 -703 -152 -1032
l-41 -108 33 -63 c123 -232 333 -489 555 -675 450 -378 1090 -586 1676 -543
298 22 560 93 858 232 l103 49 -7 -83 c-25 -317 -104 -526 -255 -677 -201
-200 -462 -269 -985 -257 -435 10 -793 75 -1200 219 -77 27 -148 52 -158 55
-16 5 -17 -30 -15 -683 l3 -687 105 -39 c444 -163 1028 -244 1575 -219 369 17
641 66 915 163 737 262 1193 844 1354 1728 53 289 59 397 65 1109 l6 665 34
-88 c77 -198 215 -436 355 -611 82 -101 257 -276 362 -360 611 -490 1407 -645
2166 -420 619 184 1144 627 1428 1209 108 220 172 427 206 666 18 126 21 396
5 536 -59 520 -298 1006 -675 1372 -190 184 -360 303 -601 422 -327 161 -602
228 -977 237 -322 8 -551 -24 -833 -118 -649 -216 -1173 -706 -1425 -1334 -17
-44 -35 -89 -40 -100 -5 -11 -9 344 -9 813 l-1 832 -700 0 -700 0 -2 -175z
m-932 -1280 c187 -36 349 -122 489 -260 143 -141 232 -303 270 -494 23 -111
16 -295 -14 -396 -93 -312 -341 -553 -667 -647 -69 -20 -100 -23 -249 -22
-154 1 -178 3 -260 28 -187 56 -327 138 -451 267 -117 121 -192 256 -231 416
-25 103 -22 305 5 408 27 99 97 243 158 324 215 286 608 441 950 376z m4743 0
c298 -57 544 -248 676 -527 97 -205 117 -439 54 -645 -76 -247 -254 -451 -491
-563 -153 -71 -219 -85 -413 -84 -202 1 -272 16 -430 93 -270 132 -442 352
-500 640 -27 132 -17 317 23 441 149 453 617 733 1081 645z"/>
<path d="M18290 6645 l0 -65 120 0 120 0 0 -355 0 -355 80 0 80 0 0 355 0 355
120 0 120 0 0 65 0 65 -320 0 -320 0 0 -65z"/>
<path d="M19070 6290 l0 -420 75 0 75 0 0 322 c0 186 4 318 9 313 5 -6 55
-151 112 -323 l104 -313 90 3 89 3 96 319 95 318 3 -321 2 -321 90 0 90 0 0
420 0 420 -134 0 -134 0 -81 -237 c-45 -131 -94 -273 -109 -315 -14 -42 -29
-75 -32 -73 -3 2 -43 143 -90 314 l-85 311 -132 0 -133 0 0 -420z"/>
<path d="M6925 6530 c-839 -52 -1564 -526 -1921 -1255 -188 -386 -260 -814
-208 -1254 73 -630 438 -1224 969 -1578 297 -198 595 -314 946 -370 159 -25
547 -25 704 0 580 91 1081 368 1452 801 268 313 443 690 510 1101 24 151 24
465 0 625 -38 241 -95 426 -202 645 -222 457 -582 815 -1050 1045 -268 132
-585 218 -869 235 -189 11 -214 12 -331 5z m325 -1346 c336 -63 600 -290 701
-603 125 -389 -5 -797 -328 -1027 -235 -169 -567 -219 -853 -128 -311 99 -548
342 -631 649 -32 115 -32 327 -1 440 77 277 304 521 581 623 163 60 367 78
531 46z"/>
</g>
</svg>
