<?xml version="1.0" encoding="UTF-8"?>
<svg version="1.1" xmlns="http://www.w3.org/2000/svg" width="2000" height="1024">
<path d="M0 0 C0.8353125 0.3403125 0.8353125 0.3403125 1.6875 0.6875 C0.86507813 1.23277344 0.04265625 1.77804688 -0.8046875 2.33984375 C-11.84098314 9.75275225 -26.19843784 19.45937569 -32.3125 31.6875 C-32.9725 31.6875 -33.6325 31.6875 -34.3125 31.6875 C-34.580625 32.27015625 -34.84875 32.8528125 -35.125 33.453125 C-36.32730991 35.71536601 -37.65075913 37.49326318 -39.3125 39.4375 C-39.828125 40.05109375 -40.34375 40.6646875 -40.875 41.296875 C-42.3125 42.6875 -42.3125 42.6875 -44.3125 42.6875 C-44.56644531 43.27015625 -44.82039063 43.8528125 -45.08203125 44.453125 C-46.44570333 46.92938033 -47.95475203 48.49270626 -50 50.4375 C-53.26468593 53.62042277 -56.29449641 56.90050958 -59.265625 60.35546875 C-61.89416741 63.35020123 -64.60178286 66.26724071 -67.3125 69.1875 C-70.54396275 72.6717996 -73.76286691 76.15792349 -76.875 79.75 C-83.88633627 87.84000339 -91.2463849 95.62419205 -98.5625 103.4375 C-102.63768964 107.79081508 -106.66532931 112.16584579 -110.55859375 116.68359375 C-112.85310011 119.30515669 -115.20581935 121.87198922 -117.5625 124.4375 C-118.02543457 124.94168457 -118.48836914 125.44586914 -118.96533203 125.96533203 C-121.43704723 128.65441552 -123.9141712 131.33842122 -126.39453125 134.01953125 C-126.8937207 134.56061523 -127.39291016 135.10169922 -127.90722656 135.65917969 C-128.86443262 136.69663057 -129.82333904 137.73251596 -130.78417969 138.76660156 C-132.84308169 141.00001273 -134.62166335 143.15124503 -136.3125 145.6875 C-136.9725 145.6875 -137.6325 145.6875 -138.3125 145.6875 C-138.57587158 146.27305664 -138.83924316 146.85861328 -139.1105957 147.46191406 C-140.36572783 149.78606286 -141.71935954 151.39357738 -143.54296875 153.296875 C-144.18169922 153.96976563 -144.82042969 154.64265625 -145.47851562 155.3359375 C-146.14560547 156.02945313 -146.81269531 156.72296875 -147.5 157.4375 C-151.97029354 162.11685204 -156.35194839 166.83731106 -160.59106445 171.72753906 C-163.42272078 174.95155509 -166.36960923 178.06531376 -169.3125 181.1875 C-173.44982161 185.59725565 -177.53889682 190.02624379 -181.484375 194.609375 C-184.00319793 197.47265234 -186.59595745 200.26509474 -189.1875 203.0625 C-191.22952645 205.27050083 -193.27104658 207.47896938 -195.3125 209.6875 C-196.18132812 210.62722656 -197.05015625 211.56695312 -197.9453125 212.53515625 C-206.80798749 222.23144919 -210.93706133 229.2443128 -210.671875 242.80859375 C-209.54064103 255.01854305 -202.61427551 262.46745787 -194.3125 270.6875 C-193.20068359 271.80125 -193.20068359 271.80125 -192.06640625 272.9375 C-190.79908642 274.20234942 -189.5278443 275.46329161 -188.2512207 276.71875 C-186.50988929 278.4870533 -184.89463093 280.29678261 -183.2890625 282.1875 C-178.86340417 287.27324855 -174.18895457 292.10442405 -169.45214844 296.89794922 C-168.44054978 297.92617957 -167.43435702 298.95975588 -166.43359375 299.99853516 C-158.73418498 307.98692304 -151.59758671 313.85899133 -140.1875 315 C-130.54041395 314.22200919 -124.46110571 309.88112566 -118.3125 302.6875 C-116.13391898 300.08321924 -113.98928487 297.45600068 -111.86328125 294.80859375 C-108.93607673 291.19029253 -105.87350575 287.69261009 -102.8125 284.1875 C-98.98908817 279.80559989 -95.22094639 275.39689091 -91.5625 270.875 C-88.03058913 266.51167215 -84.32543064 262.3491152 -80.546875 258.19921875 C-77.52559963 254.80292494 -74.68674067 251.2715702 -71.828125 247.73828125 C-68.33737122 243.50492923 -64.72611199 239.38087015 -61.11914062 235.24658203 C-57.86577802 231.50788486 -54.68022494 227.72855163 -51.5625 223.875 C-48.03058913 219.51167215 -44.32543064 215.3491152 -40.546875 211.19921875 C-37.52559963 207.80292494 -34.68674067 204.2715702 -31.828125 200.73828125 C-28.33671645 196.50413517 -24.72493173 192.37915503 -21.11694336 188.24438477 C-17.88302007 184.52852122 -14.71946285 180.77134778 -11.625 176.9375 C-7.831434 172.24765192 -3.80918059 167.8141123 0.28125 163.3828125 C2.55962967 160.83073138 4.66242054 158.20888287 6.75 155.5 C14.27988209 146.01234857 23.32231006 138.44882066 35.6875 136.6875 C54.73821753 135.86502926 69.39660224 139.55191987 84.15625 152.29296875 C88.27906571 156.19310151 92.01091596 160.3696513 95.6875 164.6875 C96.31140625 165.38617188 96.9353125 166.08484375 97.578125 166.8046875 C101.6875 171.43253505 101.6875 171.43253505 101.6875 173.6875 C102.3475 173.6875 103.0075 173.6875 103.6875 173.6875 C105.10188406 175.26036684 106.44354401 176.89889996 107.75 178.5625 C110.79753078 182.38656507 113.90777209 186.05647541 117.25 189.625 C134.81864474 208.94436633 139.71237167 230.24278034 138.6875 255.6875 C137.0205498 274.21385789 124.61073742 287.55547803 113.6875 301.6875 C112.01955991 303.85318979 110.35364233 306.02042598 108.6875 308.1875 C107.8934375 309.21875 107.099375 310.25 106.28125 311.3125 C103.24142372 315.26427416 100.21474909 319.2260882 97.1875 323.1875 C92.55860742 329.24479794 87.91737237 335.29226248 83.265625 341.33203125 C81.39565857 343.76284174 79.53228955 346.19859035 77.671875 348.63671875 C72.02534407 356.03630558 66.3530161 363.4132477 60.625 370.75 C55.75230001 376.99356543 50.96350673 383.29203998 46.23071289 389.64208984 C40.69411921 397.0517463 34.9894053 404.32933761 29.29785156 411.62011719 C26.20083436 415.59609379 23.13214982 419.59363648 20.06640625 423.59375 C18.39495375 425.76746163 16.71643137 427.93387283 15.02734375 430.09375 C12.54821521 433.26781322 10.11157684 436.47118491 7.6875 439.6875 C7.13707031 440.39261719 6.58664062 441.09773438 6.01953125 441.82421875 C0.93009044 448.94346586 0.00833882 457.9249575 1.25 466.4375 C2.44469185 471.78628376 4.83189549 476.06544783 7.6875 480.6875 C8.0071875 481.41066406 8.326875 482.13382812 8.65625 482.87890625 C9.61937795 485.03561949 9.61937795 485.03561949 12.6875 485.6875 C14.21289062 487.23632813 14.21289062 487.23632813 15.84375 489.21875 C19.7257665 493.79398374 23.90890243 497.98544264 28.1875 502.1875 C33.0317934 506.94513341 37.7066989 511.75516066 42.13769531 516.90185547 C44.11730157 519.18270615 46.18688923 521.3550655 48.3125 523.5 C49.02664063 524.22832031 49.74078125 524.95664062 50.4765625 525.70703125 C56.62342293 531.21314121 62.00277065 532.02462117 70.01171875 531.88671875 C75.71680396 531.46196058 78.6693932 528.90530111 82.4375 524.875 C87.09328832 519.39915806 91.20848517 513.54566232 95.31494141 507.65576172 C97.73962879 504.17873758 100.18267087 500.71464468 102.625 497.25 C103.13071533 496.53191162 103.63643066 495.81382324 104.1574707 495.07397461 C107.8717947 489.81157111 111.65468419 484.6037844 115.47460938 479.41772461 C123.83580119 468.06421611 132.05702128 456.61234549 140.16992188 445.08032227 C145.39093244 437.66877957 150.70519478 430.32559377 156.02441406 422.984375 C158.2927344 419.8516155 160.55595752 416.7151883 162.81933594 413.57885742 C166.82784239 408.02436249 170.8393561 402.47232888 174.875 396.9375 C177.33718191 393.56035279 179.77179245 390.16523128 182.19018555 386.7565918 C186.40479369 380.82116303 190.69478254 374.94884644 195.0625 369.125 C195.56233398 368.45831299 196.06216797 367.79162598 196.57714844 367.10473633 C197.94051408 365.29374304 199.31245673 363.48963408 200.6875 361.6875 C201.37972656 360.77226562 202.07195313 359.85703125 202.78515625 358.9140625 C209.06911842 351.55911704 218.87281504 347.23628787 228.37109375 346.33984375 C243.85722797 345.98115182 256.3130223 351.20474964 267.6875 361.6875 C269.98777499 364.29695174 272.14784216 366.98361729 274.296875 369.71875 C276.85308129 372.89312383 279.54158658 375.88926879 282.3125 378.875 C282.78341064 379.38450195 283.25432129 379.89400391 283.73950195 380.41894531 C285.05516467 381.84210815 286.37131781 383.26481757 287.6875 384.6875 C297.27528956 395.16122494 305.4312229 405.38091145 310.6875 418.6875 C311.16123047 419.82058594 311.16123047 419.82058594 311.64453125 420.9765625 C316.49392554 433.73309724 316.6212117 447.90554816 314.4375 461.1875 C314.32833252 461.87569824 314.21916504 462.56389648 314.10668945 463.27294922 C312.22888806 473.71721899 307.50507826 482.03660448 301.625 490.75 C300.27184862 492.78887219 298.91898592 494.827936 297.56640625 496.8671875 C296.90398926 497.85944336 296.24157227 498.85169922 295.55908203 499.87402344 C293.0241421 503.68470016 290.53947476 507.526504 288.0625 511.375 C287.17479189 512.74890002 286.28676951 514.12259704 285.3984375 515.49609375 C284.9559668 516.1804248 284.51349609 516.86475586 284.05761719 517.56982422 C275.00950324 531.55473875 265.89113882 545.49342041 256.75921631 559.42367554 C256.35398743 560.04183136 255.94875854 560.65998718 255.53125 561.296875 C255.12585999 561.91527252 254.72046997 562.53367004 254.30279541 563.17080688 C232.15476348 596.93227632 232.15476348 596.93227632 210.1953125 630.81640625 C208.52729776 633.40396757 206.83332401 635.97146539 205.1171875 638.52734375 C198.56679141 648.33938534 194.24923066 656.56027439 195.6875 668.6875 C197.29121341 676.22877138 199.81707012 681.70728201 205.296875 687.1640625 C206.6875 688.6875 206.6875 688.6875 206.6875 690.6875 C207.6775 691.0175 208.6675 691.3475 209.6875 691.6875 C211.08984375 693.11328125 211.08984375 693.11328125 212.625 695 C215.80589094 698.76169056 219.18106343 702.23483313 222.6875 705.6875 C226.13541651 709.08693685 229.48062792 712.49957125 232.625 716.1875 C238.44535429 722.96155089 244.7017243 726.5916737 253.6875 727.6875 C253.3575 728.3475 253.0275 729.0075 252.6875 729.6875 C193.900074 729.77911867 135.11265046 729.8495789 76.32516785 729.89176132 C69.379783 729.89675035 62.4343983 729.90193661 55.48901367 729.90722656 C54.79789108 729.9077496 54.1067685 729.90827263 53.3947028 729.90881152 C31.02264732 729.92583486 8.65063245 729.95586356 -13.72139847 729.99268888 C-37.37877532 730.03155891 -61.03611801 730.05549878 -84.6935274 730.06385398 C-98.85519301 730.06933375 -113.01674199 730.0866215 -127.17837169 730.11916587 C-136.89851298 730.14036125 -146.61859425 730.14668867 -156.33875696 730.14150551 C-161.94105284 730.13895157 -167.54314538 730.14277904 -173.14540482 730.1643219 C-178.28636435 730.18394531 -183.4269859 730.18466868 -188.56796177 730.17109558 C-190.41620832 730.16942079 -192.26447692 730.17436025 -194.11268077 730.18703273 C-220.68611738 730.35846697 -244.25100164 723.61132208 -263.8359375 705.0234375 C-265.89815079 703.07832149 -267.99306058 701.20946816 -270.1328125 699.3515625 C-274.11267051 695.88529436 -277.97509247 692.31009082 -281.8125 688.6875 C-282.48958008 688.05102539 -283.16666016 687.41455078 -283.86425781 686.75878906 C-286.75944822 684.03696335 -289.6512955 681.31161678 -292.54101562 678.58398438 C-294.00903912 677.19844859 -295.47777449 675.81366662 -296.94726562 674.4296875 C-298.32786524 673.12939978 -299.70684807 671.82739265 -301.08398438 670.5234375 C-303.58029229 668.17336757 -305.99687015 665.91869384 -308.765625 663.890625 C-309.27609375 663.49359375 -309.7865625 663.0965625 -310.3125 662.6875 C-310.3125 662.0275 -310.3125 661.3675 -310.3125 660.6875 C-310.89515625 660.43355469 -311.4778125 660.17960938 -312.078125 659.91796875 C-314.55438033 658.55429667 -316.11770626 657.04524797 -318.0625 655 C-321.27615411 651.63106429 -324.68936935 648.58878083 -328.20263672 645.54125977 C-331.54290698 642.60644466 -334.76954998 639.5546103 -338 636.5 C-343.8825563 630.93579711 -343.8825563 630.93579711 -349.88671875 625.50390625 C-371.09492401 606.69301596 -385.66924034 580.50315385 -387.49267578 551.85693359 C-388.93223609 519.47972584 -379.84338146 492.4018605 -357.89355469 468.40673828 C-357.37180664 467.83938965 -356.85005859 467.27204102 -356.3125 466.6875 C-355.39812823 465.68648032 -354.48404445 464.68519749 -353.5703125 463.68359375 C-351.93333826 461.89108146 -350.29411467 460.10062003 -348.65234375 458.3125 C-346.22128064 455.58516375 -343.91708309 452.78231139 -341.625 449.9375 C-338.5891394 446.1760207 -335.45460092 442.71035915 -331.984375 439.3515625 C-329.58680313 436.96519423 -327.40157745 434.41399578 -325.1953125 431.8515625 C-323.10500395 429.44900869 -320.96009521 427.10143475 -318.8125 424.75 C-315.19981241 420.76678035 -311.89770631 416.64317198 -308.72265625 412.3046875 C-308.25730469 411.77101563 -307.79195312 411.23734375 -307.3125 410.6875 C-306.6525 410.6875 -305.9925 410.6875 -305.3125 410.6875 C-305.04083008 410.09364502 -304.76916016 409.49979004 -304.48925781 408.88793945 C-303.33567991 406.73084451 -302.16344606 405.24436617 -300.484375 403.48046875 C-299.93136719 402.89330078 -299.37835937 402.30613281 -298.80859375 401.70117188 C-298.23238281 401.09853516 -297.65617188 400.49589844 -297.0625 399.875 C-292.67482391 395.25028853 -288.42800415 390.55751324 -284.3125 385.6875 C-295.76079646 390.62196461 -307.18193662 395.61041455 -318.54467773 400.73876953 C-323.4149058 402.93658936 -328.29370831 405.11499324 -333.17480469 407.28857422 C-335.07848487 408.13732052 -336.98062746 408.98954241 -338.87988281 409.84814453 C-347.53661565 413.74272302 -355.55126024 417.04746145 -364.96484375 413.76171875 C-370.27689408 411.30938875 -375.4024909 408.10244405 -379.3125 403.6875 C-379.3125 403.0275 -379.3125 402.3675 -379.3125 401.6875 C-380.10527344 401.37824585 -380.10527344 401.37824585 -380.9140625 401.06274414 C-384.31680157 399.11164182 -386.92078708 396.42469342 -389.6875 393.68359375 C-390.29384277 393.08627945 -390.90018555 392.48896515 -391.52490234 391.87355042 C-392.8051267 390.60781509 -394.08257353 389.33926511 -395.35742188 388.06811523 C-397.29364524 386.14373939 -399.2477138 384.2388331 -401.203125 382.33398438 C-402.44906749 381.09751273 -403.69389537 379.85991672 -404.9375 378.62109375 C-405.51677246 378.06135361 -406.09604492 377.50161346 -406.69287109 376.9249115 C-412.59882192 370.95338367 -415.88483553 364.18540143 -415.875 355.6875 C-415.56913031 346.21573541 -411.84913082 340.73227763 -405.109375 334.41015625 C-403.33625387 332.71027273 -401.77044324 330.93930647 -400.1875 329.0625 C-396.90737452 325.24805544 -393.38725263 321.72186565 -389.8125 318.1875 C-385.75783373 314.17838538 -381.87271834 310.1288548 -378.18359375 305.77734375 C-375.17443971 302.41638882 -371.93422784 299.28926811 -368.72558594 296.12011719 C-365.28868234 292.70920152 -362.04670539 289.19532403 -358.91015625 285.50390625 C-356.63283566 282.91477648 -354.17662093 280.52510538 -351.6953125 278.1328125 C-350.20395515 276.71640223 -350.20395515 276.71640223 -349.3125 274.6875 C-348.6525 274.6875 -347.9925 274.6875 -347.3125 274.6875 C-347.0446167 274.09291992 -346.7767334 273.49833984 -346.50073242 272.88574219 C-345.30039327 270.66510243 -344.10547002 269.2631393 -342.30078125 267.515625 C-341.71127686 266.93772217 -341.12177246 266.35981934 -340.5144043 265.7644043 C-339.89090088 265.16152588 -339.26739746 264.55864746 -338.625 263.9375 C-334.21427715 259.60710397 -329.9452352 255.26370355 -325.94921875 250.54296875 C-323.27592061 247.51238017 -320.35999155 244.72764267 -317.484375 241.890625 C-315.58483365 239.96375212 -313.81227056 237.99911086 -312.0625 235.9375 C-308.82911054 232.16017587 -305.3454951 228.68067549 -301.8125 225.1875 C-297.73616487 221.15700501 -293.82696796 217.08515625 -290.1171875 212.7109375 C-287.33671154 209.59343415 -284.34013507 206.69448437 -281.36767578 203.76220703 C-278.05936745 200.48130616 -274.9649958 197.08390811 -271.9453125 193.5390625 C-269.6535998 190.94032609 -267.18869916 188.53675031 -264.6953125 186.1328125 C-263.20395515 184.71640223 -263.20395515 184.71640223 -262.3125 182.6875 C-261.6525 182.6875 -260.9925 182.6875 -260.3125 182.6875 C-259.92384766 181.81738281 -259.92384766 181.81738281 -259.52734375 180.9296875 C-252.25958497 167.51588191 -233.87108973 157.87279329 -221.515625 149.796875 C-217.32954477 147.04018802 -213.1964771 144.20902549 -209.0625 141.375 C-208.24104492 140.81200195 -207.41958984 140.24900391 -206.57324219 139.66894531 C-204.92880656 138.54135082 -203.28459836 137.41342459 -201.640625 136.28515625 C-199.54240607 134.84527112 -197.44322389 133.40680427 -195.34375 131.96875 C-187.39083251 126.5159644 -179.4726254 121.01467196 -171.5625 115.5 C-159.92054161 107.38519995 -159.92054161 107.38519995 -154.3125 103.6875 C-147.53121178 99.21599554 -140.89210709 94.54025854 -134.23022461 89.89379883 C-125.68162524 83.93459488 -117.08831289 78.04328372 -108.48095703 72.16943359 C-105.08635856 69.84954925 -101.69929872 67.51874997 -98.3125 65.1875 C-92.48576472 61.17782176 -86.65109316 57.17989075 -80.8125 53.1875 C-72.95460292 47.8139979 -65.10638899 42.42660984 -57.26416016 37.03027344 C-53.94758236 34.74841481 -50.6299829 32.46804245 -47.3125 30.1875 C-45.97916192 29.27084024 -44.64582858 28.35417358 -43.3125 27.4375 C-40.64583333 25.60416667 -37.97916667 23.77083333 -35.3125 21.9375 C-34.65161377 21.48310547 -33.99072754 21.02871094 -33.30981445 20.56054688 C-31.98556608 19.65019693 -30.66118601 18.74003852 -29.33666992 17.83007812 C-25.86319454 15.44337465 -22.39253178 13.05271313 -18.92578125 10.65625 C-18.20583984 10.15931641 -17.48589844 9.66238281 -16.74414062 9.15039062 C-15.37089198 8.20240607 -13.99844441 7.25325961 -12.62695312 6.30273438 C-10.86303509 5.08605048 -9.08904779 3.88562457 -7.3125 2.6875 C-5.97251953 1.759375 -5.97251953 1.759375 -4.60546875 0.8125 C-2.3125 -0.3125 -2.3125 -0.3125 0 0 Z " fill="#000000" transform="translate(969.3125,0.3125)"/>
<path d="M0 0 C9.12542409 3.61543619 15.00741715 10.81536986 20.9609375 18.30859375 C23.67136997 21.60713893 26.52571624 24.71997461 29.4453125 27.83203125 C41.87389966 41.17746527 51.19421819 52.21778443 50.76953125 71.109375 C50.47491511 76.62050052 48.84979398 80.01919571 45.4453125 84.33203125 C44.65511719 85.37359375 43.86492187 86.41515625 43.05078125 87.48828125 C40.71179142 90.53419818 38.31557864 93.53059682 35.90380859 96.51904297 C33.62275234 99.35451732 31.37809233 102.21820451 29.1328125 105.08203125 C28.68728027 105.64881592 28.24174805 106.21560059 27.78271484 106.79956055 C23.9869052 111.63077306 20.21488245 116.48033211 16.4453125 121.33203125 C10.91080807 128.45532403 5.3522309 135.55899817 -0.22802734 142.64648438 C-2.50554953 145.54011948 -4.77996291 148.43619677 -7.0546875 151.33203125 C-9.76807493 154.78630476 -12.48194104 158.24019173 -15.19921875 161.69140625 C-19.71900066 167.43441283 -24.22324399 173.18873354 -28.70288086 178.96313477 C-34.17799935 186.02050199 -39.69781514 193.03617969 -45.29443359 199.99755859 C-48.86773065 204.45073073 -52.36864696 208.95423595 -55.83691406 213.48950195 C-58.87742511 217.46270373 -61.95844911 221.40214855 -65.0546875 225.33203125 C-65.97528484 226.50649127 -66.89585786 227.68097036 -67.81640625 228.85546875 C-69.6140211 231.1461327 -71.43053406 233.41970443 -73.26171875 235.68359375 C-86.96618791 252.78244514 -92.61943297 270.55975251 -90.5546875 292.33203125 C-88.06067257 311.11759534 -80.7794995 325.83222316 -67.5546875 339.33203125 C-66.02693993 341.09188559 -64.53045181 342.87347472 -63.0390625 344.6640625 C-59.70020848 348.41588004 -56.02006721 351.86578608 -52.45727539 355.40379333 C-50.36903987 357.47847934 -48.28361468 359.55598164 -46.19824219 361.63354492 C-45.10343387 362.72331179 -44.00773146 363.81218119 -42.91113281 364.90014648 C-41.31073678 366.4883166 -39.71367861 368.07978069 -38.1171875 369.671875 C-37.6337085 370.15019272 -37.15022949 370.62851044 -36.65209961 371.12132263 C-34.27066344 373.50237113 -32.01510907 375.93432533 -29.87963867 378.53491211 C-23.55276431 386.14669407 -14.95705364 391.43784199 -5.5546875 394.33203125 C-4.46929688 394.68523437 -3.38390625 395.0384375 -2.265625 395.40234375 C10.92608837 398.7072151 23.64941299 396.25216501 35.40625 389.67578125 C43.10428044 384.58688718 48.22704865 377.78206207 53.4453125 370.33203125 C53.97527832 369.58308594 54.50524414 368.83414062 55.05126953 368.0625 C58.6332829 362.99880311 62.18007406 357.91131125 65.71679688 352.81591797 C68.31689659 349.07955999 70.94201671 345.36108544 73.5703125 341.64453125 C74.05741699 340.95520508 74.54452148 340.26587891 75.04638672 339.55566406 C76.02330145 338.17324369 77.00035152 336.79091895 77.97753906 335.40869141 C80.46852234 331.88435612 82.95679315 328.35810653 85.4453125 324.83203125 C88.42057702 320.61626871 91.39631042 316.40084347 94.375 312.1875 C99.75036394 304.58193188 105.10786264 296.9642632 110.4453125 289.33203125 C116.26772561 281.00633106 122.11668275 272.699857 127.98193359 264.40429688 C129.4578809 262.31423335 130.93055572 260.22190036 132.40234375 258.12890625 C138.11732797 250.00642868 143.87747672 241.91926345 149.71264648 233.88256836 C152.27565286 230.35044578 154.82096345 226.80955504 157.3125 223.2265625 C157.75899902 222.58807373 158.20549805 221.94958496 158.66552734 221.29174805 C159.4871237 220.11389672 160.30307143 218.93207355 161.11181641 217.74536133 C163.94107586 213.70223432 167.00111178 210.55413161 171.4453125 208.33203125 C178.92054487 207.63050944 185.31280082 207.72018304 191.4453125 212.33203125 C197.33849516 217.44086946 202.20040807 223.36507046 207.0546875 229.44140625 C209.61819901 232.54107704 212.31822284 235.46403933 215.0703125 238.39453125 C224.79625645 248.8673308 230.72274967 257.6244918 230.84375 272.14453125 C229.82940262 280.2593103 226.34771309 286.6366525 221.828125 293.32421875 C221.26797699 294.17053864 220.70782898 295.01685852 220.13070679 295.88882446 C218.28717902 298.66831504 216.42897158 301.43764107 214.5703125 304.20703125 C213.26159373 306.17331181 211.95366456 308.14011812 210.64648438 310.10742188 C200.61504565 325.18158803 190.47536633 340.18381886 180.32666016 355.17919922 C171.76841344 367.83334169 163.33030039 380.56254403 154.9453125 393.33203125 C144.79341675 408.79234016 134.52320466 424.1661199 124.15194702 439.48007202 C113.34529796 455.44176409 102.71055475 471.5123879 92.16015625 487.64453125 C74.23897333 515.00585584 74.23897333 515.00585584 63.4453125 526.33203125 C62.92066406 526.93144531 62.39601563 527.53085937 61.85546875 528.1484375 C53.00552168 537.85410465 40.43144414 544.4391046 28.4453125 549.33203125 C27.53394531 549.72132813 26.62257813 550.110625 25.68359375 550.51171875 C19.32193742 553.05638128 13.11177272 554.14110984 6.31640625 554.9375 C3.50812346 555.16675632 3.50812346 555.16675632 1.4453125 556.33203125 C-23.10709401 558.54089827 -49.83265101 547.5096302 -68.5546875 532.33203125 C-83.76045641 519.35108417 -97.50857502 504.47883834 -111.59472656 490.30786133 C-112.5813724 489.3159102 -113.56802566 488.32396646 -114.5546875 487.33203125 C-115.44849121 486.43299072 -116.34229492 485.5339502 -117.26318359 484.60766602 C-119.49528872 482.39101868 -121.79240458 480.25854768 -124.11010742 478.13208008 C-135.03716025 468.07297509 -145.44974216 457.49515361 -155.90185547 446.94775391 C-156.56553635 446.27984329 -157.22921722 445.61193268 -157.91300964 444.92378235 C-159.16778139 443.66085586 -160.42044707 442.39583204 -161.67060852 441.12834167 C-164.82136358 437.95952288 -168.04532874 435.10833251 -171.5546875 432.33203125 C-172.7496289 430.87872414 -173.94350374 429.42443313 -175.12109375 427.95703125 C-176.7294046 426.1339868 -178.45749784 424.59970142 -180.3046875 423.01953125 C-200.80919607 405.38948649 -215.52014116 382.73490789 -224.5546875 357.33203125 C-224.8115332 356.61466797 -225.06837891 355.89730469 -225.33300781 355.15820312 C-227.18147304 349.82439278 -228.53993313 344.48256042 -229.6796875 338.95703125 C-229.84855469 338.18359375 -230.01742187 337.41015625 -230.19140625 336.61328125 C-237.86575499 299.9939479 -230.74030177 262.43592451 -211 230.95703125 C-207.46357899 225.55616082 -203.26011325 220.75066405 -198.97509766 215.93798828 C-196.56254796 213.21028943 -194.21670647 210.42650205 -191.8671875 207.64453125 C-191.40513916 207.09966064 -190.94309082 206.55479004 -190.46704102 205.9934082 C-187.79579616 202.83500623 -185.18301889 199.63892961 -182.6171875 196.39453125 C-178.8625323 191.65302622 -174.92799411 187.08136539 -170.97680664 182.50415039 C-168.10103348 179.16367915 -165.28655032 175.79239082 -162.5546875 172.33203125 C-158.824797 167.60750328 -154.90901002 163.05931575 -150.9765625 158.50390625 C-148.10090134 155.16349177 -145.28647866 151.79230006 -142.5546875 148.33203125 C-138.84500534 143.63515717 -134.95724399 139.10765606 -131.04907227 134.57641602 C-127.23489405 130.14667933 -123.51705056 125.64734634 -119.83203125 121.109375 C-117.27264696 117.98806758 -114.66874959 114.90753095 -112.0546875 111.83203125 C-108.68185161 107.86299582 -105.34292105 103.87186104 -102.0546875 99.83203125 C-98.30680952 95.22749545 -94.48485306 90.69183934 -90.640625 86.16796875 C-87.74223927 82.75143585 -84.8831365 79.30698287 -82.0546875 75.83203125 C-78.30680952 71.22749545 -74.48485306 66.69183934 -70.640625 62.16796875 C-67.74223927 58.75143585 -64.8831365 55.30698287 -62.0546875 51.83203125 C-58.76644936 47.79219582 -55.42733989 43.80122698 -52.0546875 39.83203125 C-48.75075108 35.94157372 -45.47085663 32.03550365 -42.2421875 28.08203125 C-41.52546875 27.20675781 -40.80875 26.33148438 -40.0703125 25.4296875 C-38.08824828 22.9890401 -36.12334393 20.53696907 -34.1640625 18.078125 C-32.94027979 16.55845231 -31.71632125 15.03892118 -30.4921875 13.51953125 C-29.92653076 12.8018457 -29.36087402 12.08416016 -28.77807617 11.34472656 C-20.58990171 1.23179482 -13.32665885 -3.48449337 0 0 Z " fill="#FEFEFE" transform="translate(1027.5546875,173.66796875)"/>
<path d="M0 0 C1.17732697 -0.00860046 2.35465393 -0.01720093 3.56765747 -0.02606201 C4.86627716 -0.03032196 6.16489685 -0.03458191 7.50286865 -0.03897095 C8.8794475 -0.04687197 10.25602428 -0.05514093 11.63259888 -0.06375122 C16.1645306 -0.08999799 20.69647162 -0.10529363 25.22845459 -0.11953735 C26.79139969 -0.12489824 28.35434474 -0.13027576 29.91728973 -0.13566971 C36.42659327 -0.15731315 42.93589432 -0.17604321 49.44522476 -0.1872921 C58.75202235 -0.2034828 68.05839916 -0.23652398 77.36503816 -0.29369295 C83.91810918 -0.33256084 90.47106853 -0.35194529 97.0242517 -0.35721266 C100.93166529 -0.36084669 104.8386304 -0.37265542 108.74591827 -0.4053154 C112.43311808 -0.43568973 116.11960516 -0.44160538 119.80690384 -0.42993164 C121.78189076 -0.42961029 123.75683562 -0.45388579 125.73165894 -0.47930908 C137.61937462 -0.39766228 148.15317417 2.79910133 157.83782959 9.84140015 C158.39470459 10.23134155 158.95157959 10.62128296 159.52532959 11.02304077 C160.88585824 12.00322459 162.18234822 13.071234 163.46282959 14.15390015 C163.46282959 14.81390015 163.46282959 15.47390015 163.46282959 16.15390015 C164.34841553 16.51934937 164.34841553 16.51934937 165.25189209 16.8921814 C173.05092844 21.34286822 177.21844475 32.98564816 179.93710327 41.16911316 C182.50149344 50.85051592 181.64399818 61.512609 181.66595459 71.4546814 C181.67019566 72.75547166 181.67019566 72.75547166 181.6745224 74.08254051 C181.68942143 78.65947135 181.69871314 83.23637133 181.70306396 87.81332397 C181.70857762 92.53209087 181.7326924 97.25057345 181.76103592 101.96925068 C181.77965314 105.61095521 181.7848671 109.25259051 181.78639984 112.89433861 C181.78942202 114.63465134 181.79743585 116.37496297 181.81058502 118.11522865 C181.82764877 120.54411407 181.82576631 122.9722935 181.8192749 125.4012146 C181.82848969 126.11558685 181.83770447 126.82995911 181.84719849 127.565979 C181.81062756 131.93646865 181.15140177 134.68440652 178.46282959 138.15390015 C171.98792255 142.42145251 163.96047215 141.97888347 156.46282959 141.15390015 C151.75536406 139.38073573 149.17601113 137.38125736 146.46282959 133.15390015 C146.08753331 130.33311475 145.93770555 127.90792462 145.98040771 125.09408569 C145.97649521 124.29665955 145.9725827 123.4992334 145.96855164 122.67764282 C145.96258759 120.95127335 145.96572692 119.22485349 145.97697449 117.49851036 C145.99426693 114.76096204 145.98671149 112.02446702 145.97271729 109.28691101 C145.94309527 102.48702397 145.95623401 95.68733905 145.96789551 88.88742065 C145.97611765 83.14121583 145.96808024 77.39547161 145.93876648 71.64933205 C145.93170018 68.96148711 145.94831684 66.27446517 145.96588135 63.58668518 C145.96016968 61.92508511 145.95335053 60.26348835 145.94525146 58.60189819 C145.95656601 57.86240433 145.96788055 57.12291046 145.97953796 56.36100769 C145.90610006 50.02024734 143.92204367 44.68516151 139.46282959 40.0953064 C138.47282959 39.4127478 138.47282959 39.4127478 137.46282959 38.71640015 C136.80282959 38.24331421 136.14282959 37.77022827 135.46282959 37.2828064 C131.31867093 34.94362309 127.20561913 34.9767795 122.50970459 34.8374939 C121.84948303 34.8167128 121.18926147 34.7959317 120.5090332 34.77452087 C118.41039944 34.70939868 116.31164587 34.65031513 114.21282959 34.59140015 C112.78573412 34.54817936 111.35865054 34.50456395 109.93157959 34.46054077 C106.44212237 34.35375603 102.95253206 34.25238449 99.46282959 34.15390015 C99.47393265 35.39560471 99.48503571 36.63730927 99.49647522 37.91664124 C99.59780136 49.61433812 99.67277129 61.31194606 99.72189045 73.00998211 C99.7479921 79.02420519 99.78340151 85.03807421 99.84002686 91.05209351 C99.89432487 96.85520219 99.92424585 102.65797016 99.93721581 108.46131325 C99.94645954 110.67614926 99.96451037 112.89096648 99.99147987 115.10565758 C100.02773978 118.20637792 100.03277608 121.3056877 100.03045654 124.40658569 C100.04843292 125.32368317 100.0664093 126.24078064 100.08493042 127.18566895 C100.04845757 131.68706034 99.94606724 133.54126325 97.07408142 137.18229675 C92.09264752 140.94348587 88.23588343 141.44763714 82.02532959 141.46640015 C80.74786865 141.48315796 79.47040771 141.49991577 78.15423584 141.5171814 C73.55877454 141.06492965 70.39211837 139.72585171 66.81569958 136.81184673 C65.10631084 134.71698526 65.09207675 133.63924475 65.10206604 130.95878601 C65.09794205 130.10483246 65.09381805 129.25087891 65.08956909 128.37104797 C65.10035492 127.43740921 65.11114075 126.50377045 65.12225342 125.5418396 C65.1215963 124.06351654 65.1215963 124.06351654 65.1209259 122.55532837 C65.12301866 119.29241233 65.14637306 116.03000786 65.16986084 112.7671814 C65.17545505 110.50702699 65.17972597 108.24686894 65.182724 105.98670959 C65.19418649 100.03375226 65.22366593 94.081014 65.25683594 88.12814331 C65.29289753 80.98794838 65.30669126 73.84768026 65.32419586 66.70742035 C65.35330224 55.85609451 65.41078013 45.0052495 65.46282959 34.15390015 C49.62282959 34.15390015 33.78282959 34.15390015 17.46282959 34.15390015 C17.5208374 41.31464233 17.57884521 48.47538452 17.63861084 55.8531189 C17.6641564 60.38764673 17.68822586 64.92208594 17.70697021 69.45663452 C17.73686809 76.6553081 17.77224963 83.85366393 17.84002686 91.05209351 C17.89432487 96.85520219 17.92424585 102.65797016 17.93721581 108.46131325 C17.94645954 110.67614926 17.96451037 112.89096648 17.99147987 115.10565758 C18.02773978 118.20637792 18.03277608 121.3056877 18.03045654 124.40658569 C18.04843292 125.32368317 18.0664093 126.24078064 18.08493042 127.18566895 C18.0482856 131.70828354 17.95406193 133.5389341 15.04356384 137.18254089 C8.36727955 142.28238982 1.58636614 141.86140648 -6.53717041 141.15390015 C-11.03900376 139.82752544 -13.88174971 138.1370312 -16.53717041 134.15390015 C-16.791646 131.89619732 -16.791646 131.89619732 -16.79786682 129.20191956 C-16.80495163 128.17993973 -16.81203644 127.1579599 -16.81933594 126.10501099 C-16.81685852 124.98443298 -16.8143811 123.86385498 -16.81182861 122.70932007 C-16.81693954 121.52858414 -16.82205048 120.34784821 -16.82731628 119.1313324 C-16.83884708 115.89149334 -16.84128364 112.65181267 -16.83875299 109.41195846 C-16.8376835 106.70584146 -16.8425663 103.99974808 -16.84735841 101.29363614 C-16.85845806 94.90678889 -16.85888908 88.52000043 -16.85284424 82.13314819 C-16.84680932 75.550138 -16.85910198 68.9673418 -16.88041431 62.38436812 C-16.8980484 56.72904512 -16.90402865 51.07379011 -16.90077657 45.41844064 C-16.89896571 42.04239704 -16.90157951 38.66650594 -16.9154911 35.29048729 C-16.92782068 31.52237843 -16.92108365 27.7547647 -16.90948486 23.98666382 C-16.9171286 22.87215851 -16.92477234 21.7576532 -16.93264771 20.609375 C-16.88942462 14.25967707 -16.54412835 9.37509428 -12.00201416 4.5093689 C-7.56834705 1.11891758 -5.53982327 0.03005419 0 0 Z " fill="#000000" transform="translate(731.5371704101563,882.8460998535156)"/>
<path d="M0 0 C0.99900833 -0.01022186 1.99801666 -0.02044373 3.02729797 -0.03097534 C6.3377773 -0.05882075 9.64742507 -0.05684691 12.95800781 -0.05224609 C15.26808988 -0.06002374 17.5781691 -0.06869386 19.88824463 -0.07821655 C24.7405318 -0.09315722 29.59252813 -0.09255177 34.44482422 -0.08203125 C40.62481334 -0.07051028 46.80359022 -0.10412672 52.98337936 -0.1507206 C57.76223574 -0.18039561 62.54080807 -0.18191057 67.3197403 -0.17570114 C69.5952314 -0.17671991 71.87074005 -0.18704981 74.14614105 -0.20732498 C92.34066063 -0.34940485 106.55672559 1.75135311 121.16113281 13.54931641 C121.76957031 13.97341797 122.37800781 14.39751953 123.00488281 14.83447266 C127.19441655 17.94805796 129.9983251 21.91267398 132.84863281 26.23681641 C133.21738525 26.78861572 133.5861377 27.34041504 133.96606445 27.90893555 C139.7114467 37.01519137 141.78113751 46.01119636 141.76269531 56.68994141 C141.77126556 57.81519226 141.77983582 58.94044312 141.78866577 60.09979248 C141.80008135 62.46624071 141.80120564 64.83275907 141.79248047 67.19921875 C141.78617251 70.77680134 141.83311531 74.35104915 141.88378906 77.92822266 C141.9722518 94.10190071 140.64725073 108.14430906 129.16113281 120.54931641 C128.39542969 121.38205078 127.62972656 122.21478516 126.84082031 123.07275391 C117.88419621 132.41284203 109.36733714 136.64092586 97.16113281 140.54931641 C96.59640259 140.73161301 96.03167236 140.91390961 95.4498291 141.10173035 C92.1020723 141.75643026 88.76820541 141.71386192 85.37011719 141.72631836 C84.58901581 141.73288956 83.80791443 141.73946075 83.00314331 141.74623108 C80.42038872 141.76592332 77.83769235 141.7776213 75.25488281 141.78759766 C73.92584679 141.79371095 73.92584679 141.79371095 72.56996155 141.79994774 C67.87476842 141.82079712 63.17960437 141.83510036 58.484375 141.84448242 C53.6606659 141.85550839 48.83742299 141.88986717 44.01387787 141.92965412 C40.28352061 141.95594807 36.55327195 141.96418582 32.8228302 141.9677639 C31.04642103 141.97260163 29.27001579 141.98413419 27.49369812 142.0028019 C11.30279584 142.1622979 -1.06296407 139.70056117 -13.28417969 128.26025391 C-20.65453543 120.59800289 -25.32046501 112.26296134 -25.83886719 101.54931641 C-25.87753906 100.84291016 -25.91621094 100.13650391 -25.95605469 99.40869141 C-26.33294995 87.43179737 -22.86767399 77.1153943 -15.21386719 67.86181641 C-5.59503329 57.68562952 6.61406011 52.53805602 20.4866991 52.12809372 C25.25039928 52.06981186 30.0108233 52.10767576 34.77441406 52.15869141 C36.84091134 52.16616647 38.90741578 52.17185341 40.97392273 52.17584229 C46.37116617 52.19099902 51.76796814 52.23019336 57.16503906 52.2746582 C62.68906689 52.31582754 68.21316715 52.33389926 73.73730469 52.35400391 C84.54543967 52.39669858 95.3532493 52.46482706 106.16113281 52.54931641 C105.41346992 51.11628008 104.6547626 49.68900336 103.89160156 48.26416016 C103.47031982 47.46872803 103.04903809 46.6732959 102.61499023 45.85375977 C99.80728296 41.4033905 95.95092786 38.38181706 90.88651752 36.87055016 C85.08638813 35.74624804 79.56204113 35.26413327 73.65991211 35.29394531 C72.76915482 35.29032486 71.87839752 35.28670441 70.96064758 35.28297424 C69.04665328 35.27613479 67.1326397 35.27356445 65.21863365 35.27492142 C62.18768165 35.27589421 59.15707694 35.2628592 56.12617493 35.24594116 C47.51602762 35.19987264 38.90592087 35.17503894 30.2956543 35.16845703 C25.01256372 35.16344662 19.72984358 35.13923378 14.44687843 35.10313034 C12.43866002 35.0933341 10.43039069 35.09099943 8.42215538 35.09630203 C5.61949203 35.10336209 2.81793918 35.08611668 0.01538086 35.06347656 C-0.81120026 35.07164902 -1.63778137 35.07982147 -2.4894104 35.08824158 C-6.41999137 35.03172045 -8.37871419 34.83970744 -11.78044128 32.69296265 C-16.21038035 28.07962086 -17.25525357 23.8400461 -17.21386719 17.54931641 C-17.22160156 16.37369141 -17.22933594 15.19806641 -17.23730469 13.98681641 C-16.69444325 9.303306 -15.01116251 6.23079171 -12.34588623 2.40786743 C-8.46239175 -0.47111854 -4.71613273 -0.02479827 0 0 Z M10.16113281 92.54931641 C8.71682427 95.4379335 8.78424776 97.34579342 9.16113281 100.54931641 C11.79578233 103.7694436 14.29457409 106.03016952 18.16113281 107.54931641 C21.2028214 107.85908871 21.2028214 107.85908871 24.60693359 107.82397461 C25.91574493 107.83350662 27.22455627 107.84303864 28.57302856 107.8528595 C30.00083442 107.85259792 31.42864029 107.85166017 32.85644531 107.85009766 C34.32892985 107.85398807 35.80141328 107.85832345 37.27389526 107.86308289 C40.36232128 107.87054274 43.45063302 107.87025733 46.5390625 107.86499023 C50.47286672 107.85922175 54.40619608 107.87606356 58.33992195 107.89933491 C61.38394857 107.9141663 64.42786365 107.91493083 67.47192001 107.91182518 C68.92061166 107.91233454 70.3693102 107.917499 71.81796646 107.9276371 C82.72389563 107.9945458 93.12366642 107.73791877 101.32128906 99.74658203 C103.33326114 97.34374913 104.29603062 95.22955731 105.38769531 92.30322266 C105.72623535 91.41062744 106.06477539 90.51803223 106.41357422 89.59838867 C106.66026855 88.92219482 106.90696289 88.24600098 107.16113281 87.54931641 C95.3999368 87.43341899 83.63887684 87.34459889 71.87722588 87.29025555 C66.41566662 87.26417212 60.95449832 87.22879635 55.49316406 87.17211914 C50.2217233 87.11775556 44.95065837 87.08788643 39.67895889 87.07493019 C37.66869313 87.06569819 35.65844772 87.04766999 33.64834213 87.02066612 C30.83037775 86.98431819 28.01396222 86.97937348 25.19580078 86.98168945 C24.36645523 86.96371307 23.53710968 86.94573669 22.68263245 86.92721558 C16.8164486 86.97931312 14.24648777 88.31399689 10.16113281 92.54931641 Z " fill="#000000" transform="translate(961.8388671875,882.45068359375)"/>
<path d="M0 0 C1.56306723 -0.00966599 3.12613186 -0.01976022 4.68919373 -0.03025818 C7.95798007 -0.04814923 11.22652954 -0.05378696 14.49536133 -0.05200195 C18.63851581 -0.05169851 22.78011139 -0.09253825 26.92289829 -0.14431858 C30.1516332 -0.17805786 33.38000713 -0.18374807 36.60890007 -0.18217278 C38.13361893 -0.18566093 39.65835262 -0.19863028 41.18289375 -0.22216988 C57.2231667 -0.44655261 70.57147159 3.87611118 82.93359375 14.50390625 C83.67222656 15.13167969 84.41085937 15.75945313 85.171875 16.40625 C90.54695321 21.35618078 93.7957284 26.95361234 96.93359375 33.50390625 C97.26359375 34.179375 97.59359375 34.85484375 97.93359375 35.55078125 C101.60621341 43.53166629 101.14833804 51.90151361 101.18359375 60.50390625 C101.21453125 62.39109375 101.21453125 62.39109375 101.24609375 64.31640625 C101.25382812 66.14171875 101.25382812 66.14171875 101.26171875 68.00390625 C101.27106445 69.10734375 101.28041016 70.21078125 101.29003906 71.34765625 C100.74577082 76.16703973 99.0644573 79.43256184 95.55859375 82.75390625 C91.42892554 85.50701839 87.97078994 86.75536644 83.00444031 86.74441528 C82.03835342 86.74716461 81.07226654 86.74991394 80.0769043 86.75274658 C78.50489258 86.74196075 78.50489258 86.74196075 76.90112305 86.73095703 C75.23216728 86.73139511 75.23216728 86.73139511 73.52949524 86.73184204 C69.85552139 86.73044982 66.18175088 86.7148934 62.5078125 86.69921875 C59.95905162 86.69548824 57.41028931 86.69264145 54.86152649 86.69064331 C48.84093788 86.68378986 42.82043642 86.66803035 36.79988271 86.64794433 C29.94380108 86.62556863 23.08771591 86.6145877 16.23160684 86.60455346 C2.13222884 86.58366361 -11.96708471 86.54849808 -26.06640625 86.50390625 C-25.44446731 88.25499647 -24.81872627 90.00473656 -24.19140625 91.75390625 C-23.84335938 92.7284375 -23.4953125 93.70296875 -23.13671875 94.70703125 C-21.5996911 99.2763183 -21.5996911 99.2763183 -18.37890625 102.56640625 C-17.23421875 103.03046875 -17.23421875 103.03046875 -16.06640625 103.50390625 C-15.04474869 104.0103064 -14.02309113 104.51670654 -12.97047424 105.03845215 C-8.72291657 106.8507677 -4.85652011 106.92429823 -0.28881836 106.88867188 C0.56088028 106.89404465 1.41057892 106.89941742 2.286026 106.904953 C4.11984555 106.91469173 5.95371098 106.91768703 7.78755379 106.91459656 C10.6926113 106.91009997 13.59706567 106.92416973 16.50205994 106.94299316 C23.71339949 106.9859117 30.92472458 106.99702132 38.13616943 107.00921631 C44.23920466 107.02075414 50.34196358 107.04433765 56.44488335 107.08390808 C59.30216531 107.09745903 62.1590713 107.09331167 65.01637268 107.08850098 C66.7727201 107.09784293 68.52906338 107.10801209 70.28540039 107.11914062 C71.07569641 107.1129924 71.86599243 107.10684418 72.68023682 107.10050964 C77.48396563 107.15386003 80.76243141 107.87032644 84.93359375 110.50390625 C89.02249548 115.86177748 89.58069128 121.91527684 88.93359375 128.50390625 C88.01491614 132.90198488 87.07883907 136.30515197 83.9296875 139.60144043 C79.82351658 142.20878535 76.62052273 142.06691677 71.8515625 142.02148438 C70.94512497 142.02849365 70.03868744 142.03550293 69.1047821 142.04272461 C66.10990677 142.06031742 63.11597866 142.04866926 60.12109375 142.03515625 C58.0294578 142.03785266 55.93782308 142.04173632 53.84619141 142.04675293 C49.45804941 142.05265131 45.07023303 142.04408086 40.68212891 142.02539062 C35.08836097 142.00271387 29.49536555 142.01565039 23.90162659 142.03968048 C19.57755864 142.0542258 15.25366967 142.04949073 10.92959595 142.03916931 C8.8693533 142.0365202 6.80909385 142.03970709 4.74887085 142.04908752 C-13.8724829 142.11521246 -26.8321916 138.97374716 -42.31640625 128.25390625 C-56.41928964 114.15102286 -61.35532759 97.57678589 -61.47984314 78.13006592 C-61.47765001 76.54942248 -61.47017987 74.96877785 -61.45751953 73.38818359 C-61.44141772 71.00560297 -61.45747877 68.62471769 -61.4765625 66.2421875 C-61.5029555 47.82189446 -58.58812846 31.54291653 -45.3515625 17.75390625 C-44.22041016 16.64015625 -44.22041016 16.64015625 -43.06640625 15.50390625 C-42.40511719 14.84390625 -41.74382812 14.18390625 -41.0625 13.50390625 C-36.28054117 9.02142363 -31.12241322 5.98406619 -25.06640625 3.50390625 C-23.85533203 2.99577393 -22.64425781 2.4876416 -21.39648438 1.96411133 C-14.45573815 -0.3152177 -7.22408438 0.01058103 0 0 Z M-22.06640625 42.50390625 C-24.85703182 47.25453322 -24.85703182 47.25453322 -26.06640625 52.50390625 C4.29359375 52.50390625 34.65359375 52.50390625 65.93359375 52.50390625 C64.66125324 44.86986316 61.45452655 41.04225315 55.24609375 36.56640625 C51.20395381 34.70920682 47.7021992 34.37305024 43.26635742 34.34277344 C42.12804977 34.33316589 40.98974213 34.32355835 39.81694031 34.31365967 C38.59086563 34.30940979 37.36479095 34.30515991 36.1015625 34.30078125 C34.8364534 34.29508118 33.5713443 34.2893811 32.26789856 34.2835083 C29.59059047 34.27406159 26.91339437 34.26716301 24.23608398 34.26367188 C20.81989676 34.25819478 17.40410962 34.23417537 13.9880476 34.20569992 C10.71341659 34.18249789 7.43876418 34.18061892 4.1640625 34.17578125 C2.94406052 34.16343445 1.72405853 34.15108765 0.46708679 34.1383667 C-8.42673544 34.16162168 -15.95946766 35.28821512 -22.06640625 42.50390625 Z " fill="#000000" transform="translate(1498.06640625,882.49609375)"/>
<path d="M0 0 C0.67059952 -0.00817749 1.34119904 -0.01635498 2.03211975 -0.02478027 C4.24812966 -0.04955289 6.46407535 -0.06613885 8.68017578 -0.08056641 C9.82343008 -0.08855192 9.82343008 -0.08855192 10.98978043 -0.09669876 C15.03240195 -0.12340872 19.074993 -0.14278126 23.11767578 -0.15722656 C26.43859809 -0.17050022 29.75889635 -0.19823222 33.07958984 -0.23925781 C37.11082814 -0.28904643 41.14150598 -0.31340439 45.17303848 -0.32045364 C46.69662731 -0.32709593 48.22020714 -0.3421303 49.74361801 -0.36634445 C66.95771626 -0.62411217 81.43301769 4.48519923 94.06298828 16.56787109 C106.02519777 29.19227432 110.62581256 43.62914935 110.56298828 60.81787109 C110.57910156 61.70732422 110.59521484 62.59677734 110.61181641 63.51318359 C110.61631707 69.6340891 110.19195351 75.94467832 105.86914062 80.71826172 C101.59060787 84.42891893 98.05603722 86.44572164 92.40362549 86.43338013 C90.94393593 86.43750412 90.94393593 86.43750412 89.45475769 86.44171143 C88.39380386 86.43452087 87.33285004 86.42733032 86.23974609 86.41992188 C84.55637901 86.42035995 84.55637901 86.42035995 82.83900452 86.42080688 C79.12712897 86.41941281 75.41545379 86.40384766 71.70361328 86.38818359 C69.13100291 86.38445375 66.55839111 86.38160664 63.98577881 86.37960815 C57.90495245 86.37275036 51.82420886 86.35698511 45.74341369 86.33690917 C38.81964177 86.31454681 31.8958664 86.3035559 24.97206736 86.2935183 C10.73150235 86.27261876 -3.50900213 86.23744488 -17.74951172 86.19287109 C-17.47236328 86.95212891 -17.19521484 87.71138672 -16.90966797 88.49365234 C-16.36632812 89.98445312 -16.36632812 89.98445312 -15.81201172 91.50537109 C-15.27253906 92.98457031 -15.27253906 92.98457031 -14.72216797 94.49365234 C-14.04065207 96.38492739 -13.38523062 98.28571439 -12.74951172 100.19287109 C-10.8996847 101.30585306 -10.8996847 101.30585306 -8.74951172 102.19287109 C-8.14625628 102.54029326 -7.54300083 102.88771544 -6.92146492 103.24566555 C-1.78353615 106.11177647 2.31342633 106.76353183 8.14160156 106.69116211 C8.99144623 106.69668091 9.84129089 106.70219971 10.71688843 106.70788574 C12.54796166 106.7171575 14.3790994 106.71735111 16.21017838 106.70929146 C19.11121872 106.69660053 22.0113162 106.70800578 24.912323 106.72532654 C30.02278258 106.75195954 35.13300879 106.75762458 40.24353027 106.75622559 C48.42939252 106.75399224 56.61496689 106.76815212 64.8007164 106.81181145 C67.65360504 106.82163209 70.50603814 106.81294361 73.35891724 106.80311584 C75.11200253 106.80926086 76.86508536 106.81617286 78.61816406 106.82397461 C79.40688904 106.81625534 80.19561401 106.80853607 81.00823975 106.80058289 C85.81878498 106.84468256 89.05258278 107.59649739 93.25048828 110.19287109 C97.59902927 115.01812379 97.80569031 121.1441142 97.57080078 127.35302734 C97.00803487 132.34242754 95.73368779 135.63028085 92.20483398 139.34802246 C88.12613336 141.89497736 84.88669431 141.75539839 80.16845703 141.71044922 C79.2620195 141.7174585 78.35558197 141.72446777 77.42167664 141.73168945 C74.4268013 141.74928226 71.43287319 141.7376341 68.43798828 141.72412109 C66.34635233 141.72681751 64.25471761 141.73070117 62.16308594 141.73571777 C57.77494394 141.74161615 53.38712756 141.7330457 48.99902344 141.71435547 C43.4052555 141.69167872 37.81226008 141.70461523 32.21852112 141.72864532 C27.89445318 141.74319064 23.57056421 141.73845558 19.24649048 141.72813416 C17.18624783 141.72548504 15.12598838 141.72867193 13.06576538 141.73805237 C-5.90830209 141.8054298 -21.51179375 139.100631 -35.99951172 125.63037109 C-46.98586911 114.00712342 -52.21511346 100.48209859 -52.21826172 84.58740234 C-52.22587524 83.50512863 -52.23348877 82.42285492 -52.24133301 81.30778503 C-52.25207904 79.02951345 -52.25500966 76.75119283 -52.25048828 74.47290039 C-52.24951913 71.03169232 -52.2911428 67.5927409 -52.33544922 64.15185547 C-52.44334627 44.35364237 -49.3722457 30.2383047 -35.43701172 15.44287109 C-25.87510235 6.25371412 -13.32109965 0.14155934 0 0 Z M-12.74951172 41.19287109 C-15.79810283 45.1478001 -16.7477883 47.184254 -17.74951172 52.19287109 C12.94048828 52.19287109 43.63048828 52.19287109 75.25048828 52.19287109 C72.03148873 43.60887229 70.04546523 39.73994098 62.25048828 35.19287109 C59.00640525 34.13062675 55.98394581 34.06056541 52.58325195 34.04760742 C51.44494431 34.04122757 50.30663666 34.03484772 49.13383484 34.02827454 C47.90776016 34.02716171 46.68168549 34.02604889 45.41845703 34.02490234 C43.52079338 34.01990974 43.52079338 34.01990974 41.58479309 34.01481628 C38.9074858 34.0097526 36.23028002 34.00697527 33.55297852 34.00756836 C30.13688034 34.00766978 26.72099093 33.9940335 23.30494213 33.97679615 C20.03028843 33.96294264 16.75563604 33.96358574 13.48095703 33.96240234 C12.26095505 33.95521683 11.04095306 33.94803131 9.78398132 33.94062805 C0.46314454 33.96561294 -5.78817862 34.38623429 -12.74951172 41.19287109 Z " fill="#000000" transform="translate(576.74951171875,882.80712890625)"/>
<path d="M0 0 C0.69480469 -0.01611328 1.38960937 -0.03222656 2.10546875 -0.04882812 C7.63992414 -0.05403948 11.34066573 1.27144322 15.76825047 4.51708508 C17.79710391 7.2019091 17.50574865 9.37151326 17.51268005 12.70710754 C17.52075836 13.68465493 17.52075836 13.68465493 17.52899987 14.68195075 C17.54332954 16.86994528 17.53616374 19.05733907 17.52905273 21.24536133 C17.53475384 22.81240833 17.54171709 24.37945117 17.54985046 25.94648743 C17.56782912 30.20696697 17.5666043 34.46724108 17.56090808 38.7277472 C17.55782197 42.28385205 17.56390247 45.83991711 17.56994683 49.3960163 C17.58400687 57.78691222 17.58241945 66.17770638 17.57104492 74.56860352 C17.55957126 83.22384703 17.57362326 91.87878042 17.6004414 100.53398305 C17.62260177 107.96424664 17.62923475 115.39441292 17.62336498 122.82470721 C17.6199939 127.26270288 17.62242003 131.70049991 17.63961601 136.13846779 C17.65508772 140.31397185 17.65112733 144.48901715 17.63231087 148.6645031 C17.6286251 150.1955265 17.63173318 151.7265839 17.64219666 153.25757599 C17.65541087 155.35122529 17.64385796 157.44335693 17.62620544 159.53694153 C17.62599616 160.70740933 17.62578688 161.87787714 17.62557125 163.08381367 C16.83456676 168.18579539 14.3075442 171.27073487 10.5 174.625 C6.04522726 177.79023326 2.23751048 177.47375909 -3.07543945 177.48950195 C-4.03020676 177.49607315 -4.98497406 177.50264435 -5.96867371 177.50941467 C-9.141877 177.52918898 -12.31503267 177.54082473 -15.48828125 177.55078125 C-16.57347738 177.55485678 -17.65867352 177.5589323 -18.77675438 177.56313133 C-24.52995998 177.58401813 -30.2831416 177.59830373 -36.03637695 177.60766602 C-41.9563473 177.61868452 -47.87593698 177.65302412 -53.79577351 177.69283772 C-58.36427973 177.71910687 -62.93269712 177.7273674 -67.5012722 177.73094749 C-69.68155653 177.73579357 -71.86183742 177.74735047 -74.0420475 177.76598549 C-93.45460856 177.92148253 -109.26621638 175.56526599 -124.125 161.75 C-138.41960128 146.58068882 -140.38751917 130.0738454 -140.26611328 109.98583984 C-140.25003579 106.81954864 -140.26602037 103.65453363 -140.28515625 100.48828125 C-140.30567114 80.53210085 -137.11997042 66.0289404 -123.125 51.1875 C-113.47061888 41.82678827 -100.67047677 36.13154345 -87.26074219 36.19897461 C-86.49937958 36.19882858 -85.73801697 36.19868256 -84.95358276 36.1985321 C-82.44298429 36.19922745 -79.93246048 36.20700213 -77.421875 36.21484375 C-75.67881308 36.21670927 -73.93575063 36.21813254 -72.19268799 36.21913147 C-67.60927884 36.22294606 -63.02590149 36.23276733 -58.44250488 36.24383545 C-53.76375763 36.2540723 -49.08500523 36.25863396 -44.40625 36.26367188 C-35.22915272 36.27439054 -26.052079 36.29145428 -16.875 36.3125 C-16.90118408 35.46018799 -16.92736816 34.60787598 -16.9543457 33.72973633 C-17.03981492 30.55222873 -17.10236789 27.3753089 -17.1496582 24.19702148 C-17.17472617 22.82442898 -17.20879082 21.45196898 -17.25219727 20.07983398 C-17.31317531 18.10199304 -17.33861009 16.12315816 -17.36328125 14.14453125 C-17.38946533 12.95577393 -17.41564941 11.7670166 -17.44262695 10.54223633 C-16.6079571 5.79305459 -13.86395525 3.72525577 -10.0546875 1.01953125 C-6.73588585 -0.0569976 -3.45127738 -0.01583155 0 0 Z M-100.875 77.3125 C-105.29206569 83.67783373 -106.0358704 88.92361527 -106.078125 96.515625 C-106.08382507 97.31224548 -106.08952515 98.10886597 -106.09539795 98.92962646 C-106.10482971 100.61404093 -106.11137468 102.2984737 -106.11523438 103.98291016 C-106.12491377 106.53972226 -106.15594284 109.095721 -106.1875 111.65234375 C-106.19403354 113.29426609 -106.19928263 114.93619415 -106.203125 116.578125 C-106.2154718 117.33361633 -106.2278186 118.08910767 -106.24053955 118.86749268 C-106.2134633 125.42885001 -104.88855976 130.91799651 -100.5625 136.0625 C-94.29488925 141.30980203 -90.08631509 143.44026844 -81.92504883 143.42602539 C-81.21100986 143.42614593 -80.49697088 143.42626646 -79.76129436 143.42639065 C-77.45150823 143.42564466 -75.14180294 143.41803073 -72.83203125 143.41015625 C-71.4053959 143.40868586 -69.97876002 143.40766575 -68.55212402 143.40710449 C-63.26390779 143.40186288 -57.9757031 143.38790168 -52.6875 143.375 C-40.869375 143.354375 -29.05125 143.33375 -16.875 143.3125 C-16.875 119.2225 -16.875 95.1325 -16.875 70.3125 C-28.610625 70.250625 -40.34625 70.18875 -52.4375 70.125 C-56.13267822 70.09768799 -59.82785645 70.07037598 -63.63500977 70.04223633 C-66.96928751 70.03219834 -66.96928751 70.03219834 -70.30357361 70.02616882 C-71.77996031 70.02158492 -73.2563363 70.01108123 -74.73265076 69.99577332 C-76.97894574 69.97366111 -79.22455899 69.97078698 -81.47094727 69.97192383 C-82.73447525 69.96526199 -83.99800323 69.95860016 -85.29981995 69.95173645 C-91.42140909 70.56945254 -96.43291451 72.99047088 -100.875 77.3125 Z " fill="#000000" transform="translate(480.875,846.6875)"/>
<path d="M0 0 C1.90044374 -0.00711191 3.80088536 -0.0148124 5.70132446 -0.02307129 C9.66341143 -0.03645045 13.62529924 -0.03811197 17.58740234 -0.03222656 C22.66175075 -0.02630169 27.73515188 -0.05706711 32.80931664 -0.09734344 C36.72471253 -0.12318149 40.63987804 -0.12610207 44.55534744 -0.12245178 C46.42684966 -0.12414312 48.29836249 -0.13378703 50.16978073 -0.15159607 C52.78099417 -0.17373575 55.39025805 -0.16411448 58.00146484 -0.14648438 C58.77037048 -0.15974762 59.53927612 -0.17301086 60.33148193 -0.18667603 C64.28753219 -0.12462318 66.07472275 0.29613603 69.1937561 2.8079834 C74.04524061 8.96873772 75.18664474 14.83315317 74.2890625 22.46875 C72.65144632 27.72635985 70.54843491 30.98527841 66.2890625 34.46875 C63.55863965 34.94801733 61.45519641 35.12311123 58.73583984 35.06469727 C57.62008072 35.07078506 57.62008072 35.07078506 56.48178101 35.07699585 C54.87163655 35.08250195 53.26142049 35.07653573 51.65134811 35.06033516 C49.0934418 35.03484172 46.53714173 35.0397383 43.97915649 35.05223083 C38.54061481 35.07296514 33.10257122 35.05333921 27.6640625 35.03125 C21.37860297 35.01007089 15.09366546 35.00576364 8.80821609 35.03175163 C6.30489891 35.03508319 3.80260494 35.01398517 1.29940796 34.99134827 C-9.41781572 34.96959951 -19.58070248 35.61886792 -27.7109375 43.46875 C-12.95624854 47.10893108 1.80899358 50.63404933 16.6640625 53.84375 C28.33317791 56.36779407 39.9862988 58.95559618 51.62359619 61.62286377 C53.33965783 62.01571461 55.05608169 62.40698697 56.77288818 62.79656982 C82.06941784 68.54196761 82.06941784 68.54196761 87.2890625 76.46875 C91.18283255 83.19435281 89.40449493 90.70797704 87.6640625 97.84375 C83.21685963 113.9882007 73.41275699 125.65164593 59.2890625 134.46875 C50.78683876 139.01771047 42.9601752 140.76809772 33.39404297 140.77514648 C31.9415213 140.78763176 31.9415213 140.78763176 30.45965576 140.80036926 C27.27514575 140.82436558 24.09084068 140.83322624 20.90625 140.83984375 C18.68620748 140.84881394 16.46616557 140.85793585 14.24612427 140.86720276 C9.60107963 140.88366422 4.95610687 140.89138841 0.31103516 140.89428711 C-5.64220575 140.89968544 -11.59477283 140.93743798 -17.54782295 140.98303127 C-22.12888064 141.01275257 -26.70977452 141.02000951 -31.29092026 141.02101326 C-33.48619568 141.02522092 -35.68147136 141.03767693 -37.87665176 141.05853081 C-40.94317897 141.08535816 -44.00812279 141.08064647 -47.07470703 141.06811523 C-48.43385727 141.09036667 -48.43385727 141.09036667 -49.82046509 141.11306763 C-54.28053445 141.06111351 -56.11843282 140.93435953 -59.73117065 138.09535217 C-64.19699066 132.17044613 -64.55791858 125.67319151 -63.7109375 118.46875 C-62.73422676 115.53380641 -61.49299128 112.99580954 -59.7109375 110.46875 C-59.18598946 109.6874044 -59.18598946 109.6874044 -58.6504364 108.89027405 C-55.56591576 106.62952501 -52.19264617 107.0467884 -48.51098633 107.06811523 C-47.67483795 107.06113617 -46.83868958 107.0541571 -45.97720337 107.04696655 C-43.20735678 107.02694013 -40.43788143 107.02748977 -37.66796875 107.02734375 C-35.74084976 107.01557254 -33.81373988 107.00220895 -31.88664246 106.98731995 C-26.80488797 106.9510717 -21.72321423 106.93091979 -16.64135742 106.91577148 C-8.52511505 106.89098615 -0.40905148 106.85110511 7.70702553 106.79387093 C10.53643128 106.77760588 13.3656675 106.77376909 16.19511414 106.77085876 C17.94412521 106.76107443 19.69313369 106.75080985 21.44213867 106.73999023 C22.22217758 106.74254318 23.00221649 106.74509613 23.80589294 106.74772644 C31.55435541 106.67610466 40.13494425 105.44775319 45.95703125 99.87109375 C46.39660156 99.40832031 46.83617187 98.94554687 47.2890625 98.46875 C41.19856534 96.30309219 35.1478233 94.65216649 28.8203125 93.34765625 C27.94113159 93.16162338 27.06195068 92.97559052 26.15612793 92.78392029 C23.36811728 92.19476468 20.57871255 91.61258864 17.7890625 91.03125 C14.13223118 90.26446383 10.47606383 89.49457432 6.8203125 88.72265625 C5.92101517 88.53305328 5.02171783 88.34345032 4.09516907 88.14810181 C-2.10766611 86.83188829 -8.2810296 85.41689786 -14.44734192 83.94007874 C-19.62778479 82.70563543 -24.82519335 81.57139848 -30.03515625 80.46875 C-31.59314874 80.13564941 -33.15109158 79.80231652 -34.70898438 79.46875 C-37.07514838 78.96222717 -39.44184232 78.45975546 -41.8112793 77.96875 C-44.15945125 77.4806696 -46.50360758 76.97621424 -48.84765625 76.46875 C-49.55081467 76.32695313 -50.25397308 76.18515625 -50.97843933 76.0390625 C-58.60520067 74.35475613 -63.18846001 70.5417912 -67.7109375 64.46875 C-71.23075293 53.9093037 -67.71195158 41.72498171 -63.05078125 32.0078125 C-54.46032516 17.15531963 -42.50832796 7.11366516 -26.19482422 1.89453125 C-17.61519619 -0.38267578 -8.81182158 -0.00402324 0 0 Z " fill="#000000" transform="translate(1847.7109375,883.53125)"/>
<path d="M0 0 C0.8301915 -0.0115361 1.660383 -0.0230722 2.51573181 -0.03495789 C5.24089506 -0.06905509 7.96583329 -0.08771741 10.69116211 -0.10327148 C11.62605406 -0.11017439 12.56094601 -0.11707729 13.52416801 -0.12418938 C18.4653323 -0.15992243 23.40638381 -0.1835205 28.34765625 -0.19726562 C33.44467739 -0.213861 38.54032284 -0.27238391 43.63687992 -0.34040928 C47.56517251 -0.38518574 51.49313356 -0.39875889 55.42165947 -0.40388298 C57.30077112 -0.41177133 59.17987227 -0.43140098 61.05873299 -0.46310616 C63.68738646 -0.50456387 66.3125378 -0.50171936 68.94140625 -0.48828125 C69.71300079 -0.51030609 70.48459534 -0.53233093 71.27957153 -0.55502319 C74.58083343 -0.49778919 76.60817408 -0.31564765 79.21175957 1.81785774 C84.27650038 7.50337148 85.71337192 12.79055548 85.34350586 20.33813477 C84.6948179 25.45644097 82.71109206 29.394683 79.40600586 33.33813477 C76.44607346 34.81810096 73.43861441 34.48241465 70.19335938 34.47998047 C69.07825737 34.48519211 69.07825737 34.48519211 67.94062805 34.49050903 C66.32225355 34.49787134 64.70386892 34.50321419 63.08548164 34.5067997 C60.51564012 34.51396979 57.94598904 34.52964427 55.37620544 34.54814148 C48.06788894 34.60055738 40.75967193 34.64849836 33.45117188 34.6640625 C28.98121954 34.6742057 24.51173976 34.70369801 20.04197502 34.74538231 C18.34574922 34.75761682 16.64945639 34.76282751 14.95318794 34.76058388 C3.49413181 34.74916648 -7.82437437 34.87091567 -16.59399414 43.33813477 C-2.86945753 46.70138879 10.85658675 50.04427576 24.65600586 53.08813477 C25.68790039 53.31694336 26.71979492 53.54575195 27.78295898 53.78149414 C33.60908069 55.06986683 39.43759144 56.34607295 45.26977539 57.60668945 C50.79926048 58.80232777 56.32571685 60.01132399 61.85095215 61.22644043 C64.08471218 61.71510327 66.31949374 62.19912116 68.55529785 62.67834473 C71.72307804 63.3578555 74.88697345 64.05335564 78.05053711 64.75219727 C79.00569717 64.95311981 79.96085724 65.15404236 80.94496155 65.36105347 C88.76502743 67.1165542 93.63400949 69.62199173 98.40600586 76.33813477 C101.46551653 82.45715612 99.9982994 92.71929428 98.53491211 99.18969727 C92.80795564 116.12646689 82.35881406 128.31264116 66.40600586 136.33813477 C55.27260855 141.68448958 43.60313154 140.939379 31.53491211 140.90454102 C29.32201375 140.90978276 27.10911762 140.91606125 24.89622498 140.92332458 C20.28096928 140.93368581 15.66602283 140.92922363 11.05078125 140.91455078 C5.13684998 140.89728696 -0.77611658 140.92097467 -6.68994045 140.95604038 C-11.24958225 140.97798188 -15.80899145 140.97658211 -20.36866951 140.96827507 C-22.54996875 140.96745537 -24.73128502 140.97432237 -26.91253471 140.9890461 C-29.95466952 141.00645044 -32.99504568 140.99198768 -36.03710938 140.96923828 C-36.93535431 140.98093048 -37.83359924 140.99262268 -38.75906372 141.00466919 C-43.19738333 140.93708084 -45.01636446 140.79318158 -48.60926819 137.9627533 C-53.12879745 131.98608924 -53.27942995 125.59320921 -52.59399414 118.33813477 C-51.44401833 113.77180744 -49.34989605 110.20740432 -45.59399414 107.33813477 C-42.70586478 106.9505252 -40.19839573 106.80394856 -37.31225586 106.83984375 C-36.47917404 106.83432495 -35.64609222 106.82880615 -34.7877655 106.82312012 C-32.98009471 106.8138011 -31.17235827 106.81369416 -29.36468124 106.8217144 C-26.49646082 106.83434842 -23.62920239 106.82304841 -20.76101685 106.80567932 C-15.69806269 106.77894767 -10.63534375 106.77338416 -5.57232666 106.77478027 C2.50963552 106.77700561 10.59130422 106.76268775 18.67315292 106.71919441 C21.48596568 106.70941232 24.29831183 106.71804773 27.1111145 106.72789001 C38.13996557 106.71475873 48.46284574 106.63387066 57.40600586 99.33813477 C57.40600586 98.67813477 57.40600586 98.01813477 57.40600586 97.33813477 C26.8978533 90.36006775 26.8978533 90.36006775 -3.65649414 83.58813477 C-4.92227295 83.31114746 -6.18805176 83.03416016 -7.4921875 82.7487793 C-13.76064349 81.37967977 -20.03302086 80.03352653 -26.31274414 78.71704102 C-28.76066217 78.194912 -31.2085789 77.67277687 -33.65649414 77.15063477 C-35.31660522 76.81177246 -35.31660522 76.81177246 -37.01025391 76.46606445 C-44.27675465 74.90298468 -50.18441623 73.38181212 -54.96899414 67.33813477 C-59.51891742 58.93827641 -57.88525972 49.49357245 -55.62524414 40.56860352 C-51.18614157 26.66277841 -41.17329247 14.62088643 -28.59399414 7.33813477 C-24.34011975 5.39009883 -20.0473959 3.76721145 -15.59399414 2.33813477 C-14.03020775 1.82241661 -14.03020775 1.82241661 -12.43482971 1.29627991 C-8.16946692 0.23223107 -4.37041055 0.02161871 0 0 Z " fill="#000000" transform="translate(1183.593994140625,883.661865234375)"/>
<path d="M0 0 C1.70477545 -0.00711536 3.40954854 -0.01481633 5.11431885 -0.02307129 C8.67816835 -0.03647068 12.24179652 -0.0381061 15.80566406 -0.03222656 C20.33900893 -0.02634384 24.87127789 -0.05688359 29.40441513 -0.09734344 C32.92382375 -0.12338811 36.44297933 -0.12608264 39.96247101 -0.12245178 C41.63198797 -0.12412833 43.30151853 -0.13362718 44.97093964 -0.15159607 C61.94327688 -0.31415884 76.23422819 4.28497569 88.765625 16.21875 C102.84226723 30.95730331 105.88273324 48.03801206 105.83129883 67.63452148 C105.82815332 70.13375104 105.85161045 72.6317766 105.87695312 75.13085938 C105.95505716 94.19744534 102.83661715 111.02816105 89.390625 125.40625 C75.34581827 138.45897205 60.42943561 141.94930998 41.7109375 141.90234375 C40.09870181 141.90691742 38.48646806 141.91222646 36.87423706 141.91822815 C33.5106408 141.92711268 30.14728256 141.92479019 26.78369141 141.91479492 C22.50835049 141.90331791 18.23383717 141.92352077 13.95860481 141.95271206 C10.63307621 141.97120504 7.30774113 141.97075567 3.98217392 141.96507454 C2.40756953 141.96492288 0.83295069 141.97083592 -0.74160385 141.98336601 C-17.5592119 142.09836925 -32.43581837 138.29612189 -44.98168945 126.45703125 C-58.71981648 112.85630878 -62.66341392 97.30572427 -62.80241394 78.38082886 C-62.80524832 76.78033679 -62.80441777 75.17983432 -62.80004883 73.5793457 C-62.79689337 71.17027262 -62.8204184 68.76243762 -62.84570312 66.35351562 C-62.92553633 47.13733145 -59.44613179 29.7429041 -45.484375 15.46875 C-39.66048737 10.55457912 -33.48294673 6.47491809 -26.484375 3.46875 C-25.28006836 2.94861328 -24.07576172 2.42847656 -22.83496094 1.89257812 C-15.49249502 -0.50161512 -7.6396932 -0.00389377 0 0 Z M-23.484375 42.46875 C-29.20613496 51.2882781 -28.66681187 60.65673648 -28.671875 70.84375 C-28.68412109 72.1328125 -28.69636719 73.421875 -28.70898438 74.75 C-28.72405145 84.53355182 -28.03305549 92.22499612 -22.484375 100.46875 C-14.69241489 108.05011659 -6.46353264 107.94388567 3.84765625 107.9375 C5.24859415 107.944614 6.64952918 107.95231478 8.05046082 107.96057129 C10.97976791 107.97397508 13.9088057 107.97560414 16.83813477 107.96972656 C20.56704467 107.96384196 24.29464738 107.99438731 28.02330494 108.03484344 C30.91553034 108.06086975 33.80744746 108.06358438 36.69977379 108.05995178 C38.07312993 108.06162994 39.44650236 108.0711451 40.8197422 108.08909607 C49.3256138 108.18804081 56.50110606 107.67888782 63.515625 102.46875 C71.90328107 92.95256523 71.85782018 82.74501798 71.828125 70.59375 C71.84423828 69.28277344 71.86035156 67.97179687 71.87695312 66.62109375 C71.88203572 56.48639536 71.30678712 47.49194035 64.0625 39.87109375 C58.8437949 35.13999493 54.13815111 34.34981146 47.29760742 34.30761719 C46.03917526 34.29800964 44.7807431 34.2884021 43.48417664 34.27850342 C42.11315086 34.2736548 40.74212297 34.26937613 39.37109375 34.265625 C37.95868428 34.25986813 36.54627482 34.25411047 35.13386536 34.24835205 C32.17411944 34.23785928 29.21440055 34.23200547 26.25463867 34.22851562 C22.47526343 34.22303695 18.69624953 34.19901541 14.91698742 34.17054367 C11.99920125 34.15185356 9.081501 34.1467083 6.16366005 34.14517975 C4.77109109 34.14216664 3.37852317 34.13418372 1.98601341 34.12099457 C-8.66010908 34.02736326 -15.64894871 34.63332371 -23.484375 42.46875 Z " fill="#000000" transform="translate(210.484375,882.53125)"/>
<path d="M0 0 C0.75152344 0.00733154 1.50304688 0.01466309 2.27734375 0.0222168 C7.42018223 0.20389316 11.1652652 1.04667034 15.375 4.17578125 C18.2069726 7.31750085 17.74068769 10.99551945 17.72265625 14.98046875 C17.71943359 16.23408203 17.71621094 17.48769531 17.71289062 18.77929688 C17.70032227 20.74479492 17.70032227 20.74479492 17.6875 22.75 C17.68248317 24.08528481 17.67792059 25.42057141 17.67382812 26.75585938 C17.66202695 30.02478473 17.64556297 33.29361991 17.625 36.5625 C18.39063766 36.55139694 19.15627533 36.54029388 19.94511414 36.52885437 C27.16912652 36.42856784 34.39280027 36.35249319 41.61732769 36.30343914 C45.33136943 36.27737159 49.04483486 36.24202791 52.75854492 36.18530273 C56.34419713 36.13087786 59.92929591 36.10105808 63.51532936 36.08811378 C64.88170902 36.07889236 66.24805919 36.06088419 67.6142025 36.03384972 C78.30840739 35.83068661 78.30840739 35.83068661 81.56367493 37.64009094 C85.87551676 41.83419412 87.73365311 47.66812752 88 53.5625 C87.74032734 59.29787875 86.25390118 64.01305741 82.0625 68 C78.30775633 70.40688697 76.35270338 70.6853613 71.89013672 70.67602539 C70.68904266 70.67594986 69.48794861 70.67587433 68.25045776 70.67579651 C66.94835358 70.67063522 65.64624939 70.66547394 64.3046875 70.66015625 C62.96233167 70.65829138 61.61997516 70.6568678 60.27761841 70.65586853 C56.74304325 70.65204878 53.20850913 70.64222312 49.6739502 70.63116455 C46.06779536 70.62093878 42.4616339 70.61636841 38.85546875 70.61132812 C31.77862904 70.60060038 24.7018172 70.58353045 17.625 70.5625 C17.64134554 78.35510524 17.69636911 86.14676784 17.77758789 93.93896484 C17.80070577 96.58668912 17.81514891 99.23450454 17.82055664 101.88232422 C17.82989094 105.70076903 17.87098471 109.51779231 17.91796875 113.3359375 C17.9140361 114.50925629 17.91010345 115.68257507 17.90605164 116.89144897 C18.03690095 124.35485772 19.15403507 130.42114056 23.625 136.5625 C28.70820252 140.7500789 33.40568287 142.68065382 40.01098633 142.7043457 C41.66334038 142.71489738 41.66334038 142.71489738 43.34907532 142.72566223 C44.53970078 142.72982651 45.73032623 142.73399078 46.95703125 142.73828125 C49.47201359 142.76147859 51.98698758 142.78559589 54.50195312 142.81054688 C58.47181796 142.84567407 62.44137555 142.8750131 66.41137695 142.88842773 C70.23947439 142.90389912 74.06667153 142.9441056 77.89453125 142.98828125 C79.07908401 142.98637283 80.26363678 142.98446442 81.48408508 142.98249817 C87.78733494 143.07605719 91.89719281 143.20089636 96.625 147.5625 C100.72780316 153.81645577 100.39000428 160.33278924 99.625 167.5625 C98.18288684 172.02935308 95.64032867 175.13327326 91.625 177.5625 C88.87770081 177.95018005 88.87770081 177.95018005 85.68579102 177.96655273 C84.48676651 177.97923691 83.287742 177.99192108 82.05238342 178.00498962 C80.75763596 178.00205399 79.46288849 177.99911835 78.12890625 177.99609375 C76.77570841 178.00066072 75.42251288 178.00596782 74.06932068 178.01197815 C71.22881682 178.02091319 68.38859391 178.01848798 65.5480957 178.00854492 C61.94397186 177.99714681 58.34084126 178.01712087 54.73684788 178.04646206 C51.93714927 178.06501434 49.13767931 178.0644928 46.33793449 178.05882454 C44.37463578 178.0586004 42.41135808 178.07535895 40.44813538 178.09263611 C24.68769793 177.97217936 10.96917435 172.77992699 -0.625 162 C-13.66266095 148.18553799 -17.51626614 131.81459 -17.53613281 113.29052734 C-17.54109772 112.17587601 -17.54606262 111.06122467 -17.55117798 109.91279602 C-17.56573329 106.24133683 -17.57258835 102.56992075 -17.578125 98.8984375 C-17.58387919 96.34209187 -17.58963689 93.78574625 -17.59539795 91.22940063 C-17.60454887 86.5609299 -17.61085871 81.89247204 -17.6138947 77.22399461 C-17.61838328 70.36144697 -17.63598102 63.49909771 -17.6648953 56.63661039 C-17.68912059 50.67949001 -17.69683892 44.72241909 -17.69857025 38.76524734 C-17.70159954 36.23506206 -17.70963731 33.70487767 -17.72275543 31.17472458 C-17.73977575 27.64155657 -17.73794595 24.10887576 -17.73144531 20.57568359 C-17.7406601 19.52932236 -17.74987488 18.48296112 -17.7593689 17.40489197 C-17.70808075 8.52355697 -17.70808075 8.52355697 -14.375 4.5625 C-9.64896041 0.52249842 -5.97049503 -0.11822109 0 0 Z " fill="#000000" transform="translate(1322.375,846.4375)"/>
<path d="M0 0 C1.74207271 -0.00270042 3.48414395 -0.0065874 5.22621155 -0.01159668 C8.85285995 -0.01745494 12.47911107 -0.00904118 16.10571289 0.00976562 C20.74838676 0.03267322 25.39014149 0.01933502 30.03278255 -0.00452423 C33.61964347 -0.01898036 37.20628628 -0.01437918 40.79315376 -0.00401306 C42.5055407 -0.00135143 44.21794765 -0.00459566 45.9303112 -0.01393127 C48.31857788 -0.0241075 50.70535039 -0.00858815 53.09350586 0.01367188 C53.79538528 0.00557495 54.49726471 -0.00252197 55.22041321 -0.01086426 C59.97850859 0.07116556 62.36378797 1.19330139 65.72265625 4.53125 C69.33960907 10.29615432 69.65933447 17.19130756 68.25390625 23.703125 C66.68814811 28.66135911 64.18060471 31.72956912 59.72265625 34.53125 C56.35279846 35.15029907 56.35279846 35.15029907 52.63500977 35.14306641 C51.61180634 35.15156364 51.61180634 35.15156364 50.56793213 35.16023254 C48.32857108 35.17366074 46.09085113 35.15284165 43.8515625 35.1328125 C42.28505858 35.13831766 40.71856189 35.14644678 39.15208435 35.15707397 C35.03648392 35.17991814 30.92141542 35.1757576 26.80578613 35.16326904 C20.22309149 35.14493862 13.64070911 35.15503507 7.0580883 35.18912888 C4.76744987 35.19520406 2.47748998 35.18200953 0.18690491 35.16714478 C-1.22883272 35.17009487 -2.6445691 35.1737508 -4.06030273 35.17822266 C-5.90180153 35.17225571 -5.90180153 35.17225571 -7.78050232 35.16616821 C-13.81798342 35.79650117 -18.95088265 38.2047889 -23.27734375 42.53125 C-26.73275455 47.92174188 -27.90891095 52.72190928 -28.02734375 59.0546875 C-28.0533667 59.84090485 -28.07938965 60.62712219 -28.10620117 61.43716431 C-28.15552133 63.08904145 -28.1953558 64.74122695 -28.22607422 66.39355469 C-28.27710269 68.8944356 -28.37091603 71.39118838 -28.46875 73.890625 C-28.77597817 84.10012196 -27.84249963 91.45728072 -22.58984375 100.40625 C-15.35148715 107.05771282 -6.89155802 107.1000526 2.48511505 107.04767036 C4.7811537 107.03491814 7.07601174 107.04643688 9.37200928 107.06370544 C13.41425705 107.0902624 17.45620958 107.09600613 21.49853516 107.09460449 C27.98118383 107.09236557 34.46346983 107.10655085 40.94597626 107.15019035 C43.20231952 107.1599999 45.45808549 107.15133113 47.7144165 107.14149475 C49.10030493 107.14763939 50.48619023 107.15455126 51.87207031 107.16235352 C53.07736389 107.16139175 54.28265747 107.16042999 55.5244751 107.15943909 C59.69748355 107.64458049 62.10914667 109.33605772 65.41015625 111.78125 C69.12264611 116.73123648 69.537333 123.57020061 68.72265625 129.53125 C67.13943537 134.68895927 65.49129723 138.71663351 60.72265625 141.53125 C57.40589905 141.91893005 57.40589905 141.91893005 53.40649414 141.93530273 C52.31040329 141.94559761 52.31040329 141.94559761 51.19216919 141.95610046 C48.77635223 141.97439623 46.36118393 141.97052299 43.9453125 141.96484375 C42.25581147 141.96940831 40.56631229 141.9747147 38.8768158 141.98072815 C35.33015422 141.98966774 31.78371762 141.98723133 28.23706055 141.97729492 C23.72500056 141.96587736 19.21373163 141.98590031 14.70177555 142.01521206 C11.20724153 142.03371048 7.71289164 142.03325346 4.21832085 142.02757454 C2.55719338 142.02742259 0.8960524 142.03336085 -0.765028 142.04586601 C-18.38539086 142.1597077 -33.4502207 138.2857251 -46.58984375 125.78125 C-61.19104662 110.24257022 -62.95075621 94.93572016 -62.79882812 74.47509766 C-62.77739004 71.03867006 -62.79870241 67.60433274 -62.82421875 64.16796875 C-62.84633824 47.57007189 -61.3303574 35.27405107 -51.27734375 21.53125 C-50.56771484 20.54511719 -50.56771484 20.54511719 -49.84375 19.5390625 C-37.32482792 3.58009668 -19.01848477 -0.10468546 0 0 Z " fill="#000000" transform="translate(62.27734375,882.46875)"/>
<path d="M0 0 C3.21736363 0.01385747 6.43180675 -0.02027865 9.64892578 -0.05834961 C28.3284335 -0.12859946 43.05244207 3.65836159 57.10595703 16.76391602 C68.36626923 28.5892618 72.45679856 42.25037749 72.73095703 58.20141602 C72.78703125 59.45051758 72.78703125 59.45051758 72.84423828 60.72485352 C72.90794301 65.17002802 72.82917556 66.97492007 69.99267578 70.58032227 C63.78247446 75.28167468 56.89666895 75.36814249 49.35595703 74.57641602 C45.37549144 73.4621154 41.59566145 72.32869053 39.13720703 68.85375977 C38.09973031 65.82951511 38.0722722 63.08143493 37.98095703 59.88891602 C37.51277111 52.1234875 35.89201103 46.81692946 31.10595703 40.70141602 C23.37148145 34.72477579 14.98488533 35.10787305 5.66552734 35.18530273 C3.3612141 35.20137934 1.05865427 35.18540466 -1.24560547 35.16625977 C-14.03468254 35.11699719 -14.03468254 35.11699719 -24.95654297 41.26391602 C-30.02810616 46.99214222 -31.0916184 53.50190627 -30.99707031 60.93261719 C-30.9992305 61.72554672 -31.00139069 62.51847626 -31.00361633 63.33543396 C-31.00668398 65.04212176 -31.00315507 66.74883201 -30.99360275 68.45549583 C-30.97977917 71.15874896 -30.98635024 73.86127513 -30.9984436 76.56452942 C-31.02929722 84.24456749 -31.02448048 91.92443065 -31.00439453 99.60449219 C-30.99347929 104.3147418 -31.00665474 109.02444039 -31.03429031 113.73461342 C-31.03972719 115.52514618 -31.03567631 117.31573419 -31.02189255 119.10622215 C-31.00284702 121.6075608 -31.01423753 124.10709104 -31.03222656 126.60839844 C-31.0122184 127.71272217 -31.0122184 127.71272217 -30.99180603 128.83935547 C-31.05455829 132.76580045 -31.51213875 134.41533987 -34.03311157 137.49385071 C-40.53687417 142.68146704 -47.62465272 142.32682119 -55.64404297 141.57641602 C-60.11172012 140.22479387 -63.00211243 138.53931183 -65.64404297 134.57641602 C-65.84885545 131.87694877 -65.93774983 129.27981247 -65.93457031 126.5793457 C-65.94128754 125.76419495 -65.94800476 124.94904419 -65.95492554 124.10919189 C-65.97396654 121.40549657 -65.97783461 118.70204931 -65.97998047 115.99829102 C-65.98641068 114.11037088 -65.99313921 112.22245175 -66.00015259 110.33453369 C-66.01214518 106.36663511 -66.01583203 102.39882364 -66.01464844 98.4309082 C-66.01444662 93.38436097 -66.04159607 88.33838565 -66.07619286 83.29197311 C-66.09862252 79.38476078 -66.10248089 75.47768175 -66.10142899 71.57041168 C-66.10376674 69.71276148 -66.11248542 67.85510655 -66.12809372 65.99752045 C-66.28163887 45.81159336 -62.75363264 30.32348108 -48.47607422 15.18969727 C-43.73540566 10.81520448 -38.50328225 7.27623287 -32.64404297 4.57641602 C-31.90234863 4.21668701 -31.1606543 3.85695801 -30.39648438 3.48632812 C-20.61786742 -0.52635064 -10.4094717 -0.06253599 0 0 Z " fill="#000000" transform="translate(1686.64404296875,882.423583984375)"/>
<path d="M0 0 C5.93639047 4.36027408 11.7960995 9.3609647 13 17 C13.65221578 26.59509759 13.00267778 33.4147858 6.9375 41.125 C1.97417749 46.43989119 -3.16583231 49.50765801 -10.4375 50.44140625 C-20.53785156 50.77881024 -28.01341946 48.55124764 -35.49609375 41.7109375 C-40.53450259 35.97892952 -42.39663166 28.99020504 -42.2734375 21.5 C-41.47797983 14.22724415 -38.30119188 8.36307604 -32.93359375 3.46875 C-23.40554994 -3.76871358 -10.82049927 -5.70295075 0 0 Z M-25 9 C-23.24623047 9.02126953 -23.24623047 9.02126953 -21.45703125 9.04296875 C-19.90881543 9.08988438 -18.36063956 9.13813169 -16.8125 9.1875 C-16.04357422 9.19330078 -15.27464844 9.19910156 -14.48242188 9.20507812 C-10.21984701 9.36972694 -8.45139697 9.64520549 -4.98828125 12.3671875 C-3 15 -3 15 -2.375 17.9375 C-3.23243355 22.13892437 -5.06186579 23.91495908 -8 27 C-6.02 30.3 -4.04 33.6 -2 37 C2.35747511 32.64252489 3.93817816 29.94285983 4.03515625 23.7578125 C3.5626385 16.91206752 1.04191416 13.0883213 -3.75 8.1875 C-9.91111373 4.04059652 -19.38135029 3.38135029 -25 9 Z M-27 10 C-31.49923033 16.32704265 -33.05559834 21.29299708 -32 29 C-30.68509455 31.95735053 -29.1003574 34.53466246 -27 37 C-26.67 37 -26.34 37 -26 37 C-26 28.09 -26 19.18 -26 10 C-26.33 10 -26.66 10 -27 10 Z M-17 16 C-17.33 17.32 -17.66 18.64 -18 20 C-15.08365871 20.2502157 -15.08365871 20.2502157 -12 20 C-11.34 19.01 -10.68 18.02 -10 17 C-11.12534105 15.64381501 -11.12534105 15.64381501 -14.0625 15.9375 C-15.031875 15.958125 -16.00125 15.97875 -17 16 Z M-17 27 C-17 30.63 -17 34.26 -17 38 C-19.64 38 -22.28 38 -25 38 C-22.46407997 40.77743622 -20.56743807 41.85971294 -16.73046875 42.203125 C-11.34283648 42.30243619 -7.69782189 41.9670454 -3 39 C-3 38.67 -3 38.34 -3 38 C-5.64 38 -8.28 38 -11 38 C-11.4021875 36.948125 -11.4021875 36.948125 -11.8125 35.875 C-13.0681449 32.8350176 -14.50235123 29.9272226 -16 27 C-16.33 27 -16.66 27 -17 27 Z " fill="#000000" transform="translate(1339,681)"/>
<path d="M0 0 C5.05430227 4.57446345 8.61573606 9.9098775 9.46875 16.76953125 C9.50295203 18.1167937 9.51266516 19.46486301 9.5 20.8125 C9.49427979 21.51810059 9.48855957 22.22370117 9.48266602 22.95068359 C9.23685288 30.14961514 7.18036843 34.58544767 2.35546875 39.765625 C-4.93987831 46.55046245 -12.31385035 47.74772022 -22.046875 47.40625 C-30.67699107 46.5193606 -36.09222035 42.63723243 -41.625 36.16015625 C-46.13210561 29.0793909 -46.2212753 19.82928045 -44.53515625 11.78125 C-41.515323 3.91896225 -35.82395701 -0.54370456 -28.46484375 -4.0546875 C-18.65906769 -7.81538133 -8.54916653 -5.83443119 0 0 Z M-28 6 C-26.48019531 6.07347656 -26.48019531 6.07347656 -24.9296875 6.1484375 C-23.57810089 6.22352564 -22.22653962 6.29907081 -20.875 6.375 C-19.87726563 6.42140625 -19.87726563 6.42140625 -18.859375 6.46875 C-14.60178738 6.71919633 -10.97914217 7.47528197 -7 9 C-6.91878076 10.60332791 -6.86070866 12.20784026 -6.8125 13.8125 C-6.76029297 15.15248047 -6.76029297 15.15248047 -6.70703125 16.51953125 C-7.05587606 19.47308396 -7.73141474 20.17085014 -10 22 C-10.66 22.66 -11.32 23.32 -12 24 C-10.02 27.3 -8.04 30.6 -6 34 C-1.41208872 29.41208872 -0.24703636 27.5115363 0.375 21.1875 C0.21285218 15.81635352 -1.78697155 11.28077422 -5.53125 7.421875 C-9.81998075 3.76383995 -12.32271216 2.83145166 -17.875 2.75 C-18.92429687 2.72421875 -19.97359375 2.6984375 -21.0546875 2.671875 C-24.30556586 3.03404182 -25.62350767 3.81867854 -28 6 Z M-31.9375 8.625 C-35.11503337 12.28397782 -35.87075826 15.60418925 -36.3125 20.375 C-35.95019906 24.57769088 -35.1379909 28.33031413 -33 32 C-31.68 32.99 -30.36 33.98 -29 35 C-29 25.76 -29 16.52 -29 7 C-30.29375825 6.89289796 -30.29375825 6.89289796 -31.9375 8.625 Z M-22 13 C-21.67 14.32 -21.34 15.64 -21 17 C-19.02 17 -17.04 17 -15 17 C-15 15.68 -15 14.36 -15 13 C-17.31 13 -19.62 13 -22 13 Z M-21 24 C-21 27.63 -21 31.26 -21 35 C-23.64 35 -26.28 35 -29 35 C-26.00437542 38.50943721 -23.06830533 39.06091166 -18.6484375 39.8515625 C-14.40778466 40.08923921 -11.76495963 38.91670672 -8 37 C-7.67 36.34 -7.34 35.68 -7 35 C-9.64 35 -12.28 35 -15 35 C-15.4021875 33.948125 -15.4021875 33.948125 -15.8125 32.875 C-17.0681449 29.8350176 -18.50235123 26.9272226 -20 24 C-20.33 24 -20.66 24 -21 24 Z " fill="#000000" transform="translate(1991,883)"/>
</svg>
