<?xml version="1.0" standalone="no"?>
<!DOCTYPE svg PUBLIC "-//W3C//DTD SVG 20010904//EN"
 "http://www.w3.org/TR/2001/REC-SVG-20010904/DTD/svg10.dtd">
<svg version="1.0" xmlns="http://www.w3.org/2000/svg"
 width="1990.000000pt" height="2000.000000pt" viewBox="0 0 1990.000000 2000.000000"
 preserveAspectRatio="xMidYMid meet">

<g transform="translate(0.000000,2000.000000) scale(0.100000,-0.100000)"
fill="#000000" stroke="none">
<path d="M10596 19268 l-528 -730 4 -107 c3 -75 33 -260 102 -641 53 -294 114
-631 135 -748 l39 -212 78 -124 c459 -722 750 -1173 755 -1170 14 8 72 355
119 719 28 209 62 464 76 567 l26 187 -42 498 c-22 274 -52 629 -65 788 -14
160 -30 346 -35 415 -6 69 -24 285 -40 480 -17 195 -38 450 -46 565 -13 163
-20 214 -33 227 -15 16 -53 -34 -545 -714z"/>
<path d="M4603 17803 c3 -137 13 -354 21 -483 56 -836 92 -1411 107 -1693 l12
-229 397 -611 c218 -337 432 -668 475 -736 44 -68 91 -137 105 -152 14 -16
173 -137 353 -269 252 -184 335 -240 358 -240 35 0 35 3 15 157 -17 123 -23
243 -36 748 -6 198 -15 517 -20 708 l-11 348 -301 537 c-166 295 -433 769
-592 1053 l-291 517 -289 296 c-158 163 -293 296 -298 296 -7 0 -9 -81 -5
-247z"/>
<path d="M9981 16358 c-6 -79 -16 -267 -21 -418 -6 -151 -17 -444 -25 -650 -8
-206 -19 -514 -25 -685 -5 -170 -12 -339 -15 -376 -5 -59 -2 -76 35 -180 23
-62 111 -312 196 -554 86 -242 177 -501 203 -575 27 -74 94 -273 151 -442 56
-170 105 -308 109 -308 4 0 15 8 25 19 17 19 20 42 130 986 25 215 66 563 91
775 24 212 56 483 70 604 l25 219 -188 351 c-104 193 -312 582 -462 864 -151
281 -277 512 -281 512 -4 0 -12 -64 -18 -142z"/>
<path d="M15855 15674 c-303 -393 -594 -773 -648 -844 l-99 -129 45 -158 c25
-87 87 -304 137 -483 240 -844 255 -895 271 -898 11 -2 194 266 606 885 l591
888 16 310 c9 171 21 385 26 477 6 92 10 185 10 207 0 37 -10 50 -196 247
-107 115 -198 210 -202 212 -4 1 -255 -320 -557 -714z"/>
<path d="M11309 14504 c-18 -47 -23 -16 121 -714 52 -253 148 -719 167 -815 8
-40 10 -42 123 -135 116 -95 118 -94 144 32 10 45 49 224 87 397 38 172 66
319 62 325 -11 17 -674 920 -684 930 -5 5 -13 -3 -20 -20z"/>
<path d="M11077 14073 c-4 -3 -7 -77 -7 -162 0 -103 -10 -257 -30 -451 -17
-162 -44 -428 -60 -590 -16 -162 -54 -542 -85 -845 -31 -302 -76 -748 -100
-990 -24 -242 -53 -519 -64 -615 -11 -95 -18 -176 -16 -178 3 -3 150 7 327 21
353 29 716 74 735 91 7 6 57 96 113 201 l101 190 -36 240 c-20 132 -45 305
-57 385 l-22 145 104 144 c98 137 102 145 84 158 -10 8 -137 101 -281 206
-249 182 -263 193 -263 223 0 34 -40 226 -251 1212 -28 130 -65 318 -83 418
-18 100 -36 186 -40 193 -8 12 -58 15 -69 4z"/>
<path d="M5070 13645 c-9 -11 27 -101 156 -392 92 -208 182 -412 199 -453 18
-41 97 -219 175 -395 78 -176 162 -366 186 -421 l45 -101 -46 -173 c-25 -95
-45 -181 -43 -190 2 -10 242 -230 533 -490 292 -260 728 -649 970 -865 242
-215 457 -407 478 -425 72 -63 71 -43 -22 323 -91 362 -80 332 -311 847 -73
162 -152 338 -175 390 -23 52 -91 203 -150 335 -97 216 -168 385 -404 955
l-73 175 -650 385 c-357 212 -696 413 -753 447 -84 50 -106 59 -115 48z"/>
<path d="M14456 13145 c-30 -42 -101 -156 -158 -253 -127 -220 -675 -1167
-811 -1400 l-100 -173 -101 -82 c-56 -45 -168 -136 -249 -202 l-147 -119 0
-331 0 -332 -86 -294 c-47 -162 -110 -379 -141 -484 -30 -104 -60 -206 -65
-225 -5 -19 -27 -93 -48 -165 -87 -293 -150 -512 -150 -519 0 -34 139 71 881
664 458 366 839 670 847 676 12 9 13 97 2 675 l-13 664 86 420 c47 231 129
634 182 895 52 261 104 516 114 565 10 50 18 91 16 93 -2 2 -28 -31 -59 -73z"/>
<path d="M14742 12926 c-73 -57 -142 -112 -153 -122 -19 -19 -19 -40 -17 -864
l3 -845 53 75 c61 85 96 144 538 900 316 542 360 629 331 656 -6 6 -121 77
-254 158 l-242 146 -63 -1 -63 -1 -133 -102z"/>
<path d="M10038 12402 c-107 -254 -210 -497 -453 -1067 -103 -242 -204 -480
-225 -530 -21 -49 -77 -182 -125 -295 -78 -185 -86 -210 -83 -255 3 -27 55
-219 117 -425 62 -206 171 -571 242 -810 217 -727 241 -803 267 -863 14 -32
28 -54 32 -50 15 18 27 130 184 1783 14 146 46 475 71 732 l44 467 145 430
145 430 -31 88 c-17 48 -64 185 -104 303 -53 152 -82 222 -101 242 -15 15 -29
28 -32 28 -3 0 -45 -94 -93 -208z"/>
<path d="M12091 10377 c-7 -9 17 -226 75 -687 46 -370 86 -675 87 -677 20 -19
59 106 263 842 25 88 58 198 74 245 16 47 26 88 22 91 -4 4 -90 38 -192 77
-325 124 -318 122 -329 109z"/>
<path d="M6482 10367 c-9 -10 -4 -43 22 -138 18 -68 75 -281 126 -474 l93
-350 121 -178 c107 -158 118 -179 105 -193 -14 -13 -38 -5 -224 76 -167 72
-218 90 -257 90 l-48 0 0 -678 0 -678 153 -58 c83 -32 222 -85 307 -118 1484
-570 1771 -674 1770 -640 0 4 -52 95 -115 202 -63 107 -113 196 -111 197 2 2
57 -14 122 -36 65 -22 240 -76 389 -120 259 -76 295 -83 295 -52 0 7 -111 111
-918 861 l-273 253 -292 585 -292 585 -435 395 c-239 217 -456 415 -481 439
-37 36 -48 42 -57 30z"/>
<path d="M18701 9655 c-553 -443 -581 -467 -581 -498 0 -17 11 -151 25 -297
20 -211 25 -325 25 -558 l0 -293 23 7 c46 14 76 37 233 176 88 79 421 375 740
659 l579 515 73 330 c40 181 72 337 72 346 0 10 -10 20 -22 22 -22 5 -551 56
-574 56 -6 0 -273 -209 -593 -465z"/>
<path d="M8068 10089 c-3 -9 45 -301 226 -1358 l55 -323 123 -127 c68 -69 325
-332 573 -584 l450 -459 14 34 c16 39 16 43 -59 398 -36 173 -58 254 -73 277
-12 17 -91 115 -175 217 l-153 186 -39 207 c-21 115 -62 332 -90 483 -29 151
-66 353 -84 448 -18 95 -37 177 -42 181 -5 5 -83 55 -174 111 -556 345 -543
337 -552 309z"/>
<path d="M10450 9868 c-5 -13 -32 -133 -60 -268 -115 -551 -161 -768 -175
-830 -15 -66 -127 -590 -215 -1006 -27 -128 -54 -251 -60 -275 -34 -144 -100
-475 -100 -501 l0 -32 31 30 c17 16 74 106 126 199 53 94 142 251 198 350 121
213 424 750 850 1505 169 300 325 576 347 614 34 58 38 70 26 82 -7 8 -74 25
-148 38 -461 84 -663 116 -733 116 -71 0 -78 -2 -87 -22z"/>
<path d="M11719 9597 c-32 -36 -160 -230 -306 -462 -137 -220 -402 -643 -588
-940 -186 -297 -403 -643 -482 -769 -80 -128 -143 -239 -143 -252 l0 -24 368
0 367 0 124 -206 c68 -113 126 -202 130 -197 207 237 1011 1264 1011 1291 0 6
-49 94 -110 197 l-110 187 1 436 0 437 -93 182 c-51 101 -97 182 -103 182 -5
0 -35 -28 -66 -62z"/>
<path d="M13312 8719 c-424 -270 -473 -305 -497 -344 l-25 -44 190 -293 190
-293 308 -283 c374 -345 431 -396 437 -390 7 7 74 247 191 683 57 215 108 398
112 407 4 10 207 156 451 325 245 170 446 313 448 319 7 22 -111 65 -231 85
-650 102 -851 129 -974 129 l-128 0 -472 -301z"/>
<path d="M17348 8313 l-537 -537 -182 72 c-100 39 -186 69 -190 66 -5 -3 -212
-282 -460 -622 -249 -339 -494 -673 -546 -742 l-94 -125 36 -3 c26 -2 288 81
969 308 l934 311 30 82 c17 45 80 215 141 377 60 163 139 374 174 470 145 390
285 767 298 803 14 40 6 69 -22 75 -8 1 -256 -239 -551 -535z"/>
<path d="M16135 8440 c-94 -32 -1282 -487 -1475 -564 l-65 -26 -225 -443
c-124 -243 -345 -679 -492 -968 l-267 -526 23 -22 c12 -11 31 -21 42 -21 10 0
129 20 264 44 l245 43 181 -128 c100 -71 188 -129 195 -129 8 1 57 65 109 143
100 149 478 707 1171 1729 l419 617 0 146 c0 80 -3 145 -7 144 -5 0 -57 -18
-118 -39z"/>
<path d="M12698 8053 c-17 -4 -130 -133 -703 -801 l-260 -302 -399 -278 c-220
-152 -414 -289 -431 -304 -29 -26 -29 -27 -7 -28 12 0 86 9 165 20 78 10 250
26 382 35 406 26 675 44 1040 70 193 13 429 29 525 35 96 6 243 18 325 26 83
7 211 19 285 25 74 7 143 15 153 18 14 5 -22 60 -208 315 l-225 309 -182 149
c-101 82 -190 157 -198 167 -9 10 -61 138 -115 285 -72 191 -104 266 -115 265
-8 -1 -23 -3 -32 -6z"/>
<path d="M6610 7535 c-10 -12 5 -47 80 -191 87 -168 92 -180 86 -223 -3 -25
-53 -301 -111 -612 -58 -311 -105 -575 -105 -586 0 -10 12 -31 28 -45 30 -28
-28 -18 742 -133 168 -25 316 -47 330 -49 16 -3 101 31 240 94 118 53 301 136
405 183 793 357 755 339 784 371 14 14 23 27 20 29 -2 2 -116 63 -254 137
-137 73 -434 232 -660 353 -225 121 -430 230 -455 242 -49 26 -1095 445 -1109
445 -5 0 -14 -7 -21 -15z"/>
<path d="M36 7203 c28 -37 1464 -1884 1470 -1892 18 -21 308 -52 1464 -156
151 -14 420 -38 596 -55 177 -16 395 -33 484 -37 l163 -6 -109 105 c-60 58
-356 331 -659 608 -302 277 -637 585 -744 684 -106 100 -230 215 -275 256
l-82 76 -104 21 c-225 47 -698 145 -955 198 -148 30 -344 71 -435 90 -575 121
-704 145 -771 145 l-71 0 28 -37z"/>
<path d="M13035 6380 c-143 -21 -476 -68 -741 -105 l-480 -68 -259 -131 -259
-131 -43 -100 -44 -100 -229 -130 c-127 -71 -230 -133 -230 -136 0 -3 8 -13
18 -22 15 -14 111 -17 862 -26 465 -6 933 -13 1041 -16 l195 -6 195 256 c107
141 236 311 286 378 89 116 93 124 93 173 0 45 -5 57 -57 127 -31 42 -64 77
-73 76 -8 0 -132 -18 -275 -39z"/>
<path d="M3790 6135 c-10 -12 -6 -26 23 -77 70 -127 329 -573 337 -581 8 -9
387 -119 782 -227 123 -34 231 -67 241 -73 9 -7 50 -68 90 -136 l73 -124 348
-178 c318 -162 352 -178 406 -181 l60 -3 197 295 198 295 195 153 c107 85 204
160 215 168 51 37 30 42 -1055 254 -569 111 -1264 253 -1544 316 -280 63 -519
114 -532 114 -12 0 -27 -7 -34 -15z"/>
<path d="M8420 5459 c-190 -232 -349 -430 -354 -440 -6 -12 18 -65 95 -205 56
-104 141 -261 189 -349 70 -130 163 -268 499 -737 226 -318 416 -578 421 -578
12 0 17 25 25 120 3 41 14 167 25 280 34 359 59 642 66 740 l6 95 -107 280
c-59 154 -146 381 -193 505 -281 737 -267 705 -299 708 -27 3 -52 -26 -373
-419z"/>
<path d="M13453 5302 c-306 -182 -436 -265 -448 -285 -9 -16 -15 -30 -13 -33
5 -5 150 -48 618 -184 173 -50 428 -126 565 -167 138 -42 284 -86 325 -98 41
-13 171 -53 288 -89 117 -37 228 -68 247 -69 32 -2 40 6 194 193 l160 195 1
328 c0 180 -2 327 -5 327 -3 0 -76 11 -163 24 -86 14 -305 37 -487 51 -181 14
-437 35 -567 45 -130 11 -247 20 -260 20 -13 0 -217 -116 -455 -258z"/>
<path d="M9828 5477 l-77 -33 -188 -263 c-103 -145 -187 -269 -185 -275 1 -6
55 -152 119 -324 112 -303 117 -313 134 -295 17 16 59 148 189 588 46 155 174
581 184 613 7 21 5 22 -46 22 -36 -1 -77 -11 -130 -33z"/>
<path d="M10422 5382 c2 -4 40 -71 86 -149 74 -126 93 -149 180 -230 l97 -89
495 -128 c272 -70 547 -142 611 -159 l116 -32 239 -255 c131 -140 275 -291
319 -337 l80 -83 425 -100 c234 -56 508 -121 610 -145 539 -129 697 -166 820
-195 74 -18 197 -47 272 -66 203 -50 209 -50 461 52 365 148 407 166 407 179
0 6 -5 25 -10 41 -9 24 -27 36 -108 71 -53 23 -290 126 -527 229 -236 102
-479 208 -540 234 -150 66 -1251 544 -1675 727 l-345 150 -520 72 c-936 131
-1283 181 -1387 201 -120 23 -111 22 -106 12z"/>
<path d="M10071 5108 c-11 -37 -50 -185 -141 -543 -34 -132 -83 -325 -110
-430 -27 -104 -74 -289 -105 -410 -31 -121 -74 -290 -97 -375 -22 -85 -50
-197 -63 -249 l-23 -93 93 -312 c51 -171 136 -457 190 -636 107 -361 245 -823
307 -1030 39 -132 89 -235 318 -665 21 -38 70 -133 110 -210 40 -77 75 -142
77 -144 2 -3 10 2 17 10 13 12 12 38 -4 184 -11 94 -39 359 -64 590 -53 493
-119 1107 -181 1680 -24 226 -65 601 -90 835 -168 1563 -195 1812 -201 1822
-10 16 -23 7 -33 -24z"/>
<path d="M7220 4752 c-162 -98 -358 -217 -435 -264 -804 -490 -757 -463 -850
-488 -44 -12 -213 -59 -375 -105 -162 -46 -401 -114 -530 -150 -129 -37 -239
-71 -244 -76 -28 -27 19 -58 415 -273 222 -121 442 -241 489 -267 47 -26 359
-196 694 -378 l609 -332 70 3 71 3 533 680 533 680 0 265 0 265 -262 241
c-297 272 -410 374 -418 374 -3 0 -138 -80 -300 -178z"/>
<path d="M10360 4765 c0 -8 16 -185 35 -393 35 -386 101 -1104 136 -1497 11
-121 23 -282 28 -358 4 -75 11 -140 14 -143 10 -10 113 63 458 326 l342 260
65 0 c52 0 139 -20 416 -96 193 -53 398 -109 456 -124 58 -16 270 -74 473
-129 258 -71 383 -101 422 -101 l55 0 0 200 0 200 -162 324 -162 324 -105 44
c-79 34 -201 68 -486 138 l-380 93 -135 82 c-74 46 -270 165 -435 265 -165
101 -448 277 -628 391 -284 180 -334 209 -368 209 -28 0 -39 -4 -39 -15z"/>
<path d="M8423 3748 c-26 -28 -227 -333 -1168 -1773 -211 -324 -245 -376 -245
-384 0 -22 58 -53 180 -99 133 -49 455 -170 1535 -577 303 -114 591 -223 640
-241 50 -19 105 -34 123 -34 l32 0 0 123 c0 68 -9 211 -20 318 -10 107 -31
318 -45 469 -14 151 -39 408 -55 570 -16 162 -32 333 -36 380 -4 47 -10 93
-13 102 -3 9 -55 52 -116 96 l-110 80 -330 501 c-181 275 -332 501 -336 501
-3 0 -19 -15 -36 -32z"/>
<path d="M13260 3453 c-14 -3 -28 -8 -33 -12 -4 -4 15 -57 42 -117 27 -60 83
-185 124 -279 41 -93 100 -228 132 -300 31 -71 98 -222 147 -335 50 -113 93
-208 97 -212 3 -4 20 2 37 13 29 18 33 27 49 117 9 53 22 124 29 156 l12 60
462 330 c354 253 459 333 445 338 -10 4 -238 44 -508 89 -269 44 -592 99 -718
120 -218 37 -262 42 -317 32z"/>
<path d="M11620 2530 l-94 -160 -343 0 c-268 0 -343 -3 -343 -12 0 -7 9 -42
20 -77 19 -60 40 -180 190 -1116 33 -203 72 -445 87 -537 l27 -168 43 0 c33 0
63 11 121 44 42 24 214 120 382 213 304 170 471 263 859 480 174 98 216 117
280 129 108 21 867 162 1290 239 174 32 326 70 344 85 5 4 -4 12 -20 18 -15 5
-635 238 -1376 516 -742 278 -1354 506 -1360 506 -7 0 -55 -72 -107 -160z"/>
</g>
</svg>
