<?xml version="1.0" standalone="no"?>
<!DOCTYPE svg PUBLIC "-//W3C//DTD SVG 20010904//EN"
 "http://www.w3.org/TR/2001/REC-SVG-20010904/DTD/svg10.dtd">
<svg version="1.0" xmlns="http://www.w3.org/2000/svg"
 width="1280.000000pt" height="1201.000000pt" viewBox="0 0 1280.000000 1201.000000"
 preserveAspectRatio="xMidYMid meet">

<g transform="translate(0.000000,1201.000000) scale(0.100000,-0.100000)"
fill="#000000" stroke="none">
<path d="M3620 10228 c-316 -220 -581 -403 -588 -407 -10 -5 12 -394 103
-1871 63 -1025 119 -1867 123 -1871 4 -4 279 -147 612 -319 859 -443 920 -474
1069 -553 74 -38 132 -66 129 -61 -3 5 -49 83 -103 174 -627 1056 -971 2077
-1057 3135 -15 194 -15 697 1 890 15 189 45 428 77 615 47 277 94 436 173 586
22 43 39 79 38 80 -1 1 -261 -178 -577 -398z"/>
<path d="M9845 3090 c-151 -31 -267 -117 -323 -239 -22 -46 -26 -71 -26 -136
0 -93 27 -165 88 -233 209 -231 636 -184 772 85 26 51 29 68 29 148 0 78 -4
98 -28 146 -33 67 -113 147 -187 184 -93 47 -225 65 -325 45z"/>
<path d="M11426 2195 c-142 -20 -265 -57 -385 -116 -88 -43 -117 -64 -186
-133 -92 -92 -127 -151 -155 -262 -36 -140 -19 -307 45 -442 64 -135 202 -252
363 -308 103 -36 188 -51 387 -69 214 -19 519 -53 558 -61 l28 -6 -7 -146 c-4
-81 -10 -151 -14 -155 -7 -8 -608 -32 -616 -25 -2 3 -10 55 -16 117 l-12 111
-400 -2 -401 -3 3 -45 c8 -141 58 -247 172 -360 67 -68 104 -95 175 -132 237
-121 485 -163 860 -146 526 24 862 219 950 553 24 91 22 253 -5 340 -41 132
-127 248 -239 324 -152 103 -224 121 -663 166 -367 37 -477 50 -485 59 -10 10
-18 249 -8 252 15 4 647 26 650 22 2 -2 7 -50 11 -106 4 -56 11 -105 16 -108
5 -4 176 -3 380 1 l370 8 -6 63 c-16 152 -95 301 -209 395 -115 94 -292 165
-507 204 -131 24 -517 30 -654 10z"/>
<path d="M1255 2176 c-179 -29 -296 -86 -410 -201 -45 -44 -99 -109 -120 -144
l-40 -65 -3 192 -2 192 -340 0 -340 0 0 -1050 0 -1050 350 0 350 0 0 48 c1 81
67 1353 71 1356 7 6 692 76 696 72 2 -2 -1 -260 -6 -572 -6 -313 -11 -644 -11
-736 l0 -168 370 0 370 0 0 700 c0 552 3 701 13 705 18 6 726 39 731 34 2 -2
20 -317 40 -699 21 -382 39 -705 42 -717 l4 -23 371 0 370 0 -6 102 c-3 57
-12 333 -20 613 -17 606 -22 691 -41 815 -17 108 -63 254 -101 320 -40 68
-137 164 -201 198 -207 109 -558 121 -808 27 -142 -53 -289 -167 -385 -296
l-52 -69 -60 88 c-124 177 -246 269 -414 313 -100 26 -306 34 -418 15z"/>
<path d="M4795 2179 c-426 -53 -695 -326 -781 -790 -24 -131 -25 -458 -1 -585
45 -243 130 -417 269 -550 181 -173 420 -253 728 -241 160 6 264 32 401 103
134 70 276 187 341 284 16 24 17 17 17 -162 l1 -188 365 0 365 0 0 1050 0
1050 -365 0 -365 0 0 -192 0 -193 -37 55 c-178 267 -545 408 -938 359z m486
-694 c229 -14 433 -25 453 -25 l36 0 0 -379 0 -379 -62 -6 c-53 -5 -885 -37
-940 -36 -17 0 -18 27 -18 429 l0 429 58 -4 c31 -3 244 -16 473 -29z"/>
<path d="M6810 2144 c0 -4 646 -898 736 -1019 l23 -31 -394 -518 c-217 -285
-395 -520 -395 -522 0 -2 186 -4 413 -4 l412 0 110 173 c60 94 151 240 201
324 65 108 95 149 102 140 5 -7 29 -46 52 -87 24 -41 115 -182 202 -312 l158
-238 416 0 c332 0 414 3 407 13 -35 46 -723 1026 -723 1031 0 3 171 239 380
525 209 286 380 522 380 525 0 3 -187 6 -415 6 l-415 0 -145 -220 c-79 -121
-170 -265 -202 -320 -32 -55 -60 -100 -63 -100 -3 0 -27 37 -54 83 -27 45
-115 189 -195 319 l-146 238 -422 0 c-233 0 -423 -3 -423 -6z"/>
<path d="M9570 1100 l0 -1050 375 0 375 0 -2 1048 -3 1047 -372 3 -373 2 0
-1050z"/>
</g>
</svg>
