<?xml version="1.0" encoding="UTF-8"?>
<svg version="1.1" xmlns="http://www.w3.org/2000/svg" width="2000" height="357">
<path d="M0 0 C0.97163086 0.35868164 0.97163086 0.35868164 1.96289062 0.72460938 C18.7176253 6.92593363 34.1250329 15.74368867 48 27 C48.51143555 27.40605469 49.02287109 27.81210937 49.54980469 28.23046875 C55.22044625 32.73372717 60.61239802 37.27986402 65.23046875 42.88671875 C68.08916536 46.30074715 71.2046727 49.48169359 74.27734375 52.703125 C76.88752642 55.66277363 78.99643849 58.9175418 81.17016602 62.20605469 C82.24706444 63.83205597 82.24706444 63.83205597 83.34571838 65.49090576 C83.89163132 66.31890686 84.43754425 67.14690796 85 68 C85.01030746 67.12525528 85.02061493 66.25051056 85.03123474 65.34925842 C85.1290351 57.12317642 85.23152413 48.89716928 85.33933926 40.6712122 C85.39460687 36.44172386 85.44803285 32.21222867 85.49731445 27.98266602 C85.54490159 23.90425337 85.59724208 19.82592738 85.65294075 15.74761772 C85.67339 14.18824852 85.69209875 12.62885554 85.70907402 11.06944466 C85.73306144 8.8926441 85.76312319 6.71600876 85.79467773 4.53930664 C85.81022202 3.29798477 85.8257663 2.0566629 85.84178162 0.77772522 C86 -2 86 -2 87 -3 C89.02494622 -3.09676414 91.05332542 -3.12186986 93.08058167 -3.12025452 C93.72255381 -3.12110894 94.36452596 -3.12196337 95.0259518 -3.12284368 C97.19254054 -3.12450021 99.35905307 -3.11897433 101.52563477 -3.11352539 C103.07256061 -3.11324353 104.61948659 -3.11340123 106.16641235 -3.1139679 C110.37904032 -3.11425592 114.59164006 -3.10835849 118.80426145 -3.10139394 C123.20185788 -3.09516112 127.59945489 -3.09455666 131.99705505 -3.09336853 C140.33040513 -3.090255 148.66374215 -3.08204132 156.99708647 -3.07201904 C166.48181254 -3.06085857 175.96653922 -3.05534762 185.45127022 -3.05032361 C204.96752089 -3.03985873 224.4837594 -3.02225887 244 -3 C245.51703262 0.80239742 247.02839987 4.60699596 248.53491211 8.41357422 C249.04644116 9.70388016 249.55942214 10.99361161 250.07397461 12.28271484 C253.05850636 19.76293365 255.87898493 27.22180991 258 35 C258.66 35 259.32 35 260 35 C260.11214844 34.13955078 260.11214844 34.13955078 260.2265625 33.26171875 C261.36761606 25.88961782 263.46972299 18.97082936 265.79150391 11.90307617 C266.04593262 11.12681885 266.30036133 10.35056152 266.5625 9.55078125 C266.79066406 8.86669189 267.01882813 8.18260254 267.25390625 7.4777832 C267.91696625 5.27575574 268.49335819 3.07660375 269.04663086 0.84513855 C269.36124268 -0.42375717 269.67585449 -1.69265289 270 -3 C291.10490368 -3.02332704 312.20980525 -3.04097821 333.3147192 -3.05181217 C343.11338163 -3.05697554 352.91203606 -3.06401902 362.71069336 -3.07543945 C371.24798655 -3.08538503 379.78527395 -3.09185313 388.32257277 -3.09408849 C392.84589928 -3.09539582 397.36920922 -3.09848302 401.89253044 -3.10573006 C406.14497932 -3.11248829 410.39740473 -3.11461737 414.64985847 -3.11310768 C416.21523287 -3.1133841 417.78060801 -3.11539039 419.34597778 -3.11920547 C421.47388093 -3.12413967 423.60169401 -3.12299933 425.729599 -3.12025452 C426.92332091 -3.12117631 428.11704283 -3.1220981 429.34693813 -3.12304783 C432 -3 432 -3 433 -2 C433.09439978 0.26991887 433.11742226 2.54281967 433.11352539 4.81469727 C433.11367142 5.52685394 433.11381744 6.23901062 433.1139679 6.9727478 C433.1132687 9.33733112 433.10547606 11.70183661 433.09765625 14.06640625 C433.09579209 15.70165463 433.09436818 17.33690357 433.09336853 18.97215271 C433.08954318 23.28434785 433.07971275 27.59650952 433.06866455 31.90869141 C433.0584508 36.30565946 433.05387099 40.70263289 433.04882812 45.09960938 C433.03809049 53.73308831 433.02101387 62.36654 433 71 C432.22914062 71.36351563 431.45828125 71.72703125 430.6640625 72.1015625 C429.66117188 72.60429688 428.65828125 73.10703125 427.625 73.625 C426.62726563 74.11226563 425.62953125 74.59953125 424.6015625 75.1015625 C421.30405983 77.50784823 420.81598338 79.03830462 420 83 C419.2083279 92.97702804 420.40462009 102.69380464 422.01953125 112.53515625 C422.23711126 113.91495027 422.45364164 115.29491014 422.66921997 116.67501831 C423.24967013 120.37244433 423.84405 124.0674971 424.44163132 127.76218796 C425.06870045 131.6515826 425.6844132 135.54277417 426.30102539 139.43383789 C427.07250069 144.29837789 427.84519816 149.16270923 428.62345886 154.02616882 C430.35288003 164.84379922 432.02746759 175.66873916 433.66615486 186.5004673 C434.39706645 191.32307212 435.13557112 196.14452048 435.87402248 200.96597576 C436.46369056 204.81982519 437.04886721 208.67424632 437.62393188 212.53030396 C438.16409637 216.15045829 438.71712273 219.76842309 439.27965927 223.38516617 C439.5792561 225.33349064 439.86521317 227.28389746 440.15066528 229.23434448 C441.20525353 235.93512612 442.66523322 241.09427111 446 247 C446 247.66 446 248.32 446 249 C450.64676167 251.52549385 450.64676167 251.52549385 459 253 C459 280.72 459 308.44 459 337 C404.88 337 350.76 337 295 337 C295 316.54 295 296.08 295 275 C265.3 275 235.6 275 205 275 C205 295.46 205 315.92 205 337 C154.51 337 104.02 337 52 337 C51.67 324.46 51.34 311.92 51 299 C43.575 304.445 43.575 304.445 36 310 C23.20545792 318.06378702 9.96173129 325.15369187 -4 331 C-4.72574219 331.31324219 -5.45148438 331.62648438 -6.19921875 331.94921875 C-28.03025541 341.07856135 -50.71539626 345.43812199 -74.3125 345.375 C-75.14970581 345.3737915 -75.98691162 345.37258301 -76.8494873 345.37133789 C-128.296925 345.17045746 -173.55539717 323.81349013 -213 292 C-213.95519531 291.27683594 -214.91039062 290.55367188 -215.89453125 289.80859375 C-216.58933594 289.21175781 -217.28414062 288.61492187 -218 288 C-218 287.34 -218 286.68 -218 286 C-218.61875 285.71125 -219.2375 285.4225 -219.875 285.125 C-222 284 -222 284 -224 282 C-224.33 300.15 -224.66 318.3 -225 337 C-240.34808301 337.06024982 -255.69584133 337.1204947 -271.04394913 337.1507616 C-279.2887934 337.16727509 -287.53354492 337.18811324 -295.77832031 337.22631836 C-302.3143856 337.25659064 -308.85038036 337.27566075 -315.38651383 337.28226548 C-318.83481042 337.28611511 -322.28290555 337.29490017 -325.73113632 337.31719017 C-375.39800268 337.60188897 -430.28975928 327.85333786 -469 294 C-470.52010808 292.85320469 -472.0409847 291.70742762 -473.5625 290.5625 C-505.4031003 264.93959172 -524.40382616 229.57167043 -536 191 C-536.48001465 191.444646 -536.9600293 191.88929199 -537.45458984 192.34741211 C-547.78662053 201.8279018 -559.91008651 209.01278381 -572 216 C-573.05429199 216.61343262 -573.05429199 216.61343262 -574.12988281 217.23925781 C-591.38037057 227.22962054 -609.07558657 234.77816916 -628 241 C-629.13526123 241.37366699 -629.13526123 241.37366699 -630.29345703 241.75488281 C-637.79688376 244.20464308 -645.26285026 246.3992104 -653 248 C-653.99 248.495 -653.99 248.495 -655 249 C-655.53765518 253.96567797 -655.53765518 253.96567797 -653.25 258.1875 C-648.49885364 260.83717778 -643.16088807 262.27970398 -638 264 C-638 288.09 -638 312.18 -638 337 C-695.51664201 337.05075705 -753.03328374 337.09914971 -810.54994202 337.12702942 C-811.40220128 337.12744359 -812.25446054 337.12785776 -813.13254584 337.12828448 C-831.65769855 337.13726474 -850.18285151 337.14557506 -868.70800483 337.15319599 C-877.79369924 337.15693776 -886.87939358 337.16082745 -895.96508789 337.16479492 C-896.86918843 337.1651872 -897.77328897 337.16557948 -898.70478649 337.16598364 C-927.97064966 337.17875096 -957.23649536 337.20127236 -986.50234796 337.22889166 C-1016.59521021 337.25723963 -1046.68806281 337.27566795 -1076.78093819 337.28174497 C-1081.03848907 337.28260934 -1085.29603993 337.28358625 -1089.55359077 337.28463173 C-1090.81042092 337.28493513 -1090.81042092 337.28493513 -1092.09264158 337.28524467 C-1105.54054404 337.28877972 -1118.98841651 337.3026665 -1132.43630678 337.3204961 C-1145.98005357 337.33822927 -1159.52377086 337.34488616 -1173.06752884 337.34050413 C-1181.09851109 337.33823509 -1189.12938476 337.34419093 -1197.16034726 337.36239263 C-1203.18305685 337.37510085 -1209.20565255 337.37181228 -1215.228373 337.36269668 C-1217.64603219 337.36144073 -1220.06370088 337.36514402 -1222.48134171 337.37464955 C-1245.80905349 337.46094538 -1268.50123067 335.38069937 -1291 329 C-1292.25876953 328.64494385 -1292.25876953 328.64494385 -1293.54296875 328.28271484 C-1340.72978355 314.59817725 -1383.17582096 283.66059245 -1407.34741211 240.53979492 C-1411.8502172 232.18550433 -1415.46090357 223.67684991 -1418.5 214.6875 C-1418.81420898 213.7586499 -1419.12841797 212.8297998 -1419.45214844 211.87280273 C-1424.40402431 196.3297159 -1425.54310399 181.5666933 -1425.4375 165.375 C-1425.43479095 164.40332886 -1425.43208191 163.43165771 -1425.42929077 162.43054199 C-1425.36947029 148.30009891 -1424.8589661 134.67980048 -1421 121 C-1420.80744629 120.28682617 -1420.61489258 119.57365234 -1420.41650391 118.83886719 C-1419.129962 114.15486583 -1417.61760737 109.5785117 -1416 105 C-1415.78118164 104.35401855 -1415.56236328 103.70803711 -1415.33691406 103.04248047 C-1408.11070593 81.73617885 -1396.60415259 62.55910678 -1381.10546875 46.22265625 C-1379.42468144 44.44831863 -1377.88253449 42.66822495 -1376.375 40.75 C-1364.06589876 26.49735646 -1346.78843583 16.04247832 -1330 8 C-1328.71029297 7.35224609 -1328.71029297 7.35224609 -1327.39453125 6.69140625 C-1302.32212716 -5.46611878 -1274.52394543 -10.18799566 -1246.88916016 -10.18530273 C-1244.40118982 -10.18747711 -1241.91367286 -10.20565354 -1239.42578125 -10.22460938 C-1225.5876864 -10.27452236 -1212.17278536 -9.12393085 -1198.6875 -5.8125 C-1197.3722937 -5.49212769 -1197.3722937 -5.49212769 -1196.03051758 -5.1652832 C-1171.23334021 1.11809391 -1148.56820479 12.52151176 -1129 29 C-1127.83260892 29.95903693 -1126.6645996 30.91732164 -1125.49609375 31.875 C-1124.28845065 32.87426102 -1123.08141443 33.87425595 -1121.875 34.875 C-1121.29355225 35.35179199 -1120.71210449 35.82858398 -1120.11303711 36.31982422 C-1118.70365635 37.50226899 -1117.34647205 38.74638809 -1116 40 C-1116 40.66 -1116 41.32 -1116 42 C-1115.34 42 -1114.68 42 -1114 42 C-1111.45233872 44.46503443 -1109.26086493 47.2727484 -1107 50 C-1106.35417969 50.77085938 -1105.70835937 51.54171875 -1105.04296875 52.3359375 C-1094.51698699 65.16642415 -1094.51698699 65.16642415 -1091 72 C-1091.39064682 75.38631347 -1092.70453219 77.09908446 -1095.03515625 79.51171875 C-1095.67130859 80.17816406 -1096.30746094 80.84460938 -1096.96289062 81.53125 C-1098.00219727 82.59859375 -1098.00219727 82.59859375 -1099.0625 83.6875 C-1100.53274436 85.2224721 -1102.00279105 86.75763357 -1103.47265625 88.29296875 C-1104.22691895 89.07591309 -1104.98118164 89.85885742 -1105.75830078 90.66552734 C-1109.20065734 94.25034693 -1112.59922102 97.87579676 -1116 101.5 C-1117.3266408 102.90902565 -1118.65346458 104.31787905 -1119.98046875 105.7265625 C-1122.71696187 108.63362657 -1125.44803635 111.54566411 -1128.17578125 114.4609375 C-1134.05979126 120.74269306 -1139.93773853 127.01390915 -1146.0625 133.0625 C-1149.59485375 136.55286441 -1152.90538789 140.12939734 -1156.125 143.90625 C-1158.93186167 147.04057887 -1161.94372725 149.96486867 -1164.93774414 152.91821289 C-1168.31150415 156.26393126 -1171.47783869 159.72871381 -1174.5625 163.33984375 C-1176.28180643 165.3254558 -1178.10564999 167.18142399 -1180 169 C-1183.56100752 167.69303866 -1186.51517133 166.13466994 -1189.6328125 163.98046875 C-1190.51195312 163.37678467 -1191.39109375 162.77310059 -1192.296875 162.15112305 C-1193.23015625 161.50312744 -1194.1634375 160.85513184 -1195.125 160.1875 C-1197.10676166 158.82290334 -1199.08853266 157.45832025 -1201.0703125 156.09375 C-1202.06450195 155.40667969 -1203.05869141 154.71960938 -1204.08300781 154.01171875 C-1207.58723064 151.59501335 -1211.1054622 149.19937763 -1214.62524414 146.80541992 C-1217.69894139 144.71131159 -1220.76390849 142.60470467 -1223.82666016 140.49462891 C-1225.27461725 139.49885343 -1226.72481704 138.50633116 -1228.17724609 137.51708984 C-1230.18756838 136.14609922 -1232.18857776 134.76253878 -1234.1875 133.375 C-1235.07985352 132.7720813 -1235.07985352 132.7720813 -1235.99023438 132.15698242 C-1237.60546875 131.0234375 -1237.60546875 131.0234375 -1240 129 C-1240 125.39543833 -1239.11319598 124.3951002 -1237.0625 121.5 C-1233.22339287 116.05445797 -1232.19706536 111.6044201 -1233 105 C-1235.36403566 100.18100424 -1238.22324894 97.43520642 -1243 95 C-1251.63424975 93.67165388 -1259.96946077 98.39495815 -1266.83984375 103.25390625 C-1277.73907939 112.06395748 -1284.9105078 125.59623673 -1286.6875 139.5 C-1286.81087911 140.99854206 -1286.91557172 142.49875966 -1287 144 C-1287.04125 144.66128906 -1287.0825 145.32257813 -1287.125 146.00390625 C-1287.50783112 158.61340641 -1284.96631466 171.10105602 -1281 183 C-1280.70222656 183.89332031 -1280.40445312 184.78664062 -1280.09765625 185.70703125 C-1273.81406584 202.83183773 -1261.75795046 215.41980334 -1245.5 223.375 C-1233.04328935 228.77437517 -1218.6716723 230.17008757 -1205.59375 226.03515625 C-1197.38334788 222.75841444 -1191.16508311 218.18515075 -1186 211 C-1185.77329117 210.35719589 -1185.54658234 209.71439178 -1185.31300354 209.05210876 C-1184.1877865 206.38247767 -1183.2159265 204.89477606 -1181 203 C-1175.62231505 201.81253307 -1170.26769393 202.04514777 -1164.796875 202.18359375 C-1163.1921814 202.19598427 -1161.58745824 202.20497388 -1159.98272705 202.21070862 C-1155.76698849 202.23553361 -1151.55343651 202.30925409 -1147.33850098 202.39239502 C-1143.88775111 202.4525248 -1140.43713383 202.47890754 -1136.98597336 202.50337124 C-1129.8714758 202.55393714 -1122.75701453 202.62638076 -1115.64355469 202.75952148 C-1114.38178406 202.78143051 -1113.12001343 202.80333954 -1111.82000732 202.82591248 C-1109 203 -1109 203 -1108 204 C-1107.8774645 205.53382679 -1107.82222062 207.07310519 -1107.79467773 208.61157227 C-1107.77473251 209.59251358 -1107.75478729 210.5734549 -1107.73423767 211.5841217 C-1107.70916893 213.18410255 -1107.70916893 213.18410255 -1107.68359375 214.81640625 C-1107.66281265 215.9025975 -1107.64203156 216.98878876 -1107.62062073 218.1078949 C-1107.55500558 221.59269627 -1107.49618489 225.07757568 -1107.4375 228.5625 C-1107.39432615 230.91862801 -1107.35071224 233.27474799 -1107.30664062 235.63085938 C-1107.19931208 241.42048937 -1107.09756835 247.21019775 -1107 253 C-1106.42668945 251.48369995 -1106.42668945 251.48369995 -1105.84179688 249.93676758 C-1104.38079443 246.07289948 -1102.91944538 242.20916253 -1101.45800781 238.34545898 C-1100.83356888 236.69445135 -1100.20921572 235.04341126 -1099.58496094 233.39233398 C-1096.42574194 225.03676206 -1093.26255892 216.68280892 -1090.0765686 208.33740234 C-1085.76317346 197.03734619 -1081.51118274 185.71494273 -1077.27459717 174.38589478 C-1070.93478551 157.43670199 -1064.55220896 140.50743673 -1058.01757812 123.63232422 C-1052.65404856 109.75766593 -1047.43022939 95.8302769 -1042.21356201 81.89993286 C-1038.15270617 71.05688704 -1034.05833355 60.22723233 -1029.92236328 49.41259766 C-1023.2479461 31.95452709 -1016.62863328 14.47548774 -1010 -3 C-971.39 -3 -932.78 -3 -893 -3 C-887.26066824 10.77439623 -887.26066824 10.77439623 -884.65234375 17.61328125 C-884.35915253 18.37754929 -884.0659613 19.14181732 -883.7638855 19.929245 C-883.14145807 21.55223574 -882.51978512 23.17551602 -881.89883423 24.79907227 C-880.57728322 28.25429404 -879.25185798 31.70802556 -877.92662048 35.16183472 C-877.25201399 36.9200061 -876.57758545 38.67824578 -875.90333557 40.43655396 C-872.88851598 48.29703991 -869.85467754 56.15006822 -866.8125 64 C-866.31965905 65.2720531 -865.82682051 66.54410714 -865.33398438 67.81616211 C-864.60313823 69.70237174 -863.8722285 71.58855666 -863.14117432 73.47468567 C-861.5120265 77.6779105 -859.88445612 81.88174296 -858.2578125 86.0859375 C-853.69262231 97.88480497 -849.12407775 109.6823489 -844.546875 121.4765625 C-842.92697539 125.65099979 -841.30718817 129.82548067 -839.6875 134 C-839.28073029 135.04837036 -838.87396057 136.09674072 -838.4548645 137.17687988 C-832.90460896 151.48388753 -827.37655697 165.79919872 -821.875 180.125 C-816.92823989 193.00478048 -811.96313715 205.87633392 -806.89501953 218.70898438 C-806.03556907 220.90895248 -805.19972712 223.11639379 -804.37109375 225.328125 C-800.9419358 234.3832109 -797.02582177 243.14948665 -790 250 C-789.95329297 228.70341967 -789.91801751 207.40684778 -789.89637566 186.11022663 C-789.88606018 176.22198589 -789.87199464 166.33377696 -789.84912109 156.44555664 C-789.82919555 147.82765325 -789.81628554 139.2097729 -789.81182301 130.59184712 C-789.80921422 126.02812962 -789.80307675 121.46447803 -789.78853989 116.90078163 C-789.7749692 112.60562157 -789.77077633 108.3105546 -789.77378464 104.01537514 C-789.77323425 102.43877659 -789.76925373 100.86217495 -789.76158905 99.28559494 C-789.75163576 97.13273118 -789.7540324 94.98021872 -789.75949097 92.8273468 C-789.75764738 91.62256337 -789.75580379 90.41777994 -789.75390434 89.17648792 C-790.07153388 85.07667404 -790.80271658 82.14804449 -793.8046875 79.26953125 C-794.82949219 78.54830078 -794.82949219 78.54830078 -795.875 77.8125 C-796.55304687 77.32394531 -797.23109375 76.83539063 -797.9296875 76.33203125 C-800.25983892 74.78019639 -800.25983892 74.78019639 -804 73 C-804 47.92 -804 22.84 -804 -3 C-762.83716772 -3.04030303 -762.83716772 -3.04030303 -745.453125 -3.04882812 C-733.49804246 -3.05473832 -721.54296702 -3.06164739 -709.58789062 -3.07543945 C-700.87714714 -3.08548378 -692.16640946 -3.09187634 -683.45566034 -3.09408849 C-678.85391169 -3.09537924 -674.25217966 -3.09835919 -669.6504364 -3.10573006 C-575.38388909 -3.25067293 -575.38388909 -3.25067293 -545 20 C-544.22527344 20.59167969 -543.45054687 21.18335938 -542.65234375 21.79296875 C-532.38866315 30.28267986 -524.91810251 41.71185295 -517.97265625 52.94140625 C-516.13470693 55.79113757 -514.16771702 58.39582989 -512 61 C-510.27054511 58.95857689 -508.54142952 56.91686798 -506.8125 54.875 C-506.32974609 54.30523437 -505.84699219 53.73546875 -505.34960938 53.1484375 C-504.86943359 52.58125 -504.38925781 52.0140625 -503.89453125 51.4296875 C-503.17257568 50.58035645 -503.17257568 50.58035645 -502.43603516 49.71386719 C-501.47338922 48.56497659 -500.52516156 47.40385968 -499.59130859 46.23144531 C-498.43525799 44.78712502 -497.22211654 43.38886474 -496 42 C-495.34 42 -494.68 42 -494 42 C-493.64421875 41.14728516 -493.64421875 41.14728516 -493.28125 40.27734375 C-480.89056076 18.25364916 -443.74139574 2.39673318 -420.74902344 -4.23852539 C-415.10699262 -5.78837377 -409.41816 -7.07350689 -403.6875 -8.25 C-402.50679932 -8.49484131 -402.50679932 -8.49484131 -401.30224609 -8.74462891 C-355.14799691 -17.73795532 -301.77220916 -9.29871204 -262.16088867 16.36035156 C-255.29457364 20.98959269 -249.10603418 26.42457577 -243 32 C-242.23945312 32.68835937 -241.47890625 33.37671875 -240.6953125 34.0859375 C-234.72386219 39.76960707 -229.90635973 46.4045656 -225 53 C-224.04867188 52.22398438 -223.09734375 51.44796875 -222.1171875 50.6484375 C-221.58206543 50.21192871 -221.04694336 49.77541992 -220.49560547 49.32568359 C-218.82899682 47.92691521 -218.82899682 47.92691521 -217.125 45.625 C-207.6491008 33.91947746 -192.97077644 24.3052231 -180 17 C-178.97011963 16.41436279 -178.97011963 16.41436279 -177.91943359 15.81689453 C-125.54269335 -13.68317843 -56.6940148 -21.92168572 0 0 Z " fill="#0D4DA1" transform="translate(1425,12)"/>
<path d="M0 0 C1.21488602 -0.00160126 1.21488602 -0.00160126 2.45431519 -0.00323486 C16.8736953 0.02405812 30.29693236 1.66269688 44.25 5.4375 C45.14976562 5.66743652 46.04953125 5.89737305 46.9765625 6.13427734 C58.86475848 9.19514121 69.52527491 13.49631421 80.25 19.4375 C81.78140625 20.25154297 81.78140625 20.25154297 83.34375 21.08203125 C115.09133834 38.62001352 139.59169451 67.5245683 150.4375 102.23828125 C157.76299034 128.43344985 158.37377323 158.48700998 150.25 184.4375 C149.80916835 185.98640297 149.37034513 187.53587905 148.93359375 189.0859375 C138.11215845 225.87016981 109.32151858 255.34165495 76.33618164 273.45678711 C39.69358119 292.62868857 -9.25887066 296.67308327 -48.75 284.4375 C-49.43513672 284.22609375 -50.12027344 284.0146875 -50.82617188 283.796875 C-87.88679117 272.08993924 -119.81564097 247.67356275 -138.75 213.4375 C-156.45155745 178.73417713 -162.01423084 138.02082786 -150.2421875 100.46875 C-143.04968023 79.03906345 -131.24976431 61.70772043 -115.75 45.4375 C-115.03328125 44.65632813 -114.3165625 43.87515625 -113.578125 43.0703125 C-93.58818634 21.95312166 -62.55832707 6.80639454 -33.83032227 2.8762207 C-31.86927209 2.59691444 -29.91218839 2.2867717 -27.96264648 1.93603516 C-18.62041234 0.2922448 -9.45727876 -0.00266256 0 0 Z " fill="#FDCA08" transform="translate(1349.75,33.5625)"/>
<path d="M0 0 C33 0 66 0 100 0 C104.50381679 11.25954198 104.50381679 11.25954198 106.33203125 16.94921875 C106.73413818 18.19687012 107.13624512 19.44452148 107.55053711 20.72998047 C107.97134449 22.04910482 108.3919951 23.36827919 108.8125 24.6875 C109.25841512 26.07702734 109.70446189 27.46651244 110.15063477 28.85595703 C112.65461054 36.67374598 115.0837147 44.51054555 117.4375 52.375 C121.19104307 64.9131871 125.37899843 77.30595184 129.546875 89.7109375 C129.76336197 90.35630463 129.97984894 91.00167175 130.20289612 91.66659546 C131.12228039 94.4044084 132.04830488 97.1393629 132.99414062 99.86816406 C135 105.69079333 135 105.69079333 135 109 C135.66 109 136.32 109 137 109 C137.11730469 108.32324219 137.23460937 107.64648438 137.35546875 106.94921875 C138.11469455 103.47518555 139.18374561 100.18478478 140.3125 96.8125 C140.92544922 94.96591797 140.92544922 94.96591797 141.55078125 93.08203125 C142.54834555 90.18916557 143.65829193 87.36405976 144.82421875 84.53515625 C147.72906404 77.35417058 150.0778428 69.97874171 152.5 62.625 C152.9775794 61.18219724 153.45544249 59.73948835 153.93359375 58.296875 C154.86020461 55.50008006 155.78527207 52.70278284 156.70898438 49.9050293 C158.18750792 45.42900669 159.67848229 40.95716571 161.171875 36.48608398 C161.95387302 34.13847614 162.72824588 31.78849172 163.5 29.4375 C164.92212762 25.16338819 166.47180184 20.9394408 168.0234375 16.7109375 C169.17413695 13.51659584 170.24497002 10.30085748 171.2890625 7.0703125 C172.10883223 4.68307097 173.06258282 2.34354295 174 0 C208.65 0 243.3 0 279 0 C279 5.61 279 11.22 279 17 C274.6875 20.6875 274.6875 20.6875 272.203125 21.90234375 C269.733347 22.9272986 269.733347 22.9272986 267.9375 25.75 C265.58833939 33.89375679 267.28938493 42.800343 268.375 51.0625 C268.56449219 52.59874023 268.56449219 52.59874023 268.7578125 54.16601562 C269.32492967 58.60370745 269.9694497 62.95173308 270.9699707 67.31323242 C271.98217255 71.77474199 272.70165856 76.23626591 273.33203125 80.765625 C273.44888779 81.58527237 273.56574432 82.40491974 273.68614197 83.24940491 C274.06517409 85.91577701 274.43896416 88.58285285 274.8125 91.25 C275.07631148 93.11485378 275.34031147 94.97968091 275.60449219 96.84448242 C277.58014845 110.83177784 279.49064065 124.82794604 281.35083008 138.83105469 C282.46996693 147.23691079 283.68125965 155.62285268 285 164 C285.33414407 166.16654178 285.66747039 168.33320984 286 170.5 C286.165 171.5725 286.33 172.645 286.5 173.75 C288 183.5 288 183.5 288.49975586 186.76171875 C288.82855323 188.89015622 289.16254749 191.01779858 289.50219727 193.14453125 C290.43306043 199.02233193 291.25957496 204.90344772 291.96484375 210.8125 C292.04497711 211.48168457 292.12511047 212.15086914 292.20767212 212.84033203 C292.5343175 215.58023957 292.85933654 218.32027575 293.17456055 221.06152344 C294.361237 239.10650925 294.361237 239.10650925 303 254 C304.65 254.99 306.3 255.98 308 257 C308 262.61 308 268.22 308 274 C274.67 274 241.34 274 207 274 C207 268.06 207 262.12 207 256 C208.546875 255.505 210.09375 255.01 211.6875 254.5 C216.38182634 252.60895223 218.65044899 250.67029751 221.2578125 246.390625 C223.10989769 240.42496113 221.82922308 234.03341693 220.6484375 228.0390625 C219.5774048 222.29677112 218.59593387 216.5590153 217.7890625 210.7734375 C217.69421066 210.09472092 217.59935883 209.41600433 217.50163269 208.71672058 C217.30788919 207.32207222 217.1149609 205.92731038 216.92282104 204.53244019 C214.88303772 189.7560817 212.60075236 175.03248397 210.1875 160.3125 C209.04988966 153.36206777 207.9876648 146.40158692 206.9375 139.4375 C205.60835373 130.64191458 204.08906218 121.90109066 202.43603516 113.16113281 C200.96260068 105.19432394 199.90711206 97.18970905 198.95092773 89.14575195 C198.83950439 88.2249585 198.72808105 87.30416504 198.61328125 86.35546875 C198.51829346 85.53715576 198.42330566 84.71884277 198.32543945 83.87573242 C198.1840673 81.99212686 198.1840673 81.99212686 197 81 C190.53588831 99.96120161 190.53588831 99.96120161 184.82421875 119.15625 C183.73930726 122.89945171 182.37241241 126.51077954 181 130.15625 C179.85754398 133.40510931 178.92317677 136.68233349 178 140 C176.81962417 144.24197564 175.55126668 148.37944789 174 152.5 C172.05886253 157.67384889 170.5553471 162.92178796 169.0703125 168.2421875 C166.75067362 176.38632109 164.20527093 184.47589132 161.5 192.5 C159.23308825 199.30073525 157.13821542 206.15771064 155 213 C137.18 213 119.36 213 101 213 C97.20867451 202.8897987 93.5845711 192.90709027 90.375 182.625 C88.15134437 175.510857 85.86269939 168.51866696 83.02246094 161.62695312 C80.89357988 156.15733513 79.20323179 150.5324579 77.4375 144.9375 C76.66578493 142.50898097 75.89365856 140.08059259 75.12109375 137.65234375 C74.75556396 136.50258057 74.39003418 135.35281738 74.01342773 134.16821289 C71.65533761 126.79626985 69.13555417 119.48678878 66.5625 112.1875 C64.20502197 105.48850932 61.90136871 98.78034185 59.7265625 92.01953125 C59.17314691 90.03115258 59.17314691 90.03115258 58 89 C57.91976089 89.5558075 57.83952179 90.11161499 57.7568512 90.68426514 C53.28160491 121.67171481 48.7314967 152.64624331 44.05883789 183.60449219 C43.69927065 185.98891558 43.33981157 188.37335528 42.98046875 190.7578125 C42.80937088 191.89263062 42.63827301 193.02744873 42.46199036 194.19665527 C41.24506265 202.29637741 40.06997857 210.40145512 38.94120789 218.51394653 C38.39961774 222.37368112 37.7687893 226.17813024 37 230 C36.83422128 232.47581006 36.73496939 234.95660002 36.6875 237.4375 C36.65011719 238.71496094 36.61273437 239.99242187 36.57421875 241.30859375 C37.15403384 246.33543102 39.28745301 249.28745301 42.8125 252.8125 C45.62506831 254.50359095 45.62506831 254.50359095 52 255 C52 261.27 52 267.54 52 274 C23.29 274 -5.42 274 -35 274 C-35 267.4 -35 260.8 -35 254 C-32.6796875 253.01 -32.6796875 253.01 -30.3125 252 C-23.92488996 248.76108474 -21.41946918 245.17414682 -19.14453125 238.484375 C-16.11770049 227.48330484 -14.82973799 215.95219162 -13.25 204.671875 C-13.12431641 203.77718506 -12.99863281 202.88249512 -12.86914062 201.96069336 C-12.63447161 200.27719148 -12.40357132 198.59315668 -12.17773438 196.90844727 C-11.46191386 191.72136483 -10.55686811 186.58629786 -9.56640625 181.4453125 C-7.91796267 172.85455339 -6.65792534 164.22280749 -5.4375 155.5625 C-3.09449498 138.94004996 -3.09449498 138.94004996 -1.46704102 132.10668945 C-0.49407377 127.71791038 0.09127747 123.25711768 0.75 118.8125 C1.09817532 116.50769408 1.44718687 114.20301438 1.796875 111.8984375 C1.98701172 110.64385742 2.17714844 109.38927734 2.37304688 108.09667969 C3.55058623 100.372078 4.77854092 92.65525238 6 84.9375 C6.12849335 84.12546112 6.25698669 83.31342224 6.38937378 82.47677612 C7.02248001 78.47677057 7.65622308 74.47686652 8.29052734 70.47705078 C8.74247337 67.62663737 9.1934394 64.77607309 9.64306641 61.92529297 C10.19790717 58.40826707 10.75485513 54.8915822 11.3125 51.375 C11.47169922 50.36300537 11.63089844 49.35101074 11.79492188 48.30834961 C11.94123047 47.38932861 12.08753906 46.47030762 12.23828125 45.5234375 C12.36243408 44.73888184 12.48658691 43.95432617 12.61450195 43.14599609 C13 41 13 41 13.54150391 38.87841797 C14.13075245 36.46431875 14.09514261 34.23083822 14.0625 31.75 C14.05347656 30.85796875 14.04445313 29.9659375 14.03515625 29.046875 C14.02355469 28.37140625 14.01195312 27.6959375 14 27 C12.60922699 26.17886823 11.21211107 25.36847505 9.8125 24.5625 C9.03519531 24.11003906 8.25789063 23.65757813 7.45703125 23.19140625 C4.68159001 21.71846308 4.68159001 21.71846308 0 21 C0 14.07 0 7.14 0 0 Z " fill="#FDCA08" transform="translate(1546,42)"/>
<path d="M0 0 C19.36922997 -0.11755599 38.7383861 -0.20533792 58.10790062 -0.25906086 C67.10444543 -0.28468445 76.10076677 -0.31952577 85.09716797 -0.37719727 C92.95167705 -0.42752402 100.80602407 -0.45940561 108.66068995 -0.47044247 C112.80774394 -0.47687929 116.95433491 -0.49166208 121.10123825 -0.52865028 C146.47197679 -0.74593404 173.37514856 -0.26843437 196.3125 12 C197.39881714 12.57995728 197.39881714 12.57995728 198.50708008 13.17163086 C214.82012311 22.21728589 226.53041511 35.61549087 232.109375 53.5703125 C235.87959403 70.0383447 234.31828546 86.60040471 231 103 C230.81824219 103.94101563 230.63648438 104.88203125 230.44921875 105.8515625 C227.0701946 119.59752469 217.94489962 131.3297415 208 141 C207.236875 141.74894531 206.47375 142.49789062 205.6875 143.26953125 C188.62117555 159.20825926 163.95317996 169.76656018 142.10546875 177.234375 C138.19470422 178.57358034 134.30853052 179.97225897 130.42578125 181.390625 C115.12078107 186.96709405 99.81075088 192.05848314 84 196 C83.96537084 202.38696958 83.98557524 208.77213311 84.04272461 215.15893555 C84.05581077 217.32849253 84.05664797 219.49816118 84.04467773 221.66772461 C84.02957803 224.79911562 84.05948628 227.92745214 84.09765625 231.05859375 C84.08340103 232.01833603 84.06914581 232.97807831 84.05445862 233.96690369 C84.19272672 240.49493688 85.88736502 244.17795495 90.01219177 249.22059631 C92.25588812 251.43348484 92.25588812 251.43348484 97 253 C97 259.93 97 266.86 97 274 C64.66 274 32.32 274 -1 274 C-1 267.4 -1 260.8 -1 254 C1.44140625 252.95833333 3.8828125 251.91666667 6.32421875 250.875 C10.44290134 247.98891585 13.3596792 243.89868504 14.45899284 238.92217326 C14.63103032 236.69894346 14.65293903 234.52528347 14.61473083 232.29574585 C14.62325572 231.03615049 14.62325572 231.03615049 14.63195282 229.75110877 C14.64480167 226.95644175 14.62211431 224.16323879 14.59936523 221.36865234 C14.60123032 219.35752561 14.60526916 217.34639989 14.61131287 215.33528137 C14.62127402 209.88697982 14.60013988 204.43919985 14.57283282 198.99097395 C14.54897439 193.28562917 14.55194756 187.58029423 14.55152893 181.87490845 C14.54690352 172.29672433 14.52327783 162.71873923 14.48706055 153.140625 C14.44530484 142.06836077 14.42774412 130.99627565 14.4244408 119.9239372 C14.42084076 108.13098703 14.4019674 96.33810123 14.37732053 84.54517794 C14.37109379 81.14845917 14.36745632 77.7517453 14.36428642 74.35502243 C14.35838336 69.01815287 14.34206317 63.68141109 14.31768227 58.34459496 C14.31024579 56.38624878 14.30617056 54.42788653 14.30570221 52.46952629 C14.30444313 49.79631498 14.290887 47.12343975 14.27415466 44.45028687 C14.27656975 43.67557647 14.27898483 42.90086608 14.2814731 42.10267961 C14.23845011 37.71178641 13.89525285 33.99208301 12 30 C10.17958415 28.65456726 10.17958415 28.65456726 8 28 C4.8646318 26.7095811 2.34464774 25.49562885 0 23 C-0.99950831 19.02846888 -0.75814973 15.25087599 -0.5 11.1875 C-0.46390625 10.11306641 -0.4278125 9.03863281 -0.390625 7.93164062 C-0.29649065 5.28411207 -0.16518356 2.64388994 0 0 Z " fill="#FDCA08" transform="translate(655,42)"/>
<path d="M0 0 C24.09 0 48.18 0 73 0 C74.98 5.28 76.96 10.56 79 16 C81.31088274 21.73112167 81.31088274 21.73112167 83.625 27.4609375 C85.27010246 31.69520691 86.67584282 35.98298395 88.0703125 40.3046875 C89.1822741 43.52844172 90.56672799 46.56575724 92 49.65625 C93.58982777 53.38240883 94.7548572 57.24158946 96 61.09375 C96.87914561 63.64876694 97.86441841 66.05140219 99 68.5 C100.594248 71.93759726 101.83443663 75.39403832 103 79 C104.38934843 83.28651686 105.98396716 87.32117596 107.87109375 91.40625 C110.24065862 96.85050977 112.20361823 102.46693704 114.26513672 108.03369141 C115.31605109 110.84567293 116.40875377 113.64096223 117.5 116.4375 C119.43857588 121.44548769 121.23610771 126.49137965 123 131.5625 C125.07088021 137.50499719 127.31577201 143.32636312 129.78515625 149.1171875 C132.99015836 156.72262659 135.82551859 164.46592442 138.5625 172.25 C140.19087493 176.86033653 141.98327433 181.29317907 144.03515625 185.7265625 C145.60701191 189.43028717 146.7633341 193.26781486 148 197.09375 C149.13875593 200.40325942 150.54132354 203.5138456 152.015625 206.68359375 C153.11442952 209.26927264 153.92589041 211.87691482 154.75 214.5625 C158.67628365 226.58674369 165.20190986 243.07337409 176.171875 250.00390625 C179.05420719 251.46198744 182.02234715 252.74803232 185 254 C185 260.6 185 267.2 185 274 C150.35 274 115.7 274 80 274 C80 267.4 80 260.8 80 254 C82.64 252.68 85.28 251.36 88 250 C90.9283427 246.06503949 91.58980732 242.32837283 91.4140625 237.52734375 C90.75685447 233.51589471 89.14907806 230.04664815 87.48828125 226.35546875 C85.86632548 222.69861834 84.44812816 219.00092452 83.0625 215.25 C82.81306641 214.5794458 82.56363281 213.9088916 82.30664062 213.21801758 C81.795248 211.84258723 81.28467561 210.46685166 80.77490234 209.09082031 C79.48109581 205.59990691 78.1787436 202.11221185 76.875 198.625 C76.19050781 196.78808594 76.19050781 196.78808594 75.4921875 194.9140625 C73.7159415 190.25490414 71.85185113 185.62962784 70 181 C41.62 180.67 13.24 180.34 -16 180 C-16.99 183.63 -17.98 187.26 -19 191 C-19.69790305 192.83319055 -20.43852245 194.65167794 -21.25 196.4375 C-23.99159387 202.77381212 -26.23698152 209.24600901 -28.46801758 215.77490234 C-29.96360702 220.12984059 -31.54209009 224.36168016 -33.4375 228.5625 C-36.00880504 234.82451444 -35.97344272 241.13090567 -33.8125 247.5 C-30.8106883 251.64042993 -27.89277745 252.77680564 -23 254 C-23 260.6 -23 267.2 -23 274 C-50.72 274 -78.44 274 -107 274 C-107 267.4 -107 260.8 -107 254 C-105.02 253.01 -103.04 252.02 -101 251 C-87.39437324 242.43805043 -83.79293792 228.50585218 -78.74609375 213.9921875 C-76.64485406 207.95843231 -74.47787352 201.94847504 -72.3125 195.9375 C-71.9319043 194.87893799 -71.55130859 193.82037598 -71.15917969 192.72973633 C-68.29752991 184.78456112 -65.38037947 176.88197616 -62.1875 169.0625 C-59.75340842 163.03338406 -57.52362019 156.95207504 -55.38476562 150.81274414 C-53.0451348 144.09827294 -50.61820111 137.41737117 -48.17895508 130.73852539 C-46.32315417 125.65210967 -44.48236035 120.56089449 -42.6640625 115.4609375 C-42.07588745 113.81448242 -42.07588745 113.81448242 -41.47583008 112.13476562 C-40.72569677 110.03281812 -39.97795632 107.93001437 -39.2331543 105.82617188 C-37.04796345 99.71106842 -34.65333272 93.72229634 -32.12670898 87.74072266 C-30.70500267 84.28241819 -29.51771011 80.81028047 -28.375 77.25 C-26.04468743 70.02446707 -23.39265243 62.96976636 -20.6027832 55.91235352 C-16.72263113 46.07367418 -13.19645582 36.1313523 -9.74169922 26.13671875 C-6.69062504 17.3470541 -3.3407532 8.68595832 0 0 Z " fill="#FDCA08" transform="translate(437,42)"/>
<path d="M0 0 C4.19748161 3.60375888 8.31295247 7.28358459 12.375 11.0390625 C13.03371094 11.62042969 13.69242188 12.20179687 14.37109375 12.80078125 C16.0625 14.3515625 16.0625 14.3515625 18.375 17.0390625 C18.07266115 20.26187452 16.82566823 21.98659641 14.63671875 24.2890625 C14.06961182 24.89161865 13.50250488 25.4941748 12.91821289 26.11499023 C12.30582764 26.74993408 11.69344238 27.38487793 11.0625 28.0390625 C10.43529053 28.70043213 9.80808105 29.36180176 9.16186523 30.04321289 C4.66197944 34.76562363 0.0655352 39.38739429 -4.57543945 43.97070312 C-7.78512224 47.15286046 -10.77404743 50.44614827 -13.6953125 53.890625 C-16.85531821 57.40884998 -20.24548404 60.69956552 -23.62695312 64.00390625 C-26.48609006 66.74531992 -26.48609006 66.74531992 -28.625 70.0390625 C-32.53116175 70.62083127 -34.59598419 70.63863351 -38.05859375 68.62109375 C-44.08691753 64.09743958 -44.08691753 64.09743958 -45.5703125 61.1796875 C-45.625 59.0390625 -45.625 59.0390625 -44.21484375 56.2734375 C-42.36852653 52.51729337 -42.12577166 49.38468876 -42.1875 45.2890625 C-42.19507324 44.58458984 -42.20264648 43.88011719 -42.21044922 43.15429688 C-42.50683934 33.71308154 -46.07277758 25.82529286 -52.625 19.0390625 C-67.57018486 6.42906277 -88.03194237 5.5689698 -106.625 7.0390625 C-122.17631701 9.42415992 -137.33819028 18.45052347 -147.01025391 30.80908203 C-157.51766448 45.15623771 -166.49665006 63.94172082 -166.625 82.0390625 C-166.65134521 83.01963623 -166.65134521 83.01963623 -166.67822266 84.02001953 C-167.14975383 101.6200166 -165.56847043 117.40792714 -159.625 134.0390625 C-159.39433838 134.68818604 -159.16367676 135.33730957 -158.92602539 136.00610352 C-149.83178641 161.01602034 -133.02401897 183.04790194 -108.81396484 194.92773438 C-95.11478365 201.2465045 -81.33944414 203.5589407 -66.37084961 203.37524414 C-64.29567235 203.3513689 -62.22176719 203.35475384 -60.14648438 203.36132812 C-43.33908564 203.32735536 -27.35526209 199.75173431 -14.625 188.0390625 C-13.52920609 186.39409449 -12.46493979 184.7275682 -11.4375 183.0390625 C-9.5503125 181.0590625 -9.5503125 181.0590625 -7.625 179.0390625 C-2.345 179.0390625 2.935 179.0390625 8.375 179.0390625 C8.375 201.4790625 8.375 223.9190625 8.375 247.0390625 C-15.32930632 247.15938893 -15.32930632 247.15938893 -25.59570312 247.18554688 C-32.54442394 247.20333691 -39.4930239 247.22415705 -46.44165039 247.26538086 C-52.05679694 247.29847719 -57.67181353 247.31601896 -63.28705025 247.32369423 C-65.40717166 247.32914914 -67.52728767 247.33979407 -69.64735222 247.35625267 C-120.406973 247.73388814 -163.53820709 233.46047265 -200.625 198.0390625 C-217.18934399 181.25819113 -230.05211232 159.56289098 -236.625 137.0390625 C-236.82399902 136.39855957 -237.02299805 135.75805664 -237.22802734 135.09814453 C-243.24653409 115.29770095 -242.80771511 91.9966953 -237.625 72.0390625 C-237.45871094 71.38373535 -237.29242187 70.7284082 -237.12109375 70.05322266 C-234.33491966 59.34967051 -229.91600041 49.72145654 -224.625 40.0390625 C-224.13128906 39.12511719 -223.63757813 38.21117188 -223.12890625 37.26953125 C-212.55570861 18.72899489 -197.257254 3.82410433 -179.625 -7.9609375 C-179.05894043 -8.33976074 -178.49288086 -8.71858398 -177.90966797 -9.10888672 C-123.15478732 -45.25321503 -50.52889063 -41.71957746 0 0 Z " fill="#FCC909" transform="translate(1160.625,68.9609375)"/>
<path d="M0 0 C2.36940085 0.01072568 4.73804382 0.00004328 7.10742188 -0.01269531 C19.23169023 -0.02552774 30.47669915 1.37344578 42.12304688 4.88574219 C43.40103149 5.27052734 43.40103149 5.27052734 44.70483398 5.66308594 C52.45959156 8.10502807 59.54803636 11.43385959 66.66552734 15.33203125 C68.20036078 16.16681912 69.75632035 16.96248252 71.31445312 17.75292969 C82.29769348 23.41241598 92.16647499 30.81470804 101.18554688 39.22558594 C103.17788284 41.07916993 105.21848664 42.83421712 107.31054688 44.57324219 C111.91271558 48.522621 111.91271558 48.522621 113.37304688 51.26074219 C112.93426937 54.55786573 111.82929876 56.15979096 109.45898438 58.43261719 C108.86657959 59.01019775 108.2741748 59.58777832 107.66381836 60.18286133 C107.03161377 60.78606201 106.39940918 61.3892627 105.74804688 62.01074219 C104.45323613 63.27317862 103.16024424 64.53748344 101.86914062 65.80371094 C101.25409668 66.40618652 100.63905273 67.00866211 100.00537109 67.62939453 C98.17926219 69.45441093 96.47271654 71.34809402 94.81054688 73.32324219 C91.17616285 77.62346757 87.14847914 81.51107561 83.14819336 85.46606445 C80.11360607 88.47950172 77.17031039 91.52180549 74.37304688 94.76074219 C73.84582031 95.36917969 73.31859375 95.97761719 72.77539062 96.60449219 C71.47541476 98.13983973 70.20415589 99.69937724 68.93554688 101.26074219 C66.12207278 103.45662441 64.16444259 104.09310684 60.57617188 103.90136719 C56.10873854 102.60232629 52.76152178 99.33546941 49.37304688 96.26074219 C49.82097476 93.64782951 50.31959142 91.38040951 51.40429688 88.95214844 C53.94483906 81.89394858 53.49699583 72.73032375 51.20507812 65.65527344 C45.66952751 54.1999566 36.82872478 47.78789309 25.22070312 43.12011719 C5.81757268 37.26457713 -14.30883326 39.00122191 -32.43945312 47.88574219 C-51.53076773 59.24203251 -63.33585187 78.65641293 -68.84960938 99.74121094 C-75.57921691 130.21043901 -71.01103575 161.15692627 -55.62695312 188.26074219 C-55.07265625 189.24300781 -54.51835938 190.22527344 -53.94726562 191.23730469 C-41.23783222 212.33861278 -21.67714693 228.33172807 2.28808594 234.7734375 C11.55784384 236.93999918 20.61850935 237.64881403 30.12304688 237.63574219 C31.35007324 237.63413086 32.57709961 237.63251953 33.84130859 237.63085938 C43.28764235 237.50356039 51.4579681 236.40596463 60.37304688 233.26074219 C61.32953125 232.94878906 62.28601563 232.63683594 63.27148438 232.31542969 C73.75569595 228.56881955 81.25722749 221.43447126 87.37304688 212.26074219 C92.65304687 212.26074219 97.93304688 212.26074219 103.37304688 212.26074219 C103.37304688 234.70074219 103.37304688 257.14074219 103.37304688 280.26074219 C79.63754482 280.300851 79.63754482 280.300851 69.41601562 280.30957031 C62.47769391 280.31551728 55.53938556 280.32250511 48.60107422 280.33618164 C42.99893931 280.34715356 37.39681876 280.35304891 31.79467392 280.35561943 C29.67157643 280.35744817 27.54847961 280.36101835 25.42538834 280.36647224 C-9.7525722 280.45313512 -9.7525722 280.45313512 -22.12695312 277.57324219 C-22.90554687 277.39881592 -23.68414062 277.22438965 -24.48632812 277.04467773 C-65.58723961 267.45308398 -100.91338589 243.11378607 -124.25195312 207.94824219 C-137.28312122 186.82241908 -146.06590914 164.23286704 -145.93945312 139.19824219 C-145.93453857 138.02938477 -145.92962402 136.86052734 -145.92456055 135.65625 C-145.49400236 103.35776231 -134.12615229 72.72294209 -111.62695312 49.26074219 C-110.66092912 48.07949004 -109.70190023 46.8924614 -108.75195312 45.69824219 C-104.64780313 40.88375854 -99.59395516 37.13774509 -94.62695312 33.26074219 C-93.23283203 32.143125 -93.23283203 32.143125 -91.81054688 31.00292969 C-75.78199783 18.48539615 -58.10466912 10.82224112 -38.62695312 5.26074219 C-37.69238281 4.98359375 -36.7578125 4.70644531 -35.79492188 4.42089844 C-23.83670747 0.98227026 -12.37637194 -0.06653963 0 0 Z " fill="#FDCA08" transform="translate(176.626953125,34.7392578125)"/>
<path d="M0 0 C0.9787207 -0.00547852 1.95744141 -0.01095703 2.96582031 -0.01660156 C8.71966843 0.04025077 13.67051591 0.67738946 19.1875 2.3125 C19.93257812 2.51230469 20.67765625 2.71210937 21.4453125 2.91796875 C43.20635172 9.70122156 59.50429768 24.30125845 70.1875 44.3125 C79.32021174 62.99975775 81.64496986 83.72635615 81.1875 104.3125 C81.17493164 105.12041992 81.16236328 105.92833984 81.14941406 106.76074219 C80.65293952 134.45186332 73.95409897 159.31907671 54.625 180.0625 C53.820625 180.805 53.01625 181.5475 52.1875 182.3125 C51.51074219 182.97958984 51.51074219 182.97958984 50.8203125 183.66015625 C35.80444588 197.66749452 16.11694091 202.09926197 -3.9140625 201.76611328 C-24.86154779 200.98320476 -43.29281264 194.58432257 -58.0625 179.125 C-64.45578681 171.53046932 -69.08064703 162.45704053 -72.8125 153.3125 C-73.06926514 152.69761719 -73.32603027 152.08273438 -73.59057617 151.44921875 C-75.71442395 146.13993314 -76.88624564 140.79699329 -77.9375 135.1875 C-78.10636719 134.31996094 -78.27523438 133.45242187 -78.44921875 132.55859375 C-78.9157506 130.14511798 -79.37420711 127.73126402 -79.8125 125.3125 C-80.08163208 123.91572021 -80.08163208 123.91572021 -80.35620117 122.49072266 C-81.18325831 116.73008606 -80.9984247 110.91169944 -80.99780273 105.10253906 C-80.99996708 102.84680669 -81.01809003 100.59158213 -81.03710938 98.3359375 C-81.07323314 89.16024988 -80.4351239 80.37111419 -78.8125 71.3125 C-78.67175049 70.51295898 -78.53100098 69.71341797 -78.38598633 68.88964844 C-74.24469477 47.01630737 -64.13646423 25.99588923 -45.53515625 12.91796875 C-38.93032547 8.68490836 -32.33529175 5.5119603 -24.8125 3.3125 C-23.89984375 3.01472656 -22.9871875 2.71695313 -22.046875 2.41015625 C-14.68253884 0.31845344 -7.62403791 0.03135479 0 0 Z " fill="#0D4DA1" transform="translate(1349.8125,77.6875)"/>
<path d="M0 0 C6.83675056 6.38903415 10.00053778 14.14552887 10.42578125 23.38671875 C10.63566783 32.17061454 10.54191944 39.44599145 6.1875 47.3125 C5.82527344 48.05371094 5.46304688 48.79492188 5.08984375 49.55859375 C-7.48737432 74.1587796 -32.42506408 89.06249127 -55.875 101.75 C-56.48214844 102.0802417 -57.08929687 102.4104834 -57.71484375 102.75073242 C-61.41453852 104.71413988 -64.7707527 105.9652509 -68.8125 107.3125 C-68.8125 68.7025 -68.8125 30.0925 -68.8125 -9.6875 C-48.11732963 -16.58589012 -17.10115042 -13.97392192 0 0 Z " fill="#0E4EA0" transform="translate(807.8125,92.6875)"/>
<path d="M0 0 C12.27607863 7.13294129 19.58156659 17.4912051 24.29296875 30.71875 C26.93003857 42.35288157 26.92956545 56.91595399 21.15625 67.52734375 C20.73214844 68.37039062 20.30804687 69.2134375 19.87109375 70.08203125 C13.2357664 82.2437176 3.03469739 90.27712345 -9.90625 94.90234375 C-23.42866275 98.69307901 -37.12808522 97.39183983 -49.69140625 91.1015625 C-54.38237443 88.42791789 -58.25523527 85.6007929 -61.84375 81.52734375 C-62.39675781 80.95371094 -62.94976563 80.38007812 -63.51953125 79.7890625 C-73.42320762 69.20676162 -77.47895567 56.38837925 -77.1328125 42.0234375 C-75.81187298 26.04720958 -68.3589846 13.65708352 -56.30859375 3.31640625 C-52.15004799 0.29800061 -47.63448306 -1.66826336 -42.84375 -3.47265625 C-41.96332031 -3.83875 -41.08289062 -4.20484375 -40.17578125 -4.58203125 C-26.97857854 -8.10953678 -11.9519874 -6.18942204 0 0 Z M-56.28125 15.27734375 C-65.38823359 25.01289924 -68.40030386 35.82645667 -68.1484375 48.9375 C-67.16880027 60.4796361 -61.83580187 70.25922246 -53.16015625 77.88671875 C-42.42421224 86.04663181 -32.20217617 88.33926644 -18.84375 87.52734375 C-10.39897113 86.29013824 -3.62278813 82.64112493 3.15625 77.52734375 C3.15625 77.19734375 3.15625 76.86734375 3.15625 76.52734375 C2.455 76.58277344 1.75375 76.63820313 1.03125 76.6953125 C-3.60992327 76.72684221 -6.68878231 76.63132815 -10.14453125 73.328125 C-12.80583449 69.62297077 -15.18937169 65.94347513 -17.10546875 61.796875 C-18.4887861 59.05205918 -19.38728301 57.4036857 -21.84375 55.52734375 C-27.49716904 54.72934623 -32.01498274 55.09735272 -37.84375 55.52734375 C-38.17375 62.12734375 -38.50375 68.72734375 -38.84375 75.52734375 C-45.27875 76.02234375 -45.27875 76.02234375 -51.84375 76.52734375 C-51.84375 55.73734375 -51.84375 34.94734375 -51.84375 13.52734375 C-43.18125 13.68203125 -43.18125 13.68203125 -34.34375 13.83984375 C-32.53712891 13.86473877 -30.73050781 13.88963379 -28.86914062 13.9152832 C-27.41273521 13.94761439 -25.95635254 13.98099386 -24.5 14.015625 C-23.76362305 14.0218689 -23.02724609 14.02811279 -22.26855469 14.0345459 C-15.79067783 14.21150777 -10.32540321 15.60970264 -5.09375 19.65234375 C-1.41311506 24.35537729 0.75306485 29.06343452 1.71875 34.96484375 C0.50070046 42.67915752 -3.236681 48.23125505 -8.84375 53.52734375 C-6.55872139 56.67804837 -4.2646344 59.82204309 -1.96875 62.96484375 C-1.31777344 63.86267578 -0.66679688 64.76050781 0.00390625 65.68554688 C0.94169922 66.96655273 0.94169922 66.96655273 1.8984375 68.2734375 C2.76251221 69.45957642 2.76251221 69.45957642 3.64404297 70.66967773 C5.03444787 72.63782825 5.03444787 72.63782825 7.15625 73.52734375 C15.46097238 60.41179513 19.01289477 48.74086503 15.8984375 33.25390625 C13.19204812 23.31148633 5.64220394 14.19345628 -2.90625 8.58984375 C-4.20240876 7.87201023 -5.51479178 7.182464 -6.84375 6.52734375 C-7.43285156 6.22183594 -8.02195312 5.91632812 -8.62890625 5.6015625 C-24.87573034 -1.67673874 -43.80741913 3.48929556 -56.28125 15.27734375 Z M-37.84375 28.52734375 C-37.84375 32.81734375 -37.84375 37.10734375 -37.84375 41.52734375 C-34.25961348 41.63522746 -30.67871852 41.7146068 -27.09375 41.77734375 C-26.07796875 41.81085937 -25.0621875 41.844375 -24.015625 41.87890625 C-18.25813481 42.04575956 -18.25813481 42.04575956 -13.1328125 39.7734375 C-10.95501277 35.97878646 -11.8826395 33.71503951 -12.84375 29.52734375 C-15.40098229 28.2487276 -17.21112102 28.41397766 -20.0703125 28.4296875 C-21.6171875 28.43452148 -21.6171875 28.43452148 -23.1953125 28.43945312 C-24.27554687 28.44783203 -25.35578125 28.45621094 -26.46875 28.46484375 C-27.55671875 28.46935547 -28.6446875 28.47386719 -29.765625 28.47851562 C-32.45835662 28.49032585 -35.15106009 28.5082617 -37.84375 28.52734375 Z " fill="#0C4DA2" transform="translate(1974.84375,5.47265625)"/>
<path d="M0 0 C2 1 2 1 2.91650391 3.29638672 C3.22507324 4.28912598 3.53364258 5.28186523 3.8515625 6.3046875 C5.21408614 10.56871847 6.61869636 14.80067828 8.1484375 19.0078125 C8.69250244 20.50465576 8.69250244 20.50465576 9.24755859 22.03173828 C9.80564209 23.56290283 9.80564209 23.56290283 10.375 25.125 C13.39943319 33.46117958 16.34408063 41.81221356 19.06005859 50.25439453 C20.47857316 54.62061004 22.15931632 58.79621049 24 63 C24.74790394 64.88851999 25.47875568 66.78393767 26.1875 68.6875 C26.53167969 69.59886719 26.87585938 70.51023437 27.23046875 71.44921875 C28 74 28 74 28 78 C10.18 78 -7.64 78 -26 78 C-25.30352649 74.51763243 -24.56861143 71.4332175 -23.48120117 68.09301758 C-23.17385544 67.1446553 -22.8665097 66.19629303 -22.54985046 65.2191925 C-22.2175795 64.20455429 -21.88530853 63.18991608 -21.54296875 62.14453125 C-21.19873367 61.08771652 -20.8544986 60.03090179 -20.49983215 58.94206238 C-19.7707612 56.7065971 -19.04023152 54.47160711 -18.30834961 52.23706055 C-17.19773133 48.84376006 -16.09367563 45.44837448 -14.99023438 42.05273438 C-14.27904367 39.87487004 -13.56746733 37.6971316 -12.85546875 35.51953125 C-12.52927048 34.51501419 -12.2030722 33.51049713 -11.86698914 32.47554016 C-10.05079363 26.9483187 -8.08033671 21.53027879 -5.85961914 16.15216064 C-4.65404552 13.13386104 -3.72307199 10.05574449 -2.8125 6.9375 C-1.1039604 1.1039604 -1.1039604 1.1039604 0 0 Z " fill="#114F9E" transform="translate(462,101)"/>
<path d="M0 0 C0.66 0.33 1.32 0.66 2 1 C-4.6 7.6 -11.2 14.2 -18 21 C-18 16.83991091 -16.29799047 15.76711021 -13.5 12.75 C-13.05092285 12.26490967 -12.6018457 11.77981934 -12.13916016 11.2800293 C-8.33434418 7.22707315 -4.29902875 3.51847883 0 0 Z " fill="#DCB91C" transform="translate(79,70)"/>
<path d="M0 0 C0.66 0 1.32 0 2 0 C1.67 0.99 1.34 1.98 1 3 C0.85507877 4.40664926 0.75371069 5.8181133 0.68359375 7.23046875 C0.64169922 8.03291016 0.59980469 8.83535156 0.55664062 9.66210938 C0.51732422 10.49548828 0.47800781 11.32886719 0.4375 12.1875 C0.39431641 13.03248047 0.35113281 13.87746094 0.30664062 14.74804688 C0.20068482 16.83184433 0.0998498 18.91590103 0 21 C-0.33 21 -0.66 21 -1 21 C-1.02888146 17.68751813 -1.04675799 14.37506833 -1.0625 11.0625 C-1.07087891 10.11697266 -1.07925781 9.17144531 -1.08789062 8.19726562 C-1.09111328 7.29814453 -1.09433594 6.39902344 -1.09765625 5.47265625 C-1.10289307 4.64000244 -1.10812988 3.80734863 -1.11352539 2.94946289 C-1 1 -1 1 0 0 Z " fill="#D0B224" transform="translate(331,295)"/>
</svg>
